%TF.GenerationSoftware,Altium Limited,Altium Designer,24.9.1 (31)*%
G04 Layer_Color=128*
%FSLAX45Y45*%
%MOMM*%
%TF.SameCoordinates,E868E159-F76C-425E-9157-6F4710699125*%
%TF.FilePolarity,Positive*%
%TF.FileFunction,Paste,Bot*%
%TF.Part,Single*%
G01*
G75*
%TA.AperFunction,SMDPad,CuDef*%
G04:AMPARAMS|DCode=12|XSize=0.76mm|YSize=0.6604mm|CornerRadius=0.08255mm|HoleSize=0mm|Usage=FLASHONLY|Rotation=270.000|XOffset=0mm|YOffset=0mm|HoleType=Round|Shape=RoundedRectangle|*
%AMROUNDEDRECTD12*
21,1,0.76000,0.49530,0,0,270.0*
21,1,0.59490,0.66040,0,0,270.0*
1,1,0.16510,-0.24765,-0.29745*
1,1,0.16510,-0.24765,0.29745*
1,1,0.16510,0.24765,0.29745*
1,1,0.16510,0.24765,-0.29745*
%
%ADD12ROUNDEDRECTD12*%
G04:AMPARAMS|DCode=20|XSize=0.76mm|YSize=0.6604mm|CornerRadius=0.08255mm|HoleSize=0mm|Usage=FLASHONLY|Rotation=180.000|XOffset=0mm|YOffset=0mm|HoleType=Round|Shape=RoundedRectangle|*
%AMROUNDEDRECTD20*
21,1,0.76000,0.49530,0,0,180.0*
21,1,0.59490,0.66040,0,0,180.0*
1,1,0.16510,-0.29745,0.24765*
1,1,0.16510,0.29745,0.24765*
1,1,0.16510,0.29745,-0.24765*
1,1,0.16510,-0.29745,-0.24765*
%
%ADD20ROUNDEDRECTD20*%
%ADD59R,1.33000X1.57000*%
%ADD60R,0.62684X1.68435*%
G04:AMPARAMS|DCode=61|XSize=1.68435mm|YSize=0.62684mm|CornerRadius=0.31342mm|HoleSize=0mm|Usage=FLASHONLY|Rotation=270.000|XOffset=0mm|YOffset=0mm|HoleType=Round|Shape=RoundedRectangle|*
%AMROUNDEDRECTD61*
21,1,1.68435,0.00000,0,0,270.0*
21,1,1.05751,0.62684,0,0,270.0*
1,1,0.62684,0.00000,-0.52875*
1,1,0.62684,0.00000,0.52875*
1,1,0.62684,0.00000,0.52875*
1,1,0.62684,0.00000,-0.52875*
%
%ADD61ROUNDEDRECTD61*%
%ADD62R,0.80000X0.40000*%
G04:AMPARAMS|DCode=63|XSize=0.9mm|YSize=0.93mm|CornerRadius=0.09mm|HoleSize=0mm|Usage=FLASHONLY|Rotation=90.000|XOffset=0mm|YOffset=0mm|HoleType=Round|Shape=RoundedRectangle|*
%AMROUNDEDRECTD63*
21,1,0.90000,0.75000,0,0,90.0*
21,1,0.72000,0.93000,0,0,90.0*
1,1,0.18000,0.37500,0.36000*
1,1,0.18000,0.37500,-0.36000*
1,1,0.18000,-0.37500,-0.36000*
1,1,0.18000,-0.37500,0.36000*
%
%ADD63ROUNDEDRECTD63*%
G04:AMPARAMS|DCode=64|XSize=1.05mm|YSize=0.78mm|CornerRadius=0.078mm|HoleSize=0mm|Usage=FLASHONLY|Rotation=90.000|XOffset=0mm|YOffset=0mm|HoleType=Round|Shape=RoundedRectangle|*
%AMROUNDEDRECTD64*
21,1,1.05000,0.62400,0,0,90.0*
21,1,0.89400,0.78000,0,0,90.0*
1,1,0.15600,0.31200,0.44700*
1,1,0.15600,0.31200,-0.44700*
1,1,0.15600,-0.31200,-0.44700*
1,1,0.15600,-0.31200,0.44700*
%
%ADD64ROUNDEDRECTD64*%
G04:AMPARAMS|DCode=65|XSize=1.04mm|YSize=1.83mm|CornerRadius=0.104mm|HoleSize=0mm|Usage=FLASHONLY|Rotation=90.000|XOffset=0mm|YOffset=0mm|HoleType=Round|Shape=RoundedRectangle|*
%AMROUNDEDRECTD65*
21,1,1.04000,1.62200,0,0,90.0*
21,1,0.83200,1.83000,0,0,90.0*
1,1,0.20800,0.81100,0.41600*
1,1,0.20800,0.81100,-0.41600*
1,1,0.20800,-0.81100,-0.41600*
1,1,0.20800,-0.81100,0.41600*
%
%ADD65ROUNDEDRECTD65*%
G04:AMPARAMS|DCode=66|XSize=0.7mm|YSize=3.3mm|CornerRadius=0.0875mm|HoleSize=0mm|Usage=FLASHONLY|Rotation=90.000|XOffset=0mm|YOffset=0mm|HoleType=Round|Shape=RoundedRectangle|*
%AMROUNDEDRECTD66*
21,1,0.70000,3.12500,0,0,90.0*
21,1,0.52500,3.30000,0,0,90.0*
1,1,0.17500,1.56250,0.26250*
1,1,0.17500,1.56250,-0.26250*
1,1,0.17500,-1.56250,-0.26250*
1,1,0.17500,-1.56250,0.26250*
%
%ADD66ROUNDEDRECTD66*%
G04:AMPARAMS|DCode=67|XSize=0.7mm|YSize=3.3mm|CornerRadius=0.07mm|HoleSize=0mm|Usage=FLASHONLY|Rotation=90.000|XOffset=0mm|YOffset=0mm|HoleType=Round|Shape=RoundedRectangle|*
%AMROUNDEDRECTD67*
21,1,0.70000,3.16000,0,0,90.0*
21,1,0.56000,3.30000,0,0,90.0*
1,1,0.14000,1.58000,0.28000*
1,1,0.14000,1.58000,-0.28000*
1,1,0.14000,-1.58000,-0.28000*
1,1,0.14000,-1.58000,0.28000*
%
%ADD67ROUNDEDRECTD67*%
G04:AMPARAMS|DCode=68|XSize=0.86mm|YSize=2.8mm|CornerRadius=0.086mm|HoleSize=0mm|Usage=FLASHONLY|Rotation=90.000|XOffset=0mm|YOffset=0mm|HoleType=Round|Shape=RoundedRectangle|*
%AMROUNDEDRECTD68*
21,1,0.86000,2.62800,0,0,90.0*
21,1,0.68800,2.80000,0,0,90.0*
1,1,0.17200,1.31400,0.34400*
1,1,0.17200,1.31400,-0.34400*
1,1,0.17200,-1.31400,-0.34400*
1,1,0.17200,-1.31400,0.34400*
%
%ADD68ROUNDEDRECTD68*%
G04:AMPARAMS|DCode=69|XSize=0.7mm|YSize=1.1mm|CornerRadius=0.07mm|HoleSize=0mm|Usage=FLASHONLY|Rotation=90.000|XOffset=0mm|YOffset=0mm|HoleType=Round|Shape=RoundedRectangle|*
%AMROUNDEDRECTD69*
21,1,0.70000,0.96000,0,0,90.0*
21,1,0.56000,1.10000,0,0,90.0*
1,1,0.14000,0.48000,0.28000*
1,1,0.14000,0.48000,-0.28000*
1,1,0.14000,-0.48000,-0.28000*
1,1,0.14000,-0.48000,0.28000*
%
%ADD69ROUNDEDRECTD69*%
D12*
X3968600Y-4444400D02*
D03*
X4108600D02*
D03*
X4857900Y-4940901D02*
D03*
X4717900D02*
D03*
X4210200Y-5143500D02*
D03*
X4070200D02*
D03*
X140000Y-290100D02*
D03*
X0D02*
D03*
X140000Y-165100D02*
D03*
X0D02*
D03*
X241300Y-1485900D02*
D03*
X101300D02*
D03*
Y-1371600D02*
D03*
X241300D02*
D03*
X457200Y-508000D02*
D03*
X317200D02*
D03*
X317500Y-393699D02*
D03*
X457500D02*
D03*
X5324700Y-492200D02*
D03*
X5184700D02*
D03*
Y-606500D02*
D03*
X5324700D02*
D03*
X-2292200Y-4584700D02*
D03*
X-2432200D02*
D03*
X-2292200Y-4711700D02*
D03*
X-2432200D02*
D03*
X-2343000Y-1701800D02*
D03*
X-2483000D02*
D03*
X-2343000Y-1828800D02*
D03*
X-2483000D02*
D03*
X-2292200Y-4254500D02*
D03*
X-2432200D02*
D03*
X-2292200Y-4406900D02*
D03*
X-2432200D02*
D03*
X-2292200Y-3949700D02*
D03*
X-2432200D02*
D03*
X-2292200Y-4102099D02*
D03*
X-2432200D02*
D03*
D20*
X3937000Y-4812700D02*
D03*
Y-4952700D02*
D03*
X4064000Y-4812700D02*
D03*
Y-4952700D02*
D03*
X3797300Y-4806800D02*
D03*
Y-4946800D02*
D03*
X4432300Y-4699300D02*
D03*
Y-4559300D02*
D03*
Y-4940600D02*
D03*
Y-4800600D02*
D03*
X4584700Y-4699600D02*
D03*
Y-4559600D02*
D03*
X4711700Y-4559900D02*
D03*
Y-4419900D02*
D03*
X4584700Y-4800600D02*
D03*
Y-4940600D02*
D03*
X6121399Y-584200D02*
D03*
Y-444200D02*
D03*
X5969000Y-584500D02*
D03*
Y-444500D02*
D03*
X5905500Y-1790400D02*
D03*
Y-1930400D02*
D03*
X5600700Y-1790400D02*
D03*
Y-1930400D02*
D03*
X5905500Y-2362500D02*
D03*
Y-2222500D02*
D03*
X5753100Y-1930100D02*
D03*
Y-1790100D02*
D03*
Y-2489200D02*
D03*
Y-2629200D02*
D03*
X5905500Y-2489200D02*
D03*
Y-2629200D02*
D03*
D59*
X3559100Y-4508500D02*
D03*
X3756100D02*
D03*
X4371900Y-5118100D02*
D03*
X4568900Y-5118100D02*
D03*
D60*
X6114280Y-3858260D02*
D03*
D61*
X6304280D02*
D03*
X6209280Y-4064286D02*
D03*
D62*
X3969200Y-4557199D02*
D03*
Y-4687199D02*
D03*
X4184200D02*
D03*
Y-4622200D02*
D03*
Y-4557199D02*
D03*
D63*
X7394500Y-1933000D02*
D03*
D64*
X7402000Y-2359500D02*
D03*
D65*
X6149500Y-1729000D02*
D03*
D66*
X7276000Y-1702000D02*
D03*
D67*
Y-2998000D02*
D03*
D68*
X6198000Y-2990000D02*
D03*
D69*
X6148000Y-2112000D02*
D03*
Y-2222000D02*
D03*
Y-2332000D02*
D03*
Y-2442000D02*
D03*
Y-2552000D02*
D03*
Y-2662000D02*
D03*
Y-2772000D02*
D03*
Y-2882000D02*
D03*
%TF.MD5,a21343fd5ffe287a6e86fd366b5d3237*%
M02*
