%TF.GenerationSoftware,Altium Limited,Altium Designer,24.9.1 (31)*%
G04 Layer_Color=8421504*
%FSLAX45Y45*%
%MOMM*%
%TF.SameCoordinates,E868E159-F76C-425E-9157-6F4710699125*%
%TF.FilePolarity,Positive*%
%TF.FileFunction,Paste,Top*%
%TF.Part,Single*%
G01*
G75*
%TA.AperFunction,SMDPad,CuDef*%
%ADD10R,2.10000X1.40000*%
G04:AMPARAMS|DCode=12|XSize=0.76mm|YSize=0.6604mm|CornerRadius=0.08255mm|HoleSize=0mm|Usage=FLASHONLY|Rotation=270.000|XOffset=0mm|YOffset=0mm|HoleType=Round|Shape=RoundedRectangle|*
%AMROUNDEDRECTD12*
21,1,0.76000,0.49530,0,0,270.0*
21,1,0.59490,0.66040,0,0,270.0*
1,1,0.16510,-0.24765,-0.29745*
1,1,0.16510,-0.24765,0.29745*
1,1,0.16510,0.24765,0.29745*
1,1,0.16510,0.24765,-0.29745*
%
%ADD12ROUNDEDRECTD12*%
%ADD13R,0.60000X1.10000*%
%ADD14R,1.60000X0.50000*%
%ADD15R,2.65000X2.65000*%
%ADD16O,0.20000X0.85000*%
%ADD17O,0.85000X0.20000*%
%ADD18R,1.20000X1.20000*%
%ADD19R,1.50000X1.60000*%
G04:AMPARAMS|DCode=20|XSize=0.76mm|YSize=0.6604mm|CornerRadius=0.08255mm|HoleSize=0mm|Usage=FLASHONLY|Rotation=180.000|XOffset=0mm|YOffset=0mm|HoleType=Round|Shape=RoundedRectangle|*
%AMROUNDEDRECTD20*
21,1,0.76000,0.49530,0,0,180.0*
21,1,0.59490,0.66040,0,0,180.0*
1,1,0.16510,-0.29745,0.24765*
1,1,0.16510,0.29745,0.24765*
1,1,0.16510,0.29745,-0.24765*
1,1,0.16510,-0.29745,-0.24765*
%
%ADD20ROUNDEDRECTD20*%
%ADD21R,0.80000X0.90000*%
%ADD22R,0.60000X0.30000*%
%ADD23R,0.72000X0.30000*%
%ADD24R,1.00000X1.00000*%
%ADD25R,0.80000X0.80000*%
%ADD28O,0.25000X0.95000*%
%ADD29O,0.95000X0.25000*%
%ADD30C,1.57480*%
%ADD31R,1.57480X1.57480*%
%TA.AperFunction,ConnectorPad*%
%ADD32O,1.45000X1.05000*%
%ADD33O,1.80000X1.10000*%
%TA.AperFunction,SMDPad,CuDef*%
G04:AMPARAMS|DCode=34|XSize=1.5mm|YSize=1.5mm|CornerRadius=0.3mm|HoleSize=0mm|Usage=FLASHONLY|Rotation=270.000|XOffset=0mm|YOffset=0mm|HoleType=Round|Shape=RoundedRectangle|*
%AMROUNDEDRECTD34*
21,1,1.50000,0.90000,0,0,270.0*
21,1,0.90000,1.50000,0,0,270.0*
1,1,0.60000,-0.45000,-0.45000*
1,1,0.60000,-0.45000,0.45000*
1,1,0.60000,0.45000,0.45000*
1,1,0.60000,0.45000,-0.45000*
%
%ADD34ROUNDEDRECTD34*%
%TA.AperFunction,NonConductor*%
%ADD117R,0.70000X0.23000*%
%ADD118R,0.70000X0.23000*%
G36*
X7392999Y-1271000D02*
X7393230Y-1510745D01*
X7393230Y-1515988D01*
X7391863Y-1526386D01*
X7389149Y-1536516D01*
X7385136Y-1546205D01*
X7379893Y-1555287D01*
X7373509Y-1563607D01*
X7366093Y-1571022D01*
X7357772Y-1577405D01*
X7348690Y-1582648D01*
X7339000Y-1586660D01*
X7328870Y-1589372D01*
X7318472Y-1590739D01*
X7313229Y-1590737D01*
X7307986Y-1590738D01*
X7297589Y-1589370D01*
X7287460Y-1586656D01*
X7277771Y-1582644D01*
X7268690Y-1577401D01*
X7260370Y-1571018D01*
X7252955Y-1563603D01*
X7246571Y-1555284D01*
X7241328Y-1546202D01*
X7237315Y-1536514D01*
X7234601Y-1526385D01*
X7233233Y-1515988D01*
X7233234Y-1510745D01*
X7233233Y-1510745D01*
X7232998Y-1270999D01*
X7392999Y-1271000D01*
D02*
G37*
G36*
X7138999D02*
X7139230Y-1510745D01*
X7139230Y-1515988D01*
X7137863Y-1526386D01*
X7135149Y-1536516D01*
X7131136Y-1546205D01*
X7125893Y-1555287D01*
X7119509Y-1563607D01*
X7112093Y-1571022D01*
X7103772Y-1577405D01*
X7094690Y-1582648D01*
X7085000Y-1586660D01*
X7074870Y-1589372D01*
X7064472Y-1590739D01*
X7059229Y-1590737D01*
X7053986Y-1590738D01*
X7043589Y-1589370D01*
X7033460Y-1586656D01*
X7023771Y-1582644D01*
X7014690Y-1577401D01*
X7006370Y-1571018D01*
X6998955Y-1563603D01*
X6992571Y-1555284D01*
X6987328Y-1546202D01*
X6983315Y-1536514D01*
X6980601Y-1526385D01*
X6979233Y-1515988D01*
X6979234Y-1510745D01*
X6979233Y-1510745D01*
X6978998Y-1270999D01*
X7138999Y-1271000D01*
D02*
G37*
G36*
X6884999D02*
X6885230Y-1510745D01*
X6885230Y-1515988D01*
X6883863Y-1526386D01*
X6881149Y-1536516D01*
X6877136Y-1546205D01*
X6871893Y-1555287D01*
X6865509Y-1563607D01*
X6858093Y-1571022D01*
X6849772Y-1577405D01*
X6840690Y-1582648D01*
X6831000Y-1586660D01*
X6820870Y-1589372D01*
X6810472Y-1590739D01*
X6805229Y-1590737D01*
X6799986Y-1590738D01*
X6789589Y-1589370D01*
X6779460Y-1586656D01*
X6769771Y-1582644D01*
X6760690Y-1577401D01*
X6752370Y-1571018D01*
X6744955Y-1563603D01*
X6738571Y-1555284D01*
X6733328Y-1546202D01*
X6729315Y-1536514D01*
X6726601Y-1526385D01*
X6725233Y-1515988D01*
X6725234Y-1510745D01*
X6725233Y-1510745D01*
X6724998Y-1270999D01*
X6884999Y-1271000D01*
D02*
G37*
G36*
X6630999D02*
X6631230Y-1510745D01*
X6631230Y-1515988D01*
X6629863Y-1526386D01*
X6627149Y-1536516D01*
X6623136Y-1546205D01*
X6617893Y-1555287D01*
X6611509Y-1563607D01*
X6604093Y-1571022D01*
X6595772Y-1577405D01*
X6586690Y-1582648D01*
X6577000Y-1586660D01*
X6566870Y-1589372D01*
X6556472Y-1590739D01*
X6551229Y-1590737D01*
X6545986Y-1590738D01*
X6535589Y-1589370D01*
X6525460Y-1586656D01*
X6515771Y-1582644D01*
X6506690Y-1577401D01*
X6498370Y-1571018D01*
X6490955Y-1563603D01*
X6484571Y-1555284D01*
X6479328Y-1546202D01*
X6475315Y-1536514D01*
X6472601Y-1526385D01*
X6471233Y-1515988D01*
X6471234Y-1510745D01*
X6471233Y-1510745D01*
X6470998Y-1270999D01*
X6630999Y-1271000D01*
D02*
G37*
G36*
X6376999D02*
X6377230Y-1510745D01*
X6377230Y-1515988D01*
X6375863Y-1526386D01*
X6373149Y-1536516D01*
X6369136Y-1546205D01*
X6363893Y-1555287D01*
X6357509Y-1563607D01*
X6350093Y-1571022D01*
X6341772Y-1577405D01*
X6332690Y-1582648D01*
X6323000Y-1586660D01*
X6312870Y-1589372D01*
X6302472Y-1590739D01*
X6297229Y-1590737D01*
X6291986Y-1590738D01*
X6281589Y-1589370D01*
X6271460Y-1586656D01*
X6261771Y-1582644D01*
X6252690Y-1577401D01*
X6244370Y-1571018D01*
X6236955Y-1563603D01*
X6230571Y-1555284D01*
X6225328Y-1546202D01*
X6221315Y-1536514D01*
X6218601Y-1526385D01*
X6217233Y-1515988D01*
X6217234Y-1510745D01*
X6217233Y-1510745D01*
X6216998Y-1270999D01*
X6376999Y-1271000D01*
D02*
G37*
G36*
X6122999D02*
X6123230Y-1510745D01*
X6123230Y-1515988D01*
X6121863Y-1526386D01*
X6119149Y-1536516D01*
X6115136Y-1546205D01*
X6109893Y-1555287D01*
X6103509Y-1563607D01*
X6096093Y-1571022D01*
X6087772Y-1577405D01*
X6078690Y-1582648D01*
X6069000Y-1586660D01*
X6058870Y-1589372D01*
X6048472Y-1590739D01*
X6043229Y-1590737D01*
X6037986Y-1590738D01*
X6027589Y-1589370D01*
X6017460Y-1586656D01*
X6007771Y-1582644D01*
X5998690Y-1577401D01*
X5990370Y-1571018D01*
X5982955Y-1563603D01*
X5976571Y-1555284D01*
X5971328Y-1546202D01*
X5967315Y-1536514D01*
X5964601Y-1526385D01*
X5963233Y-1515988D01*
X5963234Y-1510745D01*
X5963233Y-1510745D01*
X5962998Y-1270999D01*
X6122999Y-1271000D01*
D02*
G37*
G36*
X5868999D02*
X5869230Y-1510745D01*
X5869230Y-1515988D01*
X5867863Y-1526386D01*
X5865149Y-1536516D01*
X5861136Y-1546205D01*
X5855893Y-1555287D01*
X5849509Y-1563607D01*
X5842093Y-1571022D01*
X5833772Y-1577405D01*
X5824690Y-1582648D01*
X5815000Y-1586660D01*
X5804870Y-1589372D01*
X5794472Y-1590739D01*
X5789229Y-1590737D01*
X5783986Y-1590738D01*
X5773589Y-1589370D01*
X5763460Y-1586656D01*
X5753771Y-1582644D01*
X5744690Y-1577401D01*
X5736370Y-1571018D01*
X5728955Y-1563603D01*
X5722571Y-1555284D01*
X5717328Y-1546202D01*
X5713315Y-1536514D01*
X5710601Y-1526385D01*
X5709233Y-1515988D01*
X5709234Y-1510745D01*
X5709233Y-1510745D01*
X5708998Y-1270999D01*
X5868999Y-1271000D01*
D02*
G37*
G36*
X5614999D02*
X5615230Y-1510745D01*
X5615230Y-1515988D01*
X5613863Y-1526386D01*
X5611149Y-1536516D01*
X5607136Y-1546205D01*
X5601893Y-1555287D01*
X5595509Y-1563607D01*
X5588093Y-1571022D01*
X5579772Y-1577405D01*
X5570690Y-1582648D01*
X5561000Y-1586660D01*
X5550870Y-1589372D01*
X5540472Y-1590739D01*
X5535229Y-1590737D01*
X5529986Y-1590738D01*
X5519589Y-1589370D01*
X5509460Y-1586656D01*
X5499771Y-1582644D01*
X5490690Y-1577401D01*
X5482370Y-1571018D01*
X5474955Y-1563603D01*
X5468571Y-1555284D01*
X5463328Y-1546202D01*
X5459315Y-1536514D01*
X5456601Y-1526385D01*
X5455233Y-1515988D01*
X5455234Y-1510745D01*
X5455233Y-1510745D01*
X5454998Y-1270999D01*
X5614999Y-1271000D01*
D02*
G37*
G36*
X5360999D02*
X5361230Y-1510745D01*
X5361230Y-1515988D01*
X5359863Y-1526386D01*
X5357149Y-1536516D01*
X5353136Y-1546205D01*
X5347893Y-1555287D01*
X5341509Y-1563607D01*
X5334093Y-1571022D01*
X5325772Y-1577405D01*
X5316690Y-1582648D01*
X5307000Y-1586660D01*
X5296870Y-1589372D01*
X5286472Y-1590739D01*
X5281229Y-1590737D01*
X5275986Y-1590738D01*
X5265589Y-1589370D01*
X5255460Y-1586656D01*
X5245771Y-1582644D01*
X5236690Y-1577401D01*
X5228370Y-1571018D01*
X5220955Y-1563603D01*
X5214571Y-1555284D01*
X5209328Y-1546202D01*
X5205315Y-1536514D01*
X5202601Y-1526385D01*
X5201233Y-1515988D01*
X5201234Y-1510745D01*
X5201233Y-1510745D01*
X5200998Y-1270999D01*
X5360999Y-1271000D01*
D02*
G37*
G36*
X5106999D02*
X5107230Y-1510745D01*
X5107230Y-1515988D01*
X5105863Y-1526386D01*
X5103149Y-1536516D01*
X5099136Y-1546205D01*
X5093893Y-1555287D01*
X5087509Y-1563607D01*
X5080093Y-1571022D01*
X5071772Y-1577405D01*
X5062690Y-1582648D01*
X5053000Y-1586660D01*
X5042870Y-1589372D01*
X5032472Y-1590739D01*
X5027229Y-1590737D01*
X5021986Y-1590738D01*
X5011589Y-1589370D01*
X5001460Y-1586656D01*
X4991771Y-1582644D01*
X4982690Y-1577401D01*
X4974370Y-1571018D01*
X4966955Y-1563603D01*
X4960571Y-1555284D01*
X4955328Y-1546202D01*
X4951315Y-1536514D01*
X4948601Y-1526385D01*
X4947233Y-1515988D01*
X4947234Y-1510745D01*
X4947233Y-1510745D01*
X4946998Y-1270999D01*
X5106999Y-1271000D01*
D02*
G37*
G36*
X4852999D02*
X4853230Y-1510745D01*
X4853230Y-1515988D01*
X4851863Y-1526386D01*
X4849149Y-1536516D01*
X4845136Y-1546205D01*
X4839893Y-1555287D01*
X4833509Y-1563607D01*
X4826093Y-1571022D01*
X4817772Y-1577405D01*
X4808690Y-1582648D01*
X4799000Y-1586660D01*
X4788870Y-1589372D01*
X4778472Y-1590739D01*
X4773229Y-1590737D01*
X4767986Y-1590738D01*
X4757589Y-1589370D01*
X4747460Y-1586656D01*
X4737771Y-1582644D01*
X4728690Y-1577401D01*
X4720370Y-1571018D01*
X4712955Y-1563603D01*
X4706571Y-1555284D01*
X4701328Y-1546202D01*
X4697315Y-1536514D01*
X4694601Y-1526385D01*
X4693233Y-1515988D01*
X4693234Y-1510745D01*
X4693233Y-1510745D01*
X4692998Y-1270999D01*
X4852999Y-1271000D01*
D02*
G37*
G36*
X4598999D02*
X4599230Y-1510745D01*
X4599230Y-1515988D01*
X4597863Y-1526386D01*
X4595149Y-1536516D01*
X4591136Y-1546205D01*
X4585893Y-1555287D01*
X4579509Y-1563607D01*
X4572093Y-1571022D01*
X4563772Y-1577405D01*
X4554690Y-1582648D01*
X4545000Y-1586660D01*
X4534870Y-1589372D01*
X4524472Y-1590739D01*
X4519229Y-1590737D01*
X4513986Y-1590738D01*
X4503589Y-1589370D01*
X4493460Y-1586656D01*
X4483771Y-1582644D01*
X4474690Y-1577401D01*
X4466370Y-1571018D01*
X4458955Y-1563603D01*
X4452571Y-1555284D01*
X4447328Y-1546202D01*
X4443315Y-1536514D01*
X4440601Y-1526385D01*
X4439233Y-1515988D01*
X4439234Y-1510745D01*
X4439233Y-1510745D01*
X4438998Y-1270999D01*
X4598999Y-1271000D01*
D02*
G37*
G36*
X4344999D02*
X4345230Y-1510745D01*
X4345230Y-1515988D01*
X4343863Y-1526386D01*
X4341149Y-1536516D01*
X4337136Y-1546205D01*
X4331893Y-1555287D01*
X4325509Y-1563607D01*
X4318093Y-1571022D01*
X4309772Y-1577405D01*
X4300690Y-1582648D01*
X4291000Y-1586660D01*
X4280870Y-1589372D01*
X4270472Y-1590739D01*
X4265229Y-1590737D01*
X4259986Y-1590738D01*
X4249589Y-1589370D01*
X4239460Y-1586656D01*
X4229771Y-1582644D01*
X4220690Y-1577401D01*
X4212370Y-1571018D01*
X4204955Y-1563603D01*
X4198571Y-1555284D01*
X4193328Y-1546202D01*
X4189315Y-1536514D01*
X4186601Y-1526385D01*
X4185233Y-1515988D01*
X4185234Y-1510745D01*
X4185233Y-1510745D01*
X4184998Y-1270999D01*
X4344999Y-1271000D01*
D02*
G37*
G36*
X4090999D02*
X4091230Y-1510745D01*
X4091230Y-1515988D01*
X4089863Y-1526386D01*
X4087149Y-1536516D01*
X4083136Y-1546205D01*
X4077893Y-1555287D01*
X4071509Y-1563607D01*
X4064093Y-1571022D01*
X4055772Y-1577405D01*
X4046690Y-1582648D01*
X4037000Y-1586660D01*
X4026870Y-1589372D01*
X4016472Y-1590739D01*
X4011229Y-1590737D01*
X4005986Y-1590738D01*
X3995589Y-1589370D01*
X3985460Y-1586656D01*
X3975771Y-1582644D01*
X3966690Y-1577401D01*
X3958370Y-1571018D01*
X3950955Y-1563603D01*
X3944571Y-1555284D01*
X3939328Y-1546202D01*
X3935315Y-1536514D01*
X3932601Y-1526385D01*
X3931233Y-1515988D01*
X3931234Y-1510745D01*
X3931233Y-1510745D01*
X3930998Y-1270999D01*
X4090999Y-1271000D01*
D02*
G37*
G36*
X3836999D02*
X3837230Y-1510745D01*
X3837230Y-1515988D01*
X3835863Y-1526386D01*
X3833149Y-1536516D01*
X3829136Y-1546205D01*
X3823893Y-1555287D01*
X3817509Y-1563607D01*
X3810093Y-1571022D01*
X3801772Y-1577405D01*
X3792690Y-1582648D01*
X3783000Y-1586660D01*
X3772870Y-1589372D01*
X3762472Y-1590739D01*
X3757229Y-1590737D01*
X3751986Y-1590738D01*
X3741589Y-1589370D01*
X3731460Y-1586656D01*
X3721771Y-1582644D01*
X3712690Y-1577401D01*
X3704370Y-1571018D01*
X3696955Y-1563603D01*
X3690571Y-1555284D01*
X3685328Y-1546202D01*
X3681315Y-1536514D01*
X3678601Y-1526385D01*
X3677233Y-1515988D01*
X3677234Y-1510745D01*
X3677233Y-1510745D01*
X3676998Y-1270999D01*
X3836999Y-1271000D01*
D02*
G37*
G36*
X3582999D02*
X3583230Y-1510745D01*
X3583230Y-1515988D01*
X3581863Y-1526386D01*
X3579149Y-1536516D01*
X3575136Y-1546205D01*
X3569893Y-1555287D01*
X3563509Y-1563607D01*
X3556093Y-1571022D01*
X3547772Y-1577405D01*
X3538690Y-1582648D01*
X3529000Y-1586660D01*
X3518870Y-1589372D01*
X3508472Y-1590739D01*
X3503229Y-1590737D01*
X3497986Y-1590738D01*
X3487589Y-1589370D01*
X3477460Y-1586656D01*
X3467771Y-1582644D01*
X3458690Y-1577401D01*
X3450370Y-1571018D01*
X3442955Y-1563603D01*
X3436571Y-1555284D01*
X3431328Y-1546202D01*
X3427315Y-1536514D01*
X3424601Y-1526385D01*
X3423233Y-1515988D01*
X3423234Y-1510745D01*
X3423233Y-1510745D01*
X3422998Y-1270999D01*
X3582999Y-1271000D01*
D02*
G37*
G36*
X3328999D02*
X3329230Y-1510745D01*
X3329230Y-1515988D01*
X3327863Y-1526386D01*
X3325149Y-1536516D01*
X3321136Y-1546205D01*
X3315893Y-1555287D01*
X3309509Y-1563607D01*
X3302093Y-1571022D01*
X3293772Y-1577405D01*
X3284690Y-1582648D01*
X3275000Y-1586660D01*
X3264870Y-1589372D01*
X3254472Y-1590739D01*
X3249229Y-1590737D01*
X3243986Y-1590738D01*
X3233589Y-1589370D01*
X3223460Y-1586656D01*
X3213771Y-1582644D01*
X3204690Y-1577401D01*
X3196370Y-1571018D01*
X3188955Y-1563603D01*
X3182571Y-1555284D01*
X3177328Y-1546202D01*
X3173315Y-1536514D01*
X3170601Y-1526385D01*
X3169233Y-1515988D01*
X3169234Y-1510745D01*
X3169233Y-1510745D01*
X3168998Y-1270999D01*
X3328999Y-1271000D01*
D02*
G37*
G36*
X3074999D02*
X3075230Y-1510745D01*
X3075230Y-1515988D01*
X3073863Y-1526386D01*
X3071149Y-1536516D01*
X3067136Y-1546205D01*
X3061893Y-1555287D01*
X3055509Y-1563607D01*
X3048093Y-1571022D01*
X3039772Y-1577405D01*
X3030690Y-1582648D01*
X3021000Y-1586660D01*
X3010870Y-1589372D01*
X3000472Y-1590739D01*
X2995229Y-1590737D01*
X2989986Y-1590738D01*
X2979589Y-1589370D01*
X2969460Y-1586656D01*
X2959771Y-1582644D01*
X2950690Y-1577401D01*
X2942370Y-1571018D01*
X2934955Y-1563603D01*
X2928571Y-1555284D01*
X2923328Y-1546202D01*
X2919315Y-1536514D01*
X2916601Y-1526385D01*
X2915233Y-1515988D01*
X2915234Y-1510745D01*
X2915233Y-1510745D01*
X2914998Y-1270999D01*
X3074999Y-1271000D01*
D02*
G37*
G36*
X2820999D02*
X2821230Y-1510745D01*
X2821230Y-1515988D01*
X2819863Y-1526386D01*
X2817149Y-1536516D01*
X2813136Y-1546205D01*
X2807893Y-1555287D01*
X2801509Y-1563607D01*
X2794093Y-1571022D01*
X2785772Y-1577405D01*
X2776690Y-1582648D01*
X2767000Y-1586660D01*
X2756870Y-1589372D01*
X2746472Y-1590739D01*
X2741229Y-1590737D01*
X2735986Y-1590738D01*
X2725589Y-1589370D01*
X2715460Y-1586656D01*
X2705771Y-1582644D01*
X2696690Y-1577401D01*
X2688370Y-1571018D01*
X2680955Y-1563603D01*
X2674571Y-1555284D01*
X2669328Y-1546202D01*
X2665315Y-1536514D01*
X2662601Y-1526385D01*
X2661233Y-1515988D01*
X2661234Y-1510745D01*
X2661233Y-1510745D01*
X2660998Y-1270999D01*
X2820999Y-1271000D01*
D02*
G37*
G36*
X2566999D02*
X2567230Y-1510745D01*
X2567230Y-1515988D01*
X2565863Y-1526386D01*
X2563149Y-1536516D01*
X2559136Y-1546205D01*
X2553893Y-1555287D01*
X2547509Y-1563607D01*
X2540093Y-1571022D01*
X2531772Y-1577405D01*
X2522690Y-1582648D01*
X2513000Y-1586660D01*
X2502870Y-1589372D01*
X2492472Y-1590739D01*
X2487229Y-1590737D01*
X2481986Y-1590738D01*
X2471589Y-1589370D01*
X2461460Y-1586656D01*
X2451771Y-1582644D01*
X2442690Y-1577401D01*
X2434370Y-1571018D01*
X2426955Y-1563603D01*
X2420571Y-1555284D01*
X2415328Y-1546202D01*
X2411315Y-1536514D01*
X2408601Y-1526385D01*
X2407233Y-1515988D01*
X2407234Y-1510745D01*
X2407233Y-1510745D01*
X2406998Y-1270999D01*
X2566999Y-1271000D01*
D02*
G37*
G36*
X7313238Y-3208758D02*
X7318481Y-3208758D01*
X7328878Y-3210126D01*
X7339007Y-3212839D01*
X7348696Y-3216852D01*
X7357778Y-3222094D01*
X7366097Y-3228478D01*
X7373512Y-3235893D01*
X7379896Y-3244212D01*
X7385139Y-3253293D01*
X7389152Y-3262982D01*
X7391866Y-3273111D01*
X7393234Y-3283508D01*
X7393233Y-3288751D01*
X7393234Y-3288751D01*
X7393469Y-3528497D01*
X7233468Y-3528495D01*
X7233238Y-3288751D01*
X7233237Y-3283508D01*
X7234604Y-3273110D01*
X7237318Y-3262980D01*
X7241331Y-3253291D01*
X7246574Y-3244209D01*
X7252958Y-3235889D01*
X7260374Y-3228474D01*
X7268695Y-3222090D01*
X7277777Y-3216848D01*
X7287467Y-3212836D01*
X7297597Y-3210124D01*
X7307995Y-3208757D01*
X7313238Y-3208758D01*
D02*
G37*
G36*
X7059238D02*
X7064481Y-3208758D01*
X7074878Y-3210126D01*
X7085007Y-3212839D01*
X7094696Y-3216852D01*
X7103778Y-3222094D01*
X7112097Y-3228478D01*
X7119512Y-3235893D01*
X7125896Y-3244212D01*
X7131139Y-3253293D01*
X7135152Y-3262982D01*
X7137866Y-3273111D01*
X7139234Y-3283508D01*
X7139233Y-3288751D01*
X7139234Y-3288751D01*
X7139469Y-3528497D01*
X6979468Y-3528495D01*
X6979238Y-3288751D01*
X6979237Y-3283508D01*
X6980604Y-3273110D01*
X6983318Y-3262980D01*
X6987331Y-3253291D01*
X6992574Y-3244209D01*
X6998958Y-3235889D01*
X7006374Y-3228474D01*
X7014695Y-3222090D01*
X7023777Y-3216848D01*
X7033467Y-3212836D01*
X7043597Y-3210124D01*
X7053995Y-3208757D01*
X7059238Y-3208758D01*
D02*
G37*
G36*
X6805238D02*
X6810481Y-3208758D01*
X6820878Y-3210126D01*
X6831007Y-3212839D01*
X6840696Y-3216852D01*
X6849778Y-3222094D01*
X6858097Y-3228478D01*
X6865512Y-3235893D01*
X6871896Y-3244212D01*
X6877139Y-3253293D01*
X6881152Y-3262982D01*
X6883866Y-3273111D01*
X6885234Y-3283508D01*
X6885233Y-3288751D01*
X6885234Y-3288751D01*
X6885469Y-3528497D01*
X6725468Y-3528495D01*
X6725238Y-3288751D01*
X6725237Y-3283508D01*
X6726604Y-3273110D01*
X6729318Y-3262980D01*
X6733331Y-3253291D01*
X6738574Y-3244209D01*
X6744958Y-3235889D01*
X6752374Y-3228474D01*
X6760695Y-3222090D01*
X6769777Y-3216848D01*
X6779467Y-3212836D01*
X6789597Y-3210124D01*
X6799995Y-3208757D01*
X6805238Y-3208758D01*
D02*
G37*
G36*
X6551238D02*
X6556481Y-3208758D01*
X6566878Y-3210126D01*
X6577007Y-3212839D01*
X6586696Y-3216852D01*
X6595778Y-3222094D01*
X6604097Y-3228478D01*
X6611512Y-3235893D01*
X6617896Y-3244212D01*
X6623139Y-3253293D01*
X6627152Y-3262982D01*
X6629866Y-3273111D01*
X6631234Y-3283508D01*
X6631233Y-3288751D01*
X6631234Y-3288751D01*
X6631469Y-3528497D01*
X6471468Y-3528495D01*
X6471238Y-3288751D01*
X6471237Y-3283508D01*
X6472604Y-3273110D01*
X6475318Y-3262980D01*
X6479331Y-3253291D01*
X6484574Y-3244209D01*
X6490958Y-3235889D01*
X6498374Y-3228474D01*
X6506695Y-3222090D01*
X6515777Y-3216848D01*
X6525467Y-3212836D01*
X6535597Y-3210124D01*
X6545995Y-3208757D01*
X6551238Y-3208758D01*
D02*
G37*
G36*
X6297238D02*
X6302481Y-3208758D01*
X6312878Y-3210126D01*
X6323007Y-3212839D01*
X6332696Y-3216852D01*
X6341778Y-3222094D01*
X6350097Y-3228478D01*
X6357512Y-3235893D01*
X6363896Y-3244212D01*
X6369139Y-3253293D01*
X6373152Y-3262982D01*
X6375866Y-3273111D01*
X6377234Y-3283508D01*
X6377233Y-3288751D01*
X6377234Y-3288751D01*
X6377469Y-3528497D01*
X6217468Y-3528495D01*
X6217238Y-3288751D01*
X6217237Y-3283508D01*
X6218604Y-3273110D01*
X6221318Y-3262980D01*
X6225331Y-3253291D01*
X6230574Y-3244209D01*
X6236958Y-3235889D01*
X6244374Y-3228474D01*
X6252695Y-3222090D01*
X6261777Y-3216848D01*
X6271467Y-3212836D01*
X6281597Y-3210124D01*
X6291995Y-3208757D01*
X6297238Y-3208758D01*
D02*
G37*
G36*
X6043238D02*
X6048481Y-3208758D01*
X6058878Y-3210126D01*
X6069007Y-3212839D01*
X6078696Y-3216852D01*
X6087778Y-3222094D01*
X6096097Y-3228478D01*
X6103512Y-3235893D01*
X6109896Y-3244212D01*
X6115139Y-3253293D01*
X6119152Y-3262982D01*
X6121866Y-3273111D01*
X6123234Y-3283508D01*
X6123233Y-3288751D01*
X6123234Y-3288751D01*
X6123469Y-3528497D01*
X5963468Y-3528495D01*
X5963238Y-3288751D01*
X5963237Y-3283508D01*
X5964604Y-3273110D01*
X5967318Y-3262980D01*
X5971331Y-3253291D01*
X5976574Y-3244209D01*
X5982958Y-3235889D01*
X5990374Y-3228474D01*
X5998695Y-3222090D01*
X6007777Y-3216848D01*
X6017467Y-3212836D01*
X6027597Y-3210124D01*
X6037995Y-3208757D01*
X6043238Y-3208758D01*
D02*
G37*
G36*
X5789238D02*
X5794481Y-3208758D01*
X5804878Y-3210126D01*
X5815007Y-3212839D01*
X5824696Y-3216852D01*
X5833778Y-3222094D01*
X5842097Y-3228478D01*
X5849512Y-3235893D01*
X5855896Y-3244212D01*
X5861139Y-3253293D01*
X5865152Y-3262982D01*
X5867866Y-3273111D01*
X5869234Y-3283508D01*
X5869233Y-3288751D01*
X5869234Y-3288751D01*
X5869469Y-3528497D01*
X5709468Y-3528495D01*
X5709238Y-3288751D01*
X5709237Y-3283508D01*
X5710604Y-3273110D01*
X5713318Y-3262980D01*
X5717331Y-3253291D01*
X5722574Y-3244209D01*
X5728958Y-3235889D01*
X5736374Y-3228474D01*
X5744695Y-3222090D01*
X5753777Y-3216848D01*
X5763467Y-3212836D01*
X5773597Y-3210124D01*
X5783995Y-3208757D01*
X5789238Y-3208758D01*
D02*
G37*
G36*
X5535238D02*
X5540481Y-3208758D01*
X5550878Y-3210126D01*
X5561007Y-3212839D01*
X5570696Y-3216852D01*
X5579778Y-3222094D01*
X5588097Y-3228478D01*
X5595512Y-3235893D01*
X5601896Y-3244212D01*
X5607139Y-3253293D01*
X5611152Y-3262982D01*
X5613866Y-3273111D01*
X5615234Y-3283508D01*
X5615233Y-3288751D01*
X5615234Y-3288751D01*
X5615469Y-3528497D01*
X5455468Y-3528495D01*
X5455238Y-3288751D01*
X5455237Y-3283508D01*
X5456604Y-3273110D01*
X5459318Y-3262980D01*
X5463331Y-3253291D01*
X5468574Y-3244209D01*
X5474958Y-3235889D01*
X5482374Y-3228474D01*
X5490695Y-3222090D01*
X5499777Y-3216848D01*
X5509467Y-3212836D01*
X5519597Y-3210124D01*
X5529995Y-3208757D01*
X5535238Y-3208758D01*
D02*
G37*
G36*
X5281238D02*
X5286481Y-3208758D01*
X5296878Y-3210126D01*
X5307007Y-3212839D01*
X5316696Y-3216852D01*
X5325778Y-3222094D01*
X5334097Y-3228478D01*
X5341512Y-3235893D01*
X5347896Y-3244212D01*
X5353139Y-3253293D01*
X5357152Y-3262982D01*
X5359866Y-3273111D01*
X5361234Y-3283508D01*
X5361233Y-3288751D01*
X5361234Y-3288751D01*
X5361469Y-3528497D01*
X5201468Y-3528495D01*
X5201238Y-3288751D01*
X5201237Y-3283508D01*
X5202604Y-3273110D01*
X5205318Y-3262980D01*
X5209331Y-3253291D01*
X5214574Y-3244209D01*
X5220958Y-3235889D01*
X5228374Y-3228474D01*
X5236695Y-3222090D01*
X5245777Y-3216848D01*
X5255467Y-3212836D01*
X5265597Y-3210124D01*
X5275995Y-3208757D01*
X5281238Y-3208758D01*
D02*
G37*
G36*
X5027238D02*
X5032481Y-3208758D01*
X5042878Y-3210126D01*
X5053007Y-3212839D01*
X5062696Y-3216852D01*
X5071778Y-3222094D01*
X5080097Y-3228478D01*
X5087512Y-3235893D01*
X5093896Y-3244212D01*
X5099139Y-3253293D01*
X5103152Y-3262982D01*
X5105866Y-3273111D01*
X5107234Y-3283508D01*
X5107233Y-3288751D01*
X5107234Y-3288751D01*
X5107469Y-3528497D01*
X4947468Y-3528495D01*
X4947238Y-3288751D01*
X4947237Y-3283508D01*
X4948604Y-3273110D01*
X4951318Y-3262980D01*
X4955331Y-3253291D01*
X4960574Y-3244209D01*
X4966958Y-3235889D01*
X4974374Y-3228474D01*
X4982695Y-3222090D01*
X4991777Y-3216848D01*
X5001467Y-3212836D01*
X5011597Y-3210124D01*
X5021995Y-3208757D01*
X5027238Y-3208758D01*
D02*
G37*
G36*
X4773238D02*
X4778481Y-3208758D01*
X4788878Y-3210126D01*
X4799007Y-3212839D01*
X4808696Y-3216852D01*
X4817778Y-3222094D01*
X4826097Y-3228478D01*
X4833512Y-3235893D01*
X4839896Y-3244212D01*
X4845139Y-3253293D01*
X4849152Y-3262982D01*
X4851866Y-3273111D01*
X4853234Y-3283508D01*
X4853233Y-3288751D01*
X4853234Y-3288751D01*
X4853469Y-3528497D01*
X4693468Y-3528495D01*
X4693238Y-3288751D01*
X4693237Y-3283508D01*
X4694604Y-3273110D01*
X4697318Y-3262980D01*
X4701331Y-3253291D01*
X4706574Y-3244209D01*
X4712958Y-3235889D01*
X4720374Y-3228474D01*
X4728695Y-3222090D01*
X4737777Y-3216848D01*
X4747467Y-3212836D01*
X4757597Y-3210124D01*
X4767995Y-3208757D01*
X4773238Y-3208758D01*
D02*
G37*
G36*
X4519238D02*
X4524481Y-3208758D01*
X4534878Y-3210126D01*
X4545007Y-3212839D01*
X4554696Y-3216852D01*
X4563778Y-3222094D01*
X4572097Y-3228478D01*
X4579512Y-3235893D01*
X4585896Y-3244212D01*
X4591139Y-3253293D01*
X4595152Y-3262982D01*
X4597866Y-3273111D01*
X4599234Y-3283508D01*
X4599233Y-3288751D01*
X4599234Y-3288751D01*
X4599469Y-3528497D01*
X4439468Y-3528495D01*
X4439238Y-3288751D01*
X4439237Y-3283508D01*
X4440604Y-3273110D01*
X4443318Y-3262980D01*
X4447331Y-3253291D01*
X4452574Y-3244209D01*
X4458958Y-3235889D01*
X4466374Y-3228474D01*
X4474695Y-3222090D01*
X4483777Y-3216848D01*
X4493467Y-3212836D01*
X4503597Y-3210124D01*
X4513995Y-3208757D01*
X4519238Y-3208758D01*
D02*
G37*
G36*
X4265238D02*
X4270481Y-3208758D01*
X4280878Y-3210126D01*
X4291007Y-3212839D01*
X4300696Y-3216852D01*
X4309778Y-3222094D01*
X4318097Y-3228478D01*
X4325512Y-3235893D01*
X4331896Y-3244212D01*
X4337139Y-3253293D01*
X4341152Y-3262982D01*
X4343866Y-3273111D01*
X4345234Y-3283508D01*
X4345233Y-3288751D01*
X4345234Y-3288751D01*
X4345469Y-3528497D01*
X4185468Y-3528495D01*
X4185238Y-3288751D01*
X4185237Y-3283508D01*
X4186604Y-3273110D01*
X4189318Y-3262980D01*
X4193331Y-3253291D01*
X4198574Y-3244209D01*
X4204958Y-3235889D01*
X4212374Y-3228474D01*
X4220695Y-3222090D01*
X4229777Y-3216848D01*
X4239467Y-3212836D01*
X4249597Y-3210124D01*
X4259995Y-3208757D01*
X4265238Y-3208758D01*
D02*
G37*
G36*
X4011238D02*
X4016481Y-3208758D01*
X4026878Y-3210126D01*
X4037007Y-3212839D01*
X4046696Y-3216852D01*
X4055778Y-3222094D01*
X4064097Y-3228478D01*
X4071512Y-3235893D01*
X4077896Y-3244212D01*
X4083139Y-3253293D01*
X4087152Y-3262982D01*
X4089866Y-3273111D01*
X4091234Y-3283508D01*
X4091233Y-3288751D01*
X4091234Y-3288751D01*
X4091469Y-3528497D01*
X3931468Y-3528495D01*
X3931238Y-3288751D01*
X3931237Y-3283508D01*
X3932604Y-3273110D01*
X3935318Y-3262980D01*
X3939331Y-3253291D01*
X3944574Y-3244209D01*
X3950958Y-3235889D01*
X3958374Y-3228474D01*
X3966695Y-3222090D01*
X3975777Y-3216848D01*
X3985467Y-3212836D01*
X3995597Y-3210124D01*
X4005995Y-3208757D01*
X4011238Y-3208758D01*
D02*
G37*
G36*
X3757238D02*
X3762481Y-3208758D01*
X3772878Y-3210126D01*
X3783007Y-3212839D01*
X3792696Y-3216852D01*
X3801778Y-3222094D01*
X3810097Y-3228478D01*
X3817512Y-3235893D01*
X3823896Y-3244212D01*
X3829139Y-3253293D01*
X3833152Y-3262982D01*
X3835866Y-3273111D01*
X3837234Y-3283508D01*
X3837233Y-3288751D01*
X3837234Y-3288751D01*
X3837469Y-3528497D01*
X3677468Y-3528495D01*
X3677238Y-3288751D01*
X3677237Y-3283508D01*
X3678604Y-3273110D01*
X3681318Y-3262980D01*
X3685331Y-3253291D01*
X3690574Y-3244209D01*
X3696958Y-3235889D01*
X3704374Y-3228474D01*
X3712695Y-3222090D01*
X3721777Y-3216848D01*
X3731467Y-3212836D01*
X3741597Y-3210124D01*
X3751995Y-3208757D01*
X3757238Y-3208758D01*
D02*
G37*
G36*
X3503238D02*
X3508481Y-3208758D01*
X3518878Y-3210126D01*
X3529007Y-3212839D01*
X3538696Y-3216852D01*
X3547778Y-3222094D01*
X3556097Y-3228478D01*
X3563512Y-3235893D01*
X3569896Y-3244212D01*
X3575139Y-3253293D01*
X3579152Y-3262982D01*
X3581866Y-3273111D01*
X3583234Y-3283508D01*
X3583233Y-3288751D01*
X3583234Y-3288751D01*
X3583469Y-3528497D01*
X3423468Y-3528495D01*
X3423238Y-3288751D01*
X3423237Y-3283508D01*
X3424604Y-3273110D01*
X3427318Y-3262980D01*
X3431331Y-3253291D01*
X3436574Y-3244209D01*
X3442958Y-3235889D01*
X3450374Y-3228474D01*
X3458695Y-3222090D01*
X3467777Y-3216848D01*
X3477467Y-3212836D01*
X3487597Y-3210124D01*
X3497995Y-3208757D01*
X3503238Y-3208758D01*
D02*
G37*
G36*
X3249238D02*
X3254481Y-3208758D01*
X3264878Y-3210126D01*
X3275007Y-3212839D01*
X3284696Y-3216852D01*
X3293778Y-3222094D01*
X3302097Y-3228478D01*
X3309512Y-3235893D01*
X3315896Y-3244212D01*
X3321139Y-3253293D01*
X3325152Y-3262982D01*
X3327866Y-3273111D01*
X3329234Y-3283508D01*
X3329233Y-3288751D01*
X3329234Y-3288751D01*
X3329469Y-3528497D01*
X3169468Y-3528495D01*
X3169238Y-3288751D01*
X3169237Y-3283508D01*
X3170604Y-3273110D01*
X3173318Y-3262980D01*
X3177331Y-3253291D01*
X3182574Y-3244209D01*
X3188958Y-3235889D01*
X3196374Y-3228474D01*
X3204695Y-3222090D01*
X3213777Y-3216848D01*
X3223467Y-3212836D01*
X3233597Y-3210124D01*
X3243995Y-3208757D01*
X3249238Y-3208758D01*
D02*
G37*
G36*
X2995238D02*
X3000481Y-3208758D01*
X3010878Y-3210126D01*
X3021007Y-3212839D01*
X3030696Y-3216852D01*
X3039778Y-3222094D01*
X3048097Y-3228478D01*
X3055512Y-3235893D01*
X3061896Y-3244212D01*
X3067139Y-3253293D01*
X3071152Y-3262982D01*
X3073866Y-3273111D01*
X3075234Y-3283508D01*
X3075233Y-3288751D01*
X3075234Y-3288751D01*
X3075469Y-3528497D01*
X2915468Y-3528495D01*
X2915238Y-3288751D01*
X2915237Y-3283508D01*
X2916604Y-3273110D01*
X2919318Y-3262980D01*
X2923331Y-3253291D01*
X2928574Y-3244209D01*
X2934958Y-3235889D01*
X2942374Y-3228474D01*
X2950695Y-3222090D01*
X2959777Y-3216848D01*
X2969467Y-3212836D01*
X2979597Y-3210124D01*
X2989995Y-3208757D01*
X2995238Y-3208758D01*
D02*
G37*
G36*
X2741238D02*
X2746481Y-3208758D01*
X2756878Y-3210126D01*
X2767007Y-3212839D01*
X2776696Y-3216852D01*
X2785778Y-3222094D01*
X2794097Y-3228478D01*
X2801512Y-3235893D01*
X2807896Y-3244212D01*
X2813139Y-3253293D01*
X2817152Y-3262982D01*
X2819866Y-3273111D01*
X2821234Y-3283508D01*
X2821233Y-3288751D01*
X2821234Y-3288751D01*
X2821469Y-3528497D01*
X2661468Y-3528495D01*
X2661238Y-3288751D01*
X2661237Y-3283508D01*
X2662604Y-3273110D01*
X2665318Y-3262980D01*
X2669331Y-3253291D01*
X2674574Y-3244209D01*
X2680958Y-3235889D01*
X2688374Y-3228474D01*
X2696695Y-3222090D01*
X2705777Y-3216848D01*
X2715467Y-3212836D01*
X2725597Y-3210124D01*
X2735995Y-3208757D01*
X2741238Y-3208758D01*
D02*
G37*
G36*
X2487238D02*
X2492481Y-3208758D01*
X2502878Y-3210126D01*
X2513007Y-3212839D01*
X2522696Y-3216852D01*
X2531778Y-3222094D01*
X2540097Y-3228478D01*
X2547512Y-3235893D01*
X2553896Y-3244212D01*
X2559139Y-3253293D01*
X2563152Y-3262982D01*
X2565866Y-3273111D01*
X2567234Y-3283508D01*
X2567233Y-3288751D01*
X2567234Y-3288751D01*
X2567469Y-3528497D01*
X2407468Y-3528495D01*
X2407238Y-3288751D01*
X2407237Y-3283508D01*
X2408604Y-3273110D01*
X2411318Y-3262980D01*
X2415331Y-3253291D01*
X2420574Y-3244209D01*
X2426958Y-3235889D01*
X2434374Y-3228474D01*
X2442695Y-3222090D01*
X2451777Y-3216848D01*
X2461467Y-3212836D01*
X2471597Y-3210124D01*
X2481995Y-3208757D01*
X2487238Y-3208758D01*
D02*
G37*
D10*
X1323000Y-4682700D02*
D03*
X2233000D02*
D03*
X1323000Y-4232700D02*
D03*
X2233000D02*
D03*
X116500Y-4682700D02*
D03*
X1026500D02*
D03*
X116500Y-4232700D02*
D03*
X1026500D02*
D03*
X-1090000Y-4682700D02*
D03*
X-180000D02*
D03*
X-1090000Y-4232700D02*
D03*
X-180000D02*
D03*
D12*
X863600Y-927100D02*
D03*
X723600D02*
D03*
X6032200Y-4495800D02*
D03*
X6172200D02*
D03*
X686100Y-558800D02*
D03*
X546100D02*
D03*
X686100Y-444500D02*
D03*
X546100D02*
D03*
X5606900Y-279400D02*
D03*
X5746900D02*
D03*
X6032200Y-3797300D02*
D03*
X6172200D02*
D03*
X4495800Y-4165600D02*
D03*
X4635800D02*
D03*
Y-4279900D02*
D03*
X4495800D02*
D03*
X3504080Y-520700D02*
D03*
X3364080D02*
D03*
X285300Y-5105400D02*
D03*
X425300D02*
D03*
X558500Y-5105400D02*
D03*
X698500D02*
D03*
X-990600D02*
D03*
X-850600D02*
D03*
X-717400Y-5105400D02*
D03*
X-577400D02*
D03*
Y-4978400D02*
D03*
X-717400D02*
D03*
X1479100Y-5105400D02*
D03*
X1619100D02*
D03*
X1752300Y-5110380D02*
D03*
X1892300D02*
D03*
X698500Y-4978399D02*
D03*
X558500D02*
D03*
X1892300D02*
D03*
X1752300D02*
D03*
X4216400Y-12700D02*
D03*
X4356400D02*
D03*
X-25400Y-927100D02*
D03*
X-165400D02*
D03*
D13*
X5982200Y-4000500D02*
D03*
X6172200D02*
D03*
Y-4280500D02*
D03*
X6077200D02*
D03*
X5982200D02*
D03*
D14*
X-508000Y-3329600D02*
D03*
Y-3239600D02*
D03*
Y-3149600D02*
D03*
X-803000D02*
D03*
Y-3239600D02*
D03*
Y-3329600D02*
D03*
X1376500Y-3328500D02*
D03*
Y-3238500D02*
D03*
Y-3148500D02*
D03*
X1671500D02*
D03*
Y-3238500D02*
D03*
Y-3328500D02*
D03*
X265700Y-3328008D02*
D03*
Y-3238008D02*
D03*
Y-3148008D02*
D03*
X560700D02*
D03*
Y-3238008D02*
D03*
Y-3328008D02*
D03*
D15*
X378400Y-929800D02*
D03*
D16*
X258400Y-732300D02*
D03*
X298400D02*
D03*
X338400D02*
D03*
X378400D02*
D03*
X418400D02*
D03*
X458400D02*
D03*
X498400D02*
D03*
Y-1127300D02*
D03*
X458400D02*
D03*
X418400D02*
D03*
X378400D02*
D03*
X338400D02*
D03*
X298400D02*
D03*
X258400D02*
D03*
D17*
X575900Y-809800D02*
D03*
Y-849800D02*
D03*
Y-889800D02*
D03*
Y-929800D02*
D03*
Y-969800D02*
D03*
Y-1009800D02*
D03*
Y-1049800D02*
D03*
X180900D02*
D03*
Y-1009800D02*
D03*
Y-969800D02*
D03*
Y-929800D02*
D03*
Y-889800D02*
D03*
Y-849800D02*
D03*
Y-809800D02*
D03*
D18*
X4097550Y-4722800D02*
D03*
Y-4522800D02*
D03*
D19*
X4422550Y-4622800D02*
D03*
D20*
X5651500Y-4225400D02*
D03*
Y-4085400D02*
D03*
X5791200Y-4225400D02*
D03*
Y-4085400D02*
D03*
X-63500Y-2063600D02*
D03*
Y-2203600D02*
D03*
X88900Y-2063600D02*
D03*
Y-2203600D02*
D03*
X241300Y-2063600D02*
D03*
Y-2203600D02*
D03*
X393700Y-2063600D02*
D03*
Y-2203600D02*
D03*
X533400Y-2063600D02*
D03*
Y-2203600D02*
D03*
X685800Y-2063600D02*
D03*
Y-2203600D02*
D03*
X825500Y-2063600D02*
D03*
Y-2203600D02*
D03*
X965200Y-2063600D02*
D03*
Y-2203600D02*
D03*
X-215900Y-2063600D02*
D03*
Y-2203600D02*
D03*
X1955800Y-1060600D02*
D03*
Y-920600D02*
D03*
X3035300Y-559100D02*
D03*
Y-419100D02*
D03*
X5016500Y-215600D02*
D03*
Y-355600D02*
D03*
X6261100Y-177500D02*
D03*
Y-317500D02*
D03*
X6311900Y-4530200D02*
D03*
Y-4390200D02*
D03*
X6540500Y-4110800D02*
D03*
Y-4250800D02*
D03*
X6400800Y-4110800D02*
D03*
Y-4250800D02*
D03*
X6311900Y-4771500D02*
D03*
Y-4631500D02*
D03*
X3687099Y-357800D02*
D03*
Y-217799D02*
D03*
X381000Y-1288900D02*
D03*
Y-1428900D02*
D03*
D21*
X5651500Y-5069800D02*
D03*
X5841500D02*
D03*
X5746500Y-4869800D02*
D03*
X6223000Y-5069800D02*
D03*
X6413000D02*
D03*
X6318000Y-4869800D02*
D03*
X7295900Y-3837000D02*
D03*
X7105900D02*
D03*
X7200900Y-4037000D02*
D03*
D22*
X6113600Y-234200D02*
D03*
Y-314200D02*
D03*
X5973600D02*
D03*
Y-234200D02*
D03*
D23*
X5162400Y-202800D02*
D03*
Y-252800D02*
D03*
Y-302800D02*
D03*
Y-352800D02*
D03*
X5334400Y-202800D02*
D03*
Y-252800D02*
D03*
Y-302800D02*
D03*
Y-352800D02*
D03*
D24*
X4416400Y-355600D02*
D03*
X4216400D02*
D03*
X4416400Y-155600D02*
D03*
X4216400D02*
D03*
D25*
X6883400Y-4025900D02*
D03*
X6733400D02*
D03*
D28*
X3383900Y-172800D02*
D03*
X3433900D02*
D03*
X3483900D02*
D03*
Y-392800D02*
D03*
X3433900D02*
D03*
X3383900D02*
D03*
D29*
X3568900Y-207800D02*
D03*
Y-257800D02*
D03*
Y-307800D02*
D03*
Y-357800D02*
D03*
X3298900D02*
D03*
Y-307800D02*
D03*
Y-257800D02*
D03*
Y-207800D02*
D03*
D30*
X4330000Y-2966410D02*
D03*
Y-2712410D02*
D03*
D31*
Y-2458410D02*
D03*
D32*
X6997000Y-2642500D02*
D03*
Y-2157500D02*
D03*
D33*
X7300000Y-2672500D02*
D03*
Y-2127500D02*
D03*
D34*
X6000000Y-2150000D02*
D03*
X6250000D02*
D03*
X6500000D02*
D03*
X7000000Y-2400000D02*
D03*
X7330000Y-2500000D02*
D03*
Y-2300000D02*
D03*
D117*
X6057200Y-4635500D02*
D03*
Y-4735500D02*
D03*
X6172200Y-4635500D02*
D03*
Y-4735500D02*
D03*
D118*
X6057200Y-4685500D02*
D03*
X6172200D02*
D03*
%TF.MD5,99e21dbd8ea11439b799265fc61bdd12*%
M02*
