%TF.GenerationSoftware,Altium Limited,Altium Designer,24.9.1 (31)*%
G04 Layer_Physical_Order=3*
G04 Layer_Color=128*
%FSLAX45Y45*%
%MOMM*%
%TF.SameCoordinates,E868E159-F76C-425E-9157-6F4710699125*%
%TF.FilePolarity,Negative*%
%TF.FileFunction,Copper,L3,Inr,Plane*%
%TF.Part,Single*%
G01*
G75*
%TA.AperFunction,NonConductor*%
%ADD49C,1.01600*%
%TA.AperFunction,ComponentPad*%
%ADD50C,1.15000*%
%ADD51C,1.62000*%
%ADD52C,1.70000*%
G04:AMPARAMS|DCode=53|XSize=2.413mm|YSize=2.413mm|CornerRadius=0mm|HoleSize=0mm|Usage=FLASHONLY|Rotation=0.000|XOffset=0mm|YOffset=0mm|HoleType=Round|Shape=Relief|Width=0.254mm|Gap=0.254mm|Entries=4|*
%AMTHD53*
7,0,0,2.41300,1.90500,0.25400,45*
%
%ADD53THD53*%
%ADD54C,1.48900*%
G04:AMPARAMS|DCode=55|XSize=2.624mm|YSize=2.624mm|CornerRadius=0mm|HoleSize=0mm|Usage=FLASHONLY|Rotation=0.000|XOffset=0mm|YOffset=0mm|HoleType=Round|Shape=Relief|Width=0.254mm|Gap=0.254mm|Entries=4|*
%AMTHD55*
7,0,0,2.62400,2.11600,0.25400,45*
%
%ADD55THD55*%
%ADD56C,1.90000*%
%TA.AperFunction,ViaPad*%
%ADD57C,0.80000*%
%ADD58C,3.10000*%
G36*
X3250000Y-3100000D02*
X2350000D01*
Y-1700000D01*
X3250000D01*
Y-3100000D01*
D02*
G37*
D49*
Y-1700000D01*
X2350000Y-3100000D02*
X3250000D01*
X2350000D02*
Y-1700000D01*
X3250000D01*
X-4600000Y600000D02*
X7100000Y600000D01*
X-4626218D02*
X-4600000Y600000D01*
X-4678204Y593155D02*
X-4626218Y600000D01*
X-4728852Y579584D02*
X-4678204Y593155D01*
X-4777295Y559518D02*
X-4728852Y579584D01*
X-4822705Y533301D02*
X-4777295Y559518D01*
X-4864304Y501381D02*
X-4822705Y533301D01*
X-4901381Y464304D02*
X-4864304Y501381D01*
X-4933302Y422705D02*
X-4901381Y464304D01*
X-4959519Y377295D02*
X-4933302Y422705D01*
X-4979585Y328851D02*
X-4959519Y377295D01*
X-4993156Y278203D02*
X-4979585Y328851D01*
X-5000000Y226217D02*
X-4993156Y278203D01*
X-5000000Y200000D02*
Y226217D01*
Y-5000000D02*
Y200000D01*
Y-5026218D02*
Y-5000000D01*
Y-5026218D02*
X-4993156Y-5078204D01*
X-4979585Y-5128852D01*
X-4959519Y-5177295D01*
X-4933302Y-5222705D01*
X-4901381Y-5264305D01*
X-4864304Y-5301382D01*
X-4822705Y-5333302D01*
X-4777295Y-5359519D01*
X-4728852Y-5379585D01*
X-4678204Y-5393156D01*
X-4626218Y-5400000D01*
X7126217D01*
X7178203Y-5393156D01*
X7228851Y-5379585D01*
X7277295Y-5359519D01*
X7322705Y-5333302D01*
X7364304Y-5301382D01*
X7401381Y-5264305D01*
X7433301Y-5222705D01*
X7459518Y-5177295D01*
X7479584Y-5128852D01*
X7493155Y-5078204D01*
X7500000Y-5026218D01*
Y-5000000D01*
Y-4925001D01*
X7500000Y200000D01*
X7500000Y226217D02*
X7500000Y200000D01*
X7493155Y278203D02*
X7500000Y226217D01*
X7479584Y328851D02*
X7493155Y278203D01*
X7459518Y377295D02*
X7479584Y328851D01*
X7433301Y422705D02*
X7459518Y377295D01*
X7401381Y464304D02*
X7433301Y422705D01*
X7364304Y501381D02*
X7401381Y464304D01*
X7322705Y533301D02*
X7364304Y501381D01*
X7277295Y559518D02*
X7322705Y533301D01*
X7228851Y579584D02*
X7277295Y559518D01*
X7178203Y593155D02*
X7228851Y579584D01*
X7126217Y600000D02*
X7178203Y593155D01*
X7100000Y600000D02*
X7126217D01*
D50*
X4939500Y-4692800D02*
D03*
Y-4552800D02*
D03*
D51*
X3530600Y-4191000D02*
D03*
X3784600D02*
D03*
X4038600D02*
D03*
D52*
X5027234Y-1510748D02*
D03*
X4519234D02*
D03*
X4773234D02*
D03*
X5281234D02*
D03*
X762000Y0D02*
D03*
X508000D02*
D03*
X254000D02*
D03*
X7313234Y-1510748D02*
D03*
X2487234Y-3288748D02*
D03*
X7313234D02*
D03*
X7059234D02*
D03*
X6551234D02*
D03*
X6297234D02*
D03*
X6043234D02*
D03*
X5789234D02*
D03*
X5281234D02*
D03*
X5027234D02*
D03*
X4773234D02*
D03*
X4519234D02*
D03*
X4011234D02*
D03*
X7059234Y-1510748D02*
D03*
X6551234D02*
D03*
X6297234D02*
D03*
X6043234D02*
D03*
X5789234D02*
D03*
X4011234D02*
D03*
X3757234D02*
D03*
X3503234D02*
D03*
X3249234D02*
D03*
X2741234D02*
D03*
X2487234D02*
D03*
X2741234Y-3288748D02*
D03*
X3249234D02*
D03*
X3503234D02*
D03*
X3757234D02*
D03*
D53*
X-2222500Y-5016500D02*
D03*
Y-2730500D02*
D03*
Y254000D02*
D03*
Y-2032000D02*
D03*
D54*
X-2730500Y-5016500D02*
D03*
X-2984500D02*
D03*
X-3238500D02*
D03*
X-3492500D02*
D03*
X-3746500D02*
D03*
X-4000500D02*
D03*
X-2476500D02*
D03*
Y-2730500D02*
D03*
X-4000500D02*
D03*
X-3746500D02*
D03*
X-3492500D02*
D03*
X-3238500D02*
D03*
X-2984500D02*
D03*
X-2730500D02*
D03*
Y254000D02*
D03*
X-2984500D02*
D03*
X-3238500D02*
D03*
X-3492500D02*
D03*
X-3746500D02*
D03*
X-4000500D02*
D03*
X-2476500D02*
D03*
Y-2032000D02*
D03*
X-4000500D02*
D03*
X-3746500D02*
D03*
X-3492500D02*
D03*
X-3238500D02*
D03*
X-2984500D02*
D03*
X-2730500D02*
D03*
D55*
X0Y0D02*
D03*
X6805234Y-3288748D02*
D03*
X5535234D02*
D03*
X4265234D02*
D03*
X6805234Y-1510748D02*
D03*
X5535234D02*
D03*
X4265234D02*
D03*
X2995234D02*
D03*
Y-3288748D02*
D03*
D56*
X7153600Y-4333000D02*
D03*
Y-4587000D02*
D03*
D57*
X1955800Y-1168400D02*
D03*
X1854200Y-927100D02*
D03*
X2226788Y-3589900D02*
D03*
X1333500Y-1968500D02*
D03*
X6896100Y-3695700D02*
D03*
X241300Y-1295400D02*
D03*
X-1803400Y-5270500D02*
D03*
X5994400Y-1790400D02*
D03*
X5816600Y-2362500D02*
D03*
X5664200Y-2489200D02*
D03*
X6019800Y-3136900D02*
D03*
X6794500D02*
D03*
X6540500D02*
D03*
X6286500D02*
D03*
X5778500D02*
D03*
X5537200D02*
D03*
X5905500Y-1612900D02*
D03*
X6680200D02*
D03*
X6426200D02*
D03*
X6172200D02*
D03*
X5664200D02*
D03*
X6908800D02*
D03*
X5422900Y-3187700D02*
D03*
X6908800D02*
D03*
X5664200D02*
D03*
X6172200D02*
D03*
X6426200D02*
D03*
X6680200D02*
D03*
X5905500D02*
D03*
X5918200Y-1168400D02*
D03*
X6896100D02*
D03*
X6680200D02*
D03*
X6426200D02*
D03*
X6172200D02*
D03*
X5664200D02*
D03*
X5422900D02*
D03*
X-717400Y-4909000D02*
D03*
X1752300Y-4909000D02*
D03*
X558500D02*
D03*
X4121850Y-4882700D02*
D03*
X6334150Y-317650D02*
D03*
X5817409Y-277009D02*
D03*
X4943450Y-215450D02*
D03*
X4216550Y60350D02*
D03*
X3689100Y-432999D02*
D03*
X3363930Y-593750D02*
D03*
X2959100Y-558800D02*
D03*
X-87380Y-927100D02*
D03*
X381000Y-1350880D02*
D03*
X785580Y-929800D02*
D03*
X762300Y-444500D02*
D03*
X191291Y-1219991D02*
D03*
X1574800Y-2082800D02*
D03*
X1473200Y-1968500D02*
D03*
X-850900Y-4241800D02*
D03*
X3239366Y-1192934D02*
D03*
X2755900Y-990600D02*
D03*
X-723900Y-4241800D02*
D03*
X-1295400D02*
D03*
X-1316200Y-3238500D02*
D03*
X-1456200D02*
D03*
X-1386200D02*
D03*
X-2654300Y-4584700D02*
D03*
X-2870200Y-4229100D02*
D03*
X-3124200Y-4013200D02*
D03*
X-2146300Y-3784600D02*
D03*
X-2147091Y-4101309D02*
D03*
X1676400Y-1968500D02*
D03*
X-2451100Y-3124200D02*
D03*
X-2146300Y-3949700D02*
D03*
X-2755900Y-12700D02*
D03*
X914400Y152400D02*
D03*
X508000D02*
D03*
X6045200Y-800100D02*
D03*
X317500Y-596900D02*
D03*
X5537200Y-279400D02*
D03*
X5969000Y-800100D02*
D03*
X5082133Y-279712D02*
D03*
D58*
X-793999Y0D02*
D03*
X1555999Y-2379995D02*
D03*
X-793999D02*
D03*
X1555999Y0D02*
D03*
%TF.MD5,9e3201f1e9fa81d19d9b0482a8efbac1*%
M02*
