G04*
G04 #@! TF.GenerationSoftware,Altium Limited,Altium Designer,24.9.1 (31)*
G04*
G04 Layer_Physical_Order=4*
G04 Layer_Color=16711680*
%FSLAX44Y44*%
%MOMM*%
G71*
G04*
G04 #@! TF.SameCoordinates,049DD743-820B-4880-A151-0CBBC5A4C6BC*
G04*
G04*
G04 #@! TF.FilePolarity,Positive*
G04*
G01*
G75*
%ADD10C,0.2000*%
G04:AMPARAMS|DCode=21|XSize=0.76mm|YSize=0.6604mm|CornerRadius=0.0825mm|HoleSize=0mm|Usage=FLASHONLY|Rotation=270.000|XOffset=0mm|YOffset=0mm|HoleType=Round|Shape=RoundedRectangle|*
%AMROUNDEDRECTD21*
21,1,0.7600,0.4953,0,0,270.0*
21,1,0.5949,0.6604,0,0,270.0*
1,1,0.1651,-0.2477,-0.2975*
1,1,0.1651,-0.2477,0.2975*
1,1,0.1651,0.2477,0.2975*
1,1,0.1651,0.2477,-0.2975*
%
%ADD21ROUNDEDRECTD21*%
G04:AMPARAMS|DCode=29|XSize=0.76mm|YSize=0.6604mm|CornerRadius=0.0825mm|HoleSize=0mm|Usage=FLASHONLY|Rotation=180.000|XOffset=0mm|YOffset=0mm|HoleType=Round|Shape=RoundedRectangle|*
%AMROUNDEDRECTD29*
21,1,0.7600,0.4953,0,0,180.0*
21,1,0.5949,0.6604,0,0,180.0*
1,1,0.1651,-0.2975,0.2477*
1,1,0.1651,0.2975,0.2477*
1,1,0.1651,0.2975,-0.2477*
1,1,0.1651,-0.2975,-0.2477*
%
%ADD29ROUNDEDRECTD29*%
%ADD73C,5.0000*%
%ADD74C,0.6000*%
%ADD75C,1.0000*%
%ADD76C,0.5000*%
%ADD77C,0.9000*%
%ADD78R,1.5500X1.5500*%
%ADD79C,1.5500*%
%ADD80C,1.6510*%
%ADD81R,1.6510X1.6510*%
%ADD82C,1.6000*%
%ADD83R,1.8000X1.8000*%
%ADD84C,1.8000*%
%ADD85C,0.5000*%
%ADD86C,3.2000*%
%ADD97R,1.3300X1.5700*%
%ADD98R,0.6268X1.6844*%
G04:AMPARAMS|DCode=99|XSize=1.6844mm|YSize=0.6268mm|CornerRadius=0.3134mm|HoleSize=0mm|Usage=FLASHONLY|Rotation=270.000|XOffset=0mm|YOffset=0mm|HoleType=Round|Shape=RoundedRectangle|*
%AMROUNDEDRECTD99*
21,1,1.6844,0.0000,0,0,270.0*
21,1,1.0575,0.6268,0,0,270.0*
1,1,0.6268,0.0000,-0.5288*
1,1,0.6268,0.0000,0.5288*
1,1,0.6268,0.0000,0.5288*
1,1,0.6268,0.0000,-0.5288*
%
%ADD99ROUNDEDRECTD99*%
%ADD100R,0.8000X0.4000*%
G04:AMPARAMS|DCode=101|XSize=0.9mm|YSize=0.93mm|CornerRadius=0.09mm|HoleSize=0mm|Usage=FLASHONLY|Rotation=90.000|XOffset=0mm|YOffset=0mm|HoleType=Round|Shape=RoundedRectangle|*
%AMROUNDEDRECTD101*
21,1,0.9000,0.7500,0,0,90.0*
21,1,0.7200,0.9300,0,0,90.0*
1,1,0.1800,0.3750,0.3600*
1,1,0.1800,0.3750,-0.3600*
1,1,0.1800,-0.3750,-0.3600*
1,1,0.1800,-0.3750,0.3600*
%
%ADD101ROUNDEDRECTD101*%
G04:AMPARAMS|DCode=102|XSize=1.05mm|YSize=0.78mm|CornerRadius=0.078mm|HoleSize=0mm|Usage=FLASHONLY|Rotation=90.000|XOffset=0mm|YOffset=0mm|HoleType=Round|Shape=RoundedRectangle|*
%AMROUNDEDRECTD102*
21,1,1.0500,0.6240,0,0,90.0*
21,1,0.8940,0.7800,0,0,90.0*
1,1,0.1560,0.3120,0.4470*
1,1,0.1560,0.3120,-0.4470*
1,1,0.1560,-0.3120,-0.4470*
1,1,0.1560,-0.3120,0.4470*
%
%ADD102ROUNDEDRECTD102*%
G04:AMPARAMS|DCode=103|XSize=1.04mm|YSize=1.83mm|CornerRadius=0.104mm|HoleSize=0mm|Usage=FLASHONLY|Rotation=90.000|XOffset=0mm|YOffset=0mm|HoleType=Round|Shape=RoundedRectangle|*
%AMROUNDEDRECTD103*
21,1,1.0400,1.6220,0,0,90.0*
21,1,0.8320,1.8300,0,0,90.0*
1,1,0.2080,0.8110,0.4160*
1,1,0.2080,0.8110,-0.4160*
1,1,0.2080,-0.8110,-0.4160*
1,1,0.2080,-0.8110,0.4160*
%
%ADD103ROUNDEDRECTD103*%
G04:AMPARAMS|DCode=104|XSize=0.7mm|YSize=3.3mm|CornerRadius=0.0875mm|HoleSize=0mm|Usage=FLASHONLY|Rotation=90.000|XOffset=0mm|YOffset=0mm|HoleType=Round|Shape=RoundedRectangle|*
%AMROUNDEDRECTD104*
21,1,0.7000,3.1250,0,0,90.0*
21,1,0.5250,3.3000,0,0,90.0*
1,1,0.1750,1.5625,0.2625*
1,1,0.1750,1.5625,-0.2625*
1,1,0.1750,-1.5625,-0.2625*
1,1,0.1750,-1.5625,0.2625*
%
%ADD104ROUNDEDRECTD104*%
G04:AMPARAMS|DCode=105|XSize=0.7mm|YSize=3.3mm|CornerRadius=0.07mm|HoleSize=0mm|Usage=FLASHONLY|Rotation=90.000|XOffset=0mm|YOffset=0mm|HoleType=Round|Shape=RoundedRectangle|*
%AMROUNDEDRECTD105*
21,1,0.7000,3.1600,0,0,90.0*
21,1,0.5600,3.3000,0,0,90.0*
1,1,0.1400,1.5800,0.2800*
1,1,0.1400,1.5800,-0.2800*
1,1,0.1400,-1.5800,-0.2800*
1,1,0.1400,-1.5800,0.2800*
%
%ADD105ROUNDEDRECTD105*%
G04:AMPARAMS|DCode=106|XSize=0.86mm|YSize=2.8mm|CornerRadius=0.086mm|HoleSize=0mm|Usage=FLASHONLY|Rotation=90.000|XOffset=0mm|YOffset=0mm|HoleType=Round|Shape=RoundedRectangle|*
%AMROUNDEDRECTD106*
21,1,0.8600,2.6280,0,0,90.0*
21,1,0.6880,2.8000,0,0,90.0*
1,1,0.1720,1.3140,0.3440*
1,1,0.1720,1.3140,-0.3440*
1,1,0.1720,-1.3140,-0.3440*
1,1,0.1720,-1.3140,0.3440*
%
%ADD106ROUNDEDRECTD106*%
G04:AMPARAMS|DCode=107|XSize=0.7mm|YSize=1.1mm|CornerRadius=0.07mm|HoleSize=0mm|Usage=FLASHONLY|Rotation=90.000|XOffset=0mm|YOffset=0mm|HoleType=Round|Shape=RoundedRectangle|*
%AMROUNDEDRECTD107*
21,1,0.7000,0.9600,0,0,90.0*
21,1,0.5600,1.1000,0,0,90.0*
1,1,0.1400,0.4800,0.2800*
1,1,0.1400,0.4800,-0.2800*
1,1,0.1400,-0.4800,-0.2800*
1,1,0.1400,-0.4800,0.2800*
%
%ADD107ROUNDEDRECTD107*%
G36*
X693420Y-19050D02*
Y-162560D01*
X567690Y-162560D01*
X562533Y-156567D01*
X562921Y-155895D01*
X562975Y-155736D01*
X563069Y-155596D01*
X563470Y-154627D01*
X563503Y-154462D01*
X563577Y-154311D01*
X563848Y-153298D01*
X563859Y-153130D01*
X563913Y-152971D01*
X564050Y-151931D01*
X564039Y-151763D01*
X564072Y-151598D01*
X564072Y-151074D01*
X564072Y-151073D01*
X564072Y-151072D01*
X564049Y-127098D01*
X563950Y-126605D01*
X563855Y-126125D01*
X563854Y-126124D01*
X563854Y-126122D01*
X563576Y-125707D01*
X563302Y-125298D01*
X563301Y-125297D01*
X563301Y-125296D01*
X562889Y-125021D01*
X562475Y-124745D01*
X562474Y-124745D01*
X562473Y-124744D01*
X561990Y-124649D01*
X561500Y-124551D01*
X545500Y-124551D01*
X545499Y-124551D01*
X545497Y-124551D01*
X545023Y-124646D01*
X544524Y-124745D01*
X544523Y-124746D01*
X544522Y-124746D01*
X544110Y-125022D01*
X543698Y-125297D01*
X543697Y-125299D01*
X543696Y-125299D01*
X543419Y-125714D01*
X543145Y-126124D01*
X543145Y-126126D01*
X543144Y-126127D01*
X543048Y-126612D01*
X542951Y-127100D01*
X542951Y-127101D01*
X542951Y-127102D01*
X542956Y-132537D01*
X542123Y-132847D01*
X538651Y-128811D01*
X538649Y-127098D01*
X538550Y-126605D01*
X538455Y-126125D01*
X538454Y-126124D01*
X538454Y-126122D01*
X538176Y-125707D01*
X537902Y-125298D01*
X537901Y-125297D01*
X537901Y-125296D01*
X537489Y-125021D01*
X537075Y-124745D01*
X537074Y-124745D01*
X537073Y-124744D01*
X536590Y-124649D01*
X536100Y-124551D01*
X534985D01*
X520700Y-107950D01*
X507858D01*
X507518Y-107129D01*
X556243Y-58403D01*
X557017Y-57246D01*
X557289Y-55880D01*
Y-31442D01*
X557959Y-30772D01*
X558720Y-28935D01*
Y-26945D01*
X557959Y-25108D01*
X557191Y-24340D01*
X557959Y-23572D01*
X558720Y-21735D01*
Y-19745D01*
X557959Y-17908D01*
X556552Y-16501D01*
X554715Y-15740D01*
X552725D01*
X550888Y-16501D01*
X549481Y-17908D01*
X548720Y-19745D01*
Y-21735D01*
X549481Y-23572D01*
X550249Y-24340D01*
X549481Y-25108D01*
X548720Y-26945D01*
Y-28935D01*
X549481Y-30772D01*
X550151Y-31442D01*
Y-54402D01*
X545278Y-59276D01*
X544229Y-59067D01*
X543735Y-57874D01*
X542328Y-56467D01*
X540491Y-55706D01*
X538501D01*
X537819Y-55989D01*
X537344Y-55278D01*
X537554Y-54349D01*
X538117Y-53508D01*
X538378Y-52194D01*
Y-51760D01*
X532470D01*
X526562D01*
Y-52194D01*
X526823Y-53508D01*
X527386Y-54349D01*
X527596Y-55278D01*
X526861Y-56378D01*
X526603Y-57675D01*
Y-63625D01*
X526861Y-64922D01*
X527596Y-66022D01*
X528696Y-66757D01*
X529994Y-67015D01*
X534947D01*
X536244Y-66757D01*
X537133Y-66163D01*
X537700Y-66854D01*
X496603Y-107950D01*
X210774D01*
X210406Y-107061D01*
X214838Y-102629D01*
X272087D01*
X272758Y-103299D01*
X274595Y-104060D01*
X276585D01*
X278422Y-103299D01*
X279829Y-101892D01*
X280590Y-100055D01*
Y-98065D01*
X279829Y-96228D01*
X278422Y-94821D01*
X276585Y-94060D01*
X274595D01*
X272758Y-94821D01*
X272087Y-95491D01*
X213360D01*
X211994Y-95763D01*
X210837Y-96537D01*
X195533Y-111840D01*
X194585D01*
X192748Y-112601D01*
X191341Y-114008D01*
X190580Y-115845D01*
Y-117514D01*
X127792Y-180302D01*
X124606Y-183121D01*
X40848D01*
X33864Y-176138D01*
Y-153953D01*
X34078Y-153790D01*
X34809Y-153640D01*
X35189Y-154020D01*
X37026Y-154781D01*
X39016D01*
X40853Y-154020D01*
X42260Y-152613D01*
X43021Y-150775D01*
Y-148786D01*
X42260Y-146949D01*
X40853Y-145542D01*
X39016Y-144781D01*
X37026D01*
X35189Y-145542D01*
X34822Y-145909D01*
X34001Y-145569D01*
Y-132601D01*
X33864Y-131917D01*
Y-127928D01*
X33593Y-126562D01*
X32819Y-125404D01*
X26891Y-119476D01*
X25733Y-118702D01*
X24367Y-118431D01*
X22632D01*
X21961Y-117760D01*
X20124Y-116999D01*
X18134D01*
X16297Y-117760D01*
X14890Y-119167D01*
X14129Y-121004D01*
Y-122994D01*
X14890Y-124831D01*
X16297Y-126238D01*
X18134Y-126999D01*
X18970D01*
X19464Y-127738D01*
X19130Y-128545D01*
Y-130535D01*
X19564Y-131582D01*
X19256Y-131788D01*
X18521Y-132888D01*
X18263Y-134185D01*
Y-140134D01*
X18521Y-141432D01*
X19256Y-142532D01*
Y-143218D01*
X18521Y-144318D01*
X18263Y-145616D01*
Y-151565D01*
X18521Y-152862D01*
X19256Y-153962D01*
X20356Y-154697D01*
X21653Y-154955D01*
X26607D01*
X26727Y-155054D01*
Y-177616D01*
X26999Y-178981D01*
X27773Y-180139D01*
X33676Y-186043D01*
X33337Y-186864D01*
X-182087Y-187167D01*
X-213360Y-218440D01*
X-261551D01*
X-262176Y-217808D01*
X-261313Y-134059D01*
X-106934Y20320D01*
X36246D01*
X36472Y19668D01*
X36490Y19431D01*
X35131Y18072D01*
X34370Y16235D01*
Y14245D01*
X35131Y12408D01*
X36538Y11001D01*
X38375Y10240D01*
X40365D01*
X42202Y11001D01*
X43609Y12408D01*
X44370Y14245D01*
Y16235D01*
X43609Y18072D01*
X42250Y19431D01*
X42268Y19668D01*
X42495Y20320D01*
X47675D01*
X47902Y19668D01*
X47920Y19431D01*
X46561Y18072D01*
X45800Y16235D01*
Y14245D01*
X46561Y12408D01*
X47968Y11001D01*
X47994Y10990D01*
X47936Y10103D01*
X46747Y9784D01*
X44353Y8402D01*
X42398Y6447D01*
X41016Y4053D01*
X40300Y1382D01*
Y-1382D01*
X41016Y-4053D01*
X42398Y-6447D01*
X44353Y-8402D01*
X46747Y-9784D01*
X49418Y-10500D01*
X52182D01*
X54853Y-9784D01*
X57247Y-8402D01*
X59202Y-6447D01*
X60584Y-4053D01*
X61300Y-1382D01*
Y1382D01*
X60584Y4053D01*
X59202Y6447D01*
X57247Y8402D01*
X54853Y9784D01*
X53664Y10103D01*
X53606Y10990D01*
X53632Y11001D01*
X54303Y11671D01*
X87937D01*
X88608Y11001D01*
X90445Y10240D01*
X92435D01*
X94272Y11001D01*
X95679Y12408D01*
X96440Y14245D01*
Y16235D01*
X95679Y18072D01*
X94320Y19431D01*
X94338Y19668D01*
X94565Y20320D01*
X99746D01*
X99972Y19668D01*
X99990Y19431D01*
X98631Y18072D01*
X97870Y16235D01*
Y14245D01*
X98631Y12408D01*
X100038Y11001D01*
X101875Y10240D01*
X103865D01*
X105702Y11001D01*
X107109Y12408D01*
X107870Y14245D01*
Y16235D01*
X107109Y18072D01*
X105750Y19431D01*
X105768Y19668D01*
X105995Y20320D01*
X654050D01*
X693420Y-19050D01*
D02*
G37*
G36*
X493233Y-111320D02*
X491282Y-113271D01*
X325779D01*
X324413Y-113543D01*
X323290Y-114293D01*
X322942D01*
X321104Y-115055D01*
X319698Y-116461D01*
X318937Y-118299D01*
Y-120288D01*
X319698Y-122126D01*
X321104Y-123532D01*
X321418Y-123662D01*
X321241Y-124551D01*
X316900Y-124551D01*
X316899Y-124551D01*
X316897Y-124551D01*
X316423Y-124646D01*
X315924Y-124745D01*
X315923Y-124746D01*
X315922Y-124746D01*
X315510Y-125022D01*
X315098Y-125297D01*
X315097Y-125299D01*
X315096Y-125299D01*
X314819Y-125714D01*
X314545Y-126124D01*
X314545Y-126126D01*
X314544Y-126127D01*
X314448Y-126612D01*
X314351Y-127100D01*
X314351Y-127101D01*
X314351Y-127102D01*
X314374Y-151077D01*
X314374Y-151077D01*
X314374Y-151599D01*
X314407Y-151764D01*
X314396Y-151931D01*
X314533Y-152971D01*
X314587Y-153130D01*
X314598Y-153298D01*
X314869Y-154311D01*
X314944Y-154462D01*
X314977Y-154627D01*
X315378Y-155596D01*
X315471Y-155736D01*
X315525Y-155895D01*
X316050Y-156803D01*
X316161Y-156929D01*
X316235Y-157080D01*
X316873Y-157912D01*
X317000Y-158023D01*
X317093Y-158163D01*
X317835Y-158904D01*
X317974Y-158998D01*
X318085Y-159124D01*
X318917Y-159762D01*
X319068Y-159837D01*
X319195Y-159948D01*
X320103Y-160472D01*
X320262Y-160526D01*
X320402Y-160619D01*
X320457Y-160642D01*
X320281Y-161531D01*
X304273D01*
X304060Y-160658D01*
X304202Y-160563D01*
X304363Y-160508D01*
X305272Y-159984D01*
X305400Y-159871D01*
X305554Y-159795D01*
X306386Y-159157D01*
X306498Y-159029D01*
X306640Y-158933D01*
X307382Y-158192D01*
X307477Y-158050D01*
X307605Y-157937D01*
X308244Y-157105D01*
X308319Y-156952D01*
X308432Y-156824D01*
X308957Y-155915D01*
X309011Y-155753D01*
X309106Y-155611D01*
X309508Y-154642D01*
X309541Y-154475D01*
X309617Y-154322D01*
X309806Y-153615D01*
X299523D01*
X289241D01*
X289430Y-154322D01*
X289506Y-154475D01*
X289539Y-154642D01*
X289940Y-155611D01*
X290035Y-155753D01*
X290090Y-155915D01*
X290614Y-156823D01*
X290727Y-156952D01*
X290802Y-157105D01*
X291441Y-157937D01*
X291569Y-158050D01*
X291664Y-158192D01*
X292406Y-158933D01*
X292548Y-159028D01*
X292661Y-159156D01*
X293493Y-159795D01*
X293646Y-159870D01*
X293774Y-159983D01*
X294682Y-160507D01*
X294844Y-160562D01*
X294986Y-160657D01*
X294774Y-161531D01*
X278766D01*
X278589Y-160642D01*
X278644Y-160620D01*
X278784Y-160526D01*
X278943Y-160472D01*
X279851Y-159948D01*
X279978Y-159837D01*
X280129Y-159763D01*
X280961Y-159124D01*
X281072Y-158998D01*
X281211Y-158905D01*
X281953Y-158163D01*
X282047Y-158023D01*
X282173Y-157912D01*
X282812Y-157080D01*
X282886Y-156930D01*
X282997Y-156803D01*
X283521Y-155895D01*
X283575Y-155736D01*
X283669Y-155596D01*
X284070Y-154627D01*
X284103Y-154462D01*
X284177Y-154311D01*
X284449Y-153298D01*
X284459Y-153130D01*
X284513Y-152971D01*
X284650Y-151931D01*
X284639Y-151763D01*
X284672Y-151598D01*
X284672Y-151074D01*
X284672Y-151073D01*
X284672Y-151072D01*
X284649Y-127098D01*
X284550Y-126605D01*
X284455Y-126125D01*
X284454Y-126124D01*
X284454Y-126122D01*
X284176Y-125707D01*
X283902Y-125298D01*
X283901Y-125297D01*
X283901Y-125296D01*
X283489Y-125021D01*
X283075Y-124745D01*
X283074Y-124745D01*
X283073Y-124744D01*
X282590Y-124649D01*
X282100Y-124551D01*
X277692Y-124551D01*
Y-121246D01*
X278983Y-119956D01*
X279820Y-117934D01*
Y-115746D01*
X278983Y-113724D01*
X277435Y-112177D01*
X275414Y-111340D01*
X275530Y-110499D01*
X492893D01*
X493233Y-111320D01*
D02*
G37*
G36*
X710000Y56941D02*
X712421D01*
X717222Y56309D01*
X721900Y55056D01*
X726374Y53203D01*
X730567Y50781D01*
X734409Y47834D01*
X737834Y44409D01*
X740781Y40567D01*
X743203Y36374D01*
X745056Y31900D01*
X746309Y27222D01*
X746941Y22421D01*
X746941Y20000D01*
Y-165390D01*
X746052Y-165660D01*
X745687Y-165113D01*
X744557Y-164358D01*
X743225Y-164093D01*
X730140D01*
Y-170200D01*
Y-176307D01*
X743225D01*
X744557Y-176042D01*
X745687Y-175287D01*
X746052Y-174740D01*
X746941Y-175010D01*
Y-187507D01*
X746052Y-187777D01*
X745680Y-187220D01*
X744542Y-186460D01*
X743200Y-186193D01*
X741990D01*
Y-193300D01*
X739450D01*
Y-195840D01*
X731713D01*
X728929Y-198624D01*
X728884Y-198633D01*
X727727Y-199407D01*
X727136Y-200290D01*
X726122Y-200533D01*
X716105Y-190517D01*
X714948Y-189743D01*
X713582Y-189471D01*
X596698D01*
X596657Y-189266D01*
X595922Y-188166D01*
X594822Y-187431D01*
X593525Y-187173D01*
X587575D01*
X586278Y-187431D01*
X585178Y-188166D01*
X584443Y-189266D01*
X584402Y-189471D01*
X581464D01*
X581417Y-189236D01*
X580682Y-188136D01*
X579582Y-187401D01*
X578284Y-187143D01*
X572336D01*
X571038Y-187401D01*
X569938Y-188136D01*
X569203Y-189236D01*
X568945Y-190534D01*
Y-195487D01*
X569203Y-196784D01*
X569938Y-197884D01*
X571038Y-198619D01*
X572336Y-198877D01*
X578284D01*
X579582Y-198619D01*
X580682Y-197884D01*
X581417Y-196784D01*
X581452Y-196609D01*
X584402D01*
X584443Y-196814D01*
X585178Y-197914D01*
X586278Y-198649D01*
X587575Y-198907D01*
X593525D01*
X594822Y-198649D01*
X595922Y-197914D01*
X596657Y-196814D01*
X596698Y-196609D01*
X682990D01*
X683800Y-196800D01*
Y-203300D01*
X635590D01*
Y-292172D01*
X634701Y-292648D01*
X634267Y-292357D01*
X632940Y-292093D01*
X623346D01*
X622782Y-291406D01*
X622863Y-291000D01*
Y-285400D01*
X622614Y-284151D01*
X622038Y-283289D01*
X621959Y-282700D01*
X622038Y-282111D01*
X622614Y-281249D01*
X622863Y-280000D01*
Y-274400D01*
X622614Y-273151D01*
X622060Y-272322D01*
X621936Y-271336D01*
X622652Y-270264D01*
X622904Y-269000D01*
Y-268740D01*
X614800D01*
Y-263660D01*
X622904D01*
Y-263400D01*
X622652Y-262136D01*
X621936Y-261064D01*
X622060Y-260078D01*
X622614Y-259249D01*
X622863Y-258000D01*
Y-252400D01*
X622614Y-251152D01*
X622038Y-250289D01*
X621959Y-249700D01*
X622038Y-249111D01*
X622614Y-248249D01*
X622863Y-247000D01*
Y-241400D01*
X622614Y-240152D01*
X622038Y-239289D01*
X621959Y-238700D01*
X622038Y-238111D01*
X622614Y-237249D01*
X622863Y-236000D01*
Y-230400D01*
X622614Y-229151D01*
X622038Y-228289D01*
X621959Y-227700D01*
X622038Y-227111D01*
X622614Y-226249D01*
X622863Y-225000D01*
Y-219400D01*
X622614Y-218151D01*
X622038Y-217289D01*
X621959Y-216700D01*
X622038Y-216111D01*
X622614Y-215249D01*
X622863Y-214000D01*
Y-208400D01*
X622614Y-207152D01*
X621907Y-206093D01*
X620849Y-205386D01*
X619600Y-205137D01*
X610000D01*
X608751Y-205386D01*
X607693Y-206093D01*
X606986Y-207152D01*
X606737Y-208400D01*
Y-214000D01*
X606986Y-215249D01*
X607562Y-216111D01*
X607641Y-216700D01*
X607562Y-217289D01*
X606986Y-218151D01*
X606890Y-218631D01*
X596688D01*
X596657Y-218476D01*
X595922Y-217376D01*
X594822Y-216641D01*
X593525Y-216383D01*
X587575D01*
X586278Y-216641D01*
X585178Y-217376D01*
X584443Y-218476D01*
X584412Y-218631D01*
X491840D01*
X490796Y-217587D01*
X488774Y-216750D01*
X486586D01*
X484565Y-217587D01*
X483520Y-218631D01*
X426770D01*
X425404Y-218903D01*
X424247Y-219677D01*
X332532Y-311391D01*
X328666D01*
X327959Y-310502D01*
X328059Y-310000D01*
Y-171707D01*
X328880Y-171367D01*
X339077Y-181563D01*
X340234Y-182337D01*
X341600Y-182609D01*
X483470D01*
X484565Y-183703D01*
X486586Y-184540D01*
X488774D01*
X490796Y-183703D01*
X491890Y-182609D01*
X553922D01*
X553963Y-182814D01*
X554698Y-183914D01*
X555798Y-184649D01*
X557095Y-184907D01*
X563045D01*
X564342Y-184649D01*
X565442Y-183914D01*
X566177Y-182814D01*
X566221Y-182593D01*
X569165D01*
X569203Y-182784D01*
X569938Y-183884D01*
X571038Y-184619D01*
X572336Y-184877D01*
X578284D01*
X579582Y-184619D01*
X580682Y-183884D01*
X581417Y-182784D01*
X581675Y-181486D01*
Y-176534D01*
X581417Y-175236D01*
X580682Y-174136D01*
X579582Y-173401D01*
X578284Y-173143D01*
X572336D01*
X571038Y-173401D01*
X569938Y-174136D01*
X569203Y-175236D01*
X569159Y-175456D01*
X566215D01*
X566177Y-175266D01*
X565442Y-174166D01*
X564342Y-173431D01*
X563045Y-173173D01*
X557095D01*
X555798Y-173431D01*
X554698Y-174166D01*
X553963Y-175266D01*
X553922Y-175471D01*
X491890D01*
X490796Y-174377D01*
X488774Y-173540D01*
X486586D01*
X484565Y-174377D01*
X483470Y-175471D01*
X343078D01*
X330183Y-162577D01*
X329026Y-161803D01*
X328948Y-161788D01*
X328857Y-160863D01*
X329444Y-160620D01*
X329584Y-160526D01*
X329743Y-160472D01*
X330651Y-159948D01*
X330778Y-159837D01*
X330929Y-159763D01*
X331761Y-159124D01*
X331872Y-158998D01*
X332011Y-158905D01*
X332753Y-158163D01*
X332847Y-158023D01*
X332973Y-157912D01*
X333611Y-157080D01*
X333686Y-156930D01*
X333797Y-156803D01*
X334321Y-155895D01*
X334375Y-155736D01*
X334469Y-155596D01*
X334870Y-154627D01*
X334903Y-154462D01*
X334977Y-154311D01*
X335248Y-153298D01*
X335260Y-153130D01*
X335313Y-152971D01*
X335450Y-151931D01*
X335439Y-151763D01*
X335472Y-151598D01*
X335472Y-151074D01*
X335472Y-151073D01*
X335472Y-151072D01*
X335449Y-127098D01*
X335350Y-126605D01*
X335255Y-126125D01*
X335254Y-126124D01*
X335254Y-126122D01*
X334976Y-125707D01*
X334702Y-125298D01*
X334701Y-125297D01*
X334701Y-125296D01*
X334289Y-125021D01*
X333875Y-124745D01*
X333874Y-124745D01*
X333873Y-124744D01*
X333390Y-124649D01*
X332900Y-124551D01*
X326632Y-124551D01*
X326456Y-123662D01*
X326769Y-123532D01*
X328175Y-122126D01*
X328887Y-120409D01*
X492760D01*
X494126Y-120137D01*
X495283Y-119363D01*
X505095Y-109551D01*
X505980Y-109639D01*
X506056Y-109752D01*
X506883Y-110305D01*
X507858Y-110499D01*
X519531D01*
X530927Y-123743D01*
X530556Y-124551D01*
X520100Y-124551D01*
X520099Y-124551D01*
X520097Y-124551D01*
X519622Y-124646D01*
X519124Y-124745D01*
X519123Y-124746D01*
X519122Y-124746D01*
X518710Y-125022D01*
X518298Y-125297D01*
X518297Y-125299D01*
X518296Y-125299D01*
X518019Y-125714D01*
X517745Y-126124D01*
X517745Y-126126D01*
X517744Y-126127D01*
X517648Y-126612D01*
X517551Y-127100D01*
X517551Y-127101D01*
X517551Y-127102D01*
X517574Y-151077D01*
X517574Y-151077D01*
X517574Y-151599D01*
X517607Y-151764D01*
X517596Y-151931D01*
X517733Y-152971D01*
X517787Y-153130D01*
X517798Y-153298D01*
X518069Y-154311D01*
X518144Y-154462D01*
X518177Y-154627D01*
X518578Y-155596D01*
X518671Y-155736D01*
X518725Y-155895D01*
X519250Y-156803D01*
X519361Y-156929D01*
X519435Y-157080D01*
X520073Y-157912D01*
X520200Y-158023D01*
X520293Y-158163D01*
X521035Y-158904D01*
X521174Y-158998D01*
X521285Y-159124D01*
X522117Y-159762D01*
X522268Y-159837D01*
X522395Y-159948D01*
X523303Y-160472D01*
X523462Y-160526D01*
X523602Y-160619D01*
X524571Y-161021D01*
X524736Y-161053D01*
X524886Y-161128D01*
X525899Y-161399D01*
X526067Y-161410D01*
X526226Y-161464D01*
X527266Y-161601D01*
X527434Y-161590D01*
X527599Y-161623D01*
X528122Y-161623D01*
X528647Y-161623D01*
X528812Y-161590D01*
X528979Y-161601D01*
X530019Y-161464D01*
X530178Y-161410D01*
X530346Y-161399D01*
X531359Y-161128D01*
X531510Y-161054D01*
X531675Y-161021D01*
X532644Y-160620D01*
X532784Y-160526D01*
X532943Y-160472D01*
X533851Y-159948D01*
X533978Y-159837D01*
X534129Y-159763D01*
X534961Y-159124D01*
X535072Y-158998D01*
X535211Y-158905D01*
X535953Y-158163D01*
X536047Y-158023D01*
X536173Y-157912D01*
X536811Y-157080D01*
X536886Y-156930D01*
X536997Y-156803D01*
X537521Y-155895D01*
X537575Y-155736D01*
X537669Y-155596D01*
X538070Y-154627D01*
X538103Y-154462D01*
X538177Y-154311D01*
X538448Y-153298D01*
X538460Y-153130D01*
X538513Y-152971D01*
X538650Y-151931D01*
X538639Y-151763D01*
X538672Y-151598D01*
X538672Y-151074D01*
X538672Y-151073D01*
X538672Y-151072D01*
X538656Y-134003D01*
X539489Y-133694D01*
X540191Y-134509D01*
X540229Y-134540D01*
X540255Y-134581D01*
X540620Y-134845D01*
X540974Y-135122D01*
X541021Y-135135D01*
X541061Y-135164D01*
X541498Y-135268D01*
X541932Y-135389D01*
X541981Y-135383D01*
X542029Y-135394D01*
X542029Y-135394D01*
X542919Y-136013D01*
X542931Y-148535D01*
X553523D01*
Y-151075D01*
X556063D01*
Y-161357D01*
X556770Y-161168D01*
X556923Y-161092D01*
X557091Y-161059D01*
X558060Y-160658D01*
X558202Y-160563D01*
X558363Y-160508D01*
X559272Y-159984D01*
X559400Y-159871D01*
X559554Y-159795D01*
X560197Y-159302D01*
X561203Y-159384D01*
X561589Y-159888D01*
X561420Y-160295D01*
Y-162285D01*
X562181Y-164122D01*
X563588Y-165529D01*
X565425Y-166290D01*
X567415D01*
X569252Y-165529D01*
X569672Y-165109D01*
X587298D01*
X587718Y-165529D01*
X589555Y-166290D01*
X591545D01*
X593382Y-165529D01*
X593802Y-165109D01*
X604230D01*
X604500Y-165998D01*
X604259Y-166159D01*
X603468Y-167343D01*
X603190Y-168740D01*
Y-174557D01*
X602369Y-174897D01*
X602272Y-174801D01*
X600434Y-174040D01*
X598445D01*
X596608Y-174801D01*
X596328Y-174774D01*
X595922Y-174166D01*
X594822Y-173431D01*
X593525Y-173173D01*
X587575D01*
X586278Y-173431D01*
X585178Y-174166D01*
X584443Y-175266D01*
X584185Y-176563D01*
Y-181516D01*
X584443Y-182814D01*
X585178Y-183914D01*
X586278Y-184649D01*
X587575Y-184907D01*
X593525D01*
X594822Y-184649D01*
X595922Y-183914D01*
X596328Y-183306D01*
X596608Y-183279D01*
X598445Y-184040D01*
X600434D01*
X602272Y-183279D01*
X603679Y-181872D01*
X604182Y-180658D01*
X605261Y-180311D01*
X605443Y-180432D01*
X606840Y-180710D01*
X612410D01*
Y-172900D01*
X617490D01*
Y-180710D01*
X623060D01*
X624457Y-180432D01*
X625641Y-179641D01*
X626432Y-178457D01*
X626710Y-177060D01*
Y-176289D01*
X628650D01*
X630016Y-176017D01*
X631173Y-175243D01*
X631947Y-174086D01*
X632219Y-172720D01*
X631947Y-171354D01*
X631173Y-170197D01*
X630016Y-169423D01*
X628650Y-169151D01*
X626710D01*
Y-168740D01*
X626432Y-167343D01*
X625641Y-166159D01*
X625400Y-165998D01*
X625670Y-165109D01*
X639368Y-165109D01*
X639788Y-165529D01*
X641625Y-166290D01*
X643615D01*
X645452Y-165529D01*
X645872Y-165109D01*
X664768D01*
X665188Y-165529D01*
X667025Y-166290D01*
X669015D01*
X670852Y-165529D01*
X671272Y-165109D01*
X687628D01*
X688048Y-165529D01*
X689885Y-166290D01*
X691875D01*
X693712Y-165529D01*
X694309Y-164932D01*
X694395Y-164915D01*
X695222Y-164362D01*
X695775Y-163535D01*
X695969Y-162560D01*
Y-156709D01*
X696858Y-156471D01*
X697050Y-156803D01*
X697160Y-156929D01*
X697235Y-157080D01*
X697873Y-157912D01*
X698000Y-158023D01*
X698093Y-158163D01*
X698835Y-158904D01*
X698974Y-158998D01*
X699085Y-159124D01*
X699917Y-159762D01*
X700068Y-159837D01*
X700195Y-159948D01*
X701103Y-160472D01*
X701262Y-160526D01*
X701402Y-160619D01*
X702371Y-161021D01*
X702536Y-161053D01*
X702686Y-161128D01*
X703699Y-161399D01*
X703867Y-161410D01*
X704026Y-161464D01*
X705066Y-161601D01*
X705234Y-161590D01*
X705399Y-161623D01*
X705922Y-161623D01*
X706447Y-161623D01*
X706612Y-161590D01*
X706779Y-161601D01*
X707819Y-161464D01*
X707978Y-161410D01*
X708146Y-161399D01*
X709159Y-161128D01*
X709310Y-161054D01*
X709475Y-161021D01*
X710444Y-160620D01*
X710584Y-160526D01*
X710743Y-160472D01*
X711651Y-159948D01*
X711778Y-159837D01*
X711929Y-159763D01*
X712761Y-159124D01*
X712872Y-158998D01*
X713011Y-158905D01*
X713753Y-158163D01*
X713847Y-158023D01*
X713973Y-157912D01*
X714612Y-157080D01*
X714686Y-156930D01*
X714797Y-156803D01*
X715321Y-155895D01*
X715375Y-155736D01*
X715469Y-155596D01*
X715870Y-154627D01*
X715903Y-154462D01*
X715977Y-154311D01*
X716248Y-153298D01*
X716260Y-153130D01*
X716313Y-152971D01*
X716450Y-151931D01*
X716439Y-151763D01*
X716472Y-151598D01*
X716472Y-151074D01*
X716472Y-151073D01*
X716472Y-151072D01*
X716449Y-127098D01*
X716350Y-126605D01*
X716255Y-126125D01*
X716254Y-126124D01*
X716254Y-126122D01*
X715976Y-125707D01*
X715702Y-125298D01*
X715701Y-125297D01*
X715701Y-125296D01*
X715289Y-125021D01*
X714875Y-124745D01*
X714874Y-124745D01*
X714873Y-124744D01*
X714390Y-124649D01*
X713900Y-124551D01*
X697900Y-124551D01*
X697899Y-124551D01*
X697897Y-124551D01*
X697422Y-124646D01*
X696924Y-124745D01*
X696923Y-124746D01*
X696922Y-124746D01*
X696858Y-124789D01*
X696016Y-124375D01*
X695969Y-124314D01*
Y-19050D01*
X695775Y-18075D01*
X695222Y-17248D01*
X655852Y22122D01*
X655025Y22675D01*
X654050Y22869D01*
X105995D01*
X105921Y22854D01*
X105846Y22865D01*
X105435Y22758D01*
X105019Y22675D01*
X104956Y22633D01*
X104883Y22614D01*
X104545Y22358D01*
X104192Y22122D01*
X104150Y22060D01*
X104090Y22014D01*
X103875Y21648D01*
X103640Y21295D01*
X103625Y21221D01*
X103587Y21156D01*
X103360Y20505D01*
X103315Y20179D01*
X102425D01*
X102380Y20505D01*
X102153Y21156D01*
X102115Y21221D01*
X102100Y21295D01*
X101865Y21648D01*
X101650Y22014D01*
X101590Y22060D01*
X101548Y22122D01*
X101195Y22358D01*
X100857Y22614D01*
X100784Y22633D01*
X100721Y22675D01*
X100305Y22758D01*
X99894Y22865D01*
X99819Y22854D01*
X99746Y22869D01*
X94565D01*
X94491Y22854D01*
X94416Y22865D01*
X94005Y22758D01*
X93589Y22675D01*
X93526Y22633D01*
X93453Y22614D01*
X93115Y22358D01*
X92762Y22122D01*
X92720Y22060D01*
X92660Y22014D01*
X92445Y21648D01*
X92210Y21295D01*
X92195Y21221D01*
X92157Y21156D01*
X91930Y20505D01*
X91894Y20240D01*
X90445D01*
X88608Y19479D01*
X87937Y18809D01*
X54303D01*
X53632Y19479D01*
X51795Y20240D01*
X50346D01*
X50310Y20505D01*
X50083Y21156D01*
X50045Y21221D01*
X50030Y21295D01*
X49795Y21648D01*
X49580Y22014D01*
X49520Y22060D01*
X49478Y22122D01*
X49125Y22358D01*
X48787Y22614D01*
X48714Y22633D01*
X48651Y22675D01*
X48235Y22758D01*
X47824Y22865D01*
X47749Y22854D01*
X47675Y22869D01*
X42495D01*
X42421Y22854D01*
X42346Y22865D01*
X41935Y22758D01*
X41519Y22675D01*
X41456Y22633D01*
X41383Y22614D01*
X41045Y22358D01*
X40692Y22122D01*
X40650Y22060D01*
X40590Y22014D01*
X40375Y21648D01*
X40140Y21295D01*
X40125Y21221D01*
X40087Y21156D01*
X39860Y20505D01*
X39815Y20179D01*
X38925D01*
X38880Y20505D01*
X38653Y21156D01*
X38615Y21221D01*
X38600Y21295D01*
X38365Y21648D01*
X38150Y22014D01*
X38090Y22060D01*
X38048Y22122D01*
X37695Y22358D01*
X37357Y22614D01*
X37284Y22633D01*
X37221Y22675D01*
X36805Y22758D01*
X36394Y22865D01*
X36319Y22854D01*
X36246Y22869D01*
X-106934D01*
X-107909Y22675D01*
X-108736Y22122D01*
X-263116Y-132257D01*
X-263385Y-132660D01*
X-263658Y-133059D01*
X-263661Y-133073D01*
X-263668Y-133084D01*
X-263763Y-133559D01*
X-263862Y-134033D01*
X-264494Y-195387D01*
X-265318Y-195723D01*
X-266446Y-194594D01*
X-268899Y-193178D01*
X-271634Y-192445D01*
X-274466D01*
X-277201Y-193178D01*
X-279654Y-194594D01*
X-281656Y-196596D01*
X-283072Y-199049D01*
X-283805Y-201784D01*
Y-204616D01*
X-283072Y-207351D01*
X-281656Y-209804D01*
X-279654Y-211806D01*
X-277201Y-213222D01*
X-274466Y-213955D01*
X-271634D01*
X-268899Y-213222D01*
X-266446Y-211806D01*
X-265477Y-210837D01*
X-264657Y-211181D01*
X-264725Y-217782D01*
X-264724Y-217788D01*
X-264725Y-217795D01*
X-264632Y-218278D01*
X-264541Y-218759D01*
X-264538Y-218765D01*
X-264536Y-218771D01*
X-264266Y-219181D01*
X-263997Y-219592D01*
X-263992Y-219596D01*
X-263988Y-219601D01*
X-263516Y-220078D01*
X-263663Y-220675D01*
X-263862Y-220967D01*
X-335326D01*
X-343297Y-212996D01*
X-343181Y-212115D01*
X-342646Y-211806D01*
X-340644Y-209804D01*
X-339228Y-207351D01*
X-338495Y-204616D01*
Y-201784D01*
X-339228Y-199049D01*
X-340644Y-196596D01*
X-342646Y-194594D01*
X-345099Y-193178D01*
X-347834Y-192445D01*
X-350666D01*
X-353401Y-193178D01*
X-355854Y-194594D01*
X-357856Y-196596D01*
X-359272Y-199049D01*
X-360005Y-201784D01*
Y-204616D01*
X-359272Y-207351D01*
X-357856Y-209804D01*
X-355854Y-211806D01*
X-353401Y-213222D01*
X-351538Y-213721D01*
X-351353Y-214649D01*
X-350580Y-215807D01*
X-340653Y-225734D01*
X-340993Y-226555D01*
X-346248D01*
X-364930Y-207874D01*
X-364628Y-207351D01*
X-363895Y-204616D01*
Y-201784D01*
X-364628Y-199049D01*
X-366044Y-196596D01*
X-368046Y-194594D01*
X-370499Y-193178D01*
X-373234Y-192445D01*
X-376066D01*
X-378801Y-193178D01*
X-381254Y-194594D01*
X-383256Y-196596D01*
X-384672Y-199049D01*
X-385405Y-201784D01*
Y-204616D01*
X-384672Y-207351D01*
X-383256Y-209804D01*
X-381254Y-211806D01*
X-378801Y-213222D01*
X-376066Y-213955D01*
X-373234D01*
X-370499Y-213222D01*
X-369976Y-212920D01*
X-351575Y-231322D01*
X-351915Y-232143D01*
X-362712D01*
X-364078Y-232415D01*
X-365235Y-233189D01*
X-394342Y-262295D01*
X-410805D01*
Y-283805D01*
X-389295D01*
Y-267342D01*
X-361234Y-239281D01*
X-347581D01*
X-347407Y-240170D01*
X-351773Y-244536D01*
X-352547Y-245694D01*
X-352819Y-247059D01*
Y-262872D01*
X-353401Y-263028D01*
X-355854Y-264444D01*
X-357856Y-266446D01*
X-359272Y-268899D01*
X-360005Y-271634D01*
Y-274466D01*
X-359272Y-277201D01*
X-357856Y-279654D01*
X-355854Y-281656D01*
X-353401Y-283072D01*
X-350666Y-283805D01*
X-347834D01*
X-345099Y-283072D01*
X-342646Y-281656D01*
X-340644Y-279654D01*
X-339228Y-277201D01*
X-338495Y-274466D01*
Y-271634D01*
X-339228Y-268899D01*
X-340644Y-266446D01*
X-342646Y-264444D01*
X-345099Y-263028D01*
X-345681Y-262872D01*
Y-248538D01*
X-343282Y-246139D01*
X-318698D01*
X-318357Y-246960D01*
X-326373Y-254976D01*
X-327147Y-256134D01*
X-327419Y-257499D01*
Y-262872D01*
X-328001Y-263028D01*
X-330454Y-264444D01*
X-332456Y-266446D01*
X-333872Y-268899D01*
X-334605Y-271634D01*
Y-274466D01*
X-333872Y-277201D01*
X-332456Y-279654D01*
X-330454Y-281656D01*
X-328001Y-283072D01*
X-325266Y-283805D01*
X-322434D01*
X-319699Y-283072D01*
X-317246Y-281656D01*
X-315244Y-279654D01*
X-313828Y-277201D01*
X-313095Y-274466D01*
Y-271634D01*
X-313828Y-268899D01*
X-315244Y-266446D01*
X-317246Y-264444D01*
X-319699Y-263028D01*
X-320281Y-262872D01*
Y-258977D01*
X-313031Y-251727D01*
X-206756D01*
X-205390Y-251455D01*
X-204233Y-250681D01*
X-171750Y-218199D01*
X142975D01*
X144341Y-217927D01*
X145498Y-217153D01*
X150803Y-211849D01*
X153977D01*
X154648Y-212519D01*
X156485Y-213280D01*
X158475D01*
X160312Y-212519D01*
X161719Y-211112D01*
X162480Y-209275D01*
Y-207285D01*
X161719Y-205448D01*
X160312Y-204041D01*
X158475Y-203280D01*
X156485D01*
X154648Y-204041D01*
X154266Y-204423D01*
X153884Y-204368D01*
X153569Y-203426D01*
X155343Y-201651D01*
X156117Y-200494D01*
X156389Y-199128D01*
Y-195210D01*
X156680Y-194919D01*
X162228D01*
X162722Y-195658D01*
X162640Y-195855D01*
Y-197845D01*
X163401Y-199682D01*
X164808Y-201089D01*
X166645Y-201850D01*
X168635D01*
X170472Y-201089D01*
X171879Y-199682D01*
X172640Y-197845D01*
Y-195855D01*
X171879Y-194018D01*
X170635Y-192773D01*
Y-192534D01*
X170363Y-191168D01*
X169589Y-190011D01*
X168405Y-188827D01*
X167248Y-188053D01*
X165882Y-187781D01*
X155202D01*
X153836Y-188053D01*
X152678Y-188827D01*
X150297Y-191208D01*
X149531Y-192354D01*
X148315Y-191850D01*
X146325D01*
X144488Y-192611D01*
X143081Y-194018D01*
X142320Y-195855D01*
Y-196803D01*
X139492Y-199631D01*
X138410D01*
X137916Y-198892D01*
X138350Y-197845D01*
Y-195855D01*
X137589Y-194018D01*
X136182Y-192611D01*
X135198Y-192204D01*
X135025Y-191332D01*
X206145Y-120212D01*
X269914D01*
X270555Y-120853D01*
Y-123922D01*
X269926Y-124551D01*
X266100Y-124551D01*
X266099Y-124551D01*
X266097Y-124551D01*
X265623Y-124646D01*
X265124Y-124745D01*
X265123Y-124746D01*
X265122Y-124746D01*
X264710Y-125022D01*
X264298Y-125297D01*
X264297Y-125299D01*
X264296Y-125299D01*
X264019Y-125714D01*
X263745Y-126124D01*
X263745Y-126126D01*
X263744Y-126127D01*
X263648Y-126612D01*
X263551Y-127100D01*
X263551Y-127101D01*
X263551Y-127102D01*
X263574Y-151077D01*
X263574Y-151077D01*
X263574Y-151599D01*
X263607Y-151764D01*
X263596Y-151931D01*
X263733Y-152971D01*
X263787Y-153130D01*
X263798Y-153298D01*
X264069Y-154311D01*
X264144Y-154462D01*
X264177Y-154627D01*
X264578Y-155596D01*
X264671Y-155736D01*
X264725Y-155895D01*
X265250Y-156803D01*
X265361Y-156929D01*
X265435Y-157080D01*
X266073Y-157912D01*
X266200Y-158023D01*
X266293Y-158163D01*
X267035Y-158904D01*
X267174Y-158998D01*
X267285Y-159124D01*
X268117Y-159762D01*
X268268Y-159837D01*
X268395Y-159948D01*
X269303Y-160472D01*
X269462Y-160526D01*
X269602Y-160619D01*
X269657Y-160642D01*
X269481Y-161531D01*
X260558D01*
X256845Y-157818D01*
X257411Y-157080D01*
X257486Y-156930D01*
X257597Y-156803D01*
X258121Y-155895D01*
X258175Y-155736D01*
X258269Y-155596D01*
X258670Y-154627D01*
X258703Y-154462D01*
X258777Y-154311D01*
X259049Y-153298D01*
X259060Y-153130D01*
X259114Y-152971D01*
X259250Y-151931D01*
X259239Y-151763D01*
X259272Y-151598D01*
X259272Y-151074D01*
X259272Y-151073D01*
X259272Y-151072D01*
X259249Y-127098D01*
X259150Y-126605D01*
X259055Y-126125D01*
X259054Y-126124D01*
X259054Y-126122D01*
X258776Y-125707D01*
X258502Y-125298D01*
X258501Y-125297D01*
X258500Y-125296D01*
X258089Y-125021D01*
X257675Y-124745D01*
X257674Y-124745D01*
X257673Y-124744D01*
X257190Y-124649D01*
X256700Y-124551D01*
X240700Y-124551D01*
X240699Y-124551D01*
X240697Y-124551D01*
X240222Y-124646D01*
X239724Y-124745D01*
X239723Y-124746D01*
X239722Y-124746D01*
X239310Y-125022D01*
X238897Y-125297D01*
X238897Y-125299D01*
X238896Y-125299D01*
X238619Y-125714D01*
X238345Y-126124D01*
X238345Y-126126D01*
X238344Y-126127D01*
X238248Y-126612D01*
X238151Y-127100D01*
X238151Y-127101D01*
X238151Y-127102D01*
X238174Y-151077D01*
X238174Y-151077D01*
X238174Y-151599D01*
X238207Y-151764D01*
X238196Y-151931D01*
X238333Y-152971D01*
X238387Y-153130D01*
X238398Y-153298D01*
X238669Y-154311D01*
X238744Y-154462D01*
X238777Y-154627D01*
X239178Y-155596D01*
X239271Y-155736D01*
X239325Y-155895D01*
X239850Y-156803D01*
X239960Y-156929D01*
X240035Y-157080D01*
X240673Y-157912D01*
X240800Y-158023D01*
X240893Y-158163D01*
X241635Y-158904D01*
X241774Y-158998D01*
X241885Y-159124D01*
X242717Y-159762D01*
X242868Y-159837D01*
X242995Y-159948D01*
X243903Y-160472D01*
X244062Y-160526D01*
X244202Y-160619D01*
X245171Y-161021D01*
X245336Y-161053D01*
X245486Y-161128D01*
X246499Y-161399D01*
X246667Y-161410D01*
X246826Y-161464D01*
X247866Y-161601D01*
X248034Y-161590D01*
X248199Y-161623D01*
X248722Y-161623D01*
X249247Y-161623D01*
X249412Y-161590D01*
X249579Y-161601D01*
X250423Y-161490D01*
X255053Y-166120D01*
X254713Y-166941D01*
X235000D01*
X233829Y-167174D01*
X232837Y-167837D01*
X232174Y-168829D01*
X231941Y-170000D01*
Y-310000D01*
X232174Y-311171D01*
X232837Y-312163D01*
X233829Y-312826D01*
X235000Y-313059D01*
X276363D01*
X276703Y-313880D01*
X272042Y-318541D01*
X271900Y-318550D01*
X270887Y-318821D01*
X270737Y-318896D01*
X270571Y-318929D01*
X269603Y-319330D01*
X269463Y-319423D01*
X269304Y-319477D01*
X268395Y-320001D01*
X268269Y-320112D01*
X268118Y-320187D01*
X267286Y-320825D01*
X267175Y-320951D01*
X267035Y-321045D01*
X266294Y-321786D01*
X266200Y-321926D01*
X266074Y-322037D01*
X265435Y-322869D01*
X265361Y-323020D01*
X265250Y-323146D01*
X264726Y-324055D01*
X264672Y-324214D01*
X264578Y-324354D01*
X264177Y-325323D01*
X264144Y-325488D01*
X264070Y-325639D01*
X263798Y-326651D01*
X263787Y-326819D01*
X263733Y-326979D01*
X263596Y-328018D01*
X263608Y-328186D01*
X263575Y-328351D01*
X263575Y-328876D01*
X263575Y-328876D01*
X263575Y-328877D01*
X263598Y-352852D01*
X263696Y-353345D01*
X263792Y-353825D01*
X263793Y-353826D01*
X263793Y-353827D01*
X264071Y-354243D01*
X264344Y-354652D01*
X264345Y-354653D01*
X264346Y-354654D01*
X264758Y-354928D01*
X265171Y-355205D01*
X265173Y-355205D01*
X265174Y-355205D01*
X265657Y-355301D01*
X266147Y-355398D01*
X282147Y-355399D01*
X282148Y-355398D01*
X282149Y-355399D01*
X282624Y-355304D01*
X283122Y-355205D01*
X283123Y-355204D01*
X283125Y-355204D01*
X283537Y-354927D01*
X283949Y-354652D01*
X283950Y-354651D01*
X283951Y-354650D01*
X284227Y-354236D01*
X284502Y-353825D01*
X284502Y-353824D01*
X284503Y-353823D01*
X284599Y-353337D01*
X284696Y-352850D01*
X284696Y-352848D01*
X284696Y-352847D01*
X284672Y-328873D01*
X284672Y-328872D01*
X284672Y-328351D01*
X284640Y-328186D01*
X284651Y-328018D01*
X284514Y-326978D01*
X284460Y-326819D01*
X284449Y-326651D01*
X284177Y-325639D01*
X284103Y-325488D01*
X284070Y-325323D01*
X283669Y-324354D01*
X283575Y-324214D01*
X283521Y-324055D01*
X282997Y-323147D01*
X282886Y-323020D01*
X282812Y-322869D01*
X282173Y-322038D01*
X282047Y-321927D01*
X281954Y-321787D01*
X281212Y-321045D01*
X281072Y-320952D01*
X280961Y-320826D01*
X280868Y-320754D01*
X280810Y-319867D01*
X282148Y-318529D01*
X294589D01*
X294599Y-318548D01*
X294683Y-319442D01*
X293775Y-319966D01*
X293646Y-320079D01*
X293493Y-320154D01*
X292661Y-320793D01*
X292548Y-320921D01*
X292406Y-321016D01*
X291665Y-321758D01*
X291570Y-321900D01*
X291441Y-322012D01*
X290803Y-322844D01*
X290727Y-322998D01*
X290615Y-323126D01*
X290090Y-324034D01*
X290035Y-324196D01*
X289940Y-324338D01*
X289539Y-325307D01*
X289506Y-325475D01*
X289430Y-325628D01*
X289241Y-326335D01*
X299523D01*
X309806D01*
X309617Y-325628D01*
X309541Y-325475D01*
X309508Y-325307D01*
X309107Y-324338D01*
X309012Y-324196D01*
X308957Y-324035D01*
X308432Y-323126D01*
X308320Y-322998D01*
X308244Y-322845D01*
X307606Y-322013D01*
X307477Y-321900D01*
X307382Y-321758D01*
X306641Y-321017D01*
X306499Y-320922D01*
X306386Y-320793D01*
X305554Y-320155D01*
X305401Y-320079D01*
X305273Y-319967D01*
X304364Y-319442D01*
X304448Y-318548D01*
X304458Y-318529D01*
X320042D01*
X320069Y-318587D01*
X320104Y-319477D01*
X319195Y-320001D01*
X319069Y-320112D01*
X318918Y-320187D01*
X318086Y-320825D01*
X317975Y-320951D01*
X317835Y-321045D01*
X317094Y-321786D01*
X317000Y-321926D01*
X316874Y-322037D01*
X316235Y-322869D01*
X316161Y-323020D01*
X316050Y-323146D01*
X315526Y-324055D01*
X315472Y-324214D01*
X315378Y-324354D01*
X314977Y-325323D01*
X314944Y-325488D01*
X314870Y-325639D01*
X314598Y-326651D01*
X314587Y-326819D01*
X314533Y-326979D01*
X314396Y-328018D01*
X314408Y-328186D01*
X314375Y-328351D01*
X314375Y-328876D01*
X314375Y-328876D01*
X314375Y-328877D01*
X314398Y-352852D01*
X314496Y-353345D01*
X314592Y-353825D01*
X314593Y-353826D01*
X314593Y-353827D01*
X314871Y-354243D01*
X315144Y-354652D01*
X315145Y-354653D01*
X315146Y-354654D01*
X315558Y-354928D01*
X315971Y-355205D01*
X315973Y-355205D01*
X315974Y-355205D01*
X316457Y-355301D01*
X316947Y-355398D01*
X320281Y-355398D01*
Y-358140D01*
X320553Y-359506D01*
X321327Y-360663D01*
X327046Y-366382D01*
X326678Y-367271D01*
X271988D01*
X258878Y-354161D01*
X259102Y-353825D01*
X259102Y-353824D01*
X259103Y-353823D01*
X259199Y-353337D01*
X259296Y-352850D01*
X259296Y-352848D01*
X259296Y-352847D01*
X259272Y-328873D01*
X259272Y-328872D01*
X259272Y-328351D01*
X259240Y-328186D01*
X259251Y-328018D01*
X259114Y-326978D01*
X259060Y-326819D01*
X259049Y-326651D01*
X258777Y-325639D01*
X258703Y-325488D01*
X258670Y-325323D01*
X258269Y-324354D01*
X258175Y-324214D01*
X258121Y-324055D01*
X257597Y-323147D01*
X257486Y-323020D01*
X257412Y-322869D01*
X256773Y-322038D01*
X256647Y-321927D01*
X256554Y-321787D01*
X255812Y-321045D01*
X255672Y-320952D01*
X255561Y-320826D01*
X254729Y-320187D01*
X254579Y-320113D01*
X254452Y-320002D01*
X253544Y-319478D01*
X253385Y-319424D01*
X253245Y-319330D01*
X252276Y-318929D01*
X252111Y-318896D01*
X251960Y-318822D01*
X250947Y-318550D01*
X250780Y-318539D01*
X250620Y-318485D01*
X249581Y-318349D01*
X249413Y-318360D01*
X249248Y-318327D01*
X248724Y-318327D01*
X248200Y-318327D01*
X248035Y-318360D01*
X247867Y-318349D01*
X246828Y-318485D01*
X246668Y-318539D01*
X246500Y-318550D01*
X245487Y-318821D01*
X245336Y-318896D01*
X245172Y-318929D01*
X244203Y-319330D01*
X244063Y-319423D01*
X243904Y-319477D01*
X242995Y-320001D01*
X242869Y-320112D01*
X242718Y-320187D01*
X241886Y-320825D01*
X241775Y-320951D01*
X241635Y-321045D01*
X240894Y-321786D01*
X240800Y-321926D01*
X240674Y-322037D01*
X240035Y-322869D01*
X239961Y-323020D01*
X239850Y-323146D01*
X239326Y-324055D01*
X239272Y-324214D01*
X239178Y-324354D01*
X238777Y-325323D01*
X238744Y-325488D01*
X238670Y-325639D01*
X238398Y-326651D01*
X238387Y-326819D01*
X238333Y-326979D01*
X238197Y-328018D01*
X238207Y-328186D01*
X238175Y-328351D01*
X238175Y-328876D01*
X238175Y-328876D01*
X238175Y-328877D01*
X238198Y-352852D01*
X238296Y-353345D01*
X238392Y-353825D01*
X238393Y-353826D01*
X238393Y-353827D01*
X238671Y-354243D01*
X238755Y-354368D01*
X231440Y-361683D01*
X230588Y-360832D01*
X229430Y-360058D01*
X229213Y-360015D01*
X227679Y-358481D01*
Y-357995D01*
X226918Y-356158D01*
X225511Y-354751D01*
X223673Y-353990D01*
X221684D01*
X219846Y-354751D01*
X218440Y-356158D01*
X217679Y-357995D01*
Y-359985D01*
X218440Y-361822D01*
X219846Y-363229D01*
X221684Y-363990D01*
X223095D01*
X224983Y-365878D01*
X226141Y-366652D01*
X226358Y-366695D01*
X227799Y-368137D01*
X228957Y-368910D01*
X230323Y-369182D01*
X232557D01*
X233922Y-368910D01*
X235080Y-368137D01*
X247818Y-355399D01*
X250022Y-355399D01*
X267987Y-373363D01*
X269144Y-374137D01*
X270510Y-374409D01*
X374650D01*
X376016Y-374137D01*
X377173Y-373363D01*
X390508Y-360028D01*
X391282Y-358871D01*
X391553Y-357505D01*
Y-355861D01*
X391725Y-355679D01*
X392443Y-355259D01*
X392657Y-355301D01*
X393147Y-355398D01*
X409147Y-355399D01*
X409148Y-355398D01*
X409149Y-355399D01*
X409624Y-355304D01*
X410122Y-355205D01*
X410123Y-355204D01*
X410125Y-355204D01*
X410537Y-354927D01*
X410949Y-354652D01*
X410950Y-354651D01*
X410951Y-354650D01*
X411227Y-354236D01*
X411502Y-353825D01*
X411502Y-353824D01*
X411503Y-353823D01*
X411599Y-353337D01*
X411696Y-352850D01*
X411696Y-352848D01*
X411696Y-352847D01*
X411672Y-328873D01*
X411672Y-328872D01*
X411672Y-328351D01*
X411640Y-328186D01*
X411651Y-328018D01*
X411514Y-326978D01*
X411460Y-326819D01*
X411449Y-326651D01*
X411177Y-325639D01*
X411103Y-325488D01*
X411070Y-325323D01*
X410669Y-324354D01*
X410575Y-324214D01*
X410521Y-324055D01*
X409997Y-323147D01*
X409886Y-323020D01*
X409812Y-322869D01*
X409173Y-322038D01*
X409047Y-321927D01*
X408954Y-321787D01*
X408212Y-321045D01*
X408072Y-320952D01*
X407961Y-320826D01*
X407129Y-320187D01*
X406979Y-320113D01*
X406852Y-320002D01*
X405944Y-319478D01*
X405785Y-319424D01*
X405645Y-319330D01*
X404676Y-318929D01*
X404511Y-318896D01*
X404360Y-318822D01*
X403347Y-318550D01*
X403180Y-318539D01*
X403020Y-318485D01*
X401981Y-318349D01*
X401813Y-318360D01*
X401648Y-318327D01*
X401124Y-318327D01*
X400600Y-318327D01*
X400435Y-318360D01*
X400267Y-318349D01*
X399228Y-318485D01*
X399068Y-318539D01*
X398900Y-318550D01*
X397887Y-318821D01*
X397737Y-318896D01*
X397571Y-318929D01*
X396603Y-319330D01*
X396463Y-319423D01*
X396304Y-319477D01*
X395395Y-320001D01*
X395269Y-320112D01*
X395118Y-320187D01*
X394286Y-320825D01*
X394175Y-320951D01*
X394035Y-321045D01*
X393294Y-321786D01*
X393200Y-321926D01*
X393074Y-322037D01*
X392435Y-322869D01*
X391925Y-322817D01*
X391553Y-322643D01*
Y-296753D01*
X407538Y-280769D01*
X606890D01*
X606986Y-281249D01*
X607562Y-282111D01*
X607641Y-282700D01*
X607562Y-283289D01*
X606986Y-284151D01*
X606737Y-285400D01*
Y-291000D01*
X606794Y-291283D01*
X606072Y-292211D01*
X605333Y-292357D01*
X604209Y-293109D01*
X603457Y-294233D01*
X603227Y-295389D01*
X601472D01*
X600106Y-295661D01*
X598949Y-296435D01*
X598175Y-297592D01*
X597903Y-298958D01*
X598175Y-300324D01*
X598949Y-301481D01*
X600106Y-302255D01*
X601472Y-302527D01*
X603211D01*
X603457Y-303767D01*
X603618Y-304007D01*
X603199Y-304791D01*
X538287D01*
X537312Y-304985D01*
X536485Y-305538D01*
X535932Y-306365D01*
X535738Y-307340D01*
Y-320354D01*
X535709Y-320380D01*
X535277Y-320638D01*
X534849Y-320739D01*
X534129Y-320187D01*
X533979Y-320113D01*
X533852Y-320002D01*
X532944Y-319478D01*
X532785Y-319424D01*
X532645Y-319330D01*
X531676Y-318929D01*
X531511Y-318896D01*
X531360Y-318822D01*
X530347Y-318550D01*
X530180Y-318539D01*
X530020Y-318485D01*
X528981Y-318349D01*
X528813Y-318360D01*
X528648Y-318327D01*
X528124Y-318327D01*
X527600Y-318327D01*
X527435Y-318360D01*
X527267Y-318349D01*
X526228Y-318485D01*
X526068Y-318539D01*
X525900Y-318550D01*
X524887Y-318821D01*
X524737Y-318896D01*
X524571Y-318929D01*
X523603Y-319330D01*
X523463Y-319423D01*
X523304Y-319477D01*
X522395Y-320001D01*
X522269Y-320112D01*
X522118Y-320187D01*
X521286Y-320825D01*
X521175Y-320951D01*
X521035Y-321045D01*
X520294Y-321786D01*
X520200Y-321926D01*
X520074Y-322037D01*
X519435Y-322869D01*
X519361Y-323020D01*
X519250Y-323146D01*
X518726Y-324055D01*
X518672Y-324214D01*
X518578Y-324354D01*
X518177Y-325323D01*
X518144Y-325488D01*
X518070Y-325639D01*
X517798Y-326651D01*
X517787Y-326819D01*
X517733Y-326979D01*
X517597Y-328018D01*
X517607Y-328186D01*
X517575Y-328351D01*
X517575Y-328876D01*
X517575Y-328876D01*
X517575Y-328877D01*
X517598Y-352852D01*
X517696Y-353345D01*
X517792Y-353825D01*
X517793Y-353826D01*
X517793Y-353827D01*
X518071Y-354243D01*
X518344Y-354652D01*
X518345Y-354653D01*
X518346Y-354654D01*
X518758Y-354928D01*
X519171Y-355205D01*
X519173Y-355205D01*
X519174Y-355205D01*
X519656Y-355301D01*
X520147Y-355398D01*
X535738Y-355399D01*
Y-385004D01*
X488951Y-431791D01*
X477411D01*
X477368Y-431800D01*
X477325Y-431792D01*
X476882Y-431896D01*
X476436Y-431985D01*
X476399Y-432010D01*
X476356Y-432020D01*
X475987Y-432285D01*
X475609Y-432538D01*
X475584Y-432574D01*
X475549Y-432600D01*
X475309Y-432987D01*
X475056Y-433365D01*
X475048Y-433408D01*
X475025Y-433445D01*
X474143Y-435797D01*
X474099Y-436067D01*
X474079Y-436123D01*
X468195D01*
X466898Y-436381D01*
X465798Y-437116D01*
X465092Y-437186D01*
X462263Y-434357D01*
X461106Y-433583D01*
X459740Y-433311D01*
X403922D01*
X402556Y-433583D01*
X401399Y-434357D01*
X397680Y-438075D01*
X394384D01*
X393086Y-438333D01*
X391986Y-439068D01*
X391251Y-440168D01*
X391111Y-440871D01*
X384760D01*
Y-440500D01*
X369329D01*
Y-435610D01*
X369057Y-434244D01*
X368283Y-433087D01*
X363310Y-428113D01*
Y-408850D01*
X342810D01*
Y-429350D01*
X354453D01*
X356073Y-430970D01*
X355733Y-431791D01*
X-218681D01*
Y-417678D01*
X-218953Y-416312D01*
X-219727Y-415155D01*
X-220321Y-414560D01*
X-219981Y-413739D01*
X-218172D01*
X-217541Y-414370D01*
X-215704Y-415131D01*
X-213715D01*
X-211877Y-414370D01*
X-210470Y-412963D01*
X-209709Y-411125D01*
Y-409136D01*
X-210470Y-407299D01*
X-211877Y-405892D01*
X-213715Y-405131D01*
X-215704D01*
X-217541Y-405892D01*
X-218251Y-406602D01*
X-223479D01*
X-223611Y-405938D01*
X-224346Y-404838D01*
X-225446Y-404103D01*
X-226744Y-403845D01*
X-231293D01*
X-231661Y-402956D01*
X-230040Y-401335D01*
X-226744D01*
X-225446Y-401077D01*
X-224346Y-400342D01*
X-223611Y-399242D01*
X-223471Y-398539D01*
X-218132D01*
X-217462Y-399209D01*
X-215625Y-399970D01*
X-213635D01*
X-211798Y-399209D01*
X-210391Y-397802D01*
X-209630Y-395965D01*
Y-393975D01*
X-210391Y-392138D01*
X-211798Y-390731D01*
X-213635Y-389970D01*
X-215625D01*
X-217462Y-390731D01*
X-218132Y-391401D01*
X-223471D01*
X-223611Y-390698D01*
X-224346Y-389598D01*
X-225446Y-388863D01*
X-226744Y-388605D01*
X-231696D01*
X-232994Y-388863D01*
X-234094Y-389598D01*
X-234829Y-390698D01*
X-235087Y-391996D01*
Y-396288D01*
X-236464Y-397665D01*
X-237353Y-397297D01*
Y-391996D01*
X-237611Y-390698D01*
X-238346Y-389598D01*
X-239446Y-388863D01*
X-240744Y-388605D01*
X-245697D01*
X-246994Y-388863D01*
X-248094Y-389598D01*
X-248829Y-390698D01*
X-249087Y-391996D01*
Y-397944D01*
X-248829Y-399242D01*
X-248094Y-400342D01*
X-246994Y-401077D01*
X-246789Y-401118D01*
Y-404062D01*
X-246994Y-404103D01*
X-248094Y-404838D01*
X-248829Y-405938D01*
X-248969Y-406641D01*
X-252330D01*
X-253424Y-405547D01*
X-255446Y-404710D01*
X-257634D01*
X-259655Y-405547D01*
X-260750Y-406641D01*
X-274320D01*
X-275686Y-406913D01*
X-276843Y-407687D01*
X-287067Y-417910D01*
X-288015D01*
X-289852Y-418671D01*
X-291259Y-420078D01*
X-292020Y-421915D01*
Y-423905D01*
X-291259Y-425742D01*
X-289852Y-427149D01*
X-288015Y-427910D01*
X-286025D01*
X-284188Y-427149D01*
X-282781Y-425742D01*
X-282020Y-423905D01*
Y-422957D01*
X-272842Y-413779D01*
X-260750D01*
X-259655Y-414873D01*
X-257634Y-415710D01*
X-255446D01*
X-253424Y-414873D01*
X-252330Y-413778D01*
X-248969D01*
X-248829Y-414482D01*
X-248094Y-415582D01*
X-246994Y-416317D01*
X-245697Y-416575D01*
X-240744D01*
X-240476Y-416522D01*
X-239789Y-417086D01*
Y-417952D01*
X-239702Y-418386D01*
X-240458Y-419142D01*
X-240744Y-419085D01*
X-245697D01*
X-246994Y-419343D01*
X-248094Y-420078D01*
X-248829Y-421178D01*
X-249087Y-422476D01*
Y-428424D01*
X-248829Y-429722D01*
X-248094Y-430822D01*
X-246994Y-431557D01*
X-246789Y-431598D01*
Y-434542D01*
X-246994Y-434583D01*
X-248094Y-435318D01*
X-248829Y-436418D01*
X-248969Y-437121D01*
X-252330D01*
X-253424Y-436027D01*
X-255446Y-435190D01*
X-257634D01*
X-259655Y-436027D01*
X-261203Y-437575D01*
X-262040Y-439596D01*
Y-441784D01*
X-261203Y-443806D01*
X-260109Y-444900D01*
Y-448102D01*
X-265477Y-453470D01*
X-266425D01*
X-268262Y-454231D01*
X-269669Y-455638D01*
X-270430Y-457475D01*
Y-459465D01*
X-269669Y-461302D01*
X-268262Y-462709D01*
X-266425Y-463470D01*
X-265439D01*
Y-492890D01*
X-266260Y-493230D01*
X-266446Y-493044D01*
X-268899Y-491628D01*
X-271634Y-490895D01*
X-274466D01*
X-277201Y-491628D01*
X-279654Y-493044D01*
X-281656Y-495046D01*
X-283072Y-497499D01*
X-283805Y-500234D01*
Y-503066D01*
X-283072Y-505801D01*
X-281656Y-508254D01*
X-279654Y-510256D01*
X-277201Y-511672D01*
X-274466Y-512405D01*
X-271634D01*
X-268899Y-511672D01*
X-266446Y-510256D01*
X-266260Y-510070D01*
X-265439Y-510410D01*
Y-529831D01*
X-366822D01*
X-389295Y-507358D01*
Y-490895D01*
X-410805D01*
Y-512405D01*
X-394342D01*
X-370823Y-535923D01*
X-370630Y-536052D01*
X-370900Y-536941D01*
X-462421D01*
X-467222Y-536309D01*
X-471900Y-535056D01*
X-476374Y-533203D01*
X-480568Y-530782D01*
X-484409Y-527834D01*
X-487834Y-524409D01*
X-490782Y-520568D01*
X-493203Y-516374D01*
X-495056Y-511900D01*
X-496309Y-507222D01*
X-496941Y-502421D01*
Y-500000D01*
Y20000D01*
Y22421D01*
X-496309Y27222D01*
X-495056Y31900D01*
X-493203Y36374D01*
X-490782Y40567D01*
X-487834Y44409D01*
X-484409Y47834D01*
X-480568Y50781D01*
X-476374Y53203D01*
X-471900Y55056D01*
X-467222Y56309D01*
X-462421Y56941D01*
X-460000Y56941D01*
X710000Y56941D01*
D02*
G37*
G36*
X746941Y-242504D02*
Y-294868D01*
X746052Y-295138D01*
X745736Y-294664D01*
X744664Y-293948D01*
X743400Y-293697D01*
X734650D01*
Y-243810D01*
X735539Y-243335D01*
X735800Y-243510D01*
X737080Y-243764D01*
X743320D01*
X744600Y-243510D01*
X745685Y-242785D01*
X746052Y-242235D01*
X746941Y-242504D01*
D02*
G37*
G36*
X576949Y-234297D02*
X576944Y-234328D01*
X576852Y-234792D01*
X576660Y-235256D01*
Y-235758D01*
X576562Y-236250D01*
X576660Y-236742D01*
Y-237245D01*
X576852Y-237708D01*
X576950Y-238201D01*
X577229Y-238618D01*
X577421Y-239082D01*
X577776Y-239437D01*
X578055Y-239855D01*
X578473Y-240134D01*
X578828Y-240489D01*
X579292Y-240681D01*
X579709Y-240960D01*
X580202Y-241058D01*
X580665Y-241250D01*
X581167D01*
X581660Y-241348D01*
X585452D01*
Y-243822D01*
X580347D01*
X579582Y-243311D01*
X578284Y-243053D01*
X572336D01*
X571038Y-243311D01*
X570273Y-243822D01*
X566420D01*
X565928Y-243920D01*
X565425D01*
X564962Y-244112D01*
X564469Y-244210D01*
X564052Y-244489D01*
X563588Y-244681D01*
X563233Y-245036D01*
X562815Y-245315D01*
X562536Y-245733D01*
X562181Y-246088D01*
X561989Y-246552D01*
X561710Y-246969D01*
X561612Y-247462D01*
X561420Y-247925D01*
Y-248428D01*
X561322Y-248920D01*
X561420Y-249412D01*
Y-249915D01*
X561612Y-250378D01*
X561689Y-250764D01*
X561607Y-251052D01*
X561190Y-251693D01*
X561147Y-251701D01*
X416560D01*
X415194Y-251973D01*
X414037Y-252747D01*
X360697Y-306087D01*
X359923Y-307244D01*
X359651Y-308610D01*
Y-322243D01*
X358762Y-322545D01*
X358373Y-322038D01*
X358247Y-321927D01*
X358154Y-321787D01*
X357412Y-321045D01*
X357272Y-320952D01*
X357161Y-320826D01*
X356329Y-320187D01*
X356179Y-320113D01*
X356052Y-320002D01*
X355144Y-319478D01*
X354985Y-319424D01*
X354845Y-319330D01*
X354089Y-319017D01*
Y-311358D01*
X432008Y-233439D01*
X576456D01*
X576949Y-234297D01*
D02*
G37*
G36*
X562572Y-259680D02*
X561710Y-260969D01*
X561322Y-262920D01*
X561710Y-264871D01*
X562815Y-266525D01*
X564469Y-267630D01*
X566420Y-268018D01*
X570201D01*
X570212Y-268025D01*
Y-270510D01*
X570600Y-272461D01*
X570858Y-272847D01*
X570439Y-273631D01*
X406060D01*
X404694Y-273903D01*
X404637Y-273941D01*
X403697Y-273500D01*
X403667Y-273210D01*
X418038Y-258839D01*
X561340D01*
X561581Y-258791D01*
X562122D01*
X562572Y-259680D01*
D02*
G37*
G36*
X693420Y-307340D02*
Y-324374D01*
X690920Y-326658D01*
X690849Y-326651D01*
X690577Y-325639D01*
X690503Y-325488D01*
X690470Y-325323D01*
X690069Y-324354D01*
X689975Y-324214D01*
X689921Y-324055D01*
X689397Y-323147D01*
X689286Y-323020D01*
X689212Y-322869D01*
X688573Y-322038D01*
X688447Y-321927D01*
X688354Y-321787D01*
X687612Y-321045D01*
X687472Y-320952D01*
X687361Y-320826D01*
X686529Y-320187D01*
X686379Y-320113D01*
X686252Y-320002D01*
X685344Y-319478D01*
X685185Y-319424D01*
X685045Y-319330D01*
X684076Y-318929D01*
X683911Y-318896D01*
X683760Y-318822D01*
X682747Y-318550D01*
X682580Y-318539D01*
X682420Y-318485D01*
X681381Y-318349D01*
X681213Y-318360D01*
X681048Y-318327D01*
X680524Y-318327D01*
X680000Y-318327D01*
X679835Y-318360D01*
X679667Y-318349D01*
X678628Y-318485D01*
X678468Y-318539D01*
X678300Y-318550D01*
X677287Y-318821D01*
X677137Y-318896D01*
X676972Y-318929D01*
X676003Y-319330D01*
X675863Y-319423D01*
X675704Y-319477D01*
X674795Y-320001D01*
X674669Y-320112D01*
X674518Y-320187D01*
X673686Y-320825D01*
X673575Y-320951D01*
X673435Y-321045D01*
X672694Y-321786D01*
X672600Y-321926D01*
X672474Y-322037D01*
X671835Y-322869D01*
X671761Y-323020D01*
X671650Y-323146D01*
X671126Y-324055D01*
X671072Y-324214D01*
X670978Y-324354D01*
X670577Y-325323D01*
X670544Y-325488D01*
X670470Y-325639D01*
X670198Y-326651D01*
X670187Y-326819D01*
X670133Y-326979D01*
X669996Y-328018D01*
X670007Y-328186D01*
X669975Y-328351D01*
X669975Y-328876D01*
X669975Y-328876D01*
X669975Y-328877D01*
X669998Y-352852D01*
X670096Y-353345D01*
X670192Y-353825D01*
X670193Y-353826D01*
X670193Y-353827D01*
X670471Y-354243D01*
X670744Y-354652D01*
X670745Y-354653D01*
X670746Y-354654D01*
X671158Y-354928D01*
X671571Y-355205D01*
X671573Y-355205D01*
X671574Y-355205D01*
X672057Y-355301D01*
X672547Y-355398D01*
X688547Y-355399D01*
X688548Y-355398D01*
X688549Y-355399D01*
X689024Y-355304D01*
X689522Y-355205D01*
X689523Y-355204D01*
X689525Y-355204D01*
X689937Y-354927D01*
X690349Y-354652D01*
X690350Y-354651D01*
X690351Y-354650D01*
X690627Y-354236D01*
X690902Y-353825D01*
X690902Y-353824D01*
X690903Y-353823D01*
X690920Y-353736D01*
X693420Y-353981D01*
Y-362005D01*
X689610D01*
X687652Y-362263D01*
X685828Y-363019D01*
X684261Y-364221D01*
X683059Y-365788D01*
X682303Y-367612D01*
X682045Y-369570D01*
X682303Y-371528D01*
X683059Y-373352D01*
X684261Y-374919D01*
X685828Y-376121D01*
X687652Y-376877D01*
X689610Y-377135D01*
X693420D01*
Y-472440D01*
X628919Y-536941D01*
X-181649D01*
X-182685Y-534441D01*
X-180293Y-532050D01*
X-179345D01*
X-177508Y-531289D01*
X-175895Y-530042D01*
X-174282Y-531289D01*
X-172445Y-532050D01*
X-170455D01*
X-168618Y-531289D01*
X-167211Y-529882D01*
X-166450Y-528045D01*
Y-526055D01*
X-167211Y-524218D01*
X-168618Y-522811D01*
X-170455Y-522050D01*
X-172445D01*
X-174282Y-522811D01*
X-175895Y-524058D01*
X-177508Y-522811D01*
X-179345Y-522050D01*
X-181335D01*
X-183172Y-522811D01*
X-184579Y-524218D01*
X-185340Y-526055D01*
Y-527003D01*
X-188168Y-529831D01*
X-262890D01*
Y-505286D01*
X-262295Y-503066D01*
Y-500234D01*
X-262890Y-498013D01*
Y-462830D01*
X-262598Y-462709D01*
X-261191Y-461302D01*
X-260430Y-459465D01*
Y-458517D01*
X-254017Y-452103D01*
X-253243Y-450946D01*
X-252971Y-449580D01*
Y-447281D01*
X-251224Y-445534D01*
X-250868Y-445449D01*
X-248157Y-445968D01*
X-248094Y-446062D01*
X-246994Y-446797D01*
X-245697Y-447055D01*
X-240744D01*
X-239446Y-446797D01*
X-238346Y-446062D01*
X-237611Y-444962D01*
X-237495Y-444376D01*
X-234946D01*
X-234829Y-444962D01*
X-234094Y-446062D01*
X-232994Y-446797D01*
X-231696Y-447055D01*
X-226744D01*
X-225446Y-446797D01*
X-224346Y-446062D01*
X-223611Y-444962D01*
X-223353Y-443665D01*
Y-440025D01*
X-219810Y-436645D01*
X-219009Y-435506D01*
X-218749Y-434340D01*
X359443D01*
X362191Y-437088D01*
Y-440460D01*
X358450D01*
Y-450850D01*
Y-461240D01*
X362191D01*
Y-480060D01*
X362463Y-481426D01*
X363237Y-482583D01*
X365777Y-485123D01*
X366934Y-485897D01*
X368300Y-486169D01*
X375278D01*
X375458Y-486289D01*
X376044Y-486405D01*
Y-488955D01*
X375458Y-489071D01*
X374358Y-489806D01*
X373623Y-490906D01*
X373365Y-492203D01*
Y-497156D01*
X373623Y-498454D01*
X374358Y-499554D01*
X375458Y-500289D01*
X376755Y-500547D01*
X382705D01*
X384002Y-500289D01*
X385102Y-499554D01*
X385135Y-499504D01*
X385924Y-499356D01*
X387964Y-499600D01*
X388328Y-500144D01*
X389428Y-500879D01*
X390726Y-501137D01*
X396674D01*
X397972Y-500879D01*
X399072Y-500144D01*
X400694D01*
X402831Y-501826D01*
Y-508520D01*
X402146Y-508978D01*
X401411Y-510078D01*
X401153Y-511376D01*
Y-517324D01*
X401411Y-518622D01*
X402146Y-519722D01*
X403246Y-520457D01*
X404543Y-520715D01*
X409496D01*
X410794Y-520457D01*
X411894Y-519722D01*
X412629Y-518622D01*
X412746Y-518036D01*
X415294D01*
X415411Y-518622D01*
X416146Y-519722D01*
X417246Y-520457D01*
X418544Y-520715D01*
X423497D01*
X424794Y-520457D01*
X425540Y-519959D01*
X426958Y-520361D01*
X428040Y-521010D01*
Y-522160D01*
X445240D01*
X447740Y-522160D01*
X448840Y-522160D01*
X466040D01*
Y-518288D01*
X468540Y-516659D01*
X468905Y-516810D01*
X470895D01*
X472732Y-516049D01*
X474139Y-514642D01*
X474900Y-512805D01*
Y-510815D01*
X474139Y-508978D01*
X472732Y-507571D01*
X470895Y-506810D01*
X468905D01*
X468540Y-506961D01*
X466040Y-505332D01*
Y-501884D01*
X468008Y-500204D01*
X468017Y-500197D01*
X469314Y-500455D01*
X474267D01*
X475564Y-500197D01*
X476664Y-499462D01*
X477399Y-498362D01*
X477515Y-497777D01*
X480065D01*
X480181Y-498362D01*
X480916Y-499462D01*
X482016Y-500197D01*
X483313Y-500455D01*
X488266D01*
X489564Y-500197D01*
X490664Y-499462D01*
X491399Y-498362D01*
X491551Y-497599D01*
X497840D01*
X499206Y-497327D01*
X500363Y-496553D01*
X506459Y-490457D01*
X507233Y-489300D01*
X507505Y-487934D01*
Y-450596D01*
X507233Y-449230D01*
X506459Y-448073D01*
X497853Y-439467D01*
X496696Y-438693D01*
X495330Y-438421D01*
X477819D01*
X476530Y-436692D01*
X477411Y-434340D01*
X490007D01*
X538287Y-386060D01*
Y-354147D01*
X538502Y-353825D01*
X538502Y-353824D01*
X538503Y-353823D01*
X538599Y-353337D01*
X538696Y-352850D01*
X538696Y-352848D01*
X538696Y-352847D01*
X538672Y-328873D01*
X538672Y-328872D01*
X538672Y-328351D01*
X538640Y-328186D01*
X538651Y-328018D01*
X538514Y-326978D01*
X538460Y-326819D01*
X538449Y-326651D01*
X538287Y-326048D01*
Y-307340D01*
X693420Y-307340D01*
D02*
G37*
G36*
X462297Y-444483D02*
X463454Y-445257D01*
X464820Y-445529D01*
X465016D01*
X465063Y-445764D01*
X465798Y-446864D01*
X466898Y-447599D01*
X468195Y-447857D01*
X474145D01*
X475442Y-447599D01*
X476542Y-446864D01*
X477277Y-445764D01*
X477318Y-445559D01*
X493852D01*
X495939Y-447646D01*
X495479Y-448443D01*
X494872Y-448280D01*
X493028D01*
X491248Y-448757D01*
X489652Y-449679D01*
X488349Y-450982D01*
X487427Y-452578D01*
X486950Y-454358D01*
Y-456202D01*
X487168Y-457015D01*
X485412Y-458772D01*
X477785D01*
X477535Y-458466D01*
Y-453513D01*
X477277Y-452216D01*
X476542Y-451116D01*
X475442Y-450381D01*
X474145Y-450123D01*
X468195D01*
X466898Y-450381D01*
X465798Y-451116D01*
X465338Y-451804D01*
X464311Y-451787D01*
X463842Y-451086D01*
X462742Y-450351D01*
X461445Y-450093D01*
X455495D01*
X454198Y-450351D01*
X453098Y-451086D01*
X452363Y-452186D01*
X452325Y-452376D01*
X449381D01*
X449337Y-452156D01*
X448602Y-451056D01*
X447502Y-450321D01*
X446204Y-450063D01*
X440256D01*
X438958Y-450321D01*
X437858Y-451056D01*
X437123Y-452156D01*
X437109Y-452226D01*
X424920D01*
Y-451220D01*
X415227D01*
X414957Y-450331D01*
X415734Y-449812D01*
X416469Y-448712D01*
X416727Y-447415D01*
Y-441465D01*
X416662Y-441136D01*
X417226Y-440449D01*
X458262D01*
X462297Y-444483D01*
D02*
G37*
G36*
X452253Y-466738D02*
X452105Y-467483D01*
Y-472436D01*
X452363Y-473734D01*
X453098Y-474834D01*
Y-475186D01*
X452363Y-476286D01*
X452105Y-477584D01*
Y-482537D01*
X452363Y-483834D01*
X453098Y-484934D01*
X454198Y-485669D01*
X455495Y-485927D01*
X461445D01*
X462742Y-485669D01*
X463842Y-484934D01*
X464577Y-483834D01*
X464835Y-482537D01*
Y-477584D01*
X464577Y-476286D01*
X463842Y-475186D01*
Y-474834D01*
X464577Y-473734D01*
X464692Y-473159D01*
X488106D01*
X488349Y-473578D01*
X489652Y-474881D01*
X491248Y-475803D01*
X493028Y-476280D01*
X494872D01*
X496652Y-475803D01*
X498248Y-474881D01*
X499478Y-473651D01*
X500087Y-473722D01*
X500367Y-473797D01*
Y-486456D01*
X496362Y-490461D01*
X491527D01*
X491399Y-489818D01*
X490664Y-488718D01*
X489564Y-487983D01*
X488266Y-487725D01*
X483313D01*
X482016Y-487983D01*
X480916Y-488718D01*
X480181Y-489818D01*
X479923Y-491116D01*
Y-495228D01*
X477657D01*
Y-491116D01*
X477399Y-489818D01*
X476664Y-488718D01*
X475564Y-487983D01*
X474267Y-487725D01*
X469314D01*
X468016Y-487983D01*
X466916Y-488718D01*
X466181Y-489818D01*
X466044Y-490507D01*
X464621D01*
X464577Y-490286D01*
X463842Y-489186D01*
X462742Y-488451D01*
X461445Y-488193D01*
X455495D01*
X454198Y-488451D01*
X453098Y-489186D01*
X452363Y-490286D01*
X452322Y-490491D01*
X449378D01*
X449337Y-490286D01*
X448602Y-489186D01*
X447502Y-488451D01*
X446496Y-488251D01*
X446105Y-487580D01*
X446059Y-487304D01*
X446527Y-486604D01*
X446680Y-485832D01*
X447502Y-485669D01*
X448602Y-484934D01*
X449337Y-483834D01*
X449595Y-482537D01*
Y-477584D01*
X449337Y-476286D01*
X448919Y-475661D01*
X448602Y-474804D01*
X449337Y-473704D01*
X449595Y-472407D01*
Y-467453D01*
X449453Y-466738D01*
X450119Y-465849D01*
X451601D01*
X452253Y-466738D01*
D02*
G37*
G36*
X431800Y-465849D02*
X436341D01*
X437007Y-466738D01*
X436865Y-467453D01*
Y-472407D01*
X437123Y-473704D01*
X437858Y-474804D01*
X437541Y-475661D01*
X437123Y-476286D01*
X436865Y-477584D01*
Y-482537D01*
X436664Y-482781D01*
X429260D01*
X427894Y-483053D01*
X426737Y-483827D01*
X418497Y-492067D01*
X417723Y-493224D01*
X417451Y-494590D01*
Y-503454D01*
Y-508202D01*
X417246Y-508243D01*
X416146Y-508978D01*
X415411Y-510078D01*
X415153Y-511376D01*
Y-515488D01*
X412887D01*
Y-511376D01*
X412629Y-510078D01*
X411894Y-508978D01*
X410794Y-508243D01*
X409969Y-508079D01*
Y-501019D01*
X410672Y-500879D01*
X411772Y-500144D01*
X412507Y-499044D01*
X412765Y-497747D01*
Y-493270D01*
X413180D01*
X415017Y-492509D01*
X416424Y-491102D01*
X417185Y-489264D01*
Y-487275D01*
X416455Y-485513D01*
X416442Y-485271D01*
X416578Y-484822D01*
X416748Y-484505D01*
X417813Y-483793D01*
X420943Y-480663D01*
X421717Y-479506D01*
X421989Y-478140D01*
Y-473220D01*
X424920D01*
Y-465788D01*
X431498D01*
X431800Y-465849D01*
D02*
G37*
G36*
X437019Y-490808D02*
X436865Y-491584D01*
Y-496536D01*
X437123Y-497834D01*
X437858Y-498934D01*
X438958Y-499669D01*
X440256Y-499927D01*
X440352D01*
X440835Y-500023D01*
X441319Y-499927D01*
X446204D01*
X447502Y-499669D01*
X448602Y-498934D01*
X449337Y-497834D01*
X449378Y-497629D01*
X452322D01*
X452363Y-497834D01*
X453098Y-498934D01*
X454198Y-499669D01*
X455495Y-499927D01*
X461445D01*
X462742Y-499669D01*
X463842Y-498934D01*
X464577Y-497834D01*
X464615Y-497644D01*
X465854D01*
X466041Y-498531D01*
X464385Y-499945D01*
X464322Y-500025D01*
X464238Y-500081D01*
X464016Y-500412D01*
X463769Y-500726D01*
X463742Y-500824D01*
X463685Y-500908D01*
X463607Y-501299D01*
X463573Y-501420D01*
X459430D01*
Y-511810D01*
X456890D01*
Y-514350D01*
X447700D01*
Y-518780D01*
X446980Y-519391D01*
X446340Y-519230D01*
Y-501460D01*
X428040D01*
Y-510781D01*
X426769D01*
X426629Y-510078D01*
X425894Y-508978D01*
X424794Y-508243D01*
X424589Y-508202D01*
Y-496068D01*
X430738Y-489919D01*
X436381D01*
X437019Y-490808D01*
D02*
G37*
G36*
X708748Y-303864D02*
X709464Y-304936D01*
X710536Y-305652D01*
X711800Y-305903D01*
X724031D01*
Y-308690D01*
X724303Y-310056D01*
X725077Y-311213D01*
X726234Y-311987D01*
X727600Y-312259D01*
X728966Y-311987D01*
X730123Y-311213D01*
X730897Y-310056D01*
X731169Y-308690D01*
Y-305903D01*
X743400D01*
X744664Y-305652D01*
X745736Y-304936D01*
X746052Y-304462D01*
X746941Y-304732D01*
Y-492500D01*
Y-502421D01*
X746309Y-507222D01*
X745056Y-511900D01*
X743203Y-516374D01*
X740781Y-520568D01*
X737834Y-524409D01*
X734409Y-527834D01*
X730567Y-530782D01*
X726374Y-533203D01*
X721900Y-535056D01*
X717222Y-536309D01*
X712421Y-536941D01*
X633685D01*
X633345Y-536120D01*
X695222Y-474242D01*
X695775Y-473415D01*
X695969Y-472440D01*
Y-377135D01*
X721360D01*
X723318Y-376877D01*
X725142Y-376121D01*
X726709Y-374919D01*
X736672Y-364956D01*
X736672Y-364956D01*
X737875Y-363389D01*
X738630Y-361564D01*
X738888Y-359607D01*
X738888Y-359606D01*
Y-356079D01*
X739349Y-355399D01*
X739824Y-355304D01*
X740322Y-355205D01*
X740323Y-355204D01*
X740325Y-355204D01*
X740737Y-354927D01*
X741149Y-354652D01*
X741150Y-354651D01*
X741151Y-354650D01*
X741427Y-354236D01*
X741702Y-353825D01*
X741702Y-353824D01*
X741703Y-353823D01*
X741799Y-353337D01*
X741896Y-352850D01*
X741896Y-352848D01*
X741896Y-352847D01*
X741872Y-328873D01*
X741872Y-328872D01*
X741872Y-328351D01*
X741840Y-328186D01*
X741851Y-328018D01*
X741714Y-326978D01*
X741660Y-326819D01*
X741649Y-326651D01*
X741377Y-325639D01*
X741303Y-325488D01*
X741270Y-325323D01*
X740869Y-324354D01*
X740775Y-324214D01*
X740721Y-324055D01*
X740197Y-323147D01*
X740086Y-323020D01*
X740012Y-322869D01*
X739373Y-322038D01*
X739247Y-321927D01*
X739154Y-321787D01*
X738412Y-321045D01*
X738272Y-320952D01*
X738161Y-320826D01*
X737329Y-320187D01*
X737179Y-320113D01*
X737052Y-320002D01*
X736144Y-319478D01*
X735985Y-319424D01*
X735845Y-319330D01*
X734876Y-318929D01*
X734711Y-318896D01*
X734560Y-318822D01*
X733547Y-318550D01*
X733380Y-318539D01*
X733220Y-318485D01*
X732181Y-318349D01*
X732013Y-318360D01*
X731848Y-318327D01*
X731324Y-318327D01*
X730800Y-318327D01*
X730635Y-318360D01*
X730467Y-318349D01*
X729428Y-318485D01*
X729268Y-318539D01*
X729100Y-318550D01*
X728087Y-318821D01*
X727936Y-318896D01*
X727772Y-318929D01*
X726803Y-319330D01*
X726663Y-319423D01*
X726504Y-319477D01*
X725595Y-320001D01*
X725469Y-320112D01*
X725318Y-320187D01*
X724486Y-320825D01*
X724375Y-320951D01*
X724235Y-321045D01*
X723494Y-321786D01*
X723400Y-321926D01*
X723274Y-322037D01*
X722635Y-322869D01*
X722561Y-323020D01*
X722450Y-323146D01*
X721926Y-324055D01*
X721872Y-324214D01*
X721778Y-324354D01*
X721377Y-325323D01*
X721344Y-325488D01*
X721270Y-325639D01*
X720998Y-326651D01*
X720987Y-326819D01*
X720933Y-326979D01*
X720797Y-328018D01*
X720807Y-328186D01*
X720775Y-328351D01*
X720775Y-328876D01*
X720775Y-328876D01*
X720775Y-328877D01*
X720798Y-352852D01*
X720896Y-353345D01*
X720992Y-353825D01*
X720993Y-353826D01*
X720993Y-353827D01*
X721271Y-354243D01*
X721544Y-354652D01*
X721545Y-354653D01*
X721546Y-354654D01*
X721958Y-354928D01*
X722371Y-355205D01*
X722373Y-355205D01*
X722374Y-355205D01*
X722857Y-355301D01*
X723347Y-355398D01*
X723759D01*
Y-356473D01*
X718227Y-362005D01*
X695969D01*
Y-355604D01*
X696081Y-355475D01*
X696858Y-355129D01*
X696971Y-355205D01*
X696973Y-355205D01*
X696974Y-355205D01*
X697457Y-355301D01*
X697947Y-355398D01*
X713947Y-355399D01*
X713948Y-355398D01*
X713949Y-355399D01*
X714424Y-355304D01*
X714922Y-355205D01*
X714923Y-355204D01*
X714925Y-355204D01*
X715337Y-354927D01*
X715749Y-354652D01*
X715750Y-354651D01*
X715751Y-354650D01*
X716027Y-354236D01*
X716302Y-353825D01*
X716302Y-353824D01*
X716303Y-353823D01*
X716399Y-353337D01*
X716496Y-352850D01*
X716496Y-352848D01*
X716496Y-352847D01*
X716472Y-328873D01*
X716472Y-328872D01*
X716472Y-328351D01*
X716440Y-328186D01*
X716451Y-328018D01*
X716314Y-326978D01*
X716260Y-326819D01*
X716249Y-326651D01*
X715977Y-325639D01*
X715903Y-325488D01*
X715870Y-325323D01*
X715469Y-324354D01*
X715375Y-324214D01*
X715321Y-324055D01*
X714797Y-323147D01*
X714686Y-323020D01*
X714612Y-322869D01*
X713973Y-322038D01*
X713847Y-321927D01*
X713754Y-321787D01*
X713012Y-321045D01*
X712872Y-320952D01*
X712761Y-320826D01*
X711929Y-320187D01*
X711779Y-320113D01*
X711652Y-320002D01*
X710744Y-319478D01*
X710585Y-319424D01*
X710445Y-319330D01*
X709476Y-318929D01*
X709311Y-318896D01*
X709160Y-318822D01*
X708147Y-318550D01*
X707980Y-318539D01*
X707820Y-318485D01*
X706781Y-318349D01*
X706613Y-318360D01*
X706448Y-318327D01*
X705924Y-318327D01*
X705400Y-318327D01*
X705235Y-318360D01*
X705067Y-318349D01*
X704028Y-318485D01*
X703868Y-318539D01*
X703700Y-318550D01*
X702687Y-318821D01*
X702536Y-318896D01*
X702372Y-318929D01*
X701403Y-319330D01*
X701263Y-319423D01*
X701104Y-319477D01*
X700195Y-320001D01*
X700069Y-320112D01*
X699918Y-320187D01*
X699086Y-320825D01*
X698975Y-320951D01*
X698835Y-321045D01*
X698094Y-321786D01*
X698000Y-321926D01*
X697874Y-322037D01*
X697235Y-322869D01*
X697161Y-323020D01*
X697050Y-323146D01*
X696858Y-323479D01*
X695969Y-323241D01*
Y-307340D01*
X695775Y-306365D01*
X695222Y-305538D01*
X694395Y-304985D01*
X693420Y-304791D01*
X636502D01*
X636066Y-304041D01*
X636415Y-303300D01*
X708636D01*
X708748Y-303864D01*
D02*
G37*
%LPC*%
G36*
X27940Y10231D02*
Y2540D01*
X35631D01*
X35222Y4068D01*
X33834Y6472D01*
X31872Y8434D01*
X29468Y9822D01*
X27940Y10231D01*
D02*
G37*
G36*
X22860D02*
X21332Y9822D01*
X18928Y8434D01*
X16966Y6472D01*
X15578Y4068D01*
X15169Y2540D01*
X22860D01*
Y10231D01*
D02*
G37*
G36*
X436635Y11350D02*
X434646D01*
X432808Y10589D01*
X431401Y9182D01*
X430640Y7345D01*
Y5355D01*
X431401Y3518D01*
X432808Y2111D01*
X434646Y1350D01*
X436635D01*
X438472Y2111D01*
X439879Y3518D01*
X440640Y5355D01*
Y7345D01*
X439879Y9182D01*
X438472Y10589D01*
X436635Y11350D01*
D02*
G37*
G36*
X77582Y10500D02*
X74818D01*
X72147Y9784D01*
X69753Y8402D01*
X67798Y6447D01*
X66416Y4053D01*
X65700Y1382D01*
Y-1382D01*
X66416Y-4053D01*
X67798Y-6447D01*
X69753Y-8402D01*
X72147Y-9784D01*
X74818Y-10500D01*
X77582D01*
X80253Y-9784D01*
X82647Y-8402D01*
X84602Y-6447D01*
X85984Y-4053D01*
X86700Y-1382D01*
Y1382D01*
X85984Y4053D01*
X84602Y6447D01*
X82647Y8402D01*
X80253Y9784D01*
X77582Y10500D01*
D02*
G37*
G36*
X627105Y-5130D02*
X625115D01*
X623278Y-5891D01*
X621871Y-7298D01*
X621110Y-9135D01*
Y-11125D01*
X621871Y-12962D01*
X623278Y-14369D01*
X625115Y-15130D01*
X627105D01*
X628942Y-14369D01*
X630349Y-12962D01*
X631110Y-11125D01*
Y-9135D01*
X630349Y-7298D01*
X628942Y-5891D01*
X627105Y-5130D01*
D02*
G37*
G36*
X157422Y18500D02*
X153778D01*
X150204Y17789D01*
X146837Y16394D01*
X143807Y14370D01*
X141230Y11793D01*
X139205Y8763D01*
X137811Y5396D01*
X137100Y1822D01*
Y-1822D01*
X137811Y-5396D01*
X139205Y-8763D01*
X141230Y-11793D01*
X143807Y-14370D01*
X146837Y-16394D01*
X150204Y-17789D01*
X153778Y-18500D01*
X157422D01*
X160996Y-17789D01*
X164363Y-16394D01*
X167393Y-14370D01*
X169970Y-11793D01*
X171994Y-8763D01*
X173389Y-5396D01*
X174100Y-1822D01*
Y1822D01*
X173389Y5396D01*
X171994Y8763D01*
X169970Y11793D01*
X167393Y14370D01*
X164363Y16394D01*
X160996Y17789D01*
X157422Y18500D01*
D02*
G37*
G36*
X-77578D02*
X-81222D01*
X-84796Y17789D01*
X-88163Y16394D01*
X-91193Y14370D01*
X-93770Y11793D01*
X-95794Y8763D01*
X-97189Y5396D01*
X-97900Y1822D01*
Y-1822D01*
X-97189Y-5396D01*
X-95794Y-8763D01*
X-93770Y-11793D01*
X-91193Y-14370D01*
X-88163Y-16394D01*
X-84796Y-17789D01*
X-81222Y-18500D01*
X-77578D01*
X-74004Y-17789D01*
X-70637Y-16394D01*
X-67607Y-14370D01*
X-65030Y-11793D01*
X-63005Y-8763D01*
X-61611Y-5396D01*
X-60900Y-1822D01*
Y1822D01*
X-61611Y5396D01*
X-63005Y8763D01*
X-65030Y11793D01*
X-67607Y14370D01*
X-70637Y16394D01*
X-74004Y17789D01*
X-77578Y18500D01*
D02*
G37*
G36*
X362945Y-10240D02*
X360955D01*
X359118Y-11001D01*
X357711Y-12408D01*
X356950Y-14245D01*
Y-16235D01*
X357711Y-18072D01*
X359118Y-19479D01*
X360955Y-20240D01*
X362945D01*
X364782Y-19479D01*
X366189Y-18072D01*
X366950Y-16235D01*
Y-14245D01*
X366189Y-12408D01*
X364782Y-11001D01*
X362945Y-10240D01*
D02*
G37*
G36*
X35631Y-2540D02*
X15169D01*
X15578Y-4068D01*
X16733Y-6069D01*
X12698Y-10104D01*
X11523D01*
X10210Y-10365D01*
X9097Y-11109D01*
X8353Y-12222D01*
X8092Y-13535D01*
Y-13970D01*
X14000D01*
Y-19050D01*
X8092D01*
Y-19484D01*
X8353Y-20798D01*
X8902Y-21619D01*
Y-23901D01*
X8353Y-24722D01*
X8092Y-26035D01*
Y-26470D01*
X14000D01*
X19908D01*
Y-26035D01*
X19647Y-24722D01*
X19098Y-23901D01*
Y-21619D01*
X19647Y-20798D01*
X19908Y-19484D01*
Y-17314D01*
X26682Y-10540D01*
X26788D01*
X29468Y-9822D01*
X31872Y-8434D01*
X33834Y-6472D01*
X35222Y-4068D01*
X35631Y-2540D01*
D02*
G37*
G36*
X319765Y-22940D02*
X317775D01*
X315938Y-23701D01*
X314531Y-25108D01*
X313770Y-26945D01*
Y-28935D01*
X314531Y-30772D01*
X315938Y-32179D01*
X317775Y-32940D01*
X319765D01*
X321602Y-32179D01*
X323009Y-30772D01*
X323770Y-28935D01*
Y-26945D01*
X323009Y-25108D01*
X321602Y-23701D01*
X319765Y-22940D01*
D02*
G37*
G36*
X1382Y10500D02*
X-1382D01*
X-4053Y9784D01*
X-6447Y8402D01*
X-8402Y6447D01*
X-9784Y4053D01*
X-10500Y1382D01*
Y-1382D01*
X-9784Y-4053D01*
X-8402Y-6447D01*
X-6447Y-8402D01*
X-5098Y-9181D01*
Y-11473D01*
X-5609Y-12238D01*
X-5867Y-13535D01*
Y-19484D01*
X-5609Y-20782D01*
X-5098Y-21547D01*
Y-23973D01*
X-5609Y-24738D01*
X-5867Y-26035D01*
Y-31985D01*
X-5609Y-33282D01*
X-4874Y-34382D01*
X-3774Y-35117D01*
X-2476Y-35375D01*
X2476D01*
X3774Y-35117D01*
X4874Y-34382D01*
X5609Y-33282D01*
X5867Y-31985D01*
Y-26035D01*
X5609Y-24738D01*
X5098Y-23973D01*
Y-21547D01*
X5609Y-20782D01*
X5867Y-19484D01*
Y-13535D01*
X5609Y-12238D01*
X5098Y-11473D01*
Y-9181D01*
X6447Y-8402D01*
X8402Y-6447D01*
X9784Y-4053D01*
X10500Y-1382D01*
Y1382D01*
X9784Y4053D01*
X8402Y6447D01*
X6447Y8402D01*
X4053Y9784D01*
X1382Y10500D01*
D02*
G37*
G36*
X19908Y-31550D02*
X16540D01*
Y-35403D01*
X17790Y-35155D01*
X18903Y-34411D01*
X19647Y-33298D01*
X19908Y-31985D01*
Y-31550D01*
D02*
G37*
G36*
X11460D02*
X8092D01*
Y-31985D01*
X8353Y-33298D01*
X9097Y-34411D01*
X10210Y-35155D01*
X11460Y-35403D01*
Y-31550D01*
D02*
G37*
G36*
X63225Y-30560D02*
X61235D01*
X59398Y-31321D01*
X57991Y-32728D01*
X57230Y-34565D01*
Y-35355D01*
X56784Y-35801D01*
X51499D01*
X51359Y-35098D01*
X50624Y-33998D01*
X49524Y-33263D01*
X48226Y-33005D01*
X43274D01*
X41976Y-33263D01*
X40876Y-33998D01*
X40141Y-35098D01*
X39883Y-36395D01*
Y-42344D01*
X40141Y-43642D01*
X40876Y-44742D01*
X40645Y-45657D01*
X40073Y-46512D01*
X39812Y-47825D01*
Y-48260D01*
X45720D01*
X51628D01*
Y-47825D01*
X51367Y-46512D01*
X50814Y-45685D01*
X50624Y-44742D01*
X51359Y-43642D01*
X51499Y-42938D01*
X58262D01*
X59627Y-42667D01*
X60785Y-41893D01*
X62119Y-40560D01*
X63225D01*
X65062Y-39799D01*
X66469Y-38392D01*
X67230Y-36555D01*
Y-34565D01*
X66469Y-32728D01*
X65062Y-31321D01*
X63225Y-30560D01*
D02*
G37*
G36*
X495025D02*
X493035D01*
X491198Y-31321D01*
X489791Y-32728D01*
X489030Y-34565D01*
Y-36555D01*
X489791Y-38392D01*
X491198Y-39799D01*
X493035Y-40560D01*
X495025D01*
X496862Y-39799D01*
X498269Y-38392D01*
X499030Y-36555D01*
Y-34565D01*
X498269Y-32728D01*
X496862Y-31321D01*
X495025Y-30560D01*
D02*
G37*
G36*
X615114Y-38512D02*
X614680D01*
Y-41880D01*
X618533D01*
X618285Y-40630D01*
X617541Y-39517D01*
X616428Y-38773D01*
X615114Y-38512D01*
D02*
G37*
G36*
X609600D02*
X609165D01*
X607852Y-38773D01*
X606739Y-39517D01*
X605995Y-40630D01*
X605747Y-41880D01*
X609600D01*
Y-38512D01*
D02*
G37*
G36*
X599874Y-38542D02*
X599440D01*
Y-41910D01*
X603293D01*
X603045Y-40660D01*
X602301Y-39547D01*
X601188Y-38803D01*
X599874Y-38542D01*
D02*
G37*
G36*
X594360D02*
X593926D01*
X592612Y-38803D01*
X591499Y-39547D01*
X590755Y-40660D01*
X590507Y-41910D01*
X594360D01*
Y-38542D01*
D02*
G37*
G36*
X535010Y-42827D02*
Y-46680D01*
X538378D01*
Y-46245D01*
X538117Y-44932D01*
X537373Y-43819D01*
X536260Y-43075D01*
X535010Y-42827D01*
D02*
G37*
G36*
X529930Y-42827D02*
X528680Y-43075D01*
X527567Y-43819D01*
X526823Y-44932D01*
X526562Y-46245D01*
Y-46680D01*
X529930D01*
Y-42827D01*
D02*
G37*
G36*
X618533Y-46960D02*
X614680D01*
Y-50328D01*
X615114D01*
X616428Y-50067D01*
X617541Y-49323D01*
X618285Y-48210D01*
X618533Y-46960D01*
D02*
G37*
G36*
X609600D02*
X605747D01*
X605995Y-48210D01*
X606739Y-49323D01*
X607852Y-50067D01*
X609165Y-50328D01*
X609600D01*
Y-46960D01*
D02*
G37*
G36*
X603293Y-46990D02*
X599440D01*
Y-50358D01*
X599874D01*
X601188Y-50097D01*
X602301Y-49353D01*
X603045Y-48240D01*
X603293Y-46990D01*
D02*
G37*
G36*
X594360D02*
X590507D01*
X590755Y-48240D01*
X591499Y-49353D01*
X592612Y-50097D01*
X593926Y-50358D01*
X594360D01*
Y-46990D01*
D02*
G37*
G36*
X51628Y-53340D02*
X48260D01*
Y-57193D01*
X49510Y-56945D01*
X50623Y-56201D01*
X51367Y-55088D01*
X51628Y-53774D01*
Y-53340D01*
D02*
G37*
G36*
X43180D02*
X39812D01*
Y-53774D01*
X40073Y-55088D01*
X40817Y-56201D01*
X41930Y-56945D01*
X43180Y-57193D01*
Y-53340D01*
D02*
G37*
G36*
X77225Y-50880D02*
X75236D01*
X73398Y-51641D01*
X71991Y-53048D01*
X71230Y-54885D01*
Y-56875D01*
X71991Y-58712D01*
X73398Y-60119D01*
X75236Y-60880D01*
X77225D01*
X79062Y-60119D01*
X80469Y-58712D01*
X81230Y-56875D01*
Y-54885D01*
X80469Y-53048D01*
X79062Y-51641D01*
X77225Y-50880D01*
D02*
G37*
G36*
X34227Y-33005D02*
X29274D01*
X27976Y-33263D01*
X26876Y-33998D01*
X26141Y-35098D01*
X25883Y-36395D01*
Y-42344D01*
X26141Y-43642D01*
X26690Y-44463D01*
X26796Y-45120D01*
X26678Y-45679D01*
X26111Y-46528D01*
X25853Y-47825D01*
Y-53774D01*
X26111Y-55072D01*
X26846Y-56172D01*
X27486Y-56600D01*
X27511Y-56858D01*
X26750Y-58695D01*
Y-60685D01*
X27511Y-62522D01*
X28918Y-63929D01*
X30755Y-64690D01*
X32745D01*
X34582Y-63929D01*
X35989Y-62522D01*
X36750Y-60685D01*
Y-58695D01*
X35989Y-56858D01*
X36019Y-56557D01*
X36594Y-56172D01*
X37329Y-55072D01*
X37587Y-53774D01*
Y-47825D01*
X37329Y-46528D01*
X36780Y-45707D01*
X36674Y-45050D01*
X36792Y-44491D01*
X37359Y-43642D01*
X37617Y-42344D01*
Y-36395D01*
X37359Y-35098D01*
X36624Y-33998D01*
X35524Y-33263D01*
X34227Y-33005D01*
D02*
G37*
G36*
X351403Y-54690D02*
X349413D01*
X347576Y-55451D01*
X346169Y-56858D01*
X345408Y-58696D01*
Y-60685D01*
X346169Y-62522D01*
X347576Y-63929D01*
X349413Y-64690D01*
X351403D01*
X353240Y-63929D01*
X354647Y-62522D01*
X355408Y-60685D01*
Y-58696D01*
X354647Y-56858D01*
X353240Y-55451D01*
X351403Y-54690D01*
D02*
G37*
G36*
X509208Y-22971D02*
X507219D01*
X505381Y-23732D01*
X503974Y-25139D01*
X503213Y-26977D01*
Y-28966D01*
X503974Y-30803D01*
X505381Y-32210D01*
X507219Y-32971D01*
X508167D01*
X514591Y-39396D01*
Y-43183D01*
X513596Y-43848D01*
X512861Y-44948D01*
X512603Y-46245D01*
Y-52194D01*
X512861Y-53492D01*
X513596Y-54592D01*
Y-55278D01*
X512861Y-56378D01*
X512603Y-57675D01*
Y-63625D01*
X512861Y-64922D01*
X513596Y-66022D01*
X514696Y-66757D01*
X515993Y-67015D01*
X520947D01*
X522244Y-66757D01*
X523344Y-66022D01*
X524079Y-64922D01*
X524337Y-63625D01*
Y-57675D01*
X524079Y-56378D01*
X523344Y-55278D01*
Y-54592D01*
X524079Y-53492D01*
X524337Y-52194D01*
Y-46245D01*
X524079Y-44948D01*
X523344Y-43848D01*
X522244Y-43113D01*
X521729Y-43010D01*
Y-37918D01*
X521457Y-36552D01*
X520683Y-35394D01*
X513213Y-27924D01*
Y-26977D01*
X512452Y-25139D01*
X511045Y-23732D01*
X509208Y-22971D01*
D02*
G37*
G36*
X615114Y-52553D02*
X609165D01*
X607868Y-52811D01*
X606768Y-53546D01*
X606033Y-54646D01*
X605775Y-55943D01*
Y-60897D01*
X606033Y-62194D01*
X606768Y-63294D01*
X607868Y-64029D01*
X608571Y-64169D01*
Y-68180D01*
X607477Y-69275D01*
X606640Y-71296D01*
Y-72843D01*
X604473Y-75010D01*
X603525D01*
X602565Y-75408D01*
X601885Y-74727D01*
X602400Y-73484D01*
Y-71296D01*
X601563Y-69275D01*
X600469Y-68180D01*
Y-64199D01*
X601172Y-64059D01*
X602272Y-63324D01*
X603007Y-62224D01*
X603265Y-60926D01*
Y-55974D01*
X603007Y-54676D01*
X602272Y-53576D01*
X601172Y-52841D01*
X599874Y-52583D01*
X593926D01*
X592628Y-52841D01*
X591528Y-53576D01*
X590793Y-54676D01*
X590535Y-55974D01*
Y-60926D01*
X590793Y-62224D01*
X591528Y-63324D01*
X592628Y-64059D01*
X593331Y-64199D01*
Y-68180D01*
X592237Y-69275D01*
X591400Y-71296D01*
Y-73484D01*
X592237Y-75505D01*
X592728Y-75997D01*
X592687Y-76206D01*
X592220Y-76549D01*
X591699Y-76628D01*
X590842Y-75771D01*
X589005Y-75010D01*
X587015D01*
X585178Y-75771D01*
X583771Y-77178D01*
X583010Y-79015D01*
Y-81005D01*
X583771Y-82842D01*
X585178Y-84249D01*
X587015Y-85010D01*
X589005D01*
X590842Y-84249D01*
X591874Y-83217D01*
X592455Y-82940D01*
X593036Y-83217D01*
X594068Y-84249D01*
X595905Y-85010D01*
X597895D01*
X599732Y-84249D01*
X600710Y-83271D01*
X601688Y-84249D01*
X603525Y-85010D01*
X605515D01*
X607352Y-84249D01*
X608384Y-83217D01*
X608965Y-82940D01*
X609546Y-83217D01*
X610578Y-84249D01*
X612415Y-85010D01*
X614405D01*
X616242Y-84249D01*
X617649Y-82842D01*
X618410Y-81005D01*
Y-79015D01*
X617649Y-77178D01*
X616390Y-75918D01*
X616803Y-75505D01*
X617640Y-73484D01*
Y-71296D01*
X616803Y-69275D01*
X615709Y-68180D01*
Y-64169D01*
X616412Y-64029D01*
X617512Y-63294D01*
X618247Y-62194D01*
X618505Y-60897D01*
Y-55943D01*
X618247Y-54646D01*
X617512Y-53546D01*
X616412Y-52811D01*
X615114Y-52553D01*
D02*
G37*
G36*
X44335Y-82480D02*
X42345D01*
X40508Y-83241D01*
X39101Y-84648D01*
X38340Y-86486D01*
Y-88475D01*
X39101Y-90312D01*
X40508Y-91719D01*
X42345Y-92480D01*
X44335D01*
X46172Y-91719D01*
X47579Y-90312D01*
X48340Y-88475D01*
Y-86486D01*
X47579Y-84648D01*
X46172Y-83241D01*
X44335Y-82480D01*
D02*
G37*
G36*
X33335D02*
X31346D01*
X29508Y-83241D01*
X28101Y-84648D01*
X27340Y-86486D01*
Y-88475D01*
X28101Y-90312D01*
X29508Y-91719D01*
X31346Y-92480D01*
X33335D01*
X35172Y-91719D01*
X36579Y-90312D01*
X37340Y-88475D01*
Y-86486D01*
X36579Y-84648D01*
X35172Y-83241D01*
X33335Y-82480D01*
D02*
G37*
G36*
X276585Y-82630D02*
X274595D01*
X272758Y-83391D01*
X271351Y-84798D01*
X270590Y-86635D01*
Y-88625D01*
X271351Y-90462D01*
X272758Y-91869D01*
X274595Y-92630D01*
X276585D01*
X278422Y-91869D01*
X279829Y-90462D01*
X280590Y-88625D01*
Y-86635D01*
X279829Y-84798D01*
X278422Y-83391D01*
X276585Y-82630D01*
D02*
G37*
G36*
X94975Y-87710D02*
X92985D01*
X91148Y-88471D01*
X89741Y-89878D01*
X88980Y-91715D01*
Y-93705D01*
X89741Y-95542D01*
X91148Y-96949D01*
X92985Y-97710D01*
X94975D01*
X96812Y-96949D01*
X98219Y-95542D01*
X98980Y-93705D01*
Y-91715D01*
X98219Y-89878D01*
X96812Y-88471D01*
X94975Y-87710D01*
D02*
G37*
G36*
X44335Y-93480D02*
X42345D01*
X40508Y-94241D01*
X39101Y-95648D01*
X38340Y-97486D01*
Y-99475D01*
X39101Y-101312D01*
X40508Y-102719D01*
X42345Y-103480D01*
X44335D01*
X46172Y-102719D01*
X47579Y-101312D01*
X48340Y-99475D01*
Y-97486D01*
X47579Y-95648D01*
X46172Y-94241D01*
X44335Y-93480D01*
D02*
G37*
G36*
X33335D02*
X31346D01*
X29508Y-94241D01*
X28101Y-95648D01*
X27340Y-97486D01*
Y-99475D01*
X28101Y-101312D01*
X29508Y-102719D01*
X31346Y-103480D01*
X33335D01*
X35172Y-102719D01*
X36579Y-101312D01*
X37340Y-99475D01*
Y-97486D01*
X36579Y-95648D01*
X35172Y-94241D01*
X33335Y-93480D01*
D02*
G37*
G36*
X-15546Y-95330D02*
X-17535D01*
X-19372Y-96091D01*
X-20779Y-97498D01*
X-21540Y-99335D01*
Y-101325D01*
X-20779Y-103162D01*
X-19372Y-104569D01*
X-17535Y-105330D01*
X-15546D01*
X-13708Y-104569D01*
X-12301Y-103162D01*
X-11540Y-101325D01*
Y-99335D01*
X-12301Y-97498D01*
X-13708Y-96091D01*
X-15546Y-95330D01*
D02*
G37*
G36*
X672500Y-124551D02*
X672499Y-124551D01*
X672497Y-124551D01*
X672022Y-124646D01*
X671524Y-124745D01*
X671523Y-124746D01*
X671522Y-124746D01*
X671110Y-125022D01*
X670697Y-125297D01*
X670697Y-125299D01*
X670696Y-125299D01*
X670419Y-125714D01*
X670145Y-126124D01*
X670145Y-126126D01*
X670144Y-126127D01*
X670048Y-126612D01*
X669951Y-127100D01*
X669951Y-127101D01*
X669951Y-127102D01*
X669974Y-151077D01*
X669974Y-151077D01*
X669974Y-151599D01*
X670007Y-151764D01*
X669996Y-151931D01*
X670133Y-152971D01*
X670187Y-153130D01*
X670198Y-153298D01*
X670469Y-154311D01*
X670544Y-154462D01*
X670577Y-154627D01*
X670978Y-155596D01*
X671071Y-155736D01*
X671125Y-155895D01*
X671650Y-156803D01*
X671760Y-156929D01*
X671835Y-157080D01*
X672473Y-157912D01*
X672600Y-158023D01*
X672693Y-158163D01*
X673435Y-158904D01*
X673574Y-158998D01*
X673685Y-159124D01*
X674517Y-159762D01*
X674668Y-159837D01*
X674795Y-159948D01*
X675703Y-160472D01*
X675862Y-160526D01*
X676002Y-160619D01*
X676971Y-161021D01*
X677136Y-161053D01*
X677286Y-161128D01*
X678299Y-161399D01*
X678467Y-161410D01*
X678626Y-161464D01*
X679666Y-161601D01*
X679834Y-161590D01*
X679999Y-161623D01*
X680523Y-161623D01*
X681047Y-161623D01*
X681212Y-161590D01*
X681379Y-161601D01*
X682419Y-161464D01*
X682578Y-161410D01*
X682746Y-161399D01*
X683759Y-161128D01*
X683910Y-161054D01*
X684075Y-161021D01*
X685044Y-160620D01*
X685184Y-160526D01*
X685343Y-160472D01*
X686251Y-159948D01*
X686378Y-159837D01*
X686529Y-159763D01*
X687361Y-159124D01*
X687472Y-158998D01*
X687611Y-158905D01*
X688353Y-158163D01*
X688447Y-158023D01*
X688573Y-157912D01*
X689212Y-157080D01*
X689286Y-156930D01*
X689397Y-156803D01*
X689921Y-155895D01*
X689975Y-155736D01*
X690069Y-155596D01*
X690470Y-154627D01*
X690503Y-154462D01*
X690577Y-154311D01*
X690848Y-153298D01*
X690860Y-153130D01*
X690913Y-152971D01*
X691050Y-151931D01*
X691039Y-151763D01*
X691072Y-151598D01*
X691072Y-151074D01*
X691072Y-151073D01*
X691072Y-151072D01*
X691049Y-127098D01*
X690950Y-126605D01*
X690855Y-126125D01*
X690854Y-126124D01*
X690854Y-126122D01*
X690576Y-125707D01*
X690302Y-125298D01*
X690301Y-125297D01*
X690301Y-125296D01*
X689889Y-125021D01*
X689475Y-124745D01*
X689474Y-124745D01*
X689473Y-124744D01*
X688990Y-124649D01*
X688500Y-124551D01*
X672500Y-124551D01*
D02*
G37*
G36*
X647100D02*
X647099Y-124551D01*
X647097Y-124551D01*
X646622Y-124646D01*
X646124Y-124745D01*
X646123Y-124746D01*
X646122Y-124746D01*
X645710Y-125022D01*
X645297Y-125297D01*
X645297Y-125299D01*
X645296Y-125299D01*
X645019Y-125714D01*
X644745Y-126124D01*
X644745Y-126126D01*
X644744Y-126127D01*
X644648Y-126612D01*
X644551Y-127100D01*
X644551Y-127101D01*
X644551Y-127102D01*
X644574Y-151077D01*
X644574Y-151077D01*
X644574Y-151599D01*
X644607Y-151764D01*
X644596Y-151931D01*
X644733Y-152971D01*
X644787Y-153130D01*
X644798Y-153298D01*
X645069Y-154311D01*
X645144Y-154462D01*
X645177Y-154627D01*
X645578Y-155596D01*
X645671Y-155736D01*
X645725Y-155895D01*
X646250Y-156803D01*
X646360Y-156929D01*
X646435Y-157080D01*
X647073Y-157912D01*
X647200Y-158023D01*
X647293Y-158163D01*
X648035Y-158904D01*
X648174Y-158998D01*
X648285Y-159124D01*
X649117Y-159762D01*
X649268Y-159837D01*
X649395Y-159948D01*
X650303Y-160472D01*
X650462Y-160526D01*
X650602Y-160619D01*
X651571Y-161021D01*
X651736Y-161053D01*
X651886Y-161128D01*
X652899Y-161399D01*
X653067Y-161410D01*
X653226Y-161464D01*
X654266Y-161601D01*
X654434Y-161590D01*
X654599Y-161623D01*
X655123Y-161623D01*
X655647Y-161623D01*
X655812Y-161590D01*
X655979Y-161601D01*
X657019Y-161464D01*
X657178Y-161410D01*
X657346Y-161399D01*
X658359Y-161128D01*
X658510Y-161054D01*
X658675Y-161021D01*
X659644Y-160620D01*
X659784Y-160526D01*
X659943Y-160472D01*
X660851Y-159948D01*
X660978Y-159837D01*
X661129Y-159763D01*
X661961Y-159124D01*
X662072Y-158998D01*
X662212Y-158905D01*
X662953Y-158163D01*
X663047Y-158023D01*
X663173Y-157912D01*
X663811Y-157080D01*
X663886Y-156930D01*
X663997Y-156803D01*
X664521Y-155895D01*
X664575Y-155736D01*
X664669Y-155596D01*
X665070Y-154627D01*
X665103Y-154462D01*
X665177Y-154311D01*
X665449Y-153298D01*
X665460Y-153130D01*
X665514Y-152971D01*
X665650Y-151931D01*
X665639Y-151763D01*
X665672Y-151598D01*
X665672Y-151074D01*
X665672Y-151073D01*
X665672Y-151072D01*
X665649Y-127098D01*
X665550Y-126605D01*
X665455Y-126125D01*
X665454Y-126124D01*
X665454Y-126122D01*
X665176Y-125707D01*
X664902Y-125298D01*
X664901Y-125297D01*
X664901Y-125296D01*
X664489Y-125021D01*
X664075Y-124745D01*
X664074Y-124745D01*
X664073Y-124744D01*
X663590Y-124649D01*
X663100Y-124551D01*
X647100Y-124551D01*
D02*
G37*
G36*
X621700D02*
X621699Y-124551D01*
X621697Y-124551D01*
X621222Y-124646D01*
X620724Y-124745D01*
X620723Y-124746D01*
X620722Y-124746D01*
X620310Y-125022D01*
X619897Y-125297D01*
X619897Y-125299D01*
X619896Y-125299D01*
X619619Y-125714D01*
X619345Y-126124D01*
X619345Y-126126D01*
X619344Y-126127D01*
X619248Y-126612D01*
X619151Y-127100D01*
X619151Y-127101D01*
X619151Y-127102D01*
X619174Y-151077D01*
X619174Y-151077D01*
X619174Y-151599D01*
X619207Y-151764D01*
X619196Y-151931D01*
X619333Y-152971D01*
X619387Y-153130D01*
X619398Y-153298D01*
X619669Y-154311D01*
X619744Y-154462D01*
X619777Y-154627D01*
X620178Y-155596D01*
X620271Y-155736D01*
X620325Y-155895D01*
X620850Y-156803D01*
X620961Y-156929D01*
X621035Y-157080D01*
X621673Y-157912D01*
X621800Y-158023D01*
X621893Y-158163D01*
X622635Y-158904D01*
X622774Y-158998D01*
X622885Y-159124D01*
X623717Y-159762D01*
X623868Y-159837D01*
X623995Y-159948D01*
X624903Y-160472D01*
X625062Y-160526D01*
X625202Y-160619D01*
X626171Y-161021D01*
X626336Y-161053D01*
X626486Y-161128D01*
X627499Y-161399D01*
X627667Y-161410D01*
X627826Y-161464D01*
X628866Y-161601D01*
X629034Y-161590D01*
X629199Y-161623D01*
X629723Y-161623D01*
X630247Y-161623D01*
X630412Y-161590D01*
X630579Y-161601D01*
X631619Y-161464D01*
X631778Y-161410D01*
X631946Y-161399D01*
X632959Y-161128D01*
X633110Y-161054D01*
X633275Y-161021D01*
X634244Y-160620D01*
X634384Y-160526D01*
X634543Y-160472D01*
X635451Y-159948D01*
X635578Y-159837D01*
X635729Y-159763D01*
X636561Y-159124D01*
X636672Y-158998D01*
X636811Y-158905D01*
X637553Y-158163D01*
X637647Y-158023D01*
X637773Y-157912D01*
X638411Y-157080D01*
X638486Y-156930D01*
X638597Y-156803D01*
X639121Y-155895D01*
X639175Y-155736D01*
X639269Y-155596D01*
X639670Y-154627D01*
X639703Y-154462D01*
X639777Y-154311D01*
X640049Y-153298D01*
X640060Y-153130D01*
X640114Y-152971D01*
X640250Y-151931D01*
X640239Y-151763D01*
X640272Y-151598D01*
X640272Y-151074D01*
X640272Y-151073D01*
X640272Y-151072D01*
X640249Y-127098D01*
X640150Y-126605D01*
X640055Y-126125D01*
X640054Y-126124D01*
X640054Y-126122D01*
X639776Y-125707D01*
X639502Y-125298D01*
X639501Y-125297D01*
X639501Y-125296D01*
X639089Y-125021D01*
X638675Y-124745D01*
X638674Y-124745D01*
X638673Y-124744D01*
X638190Y-124649D01*
X637700Y-124551D01*
X621700Y-124551D01*
D02*
G37*
G36*
X596300D02*
X596299Y-124551D01*
X596297Y-124551D01*
X595822Y-124646D01*
X595324Y-124745D01*
X595323Y-124746D01*
X595322Y-124746D01*
X594910Y-125022D01*
X594497Y-125297D01*
X594497Y-125299D01*
X594496Y-125299D01*
X594219Y-125714D01*
X593945Y-126124D01*
X593945Y-126126D01*
X593944Y-126127D01*
X593848Y-126612D01*
X593751Y-127100D01*
X593751Y-127101D01*
X593751Y-127102D01*
X593774Y-151077D01*
X593774Y-151077D01*
X593774Y-151599D01*
X593807Y-151764D01*
X593796Y-151931D01*
X593933Y-152971D01*
X593987Y-153130D01*
X593998Y-153298D01*
X594269Y-154311D01*
X594344Y-154462D01*
X594377Y-154627D01*
X594778Y-155596D01*
X594871Y-155736D01*
X594925Y-155895D01*
X595450Y-156803D01*
X595560Y-156929D01*
X595635Y-157080D01*
X596273Y-157912D01*
X596400Y-158023D01*
X596493Y-158163D01*
X597235Y-158904D01*
X597374Y-158998D01*
X597485Y-159124D01*
X598317Y-159762D01*
X598468Y-159837D01*
X598595Y-159948D01*
X599503Y-160472D01*
X599662Y-160526D01*
X599802Y-160619D01*
X600771Y-161021D01*
X600936Y-161053D01*
X601086Y-161128D01*
X602099Y-161399D01*
X602267Y-161410D01*
X602426Y-161464D01*
X603466Y-161601D01*
X603634Y-161590D01*
X603799Y-161623D01*
X604323Y-161623D01*
X604847Y-161623D01*
X605012Y-161590D01*
X605179Y-161601D01*
X606219Y-161464D01*
X606378Y-161410D01*
X606546Y-161399D01*
X607559Y-161128D01*
X607710Y-161054D01*
X607875Y-161021D01*
X608844Y-160620D01*
X608984Y-160526D01*
X609143Y-160472D01*
X610051Y-159948D01*
X610178Y-159837D01*
X610329Y-159763D01*
X611161Y-159124D01*
X611272Y-158998D01*
X611412Y-158905D01*
X612153Y-158163D01*
X612247Y-158023D01*
X612373Y-157912D01*
X613012Y-157080D01*
X613086Y-156930D01*
X613197Y-156803D01*
X613721Y-155895D01*
X613775Y-155736D01*
X613869Y-155596D01*
X614270Y-154627D01*
X614303Y-154462D01*
X614377Y-154311D01*
X614649Y-153298D01*
X614660Y-153130D01*
X614714Y-152971D01*
X614850Y-151931D01*
X614839Y-151763D01*
X614872Y-151598D01*
X614872Y-151074D01*
X614872Y-151073D01*
X614872Y-151072D01*
X614849Y-127098D01*
X614750Y-126605D01*
X614655Y-126125D01*
X614654Y-126124D01*
X614654Y-126122D01*
X614376Y-125707D01*
X614102Y-125298D01*
X614101Y-125297D01*
X614100Y-125296D01*
X613689Y-125021D01*
X613275Y-124745D01*
X613274Y-124745D01*
X613273Y-124744D01*
X612790Y-124649D01*
X612300Y-124551D01*
X596300Y-124551D01*
D02*
G37*
G36*
X570900D02*
X570899Y-124551D01*
X570897Y-124551D01*
X570423Y-124646D01*
X569924Y-124745D01*
X569923Y-124746D01*
X569922Y-124746D01*
X569510Y-125022D01*
X569098Y-125297D01*
X569097Y-125299D01*
X569096Y-125299D01*
X568819Y-125714D01*
X568545Y-126124D01*
X568545Y-126126D01*
X568544Y-126127D01*
X568448Y-126612D01*
X568351Y-127100D01*
X568351Y-127101D01*
X568351Y-127102D01*
X568374Y-151077D01*
X568374Y-151077D01*
X568374Y-151599D01*
X568407Y-151764D01*
X568396Y-151931D01*
X568533Y-152971D01*
X568587Y-153130D01*
X568598Y-153298D01*
X568869Y-154311D01*
X568944Y-154462D01*
X568977Y-154627D01*
X569378Y-155596D01*
X569471Y-155736D01*
X569525Y-155895D01*
X570050Y-156803D01*
X570160Y-156929D01*
X570235Y-157080D01*
X570873Y-157912D01*
X571000Y-158023D01*
X571093Y-158163D01*
X571835Y-158904D01*
X571974Y-158998D01*
X572085Y-159124D01*
X572917Y-159762D01*
X573068Y-159837D01*
X573195Y-159948D01*
X574103Y-160472D01*
X574262Y-160526D01*
X574402Y-160619D01*
X575371Y-161021D01*
X575536Y-161053D01*
X575686Y-161128D01*
X576699Y-161399D01*
X576867Y-161410D01*
X577026Y-161464D01*
X578066Y-161601D01*
X578234Y-161590D01*
X578399Y-161623D01*
X578923Y-161623D01*
X579447Y-161623D01*
X579612Y-161590D01*
X579779Y-161601D01*
X580819Y-161464D01*
X580978Y-161410D01*
X581146Y-161399D01*
X582159Y-161128D01*
X582310Y-161054D01*
X582475Y-161021D01*
X583444Y-160620D01*
X583584Y-160526D01*
X583743Y-160472D01*
X584651Y-159948D01*
X584778Y-159837D01*
X584929Y-159763D01*
X585761Y-159124D01*
X585872Y-158998D01*
X586012Y-158905D01*
X586753Y-158163D01*
X586847Y-158023D01*
X586973Y-157912D01*
X587612Y-157080D01*
X587686Y-156930D01*
X587797Y-156803D01*
X588321Y-155895D01*
X588375Y-155736D01*
X588469Y-155596D01*
X588870Y-154627D01*
X588903Y-154462D01*
X588977Y-154311D01*
X589249Y-153298D01*
X589259Y-153130D01*
X589314Y-152971D01*
X589450Y-151931D01*
X589439Y-151763D01*
X589472Y-151598D01*
X589472Y-151074D01*
X589472Y-151073D01*
X589472Y-151072D01*
X589449Y-127098D01*
X589350Y-126605D01*
X589255Y-126125D01*
X589254Y-126124D01*
X589254Y-126122D01*
X588976Y-125707D01*
X588702Y-125298D01*
X588701Y-125297D01*
X588700Y-125296D01*
X588289Y-125021D01*
X587875Y-124745D01*
X587874Y-124745D01*
X587873Y-124744D01*
X587390Y-124649D01*
X586900Y-124551D01*
X570900Y-124551D01*
D02*
G37*
G36*
X12670Y-130767D02*
Y-134620D01*
X16038D01*
Y-134185D01*
X15777Y-132872D01*
X15033Y-131759D01*
X13920Y-131015D01*
X12670Y-130767D01*
D02*
G37*
G36*
X7590Y-130767D02*
X6340Y-131015D01*
X5227Y-131759D01*
X4483Y-132872D01*
X4222Y-134185D01*
Y-134620D01*
X7590D01*
Y-130767D01*
D02*
G37*
G36*
X16038Y-139700D02*
X10130D01*
X4222D01*
Y-140134D01*
X4483Y-141448D01*
X5046Y-142289D01*
X5256Y-143218D01*
X4688Y-144068D01*
X3535Y-143590D01*
X1545D01*
X-292Y-144351D01*
X-1699Y-145758D01*
X-2460Y-147595D01*
Y-149585D01*
X-1699Y-151422D01*
X-292Y-152829D01*
X1545Y-153590D01*
X3535D01*
X4688Y-153112D01*
X5256Y-153962D01*
X6356Y-154697D01*
X7653Y-154955D01*
X12607D01*
X13904Y-154697D01*
X15004Y-153962D01*
X15739Y-152862D01*
X15997Y-151565D01*
Y-145616D01*
X15739Y-144318D01*
X15004Y-143218D01*
X15214Y-142289D01*
X15777Y-141448D01*
X16038Y-140134D01*
Y-139700D01*
D02*
G37*
G36*
X-245760Y-163787D02*
Y-167640D01*
X-242392D01*
Y-167206D01*
X-242653Y-165892D01*
X-243397Y-164779D01*
X-244510Y-164035D01*
X-245760Y-163787D01*
D02*
G37*
G36*
X-250840D02*
X-252090Y-164035D01*
X-253203Y-164779D01*
X-253947Y-165892D01*
X-254208Y-167206D01*
Y-167640D01*
X-250840D01*
Y-163787D01*
D02*
G37*
G36*
X-242392Y-172720D02*
X-248300D01*
X-254208D01*
Y-173155D01*
X-253947Y-174468D01*
X-253203Y-175581D01*
X-253073Y-175668D01*
Y-177392D01*
X-253203Y-177479D01*
X-253947Y-178592D01*
X-254208Y-179905D01*
Y-180340D01*
X-248300D01*
X-242392D01*
Y-179905D01*
X-242653Y-178592D01*
X-242877Y-178258D01*
Y-174802D01*
X-242653Y-174468D01*
X-242392Y-173155D01*
Y-172720D01*
D02*
G37*
G36*
Y-185420D02*
X-248300D01*
X-254208D01*
Y-185854D01*
X-253947Y-187168D01*
X-253203Y-188281D01*
X-253073Y-188368D01*
Y-193866D01*
X-254278Y-194562D01*
X-256288Y-196572D01*
X-257709Y-199033D01*
X-258145Y-200660D01*
X-237155D01*
X-237591Y-199033D01*
X-239012Y-196572D01*
X-241022Y-194562D01*
X-242877Y-193491D01*
Y-187502D01*
X-242653Y-187168D01*
X-242392Y-185854D01*
Y-185420D01*
D02*
G37*
G36*
X-237155Y-205740D02*
X-245110D01*
Y-213695D01*
X-243483Y-213259D01*
X-241022Y-211838D01*
X-239012Y-209828D01*
X-237591Y-207367D01*
X-237155Y-205740D01*
D02*
G37*
G36*
X-250190D02*
X-258145D01*
X-257709Y-207367D01*
X-256288Y-209828D01*
X-254278Y-211838D01*
X-251817Y-213259D01*
X-250190Y-213695D01*
Y-205740D01*
D02*
G37*
G36*
X-231824Y-163815D02*
X-236777D01*
X-238074Y-164073D01*
X-239174Y-164808D01*
X-239909Y-165908D01*
X-240167Y-167206D01*
Y-173155D01*
X-239909Y-174452D01*
X-239398Y-175217D01*
Y-177843D01*
X-239909Y-178608D01*
X-240167Y-179905D01*
Y-185854D01*
X-239909Y-187152D01*
X-239398Y-187917D01*
Y-191150D01*
X-239010Y-193101D01*
X-237905Y-194755D01*
X-232555Y-200105D01*
X-233005Y-201784D01*
Y-204616D01*
X-232272Y-207351D01*
X-230856Y-209804D01*
X-228854Y-211806D01*
X-226401Y-213222D01*
X-223666Y-213955D01*
X-220834D01*
X-218099Y-213222D01*
X-215646Y-211806D01*
X-213644Y-209804D01*
X-212228Y-207351D01*
X-211495Y-204616D01*
Y-201784D01*
X-212228Y-199049D01*
X-213644Y-196596D01*
X-215646Y-194594D01*
X-218099Y-193178D01*
X-220834Y-192445D01*
X-223666D01*
X-225345Y-192895D01*
X-229202Y-189038D01*
Y-187917D01*
X-228691Y-187152D01*
X-228433Y-185854D01*
Y-179905D01*
X-228691Y-178608D01*
X-229202Y-177843D01*
Y-175217D01*
X-228691Y-174452D01*
X-228433Y-173155D01*
Y-167206D01*
X-228691Y-165908D01*
X-229426Y-164808D01*
X-230526Y-164073D01*
X-231824Y-163815D01*
D02*
G37*
G36*
X291500Y-124510D02*
X291499Y-124510D01*
X291497Y-124510D01*
X291020Y-124606D01*
X290509Y-124707D01*
X290508Y-124708D01*
X290506Y-124708D01*
X290093Y-124985D01*
X289669Y-125269D01*
X289668Y-125270D01*
X289667Y-125271D01*
X289392Y-125683D01*
X289107Y-126109D01*
X289107Y-126110D01*
X289106Y-126111D01*
X289010Y-126597D01*
X288910Y-127100D01*
X288910Y-127101D01*
X288910Y-127102D01*
X288931Y-148535D01*
X296983D01*
Y-124510D01*
X291500Y-124510D01*
D02*
G37*
G36*
X302063Y-124510D02*
Y-148535D01*
X310110D01*
X310090Y-127098D01*
X309991Y-126602D01*
X309893Y-126109D01*
X309892Y-126108D01*
X309891Y-126107D01*
X309609Y-125685D01*
X309331Y-125269D01*
X309330Y-125268D01*
X309329Y-125267D01*
X308911Y-124988D01*
X308491Y-124707D01*
X308490Y-124707D01*
X308489Y-124706D01*
X307993Y-124608D01*
X307500Y-124510D01*
X302063Y-124510D01*
D02*
G37*
G36*
X-219710Y35895D02*
Y27940D01*
X-211755D01*
X-212191Y29567D01*
X-213612Y32028D01*
X-215622Y34038D01*
X-218083Y35459D01*
X-219710Y35895D01*
D02*
G37*
G36*
X-224790D02*
X-226417Y35459D01*
X-228878Y34038D01*
X-230888Y32028D01*
X-232309Y29567D01*
X-232745Y27940D01*
X-224790D01*
Y35895D01*
D02*
G37*
G36*
X-211755Y22860D02*
X-219710D01*
Y14905D01*
X-218083Y15341D01*
X-215622Y16762D01*
X-213612Y18772D01*
X-212191Y21233D01*
X-211755Y22860D01*
D02*
G37*
G36*
X-224790D02*
X-232745D01*
X-232309Y21233D01*
X-230888Y18772D01*
X-228878Y16762D01*
X-226417Y15341D01*
X-224790Y14905D01*
Y22860D01*
D02*
G37*
G36*
X-246234Y36155D02*
X-249066D01*
X-251801Y35422D01*
X-254254Y34006D01*
X-256256Y32004D01*
X-257672Y29551D01*
X-258405Y26816D01*
Y23984D01*
X-257672Y21249D01*
X-256256Y18796D01*
X-254254Y16794D01*
X-251801Y15378D01*
X-249066Y14645D01*
X-246234D01*
X-243499Y15378D01*
X-241046Y16794D01*
X-239044Y18796D01*
X-237628Y21249D01*
X-236895Y23984D01*
Y26816D01*
X-237628Y29551D01*
X-239044Y32004D01*
X-241046Y34006D01*
X-243499Y35422D01*
X-246234Y36155D01*
D02*
G37*
G36*
X-271634D02*
X-274466D01*
X-277201Y35422D01*
X-279654Y34006D01*
X-281656Y32004D01*
X-283072Y29551D01*
X-283805Y26816D01*
Y23984D01*
X-283072Y21249D01*
X-281656Y18796D01*
X-279654Y16794D01*
X-277201Y15378D01*
X-274466Y14645D01*
X-271634D01*
X-268899Y15378D01*
X-266446Y16794D01*
X-264444Y18796D01*
X-263028Y21249D01*
X-262295Y23984D01*
Y26816D01*
X-263028Y29551D01*
X-264444Y32004D01*
X-266446Y34006D01*
X-268899Y35422D01*
X-271634Y36155D01*
D02*
G37*
G36*
X-322434D02*
X-325266D01*
X-328001Y35422D01*
X-330454Y34006D01*
X-332456Y32004D01*
X-333872Y29551D01*
X-334605Y26816D01*
Y23984D01*
X-333872Y21249D01*
X-332456Y18796D01*
X-330454Y16794D01*
X-328001Y15378D01*
X-325266Y14645D01*
X-322434D01*
X-319699Y15378D01*
X-317246Y16794D01*
X-315244Y18796D01*
X-313828Y21249D01*
X-313095Y23984D01*
Y26816D01*
X-313828Y29551D01*
X-315244Y32004D01*
X-317246Y34006D01*
X-319699Y35422D01*
X-322434Y36155D01*
D02*
G37*
G36*
X-347834D02*
X-350666D01*
X-353401Y35422D01*
X-355854Y34006D01*
X-357856Y32004D01*
X-359272Y29551D01*
X-360005Y26816D01*
Y23984D01*
X-359272Y21249D01*
X-357856Y18796D01*
X-355854Y16794D01*
X-353401Y15378D01*
X-350666Y14645D01*
X-347834D01*
X-345099Y15378D01*
X-342646Y16794D01*
X-340644Y18796D01*
X-339228Y21249D01*
X-338495Y23984D01*
Y26816D01*
X-339228Y29551D01*
X-340644Y32004D01*
X-342646Y34006D01*
X-345099Y35422D01*
X-347834Y36155D01*
D02*
G37*
G36*
X-373234D02*
X-376066D01*
X-378801Y35422D01*
X-381254Y34006D01*
X-383256Y32004D01*
X-384672Y29551D01*
X-385405Y26816D01*
Y23984D01*
X-384672Y21249D01*
X-383256Y18796D01*
X-381254Y16794D01*
X-378801Y15378D01*
X-376066Y14645D01*
X-373234D01*
X-370499Y15378D01*
X-368046Y16794D01*
X-366044Y18796D01*
X-364628Y21249D01*
X-363895Y23984D01*
Y26816D01*
X-364628Y29551D01*
X-366044Y32004D01*
X-368046Y34006D01*
X-370499Y35422D01*
X-373234Y36155D01*
D02*
G37*
G36*
X-389295D02*
X-410805D01*
Y14645D01*
X-389295D01*
Y36155D01*
D02*
G37*
G36*
X-297034D02*
X-299866D01*
X-302601Y35422D01*
X-305054Y34006D01*
X-307056Y32004D01*
X-308472Y29551D01*
X-309205Y26816D01*
Y23984D01*
X-308472Y21249D01*
X-307056Y18796D01*
X-305054Y16794D01*
X-302601Y15378D01*
X-302019Y15222D01*
Y5080D01*
X-301747Y3714D01*
X-300973Y2557D01*
X-294623Y-3793D01*
X-293466Y-4567D01*
X-292100Y-4839D01*
X-279093D01*
X-278422Y-5509D01*
X-276585Y-6270D01*
X-274595D01*
X-272758Y-5509D01*
X-271351Y-4102D01*
X-270590Y-2265D01*
Y-275D01*
X-271351Y1562D01*
X-272758Y2969D01*
X-274595Y3730D01*
X-276585D01*
X-278422Y2969D01*
X-279093Y2299D01*
X-290622D01*
X-294881Y6558D01*
Y15222D01*
X-294299Y15378D01*
X-291846Y16794D01*
X-289844Y18796D01*
X-288428Y21249D01*
X-287695Y23984D01*
Y26816D01*
X-288428Y29551D01*
X-289844Y32004D01*
X-291846Y34006D01*
X-294299Y35422D01*
X-297034Y36155D01*
D02*
G37*
G36*
X418500Y-124510D02*
X418498Y-124510D01*
X418497Y-124510D01*
X418020Y-124606D01*
X417509Y-124707D01*
X417508Y-124708D01*
X417506Y-124708D01*
X417093Y-124985D01*
X416669Y-125269D01*
X416668Y-125270D01*
X416667Y-125271D01*
X416392Y-125683D01*
X416107Y-126109D01*
X416107Y-126110D01*
X416106Y-126111D01*
X416010Y-126597D01*
X415910Y-127100D01*
X415910Y-127101D01*
X415910Y-127102D01*
X415931Y-148535D01*
X423983D01*
Y-124510D01*
X418500Y-124510D01*
D02*
G37*
G36*
X342300Y-124551D02*
X342299Y-124551D01*
X342297Y-124551D01*
X341823Y-124646D01*
X341324Y-124745D01*
X341323Y-124746D01*
X341322Y-124746D01*
X340910Y-125022D01*
X340498Y-125297D01*
X340497Y-125299D01*
X340496Y-125299D01*
X340219Y-125714D01*
X339945Y-126124D01*
X339945Y-126126D01*
X339944Y-126127D01*
X339848Y-126612D01*
X339751Y-127100D01*
X339751Y-127101D01*
X339751Y-127102D01*
X339774Y-151077D01*
X339774Y-151077D01*
X339774Y-151599D01*
X339807Y-151764D01*
X339796Y-151931D01*
X339933Y-152971D01*
X339987Y-153130D01*
X339998Y-153298D01*
X340269Y-154311D01*
X340344Y-154462D01*
X340377Y-154627D01*
X340778Y-155596D01*
X340871Y-155736D01*
X340925Y-155895D01*
X341450Y-156803D01*
X341561Y-156929D01*
X341635Y-157080D01*
X342273Y-157912D01*
X342400Y-158023D01*
X342493Y-158163D01*
X343235Y-158904D01*
X343374Y-158998D01*
X343485Y-159124D01*
X344317Y-159762D01*
X344468Y-159837D01*
X344595Y-159948D01*
X345503Y-160472D01*
X345662Y-160526D01*
X345802Y-160619D01*
X346771Y-161021D01*
X346936Y-161053D01*
X347086Y-161128D01*
X348099Y-161399D01*
X348267Y-161410D01*
X348426Y-161464D01*
X349466Y-161601D01*
X349634Y-161590D01*
X349799Y-161623D01*
X350322Y-161623D01*
X350847Y-161623D01*
X351012Y-161590D01*
X351179Y-161601D01*
X352219Y-161464D01*
X352378Y-161410D01*
X352546Y-161399D01*
X353559Y-161128D01*
X353710Y-161054D01*
X353875Y-161021D01*
X354844Y-160620D01*
X354984Y-160526D01*
X355143Y-160472D01*
X356051Y-159948D01*
X356178Y-159837D01*
X356329Y-159763D01*
X357161Y-159124D01*
X357272Y-158998D01*
X357411Y-158905D01*
X358153Y-158163D01*
X358247Y-158023D01*
X358373Y-157912D01*
X359011Y-157080D01*
X359086Y-156930D01*
X359197Y-156803D01*
X359721Y-155895D01*
X359775Y-155736D01*
X359869Y-155596D01*
X360270Y-154627D01*
X360303Y-154462D01*
X360377Y-154311D01*
X360648Y-153298D01*
X360659Y-153130D01*
X360714Y-152971D01*
X360850Y-151931D01*
X360839Y-151763D01*
X360872Y-151598D01*
X360872Y-151074D01*
X360872Y-151073D01*
X360872Y-151072D01*
X360849Y-127098D01*
X360750Y-126605D01*
X360655Y-126125D01*
X360654Y-126124D01*
X360654Y-126122D01*
X360376Y-125707D01*
X360102Y-125298D01*
X360101Y-125297D01*
X360101Y-125296D01*
X359689Y-125021D01*
X359275Y-124745D01*
X359274Y-124745D01*
X359273Y-124744D01*
X358790Y-124649D01*
X358300Y-124551D01*
X342300Y-124551D01*
D02*
G37*
G36*
X723300D02*
X723299Y-124551D01*
X723297Y-124551D01*
X722822Y-124646D01*
X722324Y-124745D01*
X722323Y-124746D01*
X722322Y-124746D01*
X721910Y-125022D01*
X721497Y-125297D01*
X721497Y-125299D01*
X721496Y-125299D01*
X721219Y-125714D01*
X720945Y-126124D01*
X720945Y-126126D01*
X720944Y-126127D01*
X720848Y-126612D01*
X720751Y-127100D01*
X720751Y-127101D01*
X720751Y-127102D01*
X720774Y-151077D01*
X720774Y-151077D01*
X720774Y-151599D01*
X720807Y-151764D01*
X720796Y-151931D01*
X720933Y-152971D01*
X720987Y-153130D01*
X720998Y-153298D01*
X721269Y-154311D01*
X721344Y-154462D01*
X721377Y-154627D01*
X721778Y-155596D01*
X721871Y-155736D01*
X721925Y-155895D01*
X722450Y-156803D01*
X722561Y-156929D01*
X722635Y-157080D01*
X723273Y-157912D01*
X723400Y-158023D01*
X723493Y-158163D01*
X724235Y-158904D01*
X724374Y-158998D01*
X724485Y-159124D01*
X725317Y-159762D01*
X725468Y-159837D01*
X725595Y-159948D01*
X726503Y-160472D01*
X726662Y-160526D01*
X726802Y-160619D01*
X727771Y-161021D01*
X727936Y-161053D01*
X728086Y-161128D01*
X729099Y-161399D01*
X729267Y-161410D01*
X729426Y-161464D01*
X730466Y-161601D01*
X730634Y-161590D01*
X730799Y-161623D01*
X731322Y-161623D01*
X731847Y-161623D01*
X732012Y-161590D01*
X732179Y-161601D01*
X733219Y-161464D01*
X733378Y-161410D01*
X733546Y-161399D01*
X734559Y-161128D01*
X734710Y-161054D01*
X734875Y-161021D01*
X735844Y-160620D01*
X735984Y-160526D01*
X736143Y-160472D01*
X737051Y-159948D01*
X737178Y-159837D01*
X737329Y-159763D01*
X738161Y-159124D01*
X738272Y-158998D01*
X738411Y-158905D01*
X739153Y-158163D01*
X739247Y-158023D01*
X739373Y-157912D01*
X740012Y-157080D01*
X740086Y-156930D01*
X740197Y-156803D01*
X740721Y-155895D01*
X740775Y-155736D01*
X740869Y-155596D01*
X741270Y-154627D01*
X741303Y-154462D01*
X741377Y-154311D01*
X741648Y-153298D01*
X741659Y-153130D01*
X741713Y-152971D01*
X741850Y-151931D01*
X741839Y-151763D01*
X741872Y-151598D01*
X741872Y-151074D01*
X741872Y-151073D01*
X741872Y-151072D01*
X741849Y-127098D01*
X741750Y-126605D01*
X741655Y-126125D01*
X741654Y-126124D01*
X741654Y-126122D01*
X741376Y-125707D01*
X741102Y-125298D01*
X741101Y-125297D01*
X741100Y-125296D01*
X740689Y-125021D01*
X740275Y-124745D01*
X740274Y-124745D01*
X740273Y-124744D01*
X739790Y-124649D01*
X739300Y-124551D01*
X723300Y-124551D01*
D02*
G37*
G36*
X494700D02*
X494699Y-124551D01*
X494697Y-124551D01*
X494222Y-124646D01*
X493724Y-124745D01*
X493723Y-124746D01*
X493722Y-124746D01*
X493310Y-125022D01*
X492897Y-125297D01*
X492897Y-125299D01*
X492896Y-125299D01*
X492619Y-125714D01*
X492345Y-126124D01*
X492345Y-126126D01*
X492344Y-126127D01*
X492248Y-126612D01*
X492151Y-127100D01*
X492151Y-127101D01*
X492151Y-127102D01*
X492174Y-151077D01*
X492174Y-151077D01*
X492174Y-151599D01*
X492207Y-151764D01*
X492196Y-151931D01*
X492333Y-152971D01*
X492387Y-153130D01*
X492398Y-153298D01*
X492669Y-154311D01*
X492744Y-154462D01*
X492777Y-154627D01*
X493178Y-155596D01*
X493271Y-155736D01*
X493325Y-155895D01*
X493850Y-156803D01*
X493960Y-156929D01*
X494035Y-157080D01*
X494673Y-157912D01*
X494800Y-158023D01*
X494893Y-158163D01*
X495635Y-158904D01*
X495774Y-158998D01*
X495885Y-159124D01*
X496717Y-159762D01*
X496868Y-159837D01*
X496995Y-159948D01*
X497903Y-160472D01*
X498062Y-160526D01*
X498202Y-160619D01*
X499171Y-161021D01*
X499336Y-161053D01*
X499486Y-161128D01*
X500499Y-161399D01*
X500667Y-161410D01*
X500826Y-161464D01*
X501866Y-161601D01*
X502034Y-161590D01*
X502199Y-161623D01*
X502723Y-161623D01*
X503247Y-161623D01*
X503412Y-161590D01*
X503579Y-161601D01*
X504619Y-161464D01*
X504778Y-161410D01*
X504946Y-161399D01*
X505959Y-161128D01*
X506110Y-161054D01*
X506275Y-161021D01*
X507244Y-160620D01*
X507384Y-160526D01*
X507543Y-160472D01*
X508451Y-159948D01*
X508578Y-159837D01*
X508729Y-159763D01*
X509561Y-159124D01*
X509672Y-158998D01*
X509812Y-158905D01*
X510553Y-158163D01*
X510647Y-158023D01*
X510773Y-157912D01*
X511412Y-157080D01*
X511486Y-156930D01*
X511597Y-156803D01*
X512121Y-155895D01*
X512175Y-155736D01*
X512269Y-155596D01*
X512670Y-154627D01*
X512703Y-154462D01*
X512777Y-154311D01*
X513049Y-153298D01*
X513060Y-153130D01*
X513114Y-152971D01*
X513250Y-151931D01*
X513239Y-151763D01*
X513272Y-151598D01*
X513272Y-151074D01*
X513272Y-151073D01*
X513272Y-151072D01*
X513249Y-127098D01*
X513150Y-126605D01*
X513055Y-126125D01*
X513054Y-126124D01*
X513054Y-126122D01*
X512776Y-125707D01*
X512502Y-125298D01*
X512501Y-125297D01*
X512500Y-125296D01*
X512089Y-125021D01*
X511675Y-124745D01*
X511674Y-124745D01*
X511673Y-124744D01*
X511190Y-124649D01*
X510700Y-124551D01*
X494700Y-124551D01*
D02*
G37*
G36*
X469300D02*
X469299Y-124551D01*
X469297Y-124551D01*
X468823Y-124646D01*
X468324Y-124745D01*
X468323Y-124746D01*
X468322Y-124746D01*
X467910Y-125022D01*
X467497Y-125297D01*
X467497Y-125299D01*
X467496Y-125299D01*
X467219Y-125714D01*
X466945Y-126124D01*
X466945Y-126126D01*
X466944Y-126127D01*
X466848Y-126612D01*
X466751Y-127100D01*
X466751Y-127101D01*
X466751Y-127102D01*
X466774Y-151077D01*
X466774Y-151077D01*
X466774Y-151599D01*
X466807Y-151764D01*
X466796Y-151931D01*
X466933Y-152971D01*
X466987Y-153130D01*
X466998Y-153298D01*
X467269Y-154311D01*
X467344Y-154462D01*
X467377Y-154627D01*
X467778Y-155596D01*
X467871Y-155736D01*
X467925Y-155895D01*
X468450Y-156803D01*
X468560Y-156929D01*
X468635Y-157080D01*
X469273Y-157912D01*
X469400Y-158023D01*
X469493Y-158163D01*
X470235Y-158904D01*
X470374Y-158998D01*
X470485Y-159124D01*
X471317Y-159762D01*
X471468Y-159837D01*
X471595Y-159948D01*
X472503Y-160472D01*
X472662Y-160526D01*
X472802Y-160619D01*
X473771Y-161021D01*
X473936Y-161053D01*
X474086Y-161128D01*
X475099Y-161399D01*
X475267Y-161410D01*
X475426Y-161464D01*
X476466Y-161601D01*
X476634Y-161590D01*
X476799Y-161623D01*
X477323Y-161623D01*
X477847Y-161623D01*
X478012Y-161590D01*
X478179Y-161601D01*
X479219Y-161464D01*
X479378Y-161410D01*
X479546Y-161399D01*
X480559Y-161128D01*
X480710Y-161054D01*
X480875Y-161021D01*
X481844Y-160620D01*
X481984Y-160526D01*
X482143Y-160472D01*
X483051Y-159948D01*
X483178Y-159837D01*
X483329Y-159763D01*
X484161Y-159124D01*
X484272Y-158998D01*
X484412Y-158905D01*
X485153Y-158163D01*
X485247Y-158023D01*
X485373Y-157912D01*
X486012Y-157080D01*
X486086Y-156930D01*
X486197Y-156803D01*
X486721Y-155895D01*
X486775Y-155736D01*
X486869Y-155596D01*
X487270Y-154627D01*
X487303Y-154462D01*
X487377Y-154311D01*
X487649Y-153298D01*
X487659Y-153130D01*
X487714Y-152971D01*
X487850Y-151931D01*
X487839Y-151763D01*
X487872Y-151598D01*
X487872Y-151074D01*
X487872Y-151073D01*
X487872Y-151072D01*
X487849Y-127098D01*
X487750Y-126605D01*
X487655Y-126125D01*
X487654Y-126124D01*
X487654Y-126122D01*
X487376Y-125707D01*
X487102Y-125298D01*
X487101Y-125297D01*
X487100Y-125296D01*
X486689Y-125021D01*
X486275Y-124745D01*
X486274Y-124745D01*
X486273Y-124744D01*
X485790Y-124649D01*
X485300Y-124551D01*
X469300Y-124551D01*
D02*
G37*
G36*
X443900D02*
X443899Y-124551D01*
X443897Y-124551D01*
X443423Y-124646D01*
X442924Y-124745D01*
X442923Y-124746D01*
X442922Y-124746D01*
X442510Y-125022D01*
X442098Y-125297D01*
X442097Y-125299D01*
X442096Y-125299D01*
X441819Y-125714D01*
X441545Y-126124D01*
X441545Y-126126D01*
X441544Y-126127D01*
X441448Y-126612D01*
X441351Y-127100D01*
X441351Y-127101D01*
X441351Y-127102D01*
X441374Y-151077D01*
X441374Y-151077D01*
X441374Y-151599D01*
X441407Y-151764D01*
X441396Y-151931D01*
X441533Y-152971D01*
X441587Y-153130D01*
X441598Y-153298D01*
X441869Y-154311D01*
X441944Y-154462D01*
X441977Y-154627D01*
X442378Y-155596D01*
X442471Y-155736D01*
X442525Y-155895D01*
X443050Y-156803D01*
X443161Y-156929D01*
X443235Y-157080D01*
X443873Y-157912D01*
X444000Y-158023D01*
X444093Y-158163D01*
X444835Y-158904D01*
X444974Y-158998D01*
X445085Y-159124D01*
X445917Y-159762D01*
X446068Y-159837D01*
X446195Y-159948D01*
X447103Y-160472D01*
X447262Y-160526D01*
X447402Y-160619D01*
X448371Y-161021D01*
X448536Y-161053D01*
X448686Y-161128D01*
X449699Y-161399D01*
X449867Y-161410D01*
X450026Y-161464D01*
X451066Y-161601D01*
X451234Y-161590D01*
X451399Y-161623D01*
X451922Y-161623D01*
X452447Y-161623D01*
X452612Y-161590D01*
X452779Y-161601D01*
X453819Y-161464D01*
X453978Y-161410D01*
X454146Y-161399D01*
X455159Y-161128D01*
X455310Y-161054D01*
X455475Y-161021D01*
X456444Y-160620D01*
X456584Y-160526D01*
X456743Y-160472D01*
X457651Y-159948D01*
X457778Y-159837D01*
X457929Y-159763D01*
X458761Y-159124D01*
X458872Y-158998D01*
X459011Y-158905D01*
X459753Y-158163D01*
X459847Y-158023D01*
X459973Y-157912D01*
X460611Y-157080D01*
X460686Y-156930D01*
X460797Y-156803D01*
X461321Y-155895D01*
X461375Y-155736D01*
X461469Y-155596D01*
X461870Y-154627D01*
X461903Y-154462D01*
X461977Y-154311D01*
X462248Y-153298D01*
X462259Y-153130D01*
X462313Y-152971D01*
X462450Y-151931D01*
X462439Y-151763D01*
X462472Y-151598D01*
X462472Y-151074D01*
X462472Y-151073D01*
X462472Y-151072D01*
X462449Y-127098D01*
X462350Y-126605D01*
X462255Y-126125D01*
X462254Y-126124D01*
X462254Y-126122D01*
X461976Y-125707D01*
X461702Y-125298D01*
X461701Y-125297D01*
X461701Y-125296D01*
X461289Y-125021D01*
X460875Y-124745D01*
X460874Y-124745D01*
X460873Y-124744D01*
X460390Y-124649D01*
X459900Y-124551D01*
X443900Y-124551D01*
D02*
G37*
G36*
X393100D02*
X393099Y-124551D01*
X393097Y-124551D01*
X392622Y-124646D01*
X392124Y-124745D01*
X392123Y-124746D01*
X392122Y-124746D01*
X391710Y-125022D01*
X391297Y-125297D01*
X391297Y-125299D01*
X391296Y-125299D01*
X391019Y-125714D01*
X390745Y-126124D01*
X390745Y-126126D01*
X390744Y-126127D01*
X390648Y-126612D01*
X390551Y-127100D01*
X390551Y-127101D01*
X390551Y-127102D01*
X390574Y-151077D01*
X390574Y-151077D01*
X390574Y-151599D01*
X390607Y-151764D01*
X390596Y-151931D01*
X390733Y-152971D01*
X390787Y-153130D01*
X390798Y-153298D01*
X391069Y-154311D01*
X391144Y-154462D01*
X391177Y-154627D01*
X391578Y-155596D01*
X391671Y-155736D01*
X391725Y-155895D01*
X392250Y-156803D01*
X392360Y-156929D01*
X392435Y-157080D01*
X393073Y-157912D01*
X393200Y-158023D01*
X393293Y-158163D01*
X394035Y-158904D01*
X394174Y-158998D01*
X394285Y-159124D01*
X395117Y-159762D01*
X395268Y-159837D01*
X395395Y-159948D01*
X396303Y-160472D01*
X396462Y-160526D01*
X396602Y-160619D01*
X397571Y-161021D01*
X397736Y-161053D01*
X397886Y-161128D01*
X398899Y-161399D01*
X399067Y-161410D01*
X399226Y-161464D01*
X400266Y-161601D01*
X400434Y-161590D01*
X400599Y-161623D01*
X401123Y-161623D01*
X401647Y-161623D01*
X401812Y-161590D01*
X401979Y-161601D01*
X403019Y-161464D01*
X403178Y-161410D01*
X403346Y-161399D01*
X404359Y-161128D01*
X404510Y-161054D01*
X404675Y-161021D01*
X405644Y-160620D01*
X405784Y-160526D01*
X405943Y-160472D01*
X406851Y-159948D01*
X406978Y-159837D01*
X407129Y-159763D01*
X407961Y-159124D01*
X408072Y-158998D01*
X408212Y-158905D01*
X408953Y-158163D01*
X409047Y-158023D01*
X409173Y-157912D01*
X409812Y-157080D01*
X409886Y-156930D01*
X409997Y-156803D01*
X410521Y-155895D01*
X410575Y-155736D01*
X410669Y-155596D01*
X411070Y-154627D01*
X411103Y-154462D01*
X411177Y-154311D01*
X411449Y-153298D01*
X411460Y-153130D01*
X411513Y-152971D01*
X411650Y-151931D01*
X411639Y-151763D01*
X411672Y-151598D01*
X411672Y-151074D01*
X411672Y-151073D01*
X411672Y-151072D01*
X411649Y-127098D01*
X411550Y-126605D01*
X411455Y-126125D01*
X411454Y-126124D01*
X411454Y-126122D01*
X411176Y-125707D01*
X410902Y-125298D01*
X410901Y-125297D01*
X410900Y-125296D01*
X410489Y-125021D01*
X410075Y-124745D01*
X410074Y-124745D01*
X410073Y-124744D01*
X409590Y-124649D01*
X409100Y-124551D01*
X393100Y-124551D01*
D02*
G37*
G36*
X367700D02*
X367699Y-124551D01*
X367697Y-124551D01*
X367223Y-124646D01*
X366724Y-124745D01*
X366723Y-124746D01*
X366722Y-124746D01*
X366310Y-125022D01*
X365897Y-125297D01*
X365897Y-125299D01*
X365896Y-125299D01*
X365619Y-125714D01*
X365345Y-126124D01*
X365345Y-126126D01*
X365344Y-126127D01*
X365248Y-126612D01*
X365151Y-127100D01*
X365151Y-127101D01*
X365151Y-127102D01*
X365174Y-151077D01*
X365174Y-151077D01*
X365174Y-151599D01*
X365207Y-151764D01*
X365196Y-151931D01*
X365333Y-152971D01*
X365387Y-153130D01*
X365398Y-153298D01*
X365669Y-154311D01*
X365744Y-154462D01*
X365777Y-154627D01*
X366178Y-155596D01*
X366271Y-155736D01*
X366325Y-155895D01*
X366850Y-156803D01*
X366960Y-156929D01*
X367035Y-157080D01*
X367673Y-157912D01*
X367800Y-158023D01*
X367893Y-158163D01*
X368635Y-158904D01*
X368774Y-158998D01*
X368885Y-159124D01*
X369717Y-159762D01*
X369868Y-159837D01*
X369995Y-159948D01*
X370903Y-160472D01*
X371062Y-160526D01*
X371202Y-160619D01*
X372171Y-161021D01*
X372336Y-161053D01*
X372486Y-161128D01*
X373499Y-161399D01*
X373667Y-161410D01*
X373826Y-161464D01*
X374866Y-161601D01*
X375034Y-161590D01*
X375199Y-161623D01*
X375723Y-161623D01*
X376247Y-161623D01*
X376412Y-161590D01*
X376579Y-161601D01*
X377619Y-161464D01*
X377778Y-161410D01*
X377946Y-161399D01*
X378959Y-161128D01*
X379110Y-161054D01*
X379275Y-161021D01*
X380244Y-160620D01*
X380384Y-160526D01*
X380543Y-160472D01*
X381451Y-159948D01*
X381578Y-159837D01*
X381729Y-159763D01*
X382561Y-159124D01*
X382672Y-158998D01*
X382812Y-158905D01*
X383553Y-158163D01*
X383647Y-158023D01*
X383773Y-157912D01*
X384412Y-157080D01*
X384486Y-156930D01*
X384597Y-156803D01*
X385121Y-155895D01*
X385175Y-155736D01*
X385269Y-155596D01*
X385670Y-154627D01*
X385703Y-154462D01*
X385777Y-154311D01*
X386049Y-153298D01*
X386059Y-153130D01*
X386114Y-152971D01*
X386250Y-151931D01*
X386239Y-151763D01*
X386272Y-151598D01*
X386272Y-151074D01*
X386272Y-151073D01*
X386272Y-151072D01*
X386249Y-127098D01*
X386150Y-126605D01*
X386055Y-126125D01*
X386054Y-126124D01*
X386054Y-126122D01*
X385776Y-125707D01*
X385502Y-125298D01*
X385501Y-125297D01*
X385500Y-125296D01*
X385089Y-125021D01*
X384675Y-124745D01*
X384674Y-124745D01*
X384673Y-124744D01*
X384190Y-124649D01*
X383700Y-124551D01*
X367700Y-124551D01*
D02*
G37*
G36*
X429063Y-124510D02*
Y-148535D01*
X437110D01*
X437090Y-127098D01*
X436991Y-126602D01*
X436893Y-126109D01*
X436892Y-126108D01*
X436892Y-126107D01*
X436609Y-125685D01*
X436331Y-125269D01*
X436330Y-125268D01*
X436329Y-125267D01*
X435911Y-124988D01*
X435491Y-124707D01*
X435490Y-124707D01*
X435489Y-124706D01*
X434993Y-124608D01*
X434500Y-124510D01*
X429063Y-124510D01*
D02*
G37*
G36*
X423983Y-153615D02*
X416241D01*
X416430Y-154322D01*
X416506Y-154475D01*
X416539Y-154642D01*
X416940Y-155611D01*
X417035Y-155753D01*
X417090Y-155915D01*
X417614Y-156823D01*
X417727Y-156952D01*
X417803Y-157105D01*
X418441Y-157937D01*
X418569Y-158050D01*
X418664Y-158192D01*
X419406Y-158933D01*
X419548Y-159028D01*
X419660Y-159156D01*
X420493Y-159795D01*
X420646Y-159870D01*
X420774Y-159983D01*
X421682Y-160507D01*
X421844Y-160562D01*
X421986Y-160657D01*
X422955Y-161058D01*
X423123Y-161092D01*
X423276Y-161167D01*
X423983Y-161357D01*
Y-153615D01*
D02*
G37*
G36*
X550983D02*
X543241D01*
X543430Y-154322D01*
X543506Y-154475D01*
X543539Y-154642D01*
X543940Y-155611D01*
X544035Y-155753D01*
X544090Y-155915D01*
X544614Y-156823D01*
X544727Y-156952D01*
X544803Y-157105D01*
X545441Y-157937D01*
X545569Y-158050D01*
X545664Y-158192D01*
X546406Y-158933D01*
X546548Y-159028D01*
X546660Y-159156D01*
X547492Y-159795D01*
X547646Y-159870D01*
X547774Y-159983D01*
X548682Y-160507D01*
X548844Y-160562D01*
X548986Y-160657D01*
X549955Y-161058D01*
X550123Y-161092D01*
X550276Y-161167D01*
X550983Y-161357D01*
Y-153615D01*
D02*
G37*
G36*
X436806D02*
X429063D01*
Y-161357D01*
X429770Y-161168D01*
X429923Y-161092D01*
X430091Y-161059D01*
X431060Y-160658D01*
X431202Y-160563D01*
X431363Y-160508D01*
X432272Y-159984D01*
X432400Y-159871D01*
X432554Y-159795D01*
X433386Y-159157D01*
X433498Y-159029D01*
X433640Y-158933D01*
X434382Y-158192D01*
X434477Y-158050D01*
X434605Y-157937D01*
X435244Y-157105D01*
X435319Y-156952D01*
X435432Y-156824D01*
X435956Y-155915D01*
X436011Y-155753D01*
X436106Y-155611D01*
X436508Y-154642D01*
X436541Y-154475D01*
X436617Y-154322D01*
X436806Y-153615D01*
D02*
G37*
G36*
X725060Y-164093D02*
X711975D01*
X710643Y-164358D01*
X709513Y-165113D01*
X708758Y-166243D01*
X708685Y-166611D01*
X706120D01*
X704754Y-166883D01*
X703597Y-167657D01*
X702823Y-168814D01*
X702551Y-170180D01*
X702823Y-171546D01*
X703597Y-172703D01*
X704754Y-173477D01*
X706120Y-173749D01*
X708677D01*
X708758Y-174158D01*
X709513Y-175287D01*
X710643Y-176042D01*
X711975Y-176307D01*
X725060D01*
Y-170200D01*
Y-164093D01*
D02*
G37*
G36*
X563045Y-187132D02*
X562610D01*
Y-190500D01*
X566463D01*
X566215Y-189250D01*
X565471Y-188137D01*
X564358Y-187393D01*
X563045Y-187132D01*
D02*
G37*
G36*
X736910Y-186193D02*
X735700D01*
X734358Y-186460D01*
X733220Y-187220D01*
X732460Y-188358D01*
X732193Y-189700D01*
Y-190760D01*
X736910D01*
Y-186193D01*
D02*
G37*
G36*
X566463Y-195580D02*
X562610D01*
Y-198948D01*
X563045D01*
X564358Y-198687D01*
X565471Y-197943D01*
X566215Y-196830D01*
X566463Y-195580D01*
D02*
G37*
G36*
X557530Y-187132D02*
X557095D01*
X555782Y-187393D01*
X554669Y-188137D01*
X553925Y-189250D01*
X553881Y-189471D01*
X551180D01*
X549814Y-189743D01*
X548657Y-190517D01*
X547883Y-191674D01*
X547611Y-193040D01*
X547883Y-194406D01*
X548657Y-195563D01*
X549814Y-196337D01*
X551180Y-196609D01*
X553881D01*
X553925Y-196830D01*
X554669Y-197943D01*
X555782Y-198687D01*
X557095Y-198948D01*
X557530D01*
Y-193040D01*
Y-187132D01*
D02*
G37*
G36*
X-297034Y-192445D02*
X-299866D01*
X-302601Y-193178D01*
X-305054Y-194594D01*
X-307056Y-196596D01*
X-308472Y-199049D01*
X-309205Y-201784D01*
Y-204616D01*
X-308472Y-207351D01*
X-307056Y-209804D01*
X-305054Y-211806D01*
X-302601Y-213222D01*
X-299866Y-213955D01*
X-297034D01*
X-294299Y-213222D01*
X-291846Y-211806D01*
X-289844Y-209804D01*
X-288428Y-207351D01*
X-287695Y-204616D01*
Y-201784D01*
X-288428Y-199049D01*
X-289844Y-196596D01*
X-291846Y-194594D01*
X-294299Y-193178D01*
X-297034Y-192445D01*
D02*
G37*
G36*
X-322434D02*
X-325266D01*
X-328001Y-193178D01*
X-330454Y-194594D01*
X-332456Y-196596D01*
X-333872Y-199049D01*
X-334605Y-201784D01*
Y-204616D01*
X-333872Y-207351D01*
X-332456Y-209804D01*
X-330454Y-211806D01*
X-328001Y-213222D01*
X-325266Y-213955D01*
X-322434D01*
X-319699Y-213222D01*
X-317246Y-211806D01*
X-315244Y-209804D01*
X-313828Y-207351D01*
X-313095Y-204616D01*
Y-201784D01*
X-313828Y-199049D01*
X-315244Y-196596D01*
X-317246Y-194594D01*
X-319699Y-193178D01*
X-322434Y-192445D01*
D02*
G37*
G36*
X-389295D02*
X-410805D01*
Y-213955D01*
X-389295D01*
Y-192445D01*
D02*
G37*
G36*
X157422Y-219499D02*
X153778D01*
X150204Y-220210D01*
X146837Y-221605D01*
X143807Y-223630D01*
X141230Y-226206D01*
X139205Y-229237D01*
X137811Y-232603D01*
X137100Y-236177D01*
Y-239822D01*
X137811Y-243396D01*
X139205Y-246763D01*
X141230Y-249793D01*
X143807Y-252369D01*
X146837Y-254394D01*
X150204Y-255789D01*
X153778Y-256500D01*
X157422D01*
X160996Y-255789D01*
X164363Y-254394D01*
X167393Y-252369D01*
X169970Y-249793D01*
X171994Y-246763D01*
X173389Y-243396D01*
X174100Y-239822D01*
Y-236177D01*
X173389Y-232603D01*
X171994Y-229237D01*
X169970Y-226206D01*
X167393Y-223630D01*
X164363Y-221605D01*
X160996Y-220210D01*
X157422Y-219499D01*
D02*
G37*
G36*
X-77578D02*
X-81222D01*
X-84796Y-220210D01*
X-88163Y-221605D01*
X-91193Y-223630D01*
X-93770Y-226206D01*
X-95794Y-229237D01*
X-97189Y-232603D01*
X-97900Y-236177D01*
Y-239822D01*
X-97189Y-243396D01*
X-95794Y-246763D01*
X-93770Y-249793D01*
X-91193Y-252369D01*
X-88163Y-254394D01*
X-84796Y-255789D01*
X-81222Y-256500D01*
X-77578D01*
X-74004Y-255789D01*
X-70637Y-254394D01*
X-67607Y-252369D01*
X-65030Y-249793D01*
X-63005Y-246763D01*
X-61611Y-243396D01*
X-60900Y-239822D01*
Y-236177D01*
X-61611Y-232603D01*
X-63005Y-229237D01*
X-65030Y-226206D01*
X-67607Y-223630D01*
X-70637Y-221605D01*
X-74004Y-220210D01*
X-77578Y-219499D01*
D02*
G37*
G36*
X-219710Y-262555D02*
Y-270510D01*
X-211755D01*
X-212191Y-268883D01*
X-213612Y-266422D01*
X-215622Y-264412D01*
X-218083Y-262991D01*
X-219710Y-262555D01*
D02*
G37*
G36*
X-224790D02*
X-226417Y-262991D01*
X-228878Y-264412D01*
X-230888Y-266422D01*
X-232309Y-268883D01*
X-232745Y-270510D01*
X-224790D01*
Y-262555D01*
D02*
G37*
G36*
X-211755Y-275590D02*
X-219710D01*
Y-283545D01*
X-218083Y-283109D01*
X-215622Y-281688D01*
X-213612Y-279678D01*
X-212191Y-277217D01*
X-211755Y-275590D01*
D02*
G37*
G36*
X-224790D02*
X-232745D01*
X-232309Y-277217D01*
X-230888Y-279678D01*
X-228878Y-281688D01*
X-226417Y-283109D01*
X-224790Y-283545D01*
Y-275590D01*
D02*
G37*
G36*
X-246234Y-262295D02*
X-249066D01*
X-251801Y-263028D01*
X-254254Y-264444D01*
X-256256Y-266446D01*
X-257672Y-268899D01*
X-258405Y-271634D01*
Y-274466D01*
X-257672Y-277201D01*
X-256256Y-279654D01*
X-254254Y-281656D01*
X-251801Y-283072D01*
X-249066Y-283805D01*
X-246234D01*
X-243499Y-283072D01*
X-241046Y-281656D01*
X-239044Y-279654D01*
X-237628Y-277201D01*
X-236895Y-274466D01*
Y-271634D01*
X-237628Y-268899D01*
X-239044Y-266446D01*
X-241046Y-264444D01*
X-243499Y-263028D01*
X-246234Y-262295D01*
D02*
G37*
G36*
X-271634D02*
X-274466D01*
X-277201Y-263028D01*
X-279654Y-264444D01*
X-281656Y-266446D01*
X-283072Y-268899D01*
X-283805Y-271634D01*
Y-274466D01*
X-283072Y-277201D01*
X-281656Y-279654D01*
X-279654Y-281656D01*
X-277201Y-283072D01*
X-274466Y-283805D01*
X-271634D01*
X-268899Y-283072D01*
X-266446Y-281656D01*
X-264444Y-279654D01*
X-263028Y-277201D01*
X-262295Y-274466D01*
Y-271634D01*
X-263028Y-268899D01*
X-264444Y-266446D01*
X-266446Y-264444D01*
X-268899Y-263028D01*
X-271634Y-262295D01*
D02*
G37*
G36*
X-297034D02*
X-299866D01*
X-302601Y-263028D01*
X-305054Y-264444D01*
X-307056Y-266446D01*
X-308472Y-268899D01*
X-309205Y-271634D01*
Y-274466D01*
X-308472Y-277201D01*
X-307056Y-279654D01*
X-305054Y-281656D01*
X-302601Y-283072D01*
X-299866Y-283805D01*
X-297034D01*
X-294299Y-283072D01*
X-291846Y-281656D01*
X-289844Y-279654D01*
X-288428Y-277201D01*
X-287695Y-274466D01*
Y-271634D01*
X-288428Y-268899D01*
X-289844Y-266446D01*
X-291846Y-264444D01*
X-294299Y-263028D01*
X-297034Y-262295D01*
D02*
G37*
G36*
X-373234D02*
X-376066D01*
X-378801Y-263028D01*
X-381254Y-264444D01*
X-383256Y-266446D01*
X-384672Y-268899D01*
X-385405Y-271634D01*
Y-274466D01*
X-384672Y-277201D01*
X-383256Y-279654D01*
X-381254Y-281656D01*
X-378801Y-283072D01*
X-378219Y-283228D01*
Y-299720D01*
X-377947Y-301086D01*
X-377173Y-302243D01*
X-364473Y-314943D01*
X-363316Y-315717D01*
X-361950Y-315989D01*
X-248612D01*
X-247942Y-316659D01*
X-246105Y-317420D01*
X-244115D01*
X-242278Y-316659D01*
X-240871Y-315252D01*
X-240110Y-313415D01*
Y-311425D01*
X-240871Y-309588D01*
X-242278Y-308181D01*
X-244115Y-307420D01*
X-246105D01*
X-247942Y-308181D01*
X-248612Y-308851D01*
X-360472D01*
X-371081Y-298242D01*
Y-283228D01*
X-370499Y-283072D01*
X-368046Y-281656D01*
X-366044Y-279654D01*
X-364628Y-277201D01*
X-363895Y-274466D01*
Y-271634D01*
X-364628Y-268899D01*
X-366044Y-266446D01*
X-368046Y-264444D01*
X-370499Y-263028D01*
X-373234Y-262295D01*
D02*
G37*
G36*
X502200Y-318327D02*
X502035Y-318360D01*
X501867Y-318349D01*
X500828Y-318485D01*
X500668Y-318539D01*
X500500Y-318550D01*
X499487Y-318821D01*
X499337Y-318896D01*
X499171Y-318929D01*
X498203Y-319330D01*
X498063Y-319423D01*
X497904Y-319477D01*
X496995Y-320001D01*
X496869Y-320112D01*
X496718Y-320187D01*
X495886Y-320825D01*
X495775Y-320951D01*
X495635Y-321045D01*
X494894Y-321786D01*
X494800Y-321926D01*
X494674Y-322037D01*
X494035Y-322869D01*
X493961Y-323020D01*
X493850Y-323146D01*
X493326Y-324055D01*
X493272Y-324214D01*
X493178Y-324354D01*
X492777Y-325323D01*
X492744Y-325488D01*
X492670Y-325639D01*
X492398Y-326651D01*
X492387Y-326819D01*
X492333Y-326979D01*
X492197Y-328018D01*
X492207Y-328186D01*
X492175Y-328351D01*
X492175Y-328876D01*
X492175Y-328876D01*
X492175Y-328877D01*
X492198Y-352852D01*
X492296Y-353345D01*
X492392Y-353825D01*
X492393Y-353826D01*
X492393Y-353827D01*
X492671Y-354243D01*
X492944Y-354652D01*
X492946Y-354653D01*
X492946Y-354654D01*
X493358Y-354928D01*
X493771Y-355205D01*
X493773Y-355205D01*
X493774Y-355205D01*
X494257Y-355301D01*
X494747Y-355398D01*
X510747Y-355399D01*
X510748Y-355398D01*
X510749Y-355399D01*
X511224Y-355304D01*
X511722Y-355205D01*
X511723Y-355204D01*
X511725Y-355204D01*
X512137Y-354927D01*
X512549Y-354652D01*
X512550Y-354651D01*
X512551Y-354650D01*
X512827Y-354236D01*
X513102Y-353825D01*
X513102Y-353824D01*
X513103Y-353823D01*
X513199Y-353337D01*
X513296Y-352850D01*
X513296Y-352848D01*
X513296Y-352847D01*
X513272Y-328873D01*
X513272Y-328872D01*
X513272Y-328351D01*
X513240Y-328186D01*
X513251Y-328018D01*
X513114Y-326978D01*
X513060Y-326819D01*
X513049Y-326651D01*
X512777Y-325639D01*
X512703Y-325488D01*
X512670Y-325323D01*
X512269Y-324354D01*
X512175Y-324214D01*
X512121Y-324055D01*
X511597Y-323147D01*
X511486Y-323020D01*
X511412Y-322869D01*
X510773Y-322038D01*
X510647Y-321927D01*
X510554Y-321787D01*
X509812Y-321045D01*
X509672Y-320952D01*
X509561Y-320826D01*
X508729Y-320187D01*
X508579Y-320113D01*
X508452Y-320002D01*
X507544Y-319478D01*
X507385Y-319424D01*
X507245Y-319330D01*
X506276Y-318929D01*
X506111Y-318896D01*
X505960Y-318822D01*
X504947Y-318550D01*
X504780Y-318539D01*
X504620Y-318485D01*
X503581Y-318349D01*
X503413Y-318360D01*
X503248Y-318327D01*
X502724Y-318327D01*
X502200Y-318327D01*
D02*
G37*
G36*
X476800D02*
X476635Y-318360D01*
X476467Y-318349D01*
X475428Y-318485D01*
X475268Y-318539D01*
X475100Y-318550D01*
X474087Y-318821D01*
X473937Y-318896D01*
X473772Y-318929D01*
X472803Y-319330D01*
X472663Y-319423D01*
X472504Y-319477D01*
X471595Y-320001D01*
X471469Y-320112D01*
X471318Y-320187D01*
X470486Y-320825D01*
X470375Y-320951D01*
X470235Y-321045D01*
X469494Y-321786D01*
X469400Y-321926D01*
X469274Y-322037D01*
X468635Y-322869D01*
X468561Y-323020D01*
X468450Y-323146D01*
X467926Y-324055D01*
X467872Y-324214D01*
X467778Y-324354D01*
X467377Y-325323D01*
X467344Y-325488D01*
X467270Y-325639D01*
X466998Y-326651D01*
X466987Y-326819D01*
X466933Y-326979D01*
X466796Y-328018D01*
X466808Y-328186D01*
X466775Y-328351D01*
X466775Y-328876D01*
X466775Y-328876D01*
X466775Y-328877D01*
X466798Y-352852D01*
X466896Y-353345D01*
X466992Y-353825D01*
X466993Y-353826D01*
X466993Y-353827D01*
X467271Y-354243D01*
X467544Y-354652D01*
X467546Y-354653D01*
X467546Y-354654D01*
X467958Y-354928D01*
X468371Y-355205D01*
X468373Y-355205D01*
X468374Y-355205D01*
X468857Y-355301D01*
X469347Y-355398D01*
X485347Y-355399D01*
X485348Y-355398D01*
X485349Y-355399D01*
X485824Y-355304D01*
X486322Y-355205D01*
X486323Y-355204D01*
X486325Y-355204D01*
X486737Y-354927D01*
X487149Y-354652D01*
X487150Y-354651D01*
X487151Y-354650D01*
X487427Y-354236D01*
X487702Y-353825D01*
X487702Y-353824D01*
X487703Y-353823D01*
X487799Y-353337D01*
X487896Y-352850D01*
X487896Y-352848D01*
X487896Y-352847D01*
X487872Y-328873D01*
X487872Y-328872D01*
X487872Y-328351D01*
X487840Y-328186D01*
X487851Y-328018D01*
X487714Y-326978D01*
X487660Y-326819D01*
X487649Y-326651D01*
X487377Y-325639D01*
X487303Y-325488D01*
X487270Y-325323D01*
X486869Y-324354D01*
X486775Y-324214D01*
X486721Y-324055D01*
X486197Y-323147D01*
X486086Y-323020D01*
X486012Y-322869D01*
X485373Y-322038D01*
X485247Y-321927D01*
X485154Y-321787D01*
X484412Y-321045D01*
X484272Y-320952D01*
X484161Y-320826D01*
X483329Y-320187D01*
X483179Y-320113D01*
X483052Y-320002D01*
X482144Y-319478D01*
X481985Y-319424D01*
X481845Y-319330D01*
X480876Y-318929D01*
X480711Y-318896D01*
X480560Y-318822D01*
X479547Y-318550D01*
X479380Y-318539D01*
X479220Y-318485D01*
X478181Y-318349D01*
X478013Y-318360D01*
X477848Y-318327D01*
X477324Y-318327D01*
X476800Y-318327D01*
D02*
G37*
G36*
X451400D02*
X451235Y-318360D01*
X451067Y-318349D01*
X450028Y-318485D01*
X449868Y-318539D01*
X449700Y-318550D01*
X448687Y-318821D01*
X448536Y-318896D01*
X448372Y-318929D01*
X447403Y-319330D01*
X447263Y-319423D01*
X447104Y-319477D01*
X446195Y-320001D01*
X446069Y-320112D01*
X445918Y-320187D01*
X445086Y-320825D01*
X444975Y-320951D01*
X444835Y-321045D01*
X444094Y-321786D01*
X444000Y-321926D01*
X443874Y-322037D01*
X443235Y-322869D01*
X443161Y-323020D01*
X443050Y-323146D01*
X442526Y-324055D01*
X442472Y-324214D01*
X442378Y-324354D01*
X441977Y-325323D01*
X441944Y-325488D01*
X441870Y-325639D01*
X441598Y-326651D01*
X441587Y-326819D01*
X441533Y-326979D01*
X441396Y-328018D01*
X441408Y-328186D01*
X441375Y-328351D01*
X441375Y-328876D01*
X441375Y-328876D01*
X441375Y-328877D01*
X441398Y-352852D01*
X441496Y-353345D01*
X441592Y-353825D01*
X441593Y-353826D01*
X441593Y-353827D01*
X441871Y-354243D01*
X442144Y-354652D01*
X442146Y-354653D01*
X442146Y-354654D01*
X442558Y-354928D01*
X442971Y-355205D01*
X442973Y-355205D01*
X442974Y-355205D01*
X443456Y-355301D01*
X443947Y-355398D01*
X459947Y-355399D01*
X459948Y-355398D01*
X459949Y-355399D01*
X460424Y-355304D01*
X460922Y-355205D01*
X460923Y-355204D01*
X460925Y-355204D01*
X461337Y-354927D01*
X461749Y-354652D01*
X461750Y-354651D01*
X461751Y-354650D01*
X462027Y-354236D01*
X462302Y-353825D01*
X462302Y-353824D01*
X462303Y-353823D01*
X462399Y-353337D01*
X462496Y-352850D01*
X462496Y-352848D01*
X462496Y-352847D01*
X462472Y-328873D01*
X462472Y-328872D01*
X462472Y-328351D01*
X462440Y-328186D01*
X462451Y-328018D01*
X462314Y-326978D01*
X462260Y-326819D01*
X462249Y-326651D01*
X461977Y-325639D01*
X461903Y-325488D01*
X461870Y-325323D01*
X461469Y-324354D01*
X461375Y-324214D01*
X461321Y-324055D01*
X460797Y-323147D01*
X460686Y-323020D01*
X460612Y-322869D01*
X459973Y-322038D01*
X459847Y-321927D01*
X459754Y-321787D01*
X459012Y-321045D01*
X458872Y-320952D01*
X458761Y-320826D01*
X457929Y-320187D01*
X457779Y-320113D01*
X457652Y-320002D01*
X456744Y-319478D01*
X456585Y-319424D01*
X456445Y-319330D01*
X455476Y-318929D01*
X455311Y-318896D01*
X455160Y-318822D01*
X454147Y-318550D01*
X453980Y-318539D01*
X453820Y-318485D01*
X452781Y-318349D01*
X452613Y-318360D01*
X452448Y-318327D01*
X451924Y-318327D01*
X451400Y-318327D01*
D02*
G37*
G36*
X-130625Y-318850D02*
X-132614D01*
X-134452Y-319611D01*
X-135120Y-320279D01*
X-135788Y-319611D01*
X-137625Y-318850D01*
X-139614D01*
X-141452Y-319611D01*
X-142120Y-320279D01*
X-142788Y-319611D01*
X-144625Y-318850D01*
X-146615D01*
X-148452Y-319611D01*
X-149859Y-321018D01*
X-150620Y-322855D01*
Y-324845D01*
X-149859Y-326682D01*
X-149188Y-327352D01*
Y-408912D01*
X-148917Y-410277D01*
X-148143Y-411435D01*
X-134540Y-425038D01*
Y-425175D01*
X-133779Y-427012D01*
X-132372Y-428419D01*
X-130535Y-429180D01*
X-128545D01*
X-126708Y-428419D01*
X-125301Y-427012D01*
X-124540Y-425175D01*
Y-423185D01*
X-125301Y-421348D01*
X-126708Y-419941D01*
X-128545Y-419180D01*
X-130305D01*
X-142051Y-407434D01*
Y-373415D01*
X-141162Y-373145D01*
X-141143Y-373173D01*
X-90090Y-424227D01*
Y-425175D01*
X-89329Y-427012D01*
X-87922Y-428419D01*
X-86085Y-429180D01*
X-84095D01*
X-82258Y-428419D01*
X-80851Y-427012D01*
X-80090Y-425175D01*
Y-423185D01*
X-80374Y-422500D01*
X-79620Y-421996D01*
X-77390Y-424227D01*
Y-425175D01*
X-76629Y-427012D01*
X-75222Y-428419D01*
X-73385Y-429180D01*
X-71395D01*
X-69558Y-428419D01*
X-68151Y-427012D01*
X-67390Y-425175D01*
Y-423185D01*
X-68151Y-421348D01*
X-69558Y-419941D01*
X-71395Y-419180D01*
X-72343D01*
X-128051Y-363472D01*
Y-327352D01*
X-127381Y-326682D01*
X-126620Y-324845D01*
Y-322855D01*
X-127381Y-321018D01*
X-128788Y-319611D01*
X-130625Y-318850D01*
D02*
G37*
G36*
X429063Y-318593D02*
Y-326335D01*
X436806D01*
X436617Y-325628D01*
X436541Y-325475D01*
X436508Y-325307D01*
X436106Y-324338D01*
X436012Y-324196D01*
X435957Y-324035D01*
X435432Y-323126D01*
X435320Y-322998D01*
X435244Y-322845D01*
X434606Y-322013D01*
X434477Y-321900D01*
X434382Y-321758D01*
X433641Y-321017D01*
X433499Y-320922D01*
X433386Y-320793D01*
X432554Y-320155D01*
X432401Y-320079D01*
X432272Y-319967D01*
X431364Y-319442D01*
X431203Y-319387D01*
X431060Y-319293D01*
X430092Y-318891D01*
X429924Y-318858D01*
X429771Y-318782D01*
X429063Y-318593D01*
D02*
G37*
G36*
X423983Y-318593D02*
X423277Y-318782D01*
X423124Y-318858D01*
X422956Y-318891D01*
X421987Y-319292D01*
X421845Y-319387D01*
X421683Y-319442D01*
X420775Y-319966D01*
X420646Y-320079D01*
X420493Y-320154D01*
X419661Y-320793D01*
X419548Y-320921D01*
X419406Y-321016D01*
X418665Y-321758D01*
X418570Y-321900D01*
X418441Y-322012D01*
X417803Y-322844D01*
X417727Y-322998D01*
X417615Y-323126D01*
X417090Y-324034D01*
X417035Y-324196D01*
X416940Y-324338D01*
X416539Y-325307D01*
X416506Y-325475D01*
X416430Y-325628D01*
X416241Y-326335D01*
X423983D01*
Y-318593D01*
D02*
G37*
G36*
Y-331415D02*
X415936D01*
X415957Y-352852D01*
X416056Y-353347D01*
X416154Y-353841D01*
X416155Y-353842D01*
X416155Y-353843D01*
X416438Y-354265D01*
X416716Y-354681D01*
X416717Y-354682D01*
X416717Y-354683D01*
X417136Y-354961D01*
X417556Y-355242D01*
X417557Y-355242D01*
X417558Y-355243D01*
X418054Y-355341D01*
X418547Y-355439D01*
X423983Y-355439D01*
Y-331415D01*
D02*
G37*
G36*
X296983D02*
X288936D01*
X288957Y-352852D01*
X289056Y-353347D01*
X289154Y-353841D01*
X289155Y-353842D01*
X289155Y-353843D01*
X289438Y-354265D01*
X289716Y-354681D01*
X289717Y-354682D01*
X289717Y-354683D01*
X290135Y-354961D01*
X290556Y-355242D01*
X290557Y-355242D01*
X290558Y-355243D01*
X291054Y-355341D01*
X291547Y-355439D01*
X296983Y-355439D01*
Y-331415D01*
D02*
G37*
G36*
X437116D02*
X429063D01*
Y-355439D01*
X434547Y-355439D01*
X434548Y-355439D01*
X434549Y-355439D01*
X435027Y-355344D01*
X435538Y-355242D01*
X435539Y-355242D01*
X435540Y-355241D01*
X435953Y-354965D01*
X436378Y-354681D01*
X436379Y-354680D01*
X436380Y-354679D01*
X436655Y-354267D01*
X436940Y-353841D01*
X436940Y-353839D01*
X436940Y-353838D01*
X437037Y-353353D01*
X437137Y-352850D01*
X437136Y-352848D01*
X437137Y-352847D01*
X437116Y-331415D01*
D02*
G37*
G36*
X310116D02*
X302063D01*
Y-355439D01*
X307547Y-355439D01*
X307548Y-355439D01*
X307549Y-355439D01*
X308027Y-355344D01*
X308538Y-355242D01*
X308539Y-355242D01*
X308540Y-355241D01*
X308953Y-354965D01*
X309378Y-354681D01*
X309379Y-354680D01*
X309380Y-354679D01*
X309655Y-354267D01*
X309939Y-353841D01*
X309940Y-353839D01*
X309940Y-353838D01*
X310037Y-353353D01*
X310137Y-352850D01*
X310136Y-352848D01*
X310137Y-352847D01*
X310116Y-331415D01*
D02*
G37*
G36*
X-213635Y-373460D02*
X-215625D01*
X-217462Y-374221D01*
X-218132Y-374891D01*
X-289560D01*
X-290926Y-375163D01*
X-292083Y-375937D01*
X-312467Y-396320D01*
X-313415D01*
X-315252Y-397081D01*
X-316659Y-398488D01*
X-317420Y-400325D01*
Y-402315D01*
X-316659Y-404152D01*
X-315252Y-405559D01*
X-313415Y-406320D01*
X-311425D01*
X-309588Y-405559D01*
X-308181Y-404152D01*
X-307420Y-402315D01*
Y-401367D01*
X-288082Y-382029D01*
X-218132D01*
X-217462Y-382699D01*
X-215625Y-383460D01*
X-213635D01*
X-211798Y-382699D01*
X-210391Y-381292D01*
X-209630Y-379455D01*
Y-377465D01*
X-210391Y-375628D01*
X-211798Y-374221D01*
X-213635Y-373460D01*
D02*
G37*
G36*
X405209Y-408850D02*
X402511D01*
X399904Y-409548D01*
X397566Y-410898D01*
X395658Y-412806D01*
X394309Y-415144D01*
X393610Y-417751D01*
Y-420449D01*
X394309Y-423056D01*
X395658Y-425394D01*
X397566Y-427302D01*
X399904Y-428652D01*
X402511Y-429350D01*
X405209D01*
X407816Y-428652D01*
X410154Y-427302D01*
X412062Y-425394D01*
X413411Y-423056D01*
X414110Y-420449D01*
Y-417751D01*
X413411Y-415144D01*
X412062Y-412806D01*
X410154Y-410898D01*
X407816Y-409548D01*
X405209Y-408850D01*
D02*
G37*
G36*
X379809D02*
X377111D01*
X374504Y-409548D01*
X372166Y-410898D01*
X370258Y-412806D01*
X368909Y-415144D01*
X368210Y-417751D01*
Y-420449D01*
X368909Y-423056D01*
X370258Y-425394D01*
X372166Y-427302D01*
X374504Y-428652D01*
X377111Y-429350D01*
X379809D01*
X382416Y-428652D01*
X384754Y-427302D01*
X386662Y-425394D01*
X388012Y-423056D01*
X388710Y-420449D01*
Y-417751D01*
X388012Y-415144D01*
X386662Y-412806D01*
X384754Y-410898D01*
X382416Y-409548D01*
X379809Y-408850D01*
D02*
G37*
G36*
X-297034Y-490895D02*
X-299866D01*
X-302601Y-491628D01*
X-305054Y-493044D01*
X-307056Y-495046D01*
X-308472Y-497499D01*
X-309205Y-500234D01*
Y-503066D01*
X-308472Y-505801D01*
X-307056Y-508254D01*
X-305054Y-510256D01*
X-302601Y-511672D01*
X-299866Y-512405D01*
X-297034D01*
X-294299Y-511672D01*
X-291846Y-510256D01*
X-289844Y-508254D01*
X-288428Y-505801D01*
X-287695Y-503066D01*
Y-500234D01*
X-288428Y-497499D01*
X-289844Y-495046D01*
X-291846Y-493044D01*
X-294299Y-491628D01*
X-297034Y-490895D01*
D02*
G37*
G36*
X-322434D02*
X-325266D01*
X-328001Y-491628D01*
X-330454Y-493044D01*
X-332456Y-495046D01*
X-333872Y-497499D01*
X-334605Y-500234D01*
Y-503066D01*
X-333872Y-505801D01*
X-332456Y-508254D01*
X-330454Y-510256D01*
X-328001Y-511672D01*
X-325266Y-512405D01*
X-322434D01*
X-319699Y-511672D01*
X-317246Y-510256D01*
X-315244Y-508254D01*
X-313828Y-505801D01*
X-313095Y-503066D01*
Y-500234D01*
X-313828Y-497499D01*
X-315244Y-495046D01*
X-317246Y-493044D01*
X-319699Y-491628D01*
X-322434Y-490895D01*
D02*
G37*
G36*
X-347834D02*
X-350666D01*
X-353401Y-491628D01*
X-355854Y-493044D01*
X-357856Y-495046D01*
X-359272Y-497499D01*
X-360005Y-500234D01*
Y-503066D01*
X-359272Y-505801D01*
X-357856Y-508254D01*
X-355854Y-510256D01*
X-353401Y-511672D01*
X-350666Y-512405D01*
X-347834D01*
X-345099Y-511672D01*
X-342646Y-510256D01*
X-340644Y-508254D01*
X-339228Y-505801D01*
X-338495Y-503066D01*
Y-500234D01*
X-339228Y-497499D01*
X-340644Y-495046D01*
X-342646Y-493044D01*
X-345099Y-491628D01*
X-347834Y-490895D01*
D02*
G37*
G36*
X-373234D02*
X-376066D01*
X-378801Y-491628D01*
X-381254Y-493044D01*
X-383256Y-495046D01*
X-384672Y-497499D01*
X-385405Y-500234D01*
Y-503066D01*
X-384672Y-505801D01*
X-383256Y-508254D01*
X-381254Y-510256D01*
X-378801Y-511672D01*
X-376066Y-512405D01*
X-373234D01*
X-370499Y-511672D01*
X-368046Y-510256D01*
X-366044Y-508254D01*
X-364628Y-505801D01*
X-363895Y-503066D01*
Y-500234D01*
X-364628Y-497499D01*
X-366044Y-495046D01*
X-368046Y-493044D01*
X-370499Y-491628D01*
X-373234Y-490895D01*
D02*
G37*
G36*
X654600Y-318327D02*
X654435Y-318360D01*
X654267Y-318349D01*
X653228Y-318485D01*
X653068Y-318539D01*
X652900Y-318550D01*
X651887Y-318821D01*
X651737Y-318896D01*
X651572Y-318929D01*
X650603Y-319330D01*
X650463Y-319423D01*
X650304Y-319477D01*
X649395Y-320001D01*
X649269Y-320112D01*
X649118Y-320187D01*
X648286Y-320825D01*
X648175Y-320951D01*
X648035Y-321045D01*
X647294Y-321786D01*
X647200Y-321926D01*
X647074Y-322037D01*
X646435Y-322869D01*
X646361Y-323020D01*
X646250Y-323146D01*
X645726Y-324055D01*
X645672Y-324214D01*
X645578Y-324354D01*
X645177Y-325323D01*
X645144Y-325488D01*
X645070Y-325639D01*
X644798Y-326651D01*
X644787Y-326819D01*
X644733Y-326979D01*
X644596Y-328018D01*
X644607Y-328186D01*
X644575Y-328351D01*
X644575Y-328876D01*
X644575Y-328876D01*
X644575Y-328877D01*
X644598Y-352852D01*
X644696Y-353345D01*
X644792Y-353825D01*
X644793Y-353826D01*
X644793Y-353827D01*
X645071Y-354243D01*
X645344Y-354652D01*
X645346Y-354653D01*
X645346Y-354654D01*
X645758Y-354928D01*
X646171Y-355205D01*
X646173Y-355205D01*
X646174Y-355205D01*
X646656Y-355301D01*
X647147Y-355398D01*
X663147Y-355399D01*
X663148Y-355398D01*
X663149Y-355399D01*
X663624Y-355304D01*
X664122Y-355205D01*
X664123Y-355204D01*
X664125Y-355204D01*
X664537Y-354927D01*
X664949Y-354652D01*
X664950Y-354651D01*
X664951Y-354650D01*
X665227Y-354236D01*
X665502Y-353825D01*
X665502Y-353824D01*
X665503Y-353823D01*
X665599Y-353337D01*
X665696Y-352850D01*
X665696Y-352848D01*
X665696Y-352847D01*
X665672Y-328873D01*
X665672Y-328872D01*
X665672Y-328351D01*
X665640Y-328186D01*
X665651Y-328018D01*
X665514Y-326978D01*
X665460Y-326819D01*
X665449Y-326651D01*
X665177Y-325639D01*
X665103Y-325488D01*
X665070Y-325323D01*
X664669Y-324354D01*
X664575Y-324214D01*
X664521Y-324055D01*
X663997Y-323147D01*
X663886Y-323020D01*
X663812Y-322869D01*
X663173Y-322038D01*
X663047Y-321927D01*
X662954Y-321787D01*
X662212Y-321045D01*
X662072Y-320952D01*
X661961Y-320826D01*
X661129Y-320187D01*
X660979Y-320113D01*
X660852Y-320002D01*
X659944Y-319478D01*
X659785Y-319424D01*
X659645Y-319330D01*
X658676Y-318929D01*
X658511Y-318896D01*
X658360Y-318822D01*
X657347Y-318550D01*
X657180Y-318539D01*
X657020Y-318485D01*
X655981Y-318349D01*
X655813Y-318360D01*
X655648Y-318327D01*
X655124Y-318327D01*
X654600Y-318327D01*
D02*
G37*
G36*
X603800D02*
X603635Y-318360D01*
X603467Y-318349D01*
X602428Y-318485D01*
X602268Y-318539D01*
X602100Y-318550D01*
X601087Y-318821D01*
X600937Y-318896D01*
X600771Y-318929D01*
X599803Y-319330D01*
X599663Y-319423D01*
X599504Y-319477D01*
X598595Y-320001D01*
X598469Y-320112D01*
X598318Y-320187D01*
X597486Y-320825D01*
X597375Y-320951D01*
X597235Y-321045D01*
X596494Y-321786D01*
X596400Y-321926D01*
X596274Y-322037D01*
X595635Y-322869D01*
X595561Y-323020D01*
X595450Y-323146D01*
X594926Y-324055D01*
X594872Y-324214D01*
X594778Y-324354D01*
X594377Y-325323D01*
X594344Y-325488D01*
X594270Y-325639D01*
X593998Y-326651D01*
X593987Y-326819D01*
X593933Y-326979D01*
X593797Y-328018D01*
X593807Y-328186D01*
X593775Y-328351D01*
X593775Y-328876D01*
X593775Y-328876D01*
X593775Y-328877D01*
X593798Y-352852D01*
X593896Y-353345D01*
X593992Y-353825D01*
X593993Y-353826D01*
X593993Y-353827D01*
X594271Y-354243D01*
X594544Y-354652D01*
X594546Y-354653D01*
X594546Y-354654D01*
X594958Y-354928D01*
X595371Y-355205D01*
X595373Y-355205D01*
X595374Y-355205D01*
X595857Y-355301D01*
X596347Y-355398D01*
X600755Y-355398D01*
Y-373434D01*
X601026Y-374799D01*
X601800Y-375957D01*
X604950Y-379108D01*
X604726Y-382009D01*
X604215Y-382350D01*
X602225D01*
X600388Y-383111D01*
X598981Y-384518D01*
X598220Y-386355D01*
Y-388345D01*
X598981Y-390182D01*
X600388Y-391589D01*
X602225Y-392350D01*
X604215D01*
X605794Y-393405D01*
Y-396748D01*
X614081D01*
X615358Y-398568D01*
X615560Y-399248D01*
X615183Y-401141D01*
Y-411716D01*
X615621Y-413914D01*
X616866Y-415778D01*
X618730Y-417023D01*
X620928Y-417461D01*
X623126Y-417023D01*
X624990Y-415778D01*
X626235Y-413914D01*
X626673Y-411716D01*
Y-401141D01*
X626278Y-399159D01*
X626847Y-398226D01*
X627922Y-396967D01*
X628396Y-397074D01*
X628695Y-397522D01*
X635080Y-403907D01*
Y-404855D01*
X635841Y-406692D01*
X637248Y-408099D01*
X639085Y-408860D01*
X641075D01*
X642912Y-408099D01*
X644319Y-406692D01*
X645080Y-404855D01*
Y-402865D01*
X644319Y-401028D01*
X642912Y-399621D01*
X641075Y-398860D01*
X640127D01*
X635272Y-394005D01*
X635735Y-393312D01*
X636173Y-391114D01*
Y-380538D01*
X635735Y-378340D01*
X634490Y-376476D01*
X632626Y-375231D01*
X630428Y-374794D01*
X628230Y-375231D01*
X627903Y-374904D01*
X610840D01*
X607892Y-371956D01*
Y-357166D01*
X609660Y-355399D01*
X612347Y-355399D01*
X612348Y-355398D01*
X612349Y-355399D01*
X612824Y-355304D01*
X613322Y-355205D01*
X613323Y-355204D01*
X613325Y-355204D01*
X613737Y-354927D01*
X614149Y-354652D01*
X614150Y-354651D01*
X614151Y-354650D01*
X614427Y-354236D01*
X614702Y-353825D01*
X614702Y-353824D01*
X614703Y-353823D01*
X614799Y-353337D01*
X614896Y-352850D01*
X614896Y-352848D01*
X614896Y-352847D01*
X614872Y-328873D01*
X614872Y-328872D01*
X614872Y-328351D01*
X614840Y-328186D01*
X614851Y-328018D01*
X614714Y-326978D01*
X614660Y-326819D01*
X614649Y-326651D01*
X614377Y-325639D01*
X614303Y-325488D01*
X614270Y-325323D01*
X613869Y-324354D01*
X613775Y-324214D01*
X613721Y-324055D01*
X613197Y-323147D01*
X613086Y-323020D01*
X613012Y-322869D01*
X612373Y-322038D01*
X612247Y-321927D01*
X612154Y-321787D01*
X611412Y-321045D01*
X611272Y-320952D01*
X611161Y-320826D01*
X610329Y-320187D01*
X610179Y-320113D01*
X610052Y-320002D01*
X609144Y-319478D01*
X608985Y-319424D01*
X608845Y-319330D01*
X607876Y-318929D01*
X607711Y-318896D01*
X607560Y-318822D01*
X606547Y-318550D01*
X606380Y-318539D01*
X606220Y-318485D01*
X605181Y-318349D01*
X605013Y-318360D01*
X604848Y-318327D01*
X604324Y-318327D01*
X603800Y-318327D01*
D02*
G37*
G36*
X578400D02*
X578235Y-318360D01*
X578067Y-318349D01*
X577028Y-318485D01*
X576868Y-318539D01*
X576700Y-318550D01*
X575687Y-318821D01*
X575536Y-318896D01*
X575372Y-318929D01*
X574403Y-319330D01*
X574263Y-319423D01*
X574104Y-319477D01*
X573195Y-320001D01*
X573069Y-320112D01*
X572918Y-320187D01*
X572086Y-320825D01*
X571975Y-320951D01*
X571835Y-321045D01*
X571094Y-321786D01*
X571000Y-321926D01*
X570874Y-322037D01*
X570235Y-322869D01*
X570161Y-323020D01*
X570050Y-323146D01*
X569526Y-324055D01*
X569472Y-324214D01*
X569378Y-324354D01*
X568977Y-325323D01*
X568944Y-325488D01*
X568870Y-325639D01*
X568598Y-326651D01*
X568587Y-326819D01*
X568533Y-326979D01*
X568396Y-328018D01*
X568408Y-328186D01*
X568375Y-328351D01*
X568375Y-328876D01*
X568375Y-328876D01*
X568375Y-328877D01*
X568398Y-352852D01*
X568496Y-353345D01*
X568592Y-353825D01*
X568593Y-353826D01*
X568593Y-353827D01*
X568871Y-354243D01*
X569144Y-354652D01*
X569146Y-354653D01*
X569146Y-354654D01*
X569558Y-354928D01*
X569971Y-355205D01*
X569973Y-355205D01*
X569974Y-355205D01*
X570457Y-355301D01*
X570947Y-355398D01*
X586947Y-355399D01*
X586948Y-355398D01*
X586949Y-355399D01*
X587424Y-355304D01*
X587922Y-355205D01*
X587923Y-355204D01*
X587925Y-355204D01*
X588337Y-354927D01*
X588749Y-354652D01*
X588750Y-354651D01*
X588751Y-354650D01*
X589027Y-354236D01*
X589302Y-353825D01*
X589302Y-353824D01*
X589303Y-353823D01*
X589399Y-353337D01*
X589496Y-352850D01*
X589496Y-352848D01*
X589496Y-352847D01*
X589472Y-328873D01*
X589472Y-328872D01*
X589472Y-328351D01*
X589440Y-328186D01*
X589451Y-328018D01*
X589314Y-326978D01*
X589260Y-326819D01*
X589249Y-326651D01*
X588977Y-325639D01*
X588903Y-325488D01*
X588870Y-325323D01*
X588469Y-324354D01*
X588375Y-324214D01*
X588321Y-324055D01*
X587797Y-323147D01*
X587686Y-323020D01*
X587612Y-322869D01*
X586973Y-322038D01*
X586847Y-321927D01*
X586754Y-321787D01*
X586012Y-321045D01*
X585872Y-320952D01*
X585761Y-320826D01*
X584929Y-320187D01*
X584779Y-320113D01*
X584652Y-320002D01*
X583744Y-319478D01*
X583585Y-319424D01*
X583445Y-319330D01*
X582476Y-318929D01*
X582311Y-318896D01*
X582160Y-318822D01*
X581147Y-318550D01*
X580980Y-318539D01*
X580820Y-318485D01*
X579781Y-318349D01*
X579613Y-318360D01*
X579448Y-318327D01*
X578924Y-318327D01*
X578400Y-318327D01*
D02*
G37*
G36*
X553000D02*
X552835Y-318360D01*
X552667Y-318349D01*
X551628Y-318485D01*
X551468Y-318539D01*
X551300Y-318550D01*
X550287Y-318821D01*
X550136Y-318896D01*
X549972Y-318929D01*
X549003Y-319330D01*
X548863Y-319423D01*
X548704Y-319477D01*
X547795Y-320001D01*
X547669Y-320112D01*
X547518Y-320187D01*
X546686Y-320825D01*
X546575Y-320951D01*
X546435Y-321045D01*
X545694Y-321786D01*
X545600Y-321926D01*
X545474Y-322037D01*
X544835Y-322869D01*
X544761Y-323020D01*
X544650Y-323146D01*
X544126Y-324055D01*
X544072Y-324214D01*
X543978Y-324354D01*
X543577Y-325323D01*
X543544Y-325488D01*
X543470Y-325639D01*
X543198Y-326651D01*
X543187Y-326819D01*
X543133Y-326979D01*
X542996Y-328018D01*
X543008Y-328186D01*
X542975Y-328351D01*
X542975Y-328876D01*
X542975Y-328876D01*
X542975Y-328877D01*
X542998Y-352852D01*
X543096Y-353345D01*
X543192Y-353825D01*
X543193Y-353826D01*
X543193Y-353827D01*
X543471Y-354243D01*
X543744Y-354652D01*
X543745Y-354653D01*
X543746Y-354654D01*
X544158Y-354928D01*
X544571Y-355205D01*
X544573Y-355205D01*
X544574Y-355205D01*
X545056Y-355301D01*
X545547Y-355398D01*
X561547Y-355399D01*
X561548Y-355398D01*
X561549Y-355399D01*
X562024Y-355304D01*
X562522Y-355205D01*
X562523Y-355204D01*
X562525Y-355204D01*
X562937Y-354927D01*
X563349Y-354652D01*
X563350Y-354651D01*
X563351Y-354650D01*
X563627Y-354236D01*
X563902Y-353825D01*
X563902Y-353824D01*
X563903Y-353823D01*
X563999Y-353337D01*
X564096Y-352850D01*
X564096Y-352848D01*
X564096Y-352847D01*
X564072Y-328873D01*
X564072Y-328872D01*
X564072Y-328351D01*
X564040Y-328186D01*
X564051Y-328018D01*
X563914Y-326978D01*
X563860Y-326819D01*
X563849Y-326651D01*
X563577Y-325639D01*
X563503Y-325488D01*
X563470Y-325323D01*
X563069Y-324354D01*
X562975Y-324214D01*
X562921Y-324055D01*
X562397Y-323147D01*
X562286Y-323020D01*
X562212Y-322869D01*
X561573Y-322038D01*
X561447Y-321927D01*
X561354Y-321787D01*
X560612Y-321045D01*
X560472Y-320952D01*
X560361Y-320826D01*
X559529Y-320187D01*
X559379Y-320113D01*
X559252Y-320002D01*
X558344Y-319478D01*
X558185Y-319424D01*
X558045Y-319330D01*
X557076Y-318929D01*
X556911Y-318896D01*
X556760Y-318822D01*
X555747Y-318550D01*
X555580Y-318539D01*
X555420Y-318485D01*
X554381Y-318349D01*
X554213Y-318360D01*
X554048Y-318327D01*
X553524Y-318327D01*
X553000Y-318327D01*
D02*
G37*
G36*
X632263Y-318593D02*
Y-326335D01*
X640006D01*
X639817Y-325628D01*
X639741Y-325475D01*
X639708Y-325307D01*
X639306Y-324338D01*
X639212Y-324196D01*
X639157Y-324035D01*
X638632Y-323126D01*
X638520Y-322998D01*
X638444Y-322845D01*
X637806Y-322013D01*
X637677Y-321900D01*
X637582Y-321758D01*
X636841Y-321017D01*
X636699Y-320922D01*
X636586Y-320793D01*
X635754Y-320155D01*
X635601Y-320079D01*
X635472Y-319967D01*
X634564Y-319442D01*
X634403Y-319387D01*
X634260Y-319293D01*
X633292Y-318891D01*
X633124Y-318858D01*
X632971Y-318782D01*
X632263Y-318593D01*
D02*
G37*
G36*
X627183Y-318593D02*
X626477Y-318782D01*
X626324Y-318858D01*
X626156Y-318891D01*
X625187Y-319292D01*
X625045Y-319387D01*
X624883Y-319442D01*
X623975Y-319966D01*
X623846Y-320079D01*
X623693Y-320154D01*
X622861Y-320793D01*
X622748Y-320921D01*
X622606Y-321016D01*
X621865Y-321758D01*
X621770Y-321900D01*
X621641Y-322012D01*
X621003Y-322844D01*
X620927Y-322998D01*
X620815Y-323126D01*
X620290Y-324034D01*
X620235Y-324196D01*
X620140Y-324338D01*
X619739Y-325307D01*
X619706Y-325475D01*
X619630Y-325628D01*
X619441Y-326335D01*
X627183D01*
Y-318593D01*
D02*
G37*
G36*
Y-331415D02*
X619136D01*
X619157Y-352852D01*
X619256Y-353347D01*
X619354Y-353841D01*
X619355Y-353842D01*
X619355Y-353843D01*
X619638Y-354265D01*
X619916Y-354681D01*
X619917Y-354682D01*
X619917Y-354683D01*
X620336Y-354961D01*
X620756Y-355242D01*
X620757Y-355242D01*
X620758Y-355243D01*
X621254Y-355341D01*
X621747Y-355439D01*
X627183Y-355439D01*
Y-331415D01*
D02*
G37*
G36*
X640316D02*
X632263D01*
Y-355439D01*
X637747Y-355439D01*
X637748Y-355439D01*
X637749Y-355439D01*
X638227Y-355344D01*
X638738Y-355242D01*
X638739Y-355242D01*
X638740Y-355241D01*
X639153Y-354965D01*
X639578Y-354681D01*
X639579Y-354680D01*
X639580Y-354679D01*
X639855Y-354267D01*
X640139Y-353841D01*
X640140Y-353839D01*
X640141Y-353838D01*
X640237Y-353353D01*
X640337Y-352850D01*
X640336Y-352848D01*
X640337Y-352847D01*
X640316Y-331415D01*
D02*
G37*
G36*
X580115Y-425530D02*
X578125D01*
X576288Y-426291D01*
X574881Y-427698D01*
X574120Y-429535D01*
Y-431525D01*
X574881Y-433362D01*
X576288Y-434769D01*
X578125Y-435530D01*
X580115D01*
X581952Y-434769D01*
X583359Y-433362D01*
X584120Y-431525D01*
Y-429535D01*
X583359Y-427698D01*
X581952Y-426291D01*
X580115Y-425530D01*
D02*
G37*
G36*
X566145D02*
X564155D01*
X562318Y-426291D01*
X560911Y-427698D01*
X560150Y-429535D01*
Y-431525D01*
X560911Y-433362D01*
X562318Y-434769D01*
X564155Y-435530D01*
X566145D01*
X567982Y-434769D01*
X569389Y-433362D01*
X570150Y-431525D01*
Y-429535D01*
X569389Y-427698D01*
X567982Y-426291D01*
X566145Y-425530D01*
D02*
G37*
G36*
X608817Y-432896D02*
X606827D01*
X604990Y-433657D01*
X603583Y-435064D01*
X602822Y-436901D01*
Y-438891D01*
X603583Y-440728D01*
X604990Y-442135D01*
X606827Y-442896D01*
X608817D01*
X610654Y-442135D01*
X612061Y-440728D01*
X612822Y-438891D01*
Y-436901D01*
X612061Y-435064D01*
X610654Y-433657D01*
X608817Y-432896D01*
D02*
G37*
G36*
X353370Y-440460D02*
X346720D01*
Y-448310D01*
X353370D01*
Y-440460D01*
D02*
G37*
G36*
X596595Y-444580D02*
X594605D01*
X592768Y-445341D01*
X591361Y-446748D01*
X590600Y-448585D01*
Y-450575D01*
X591361Y-452412D01*
X592768Y-453819D01*
X594605Y-454580D01*
X596595D01*
X598432Y-453819D01*
X599839Y-452412D01*
X600600Y-450575D01*
Y-448585D01*
X599839Y-446748D01*
X598432Y-445341D01*
X596595Y-444580D01*
D02*
G37*
G36*
X-245760Y-452077D02*
X-247010Y-452325D01*
X-248123Y-453069D01*
X-248867Y-454182D01*
X-249128Y-455495D01*
Y-455930D01*
X-245760D01*
Y-452077D01*
D02*
G37*
G36*
X353370Y-453390D02*
X346720D01*
Y-461240D01*
X353370D01*
Y-453390D01*
D02*
G37*
G36*
X582655Y-471250D02*
X580665D01*
X578828Y-472011D01*
X577850Y-472989D01*
X576872Y-472011D01*
X575035Y-471250D01*
X573045D01*
X571208Y-472011D01*
X570230Y-472989D01*
X569252Y-472011D01*
X567415Y-471250D01*
X565425D01*
X563588Y-472011D01*
X562181Y-473418D01*
X561420Y-475255D01*
Y-477245D01*
X562181Y-479082D01*
X563588Y-480489D01*
X565425Y-481250D01*
X567415D01*
X569252Y-480489D01*
X570230Y-479511D01*
X571208Y-480489D01*
X573045Y-481250D01*
X575035D01*
X576872Y-480489D01*
X577850Y-479511D01*
X578828Y-480489D01*
X580665Y-481250D01*
X582654D01*
X583010Y-482197D01*
Y-482325D01*
X583771Y-484162D01*
X584749Y-485140D01*
X583771Y-486118D01*
X583010Y-487955D01*
Y-489945D01*
X583771Y-491782D01*
X585178Y-493189D01*
X587015Y-493950D01*
X589005D01*
X590842Y-493189D01*
X592249Y-491782D01*
X593010Y-489945D01*
Y-487955D01*
X592249Y-486118D01*
X591271Y-485140D01*
X592249Y-484162D01*
X593010Y-482325D01*
Y-480335D01*
X592249Y-478498D01*
X590842Y-477091D01*
X589005Y-476330D01*
X587015D01*
X586660Y-475383D01*
Y-475255D01*
X585899Y-473418D01*
X584492Y-472011D01*
X582655Y-471250D01*
D02*
G37*
G36*
X-250190Y-504190D02*
X-258145D01*
X-257709Y-505817D01*
X-256288Y-508278D01*
X-254278Y-510288D01*
X-251817Y-511709D01*
X-250190Y-512145D01*
Y-504190D01*
D02*
G37*
G36*
X-240680Y-452077D02*
Y-458470D01*
X-243220D01*
Y-461010D01*
X-249128D01*
Y-461445D01*
X-248867Y-462758D01*
X-248318Y-463579D01*
Y-466061D01*
X-248867Y-466882D01*
X-249128Y-468195D01*
Y-468630D01*
X-243220D01*
Y-473710D01*
X-249128D01*
Y-474145D01*
X-248881Y-475389D01*
X-251255Y-477763D01*
X-252360Y-479417D01*
X-252748Y-481368D01*
Y-492128D01*
X-254278Y-493012D01*
X-256288Y-495022D01*
X-257709Y-497483D01*
X-258145Y-499110D01*
X-247650D01*
Y-501650D01*
X-245110D01*
Y-512145D01*
X-243483Y-511709D01*
X-241022Y-510288D01*
X-239012Y-508278D01*
X-237591Y-505817D01*
X-236855Y-503071D01*
Y-500229D01*
X-236191Y-499363D01*
X-235144D01*
X-233005Y-501587D01*
Y-503066D01*
X-232272Y-505801D01*
X-230856Y-508254D01*
X-228854Y-510256D01*
X-226401Y-511672D01*
X-223666Y-512405D01*
X-220834D01*
X-218099Y-511672D01*
X-215646Y-510256D01*
X-213644Y-508254D01*
X-212228Y-505801D01*
X-211495Y-503066D01*
Y-500234D01*
X-212228Y-497499D01*
X-213644Y-495046D01*
X-215646Y-493044D01*
X-218099Y-491628D01*
X-220834Y-490895D01*
X-223666D01*
X-224122Y-488505D01*
Y-476207D01*
X-223611Y-475442D01*
X-223353Y-474145D01*
Y-468195D01*
X-223611Y-466898D01*
X-224122Y-466133D01*
Y-463507D01*
X-223611Y-462742D01*
X-223353Y-461445D01*
Y-455495D01*
X-223611Y-454198D01*
X-224346Y-453098D01*
X-225446Y-452363D01*
X-226744Y-452105D01*
X-231696D01*
X-232994Y-452363D01*
X-234094Y-453098D01*
X-234829Y-454198D01*
X-234925Y-454681D01*
X-237474D01*
X-237573Y-454182D01*
X-238317Y-453069D01*
X-239430Y-452325D01*
X-240680Y-452077D01*
D02*
G37*
G36*
X141965Y-505540D02*
X139975D01*
X138138Y-506301D01*
X136731Y-507708D01*
X135970Y-509545D01*
Y-511535D01*
X136731Y-513372D01*
X138138Y-514779D01*
X139975Y-515540D01*
X141965D01*
X143802Y-514779D01*
X145209Y-513372D01*
X145970Y-511535D01*
Y-509545D01*
X145209Y-507708D01*
X143802Y-506301D01*
X141965Y-505540D01*
D02*
G37*
G36*
X22585D02*
X20595D01*
X18758Y-506301D01*
X17351Y-507708D01*
X16590Y-509545D01*
Y-511535D01*
X17351Y-513372D01*
X18758Y-514779D01*
X20595Y-515540D01*
X22585D01*
X24422Y-514779D01*
X25829Y-513372D01*
X26590Y-511535D01*
Y-509545D01*
X25829Y-507708D01*
X24422Y-506301D01*
X22585Y-505540D01*
D02*
G37*
G36*
X-105005Y-505540D02*
X-106994D01*
X-108832Y-506301D01*
X-110239Y-507708D01*
X-111000Y-509546D01*
Y-511535D01*
X-110239Y-513372D01*
X-108832Y-514779D01*
X-106994Y-515540D01*
X-105005D01*
X-103168Y-514779D01*
X-101761Y-513372D01*
X-101000Y-511535D01*
Y-509546D01*
X-101761Y-507708D01*
X-103168Y-506301D01*
X-105005Y-505540D01*
D02*
G37*
G36*
X454350Y-501420D02*
X447700D01*
Y-509270D01*
X454350D01*
Y-501420D01*
D02*
G37*
G36*
X726860Y-421800D02*
X703860D01*
Y-444800D01*
X726860D01*
Y-421800D01*
D02*
G37*
G36*
X716874Y-447200D02*
X713846D01*
X710921Y-447984D01*
X708299Y-449498D01*
X706158Y-451639D01*
X704644Y-454261D01*
X703860Y-457186D01*
Y-460214D01*
X704644Y-463139D01*
X706158Y-465761D01*
X708299Y-467902D01*
X710921Y-469416D01*
X713846Y-470200D01*
X716874D01*
X719799Y-469416D01*
X722421Y-467902D01*
X724562Y-465761D01*
X726076Y-463139D01*
X726860Y-460214D01*
Y-457186D01*
X726076Y-454261D01*
X724562Y-451639D01*
X722421Y-449498D01*
X719799Y-447984D01*
X716874Y-447200D01*
D02*
G37*
%LPD*%
G36*
G01X494723Y-151074D02*
G01X494700Y-127100D01*
G01X510700Y-127100D01*
G01X510723Y-151074D01*
G02X502723Y-159074I-7998J-1D01*
G02X494723Y-151074I-1J7999D01*
D02*
G37*
G36*
G01X443923D02*
G01X443900Y-127100D01*
G01X459900Y-127100D01*
G01X459923Y-151074D01*
G02X451923Y-159074I-7998J-1D01*
G02X443923Y-151074I-1J7999D01*
D02*
G37*
G36*
G01X469323D02*
G01X469300Y-127100D01*
G01X485300Y-127100D01*
G01X485323Y-151074D01*
G02X477323Y-159074I-7998J-1D01*
G02X469323Y-151074I-1J7999D01*
D02*
G37*
G36*
G01X520123D02*
G01X520100Y-127100D01*
G01X536100Y-127100D01*
G01X536123Y-151074D01*
G02X528123Y-159074I-7998J-1D01*
G02X520123Y-151074I-1J7999D01*
D02*
G37*
G36*
G01X723323D02*
G01X723300Y-127100D01*
G01X739300Y-127100D01*
G01X739323Y-151074D01*
G02X731323Y-159074I-7998J-1D01*
G02X723323Y-151074I-1J7999D01*
D02*
G37*
G36*
G01X256723Y-328875D02*
G01X256747Y-352850D01*
G01X240747Y-352850D01*
G01X240724Y-328875D01*
G02X248724Y-320876I7998J1D01*
G02X256723Y-328875I1J-7999D01*
D02*
G37*
G36*
G01X739323D02*
G01X739347Y-352850D01*
G01X723347Y-352850D01*
G01X723324Y-328875D01*
G02X731324Y-320876I7998J1D01*
G02X739323Y-328875I1J-7999D01*
D02*
G37*
G36*
G01X713923D02*
G01X713947Y-352850D01*
G01X697947Y-352850D01*
G01X697924Y-328875D01*
G02X705924Y-320876I7998J1D01*
G02X713923Y-328875I1J-7999D01*
D02*
G37*
G36*
G01X688523D02*
G01X688547Y-352850D01*
G01X672547Y-352850D01*
G01X672524Y-328875D01*
G02X680524Y-320876I7998J1D01*
G02X688523Y-328875I1J-7999D01*
D02*
G37*
G36*
G01X663123D02*
G01X663147Y-352850D01*
G01X647147Y-352850D01*
G01X647124Y-328875D01*
G02X655124Y-320876I7998J1D01*
G02X663123Y-328875I1J-7999D01*
D02*
G37*
G36*
G01X637723D02*
G01X637747Y-352850D01*
G01X621747Y-352850D01*
G01X621724Y-328875D01*
G02X629724Y-320876I7998J1D01*
G02X637723Y-328875I1J-7999D01*
D02*
G37*
G36*
G01X612323D02*
G01X612347Y-352850D01*
G01X596347Y-352850D01*
G01X596324Y-328875D01*
G02X604324Y-320876I7998J1D01*
G02X612323Y-328875I1J-7999D01*
D02*
G37*
G36*
G01X586923D02*
G01X586947Y-352850D01*
G01X570947Y-352850D01*
G01X570924Y-328875D01*
G02X578924Y-320876I7998J1D01*
G02X586923Y-328875I1J-7999D01*
D02*
G37*
G36*
G01X561523D02*
G01X561547Y-352850D01*
G01X545547Y-352850D01*
G01X545524Y-328875D01*
G02X553524Y-320876I7998J1D01*
G02X561523Y-328875I1J-7999D01*
D02*
G37*
G36*
G01X536123D02*
G01X536147Y-352850D01*
G01X520147Y-352850D01*
G01X520124Y-328875D01*
G02X528124Y-320876I7998J1D01*
G02X536123Y-328875I1J-7999D01*
D02*
G37*
G36*
G01X510723D02*
G01X510747Y-352850D01*
G01X494747Y-352850D01*
G01X494724Y-328875D01*
G02X502724Y-320876I7998J1D01*
G02X510723Y-328875I1J-7999D01*
D02*
G37*
G36*
G01X485323D02*
G01X485347Y-352850D01*
G01X469347Y-352850D01*
G01X469324Y-328875D01*
G02X477324Y-320876I7998J1D01*
G02X485323Y-328875I1J-7999D01*
D02*
G37*
G36*
G01X459923D02*
G01X459947Y-352850D01*
G01X443947Y-352850D01*
G01X443924Y-328875D01*
G02X451924Y-320876I7998J1D01*
G02X459923Y-328875I1J-7999D01*
D02*
G37*
G36*
G01X434523D02*
G01X434547Y-352850D01*
G01X418547Y-352850D01*
G01X418524Y-328875D01*
G02X426524Y-320876I7998J1D01*
G02X434523Y-328875I1J-7999D01*
D02*
G37*
G36*
G01X409123D02*
G01X409147Y-352850D01*
G01X393147Y-352850D01*
G01X393124Y-328875D01*
G02X401124Y-320876I7998J1D01*
G02X409123Y-328875I1J-7999D01*
D02*
G37*
G36*
G01X697923Y-151074D02*
G01X697900Y-127100D01*
G01X713900Y-127100D01*
G01X713923Y-151074D01*
G02X705923Y-159074I-7998J-1D01*
G02X697923Y-151074I-1J7999D01*
D02*
G37*
G36*
G01X672523D02*
G01X672500Y-127100D01*
G01X688500Y-127100D01*
G01X688523Y-151074D01*
G02X680523Y-159074I-7998J-1D01*
G02X672523Y-151074I-1J7999D01*
D02*
G37*
G36*
G01X647123D02*
G01X647100Y-127100D01*
G01X663100Y-127100D01*
G01X663123Y-151074D01*
G02X655123Y-159074I-7998J-1D01*
G02X647123Y-151074I-1J7999D01*
D02*
G37*
G36*
G01X621723D02*
G01X621700Y-127100D01*
G01X637700Y-127100D01*
G01X637723Y-151074D01*
G02X629723Y-159074I-7998J-1D01*
G02X621723Y-151074I-1J7999D01*
D02*
G37*
G36*
G01X596323D02*
G01X596300Y-127100D01*
G01X612300Y-127100D01*
G01X612323Y-151074D01*
G02X604323Y-159074I-7998J-1D01*
G02X596323Y-151074I-1J7999D01*
D02*
G37*
G36*
G01X570923D02*
G01X570900Y-127100D01*
G01X586900Y-127100D01*
G01X586923Y-151074D01*
G02X578923Y-159074I-7998J-1D01*
G02X570923Y-151074I-1J7999D01*
D02*
G37*
G36*
G01X545523D02*
G01X545500Y-127100D01*
G01X561500Y-127100D01*
G01X561523Y-151074D01*
G02X553523Y-159074I-7998J-1D01*
G02X545523Y-151074I-1J7999D01*
D02*
G37*
G36*
G01X418523D02*
G01X418500Y-127100D01*
G01X434500Y-127100D01*
G01X434523Y-151074D01*
G02X426523Y-159074I-7998J-1D01*
G02X418523Y-151074I-1J7999D01*
D02*
G37*
G36*
G01X393123D02*
G01X393100Y-127100D01*
G01X409100Y-127100D01*
G01X409123Y-151074D01*
G02X401123Y-159074I-7998J-1D01*
G02X393123Y-151074I-1J7999D01*
D02*
G37*
G36*
G01X367723D02*
G01X367700Y-127100D01*
G01X383700Y-127100D01*
G01X383723Y-151074D01*
G02X375723Y-159074I-7998J-1D01*
G02X367723Y-151074I-1J7999D01*
D02*
G37*
G36*
G01X342323D02*
G01X342300Y-127100D01*
G01X358300Y-127100D01*
G01X358323Y-151074D01*
G02X350323Y-159074I-7998J-1D01*
G02X342323Y-151074I-1J7999D01*
D02*
G37*
G36*
G01X316923D02*
G01X316900Y-127100D01*
G01X332900Y-127100D01*
G01X332923Y-151074D01*
G02X324923Y-159074I-7998J-1D01*
G02X316923Y-151074I-1J7999D01*
D02*
G37*
G36*
G01X291523D02*
G01X291500Y-127100D01*
G01X307500Y-127100D01*
G01X307523Y-151074D01*
G02X299523Y-159074I-7998J-1D01*
G02X291523Y-151074I-1J7999D01*
D02*
G37*
G36*
G01X266123D02*
G01X266100Y-127100D01*
G01X282100Y-127100D01*
G01X282123Y-151074D01*
G02X274123Y-159074I-7998J-1D01*
G02X266123Y-151074I-1J7999D01*
D02*
G37*
G36*
G01X240723D02*
G01X240700Y-127100D01*
G01X256700Y-127100D01*
G01X256723Y-151074D01*
G02X248723Y-159074I-7998J-1D01*
G02X240723Y-151074I-1J7999D01*
D02*
G37*
G36*
G01X282123Y-328875D02*
G01X282147Y-352850D01*
G01X266147Y-352850D01*
G01X266124Y-328875D01*
G02X274124Y-320876I7998J1D01*
G02X282123Y-328875I1J-7999D01*
D02*
G37*
G36*
G01X307523D02*
G01X307547Y-352850D01*
G01X291547Y-352850D01*
G01X291524Y-328875D01*
G02X299524Y-320876I7998J1D01*
G02X307523Y-328875I1J-7999D01*
D02*
G37*
G36*
G01X332923D02*
G01X332947Y-352850D01*
G01X316947Y-352850D01*
G01X316924Y-328875D01*
G02X324924Y-320876I7998J1D01*
G02X332923Y-328875I1J-7999D01*
D02*
G37*
G36*
G01X358323D02*
G01X358347Y-352850D01*
G01X342347Y-352850D01*
G01X342324Y-328875D01*
G02X350324Y-320876I7998J1D01*
G02X358323Y-328875I1J-7999D01*
D02*
G37*
G36*
G01X383723D02*
G01X383747Y-352850D01*
G01X367747Y-352850D01*
G01X367724Y-328875D01*
G02X375724Y-320876I7998J1D01*
G02X383723Y-328875I1J-7999D01*
D02*
G37*
D10*
X406400Y-510790D02*
Y-495270D01*
X-154940Y-43180D02*
X-142240Y-55880D01*
X-25400D01*
X325042Y-117577D02*
X325779Y-116840D01*
X323937Y-119293D02*
X325042Y-117577D01*
X325779Y-116840D02*
X492760D01*
X553720Y-55880D01*
X421020Y-513178D02*
X421020Y-513178D01*
X421020Y-513178D02*
Y-503454D01*
Y-494590D01*
X429260Y-486350D01*
X195580Y-116840D02*
X213360Y-99060D01*
X126451Y-186690D02*
X195580Y-117561D01*
Y-116840D01*
X213360Y-99060D02*
X275590D01*
X39370Y-186690D02*
X126451D01*
X2540Y-148590D02*
X10130D01*
X222679Y-358990D02*
X223141D01*
X227506Y-363355D01*
X228065D01*
X230323Y-365613D01*
X384720Y-468720D02*
X396920D01*
X383540Y-469900D02*
X384720Y-468720D01*
X383540Y-476870D02*
Y-469900D01*
X230323Y-365613D02*
X232557D01*
X-347726Y-230124D02*
X-210497D01*
X-374650Y-203200D02*
X-347726Y-230124D01*
X-210497D02*
X-177223Y-196850D01*
X-400050Y-273050D02*
X-362712Y-235712D01*
X-209042D02*
X-176530Y-203200D01*
X-362712Y-235712D02*
X-209042D01*
X-208973Y-242570D02*
X-175445Y-209042D01*
X-344761Y-242570D02*
X-208973D01*
X-349250Y-247059D02*
X-344761Y-242570D01*
X140970Y-203200D02*
X147320Y-196850D01*
X-176530Y-203200D02*
X140970D01*
X133350Y-196850D02*
X133350Y-196850D01*
X-177223Y-196850D02*
X133350D01*
X-179070Y-191770D02*
X129540D01*
X-336804Y-224536D02*
X-211836D01*
X-179070Y-191770D01*
X-348057Y-213283D02*
X-336804Y-224536D01*
X-175445Y-209042D02*
X142906D01*
X152820Y-199128D01*
X-206756Y-248158D02*
X-173228Y-214630D01*
X-314509Y-248158D02*
X-206756D01*
X-323850Y-257499D02*
X-314509Y-248158D01*
X142975Y-214630D02*
X149325Y-208280D01*
X-173228Y-214630D02*
X142975D01*
X518470Y-60650D02*
Y-49220D01*
X518160Y-48910D02*
X518470Y-49220D01*
X611428Y-385826D02*
Y-380538D01*
X604323Y-373434D02*
X611428Y-380538D01*
X604323Y-373434D02*
Y-328875D01*
X30296Y-153285D02*
X30432Y-153149D01*
X30296Y-177616D02*
X39370Y-186690D01*
X30296Y-177616D02*
Y-153285D01*
X30432Y-153149D02*
Y-132601D01*
X24367Y-121999D02*
X30296Y-127928D01*
Y-132465D02*
Y-127928D01*
Y-132465D02*
X30432Y-132601D01*
X24130Y-137160D02*
Y-129540D01*
X503936Y-487934D02*
Y-450596D01*
X495330Y-441990D02*
X503936Y-450596D01*
X497840Y-494030D02*
X503936Y-487934D01*
X443230Y-455945D02*
X458455D01*
X458470Y-455960D02*
X458485Y-455975D01*
X471155D01*
X471170Y-455990D01*
X-368300Y-533400D02*
X-186690D01*
X-180340Y-527050D01*
X-400050Y-501650D02*
X-368300Y-533400D01*
X590550Y-179040D02*
X599440D01*
X378210Y-444440D02*
X396860D01*
X375610Y-447040D02*
X378210Y-444440D01*
X485790Y-494090D02*
X485850Y-494030D01*
X497840D01*
X471170Y-441990D02*
X495330D01*
X464820Y-441960D02*
X471140D01*
X471170Y-441990D01*
X403922Y-436880D02*
X459740D01*
X464820Y-441960D01*
X466150Y-462340D02*
X486890D01*
X431800Y-462280D02*
X440690D01*
X418495Y-455795D02*
X443230D01*
X431800Y-462280D02*
X431860Y-462220D01*
X365760Y-480060D02*
X368300Y-482600D01*
X365760Y-480060D02*
Y-435610D01*
X353060Y-422910D02*
X365760Y-435610D01*
X368300Y-482600D02*
X377810D01*
X458485Y-494075D02*
X471775D01*
X471790Y-494090D01*
X458470Y-494060D02*
X458485Y-494075D01*
X440835Y-496455D02*
X443230Y-494060D01*
X458470D01*
X396860Y-444440D02*
Y-443942D01*
X403922Y-436880D01*
X396920Y-488270D02*
X412185D01*
X393700Y-491490D02*
X396920Y-488270D01*
X393700Y-495270D02*
Y-491490D01*
X422812Y-514350D02*
X434650D01*
X437190Y-511810D01*
X421640Y-513178D02*
X422812Y-514350D01*
X377810Y-482600D02*
X379730Y-480680D01*
X410860Y-459120D02*
X413960Y-462220D01*
X418420D01*
X410860Y-459120D02*
Y-444440D01*
X456890Y-511810D02*
X469900D01*
X-349250Y-273050D02*
Y-247059D01*
X19129Y-121999D02*
X24367D01*
X129540Y-191770D02*
X204667Y-116643D01*
X24130Y-148590D02*
Y-137160D01*
X204667Y-116643D02*
X272952D01*
X149325Y-208280D02*
X157480D01*
X152820Y-193732D02*
X155202Y-191350D01*
X152820Y-199128D02*
Y-193732D01*
X-289560Y-378460D02*
X-214630D01*
X-312420Y-401320D02*
X-289560Y-378460D01*
X232557Y-365613D02*
X248920Y-349250D01*
X270510Y-370840D01*
X45750Y-39370D02*
X58262D01*
X62072Y-35560D01*
X62230D01*
X532470Y-60650D02*
X532498Y-60678D01*
X539468D01*
X539496Y-60706D01*
X607568Y-298958D02*
X608330Y-299720D01*
X601472Y-298958D02*
X607568D01*
X727600Y-308690D02*
Y-299800D01*
X730670Y-201930D02*
X739300Y-193300D01*
X730250Y-201930D02*
X730670D01*
X739300Y-193300D02*
X739450D01*
X706120Y-170180D02*
X715010D01*
X615130Y-172720D02*
X628650D01*
X614950Y-172900D02*
X615130Y-172720D01*
X551180Y-193040D02*
X560070D01*
X631218Y-394998D02*
Y-386616D01*
Y-394998D02*
X640080Y-403860D01*
X630428Y-385826D02*
X631218Y-386616D01*
X733902Y-213360D02*
X741680D01*
X713582Y-193040D02*
X733902Y-213360D01*
X590550Y-193040D02*
X713582D01*
X-138620Y-370650D02*
X-85090Y-424180D01*
X-138620Y-370650D02*
Y-323850D01*
X487680Y-179040D02*
X560070D01*
X272952Y-116643D02*
X274123Y-117815D01*
Y-151075D02*
Y-117815D01*
X-131620Y-364950D02*
Y-323850D01*
Y-364950D02*
X-72390Y-424180D01*
X-145620Y-408912D02*
X-130352Y-424180D01*
X-145620Y-408912D02*
Y-323850D01*
X-130352Y-424180D02*
X-129540D01*
X-348057Y-213283D02*
Y-204393D01*
X-349250Y-203200D02*
X-348057Y-204393D01*
X-256540Y-449580D02*
Y-440690D01*
X-265430Y-458470D02*
X-256540Y-449580D01*
Y-440690D02*
X-256540Y-440690D01*
X-287020Y-422910D02*
X-274320Y-410210D01*
X426770Y-222200D02*
X537210D01*
X387766Y-486644D02*
Y-481270D01*
X382530Y-491880D02*
X387766Y-486644D01*
X380228Y-494680D02*
X382530Y-492378D01*
X379730Y-494680D02*
X380228D01*
X382530Y-492378D02*
Y-491880D01*
X380228Y-480680D02*
X382530Y-478378D01*
Y-477880D02*
X383540Y-476870D01*
X382530Y-478378D02*
Y-477880D01*
X393700Y-481270D02*
X406400D01*
X387766D02*
X393700D01*
X429260Y-486350D02*
X442058D01*
X415290Y-481270D02*
X418420Y-478140D01*
X406400Y-481270D02*
X415290D01*
X486890Y-462340D02*
X493950Y-455280D01*
X458780Y-469590D02*
X493640D01*
X458470Y-469960D02*
X458780Y-469650D01*
X493640Y-469590D02*
X493950Y-469280D01*
X443230Y-480060D02*
Y-469930D01*
Y-485238D02*
Y-480060D01*
X442058Y-486410D02*
X443230Y-485238D01*
X445770Y-462280D02*
X466090D01*
X443230Y-464820D02*
X445770Y-462280D01*
X466090D02*
X466150Y-462340D01*
X443230Y-469930D02*
Y-464820D01*
X418420Y-462220D02*
X431860D01*
X440690Y-462280D02*
X443230Y-464820D01*
X396860Y-455660D02*
Y-444440D01*
Y-455660D02*
X396920Y-455720D01*
X418420Y-478140D02*
Y-468720D01*
Y-455720D02*
X418495Y-455795D01*
X458455Y-455945D02*
X458470Y-455960D01*
Y-480060D02*
Y-469960D01*
X-229220Y-410210D02*
X-229181Y-410170D01*
X-214749D02*
X-214709Y-410131D01*
X-229181Y-410170D02*
X-214749D01*
X590550Y-222200D02*
X614800D01*
X537210D02*
X590550D01*
X330200Y-364490D02*
X358140D01*
X363220Y-359410D01*
Y-308610D01*
X323850Y-358140D02*
X330200Y-364490D01*
X323850Y-358140D02*
Y-329948D01*
X374650Y-370840D02*
X387985Y-357505D01*
X270510Y-370840D02*
X374650D01*
X280670Y-314960D02*
X334010D01*
X274123Y-321507D02*
X280670Y-314960D01*
X274123Y-328875D02*
Y-321507D01*
X334010Y-314960D02*
X426770Y-222200D01*
X430530Y-229870D02*
X603250D01*
X350520Y-309880D02*
X430530Y-229870D01*
X350323Y-328875D02*
X350520Y-328678D01*
Y-309880D01*
X416560Y-255270D02*
X561340D01*
X363220Y-308610D02*
X416560Y-255270D01*
X323850Y-329948D02*
X324923Y-328875D01*
X387985Y-295275D02*
X406060Y-277200D01*
X387985Y-357505D02*
Y-295275D01*
X406060Y-277200D02*
X614800D01*
X248723Y-349053D02*
X248920Y-349250D01*
X248723Y-349053D02*
Y-328875D01*
X259080Y-165100D02*
X327660D01*
X248723Y-154743D02*
X259080Y-165100D01*
X248723Y-154743D02*
Y-151075D01*
X327660Y-165100D02*
X341600Y-179040D01*
X487680D01*
X560070D02*
X560085Y-179025D01*
X575295D02*
X575310Y-179010D01*
X560085Y-179025D02*
X575295D01*
X575340Y-193040D02*
X590550D01*
X575310Y-193010D02*
X575340Y-193040D01*
X741680Y-213360D02*
X746000Y-217680D01*
X744828Y-234950D02*
X746000Y-233778D01*
X741200Y-234950D02*
X744828D01*
X746000Y-233778D02*
Y-217680D01*
X740200Y-235950D02*
X741200Y-234950D01*
X603250Y-229870D02*
X606580Y-233200D01*
X614800D01*
X561340Y-255270D02*
X561388Y-255222D01*
X595109D01*
X595131Y-255200D01*
X614800D01*
X-323850Y-273050D02*
Y-257499D01*
X167066Y-196276D02*
Y-192534D01*
X165882Y-191350D02*
X167066Y-192534D01*
Y-196276D02*
X167640Y-196850D01*
X155202Y-191350D02*
X165882D01*
X553720Y-55880D02*
Y-27940D01*
X518160Y-48910D02*
Y-37918D01*
X508213Y-27971D02*
X518160Y-37918D01*
X-374650Y-299720D02*
Y-273050D01*
X-361950Y-312420D02*
X-245110D01*
X-374650Y-299720D02*
X-361950Y-312420D01*
X-214630Y-394970D02*
X-214630Y-394970D01*
X-229220Y-394970D02*
X-214630D01*
X-229220Y-410708D02*
X-222250Y-417678D01*
Y-433070D02*
Y-417678D01*
X-222273Y-434063D02*
X-222250Y-433070D01*
X-229220Y-410708D02*
Y-410210D01*
Y-440690D02*
X-222273Y-434063D01*
X-229220Y-395468D02*
Y-394970D01*
Y-425450D02*
Y-424952D01*
X-236220Y-417952D02*
Y-402468D01*
X-229220Y-395468D01*
X-236220Y-417952D02*
X-229220Y-424952D01*
X-243220Y-410210D02*
Y-394970D01*
X-256540Y-410210D02*
X-243220D01*
X-256540Y-410210D02*
X-256540Y-410210D01*
X-274320Y-410210D02*
X-256540D01*
X-243220Y-440690D02*
Y-425450D01*
X-256540Y-440690D02*
X-243220D01*
X-298450Y5080D02*
Y25400D01*
X-292100Y-1270D02*
X-275590D01*
X-298450Y5080D02*
X-292100Y-1270D01*
X50800Y15240D02*
X91440D01*
X612140Y-72390D02*
Y-58420D01*
X604520Y-80010D02*
X612140Y-72390D01*
X596900D02*
Y-58450D01*
Y-80010D02*
Y-72390D01*
X31735Y-59675D02*
Y-50815D01*
X31720Y-50800D02*
X31735Y-50815D01*
Y-59675D02*
X31750Y-59690D01*
X32324Y-59116D01*
X31750Y-51268D02*
Y-50830D01*
X31735Y-50785D02*
Y-39385D01*
X31750Y-39370D01*
X31720Y-50800D02*
X31735Y-50785D01*
D21*
X396860Y-444440D02*
D03*
X410860D02*
D03*
X485790Y-494090D02*
D03*
X471790D02*
D03*
X421020Y-514350D02*
D03*
X407020D02*
D03*
X14000Y-29010D02*
D03*
X0D02*
D03*
X14000Y-16510D02*
D03*
X0D02*
D03*
X24130Y-148590D02*
D03*
X10130D02*
D03*
Y-137160D02*
D03*
X24130D02*
D03*
X45720Y-50800D02*
D03*
X31720D02*
D03*
X31750Y-39370D02*
D03*
X45750D02*
D03*
X532470Y-49220D02*
D03*
X518470D02*
D03*
Y-60650D02*
D03*
X532470D02*
D03*
X-229220Y-458470D02*
D03*
X-243220D02*
D03*
X-229220Y-471170D02*
D03*
X-243220D02*
D03*
X-234300Y-170180D02*
D03*
X-248300D02*
D03*
X-234300Y-182880D02*
D03*
X-248300D02*
D03*
X-229220Y-425450D02*
D03*
X-243220D02*
D03*
X-229220Y-440690D02*
D03*
X-243220D02*
D03*
X-229220Y-394970D02*
D03*
X-243220D02*
D03*
X-229220Y-410210D02*
D03*
X-243220D02*
D03*
D29*
X393700Y-481270D02*
D03*
Y-495270D02*
D03*
X406400Y-481270D02*
D03*
Y-495270D02*
D03*
X379730Y-480680D02*
D03*
Y-494680D02*
D03*
X443230Y-469930D02*
D03*
Y-455930D02*
D03*
Y-494060D02*
D03*
Y-480060D02*
D03*
X458470Y-469960D02*
D03*
Y-455960D02*
D03*
X471170Y-455990D02*
D03*
Y-441990D02*
D03*
X458470Y-480060D02*
D03*
Y-494060D02*
D03*
X612140Y-58420D02*
D03*
Y-44420D02*
D03*
X596900Y-58450D02*
D03*
Y-44450D02*
D03*
X590550Y-179040D02*
D03*
Y-193040D02*
D03*
X560070Y-179040D02*
D03*
Y-193040D02*
D03*
X590550Y-236250D02*
D03*
Y-222250D02*
D03*
X575310Y-193010D02*
D03*
Y-179010D02*
D03*
Y-248920D02*
D03*
Y-262920D02*
D03*
X590550Y-248920D02*
D03*
Y-262920D02*
D03*
D73*
X-460000Y-500000D02*
D03*
Y20000D02*
D03*
X710000Y-500000D02*
D03*
Y20000D02*
D03*
D74*
X384810Y-469900D02*
D03*
X274320Y-116840D02*
D03*
X487680Y-222250D02*
D03*
Y-179040D02*
D03*
X-256540Y-440690D02*
D03*
Y-410210D02*
D03*
X612140Y-72390D02*
D03*
X596900D02*
D03*
D75*
X689610Y-369570D02*
X721360D01*
X731323Y-359607D02*
Y-328875D01*
X721360Y-369570D02*
X731323Y-359607D01*
D76*
X590550Y-248920D02*
Y-236250D01*
X-247975Y-202875D02*
Y-170505D01*
X581660Y-236250D02*
X590550D01*
X566420Y-248920D02*
X575310D01*
X590550D01*
X600710D01*
X604430Y-245200D02*
X613800D01*
X600710Y-248920D02*
X604430Y-245200D01*
X613800D02*
X614800Y-244200D01*
X-243220Y-471170D02*
Y-458470D01*
Y-476938D02*
Y-471170D01*
X-247650Y-481368D02*
X-243220Y-476938D01*
X-247650Y-501650D02*
Y-481368D01*
X-248300Y-170180D02*
X-247975Y-170505D01*
Y-202875D02*
X-247650Y-203200D01*
X23295Y-6717D02*
Y-2105D01*
X25400Y0D01*
X14000Y-16510D02*
Y-16012D01*
X23295Y-6717D01*
X14000Y-29010D02*
Y-16510D01*
X-229220Y-492703D02*
X-222250Y-499673D01*
Y-501650D02*
Y-499673D01*
X-229220Y-492703D02*
Y-471170D01*
Y-458470D01*
X-234300Y-191150D02*
Y-182880D01*
Y-191150D02*
X-222250Y-203200D01*
X-234300Y-182880D02*
Y-170180D01*
X0Y-16510D02*
Y0D01*
Y-29010D02*
Y-16510D01*
X575310Y-270510D02*
Y-262920D01*
X600710Y-266700D02*
X614300D01*
X614800Y-266200D01*
X590970Y-263340D02*
X597350D01*
X600710Y-266700D01*
X590550Y-262920D02*
X590970Y-263340D01*
X575310Y-262920D02*
X590550D01*
X566420D02*
X575310D01*
D77*
X493950Y-469280D02*
D03*
Y-455280D02*
D03*
D78*
X353060Y-419100D02*
D03*
D79*
X378460D02*
D03*
X403860D02*
D03*
D80*
X-222250Y-501650D02*
D03*
X-273050D02*
D03*
X-298450D02*
D03*
X-323850D02*
D03*
X-349250D02*
D03*
X-374650D02*
D03*
X-247650D02*
D03*
Y-273050D02*
D03*
X-374650D02*
D03*
X-349250D02*
D03*
X-323850D02*
D03*
X-298450D02*
D03*
X-273050D02*
D03*
X-222250D02*
D03*
Y25400D02*
D03*
X-273050D02*
D03*
X-298450D02*
D03*
X-323850D02*
D03*
X-349250D02*
D03*
X-374650D02*
D03*
X-247650D02*
D03*
Y-203200D02*
D03*
X-374650D02*
D03*
X-349250D02*
D03*
X-323850D02*
D03*
X-298450D02*
D03*
X-273050D02*
D03*
X-222250D02*
D03*
D81*
X-400050Y-501650D02*
D03*
Y-273050D02*
D03*
Y25400D02*
D03*
Y-203200D02*
D03*
D82*
X76200Y0D02*
D03*
X0D02*
D03*
X50800D02*
D03*
X25400D02*
D03*
D83*
X715360Y-433300D02*
D03*
D84*
Y-458700D02*
D03*
D85*
X730000Y-30000D02*
D03*
X715000Y-60000D02*
D03*
X700000Y-90000D02*
D03*
X715000Y-120000D02*
D03*
Y-180000D02*
D03*
X670000Y30000D02*
D03*
X685000Y-0D02*
D03*
X670000Y-510000D02*
D03*
X580000Y30000D02*
D03*
X550000D02*
D03*
X520000D02*
D03*
Y-210000D02*
D03*
Y-270000D02*
D03*
Y-390000D02*
D03*
X490000Y30000D02*
D03*
Y-210000D02*
D03*
X505000Y-240000D02*
D03*
X490000Y-270000D02*
D03*
X505000Y-300000D02*
D03*
X490000Y-390000D02*
D03*
X460000Y30000D02*
D03*
Y-210000D02*
D03*
X475000Y-240000D02*
D03*
X460000Y-270000D02*
D03*
X475000Y-300000D02*
D03*
Y-360000D02*
D03*
Y-480000D02*
D03*
X430000Y30000D02*
D03*
Y-210000D02*
D03*
Y-450000D02*
D03*
X400000Y30000D02*
D03*
Y-210000D02*
D03*
X415000Y-300000D02*
D03*
Y-360000D02*
D03*
X370000Y-210000D02*
D03*
X385000Y-240000D02*
D03*
X370000Y-270000D02*
D03*
X340000Y-210000D02*
D03*
X355000Y-240000D02*
D03*
X340000Y-270000D02*
D03*
X325000Y-420000D02*
D03*
X295000Y-120000D02*
D03*
Y-420000D02*
D03*
X265000D02*
D03*
X190000Y-150000D02*
D03*
Y-210000D02*
D03*
Y-270000D02*
D03*
Y-330000D02*
D03*
X205000Y-420000D02*
D03*
X175000Y-180000D02*
D03*
X160000Y-270000D02*
D03*
X175000Y-300000D02*
D03*
Y-420000D02*
D03*
X130000Y-270000D02*
D03*
X115000Y-240000D02*
D03*
Y-300000D02*
D03*
X100000Y-330000D02*
D03*
X70000Y30000D02*
D03*
Y-270000D02*
D03*
X85000Y-300000D02*
D03*
X55000Y-240000D02*
D03*
Y-300000D02*
D03*
Y-420000D02*
D03*
X10000Y-270000D02*
D03*
X25000Y-300000D02*
D03*
X10000Y-330000D02*
D03*
X-5000Y-300000D02*
D03*
X-20000Y-330000D02*
D03*
X-35000Y-240000D02*
D03*
X-50000Y-270000D02*
D03*
X-35000Y-300000D02*
D03*
X-80000Y-270000D02*
D03*
X-110000Y30000D02*
D03*
Y-270000D02*
D03*
X-95000Y-300000D02*
D03*
X-110000Y-330000D02*
D03*
X-140000Y30000D02*
D03*
X-125000Y-240000D02*
D03*
Y-300000D02*
D03*
X-170000Y30000D02*
D03*
Y-30000D02*
D03*
X-155000Y-240000D02*
D03*
X-170000Y-270000D02*
D03*
X-155000Y-300000D02*
D03*
X-170000Y-330000D02*
D03*
X-155000Y-420000D02*
D03*
X-200000Y30000D02*
D03*
Y-30000D02*
D03*
X-185000Y-240000D02*
D03*
X-200000Y-270000D02*
D03*
X-185000Y-300000D02*
D03*
X-200000Y-330000D02*
D03*
X-230000Y-30000D02*
D03*
X-215000Y-60000D02*
D03*
X-230000Y-90000D02*
D03*
X-215000Y-300000D02*
D03*
X-230000Y-330000D02*
D03*
X-215000Y-360000D02*
D03*
X-260000Y-30000D02*
D03*
X-245000Y-60000D02*
D03*
X-260000Y-90000D02*
D03*
X-275000Y-60000D02*
D03*
Y-120000D02*
D03*
Y-180000D02*
D03*
Y-300000D02*
D03*
Y-360000D02*
D03*
Y-420000D02*
D03*
X-305000Y-0D02*
D03*
X-320000Y-30000D02*
D03*
X-305000Y-60000D02*
D03*
X-320000Y-90000D02*
D03*
X-305000Y-120000D02*
D03*
X-320000Y-150000D02*
D03*
X-305000Y-180000D02*
D03*
Y-300000D02*
D03*
X-320000Y-330000D02*
D03*
X-305000Y-360000D02*
D03*
X-320000Y-390000D02*
D03*
X-305000Y-420000D02*
D03*
X-320000Y-450000D02*
D03*
X-305000Y-480000D02*
D03*
X-335000Y-0D02*
D03*
X-350000Y-30000D02*
D03*
X-335000Y-60000D02*
D03*
X-350000Y-90000D02*
D03*
X-335000Y-120000D02*
D03*
X-350000Y-150000D02*
D03*
X-335000Y-180000D02*
D03*
Y-300000D02*
D03*
X-350000Y-330000D02*
D03*
X-335000Y-360000D02*
D03*
X-350000Y-390000D02*
D03*
X-335000Y-420000D02*
D03*
X-350000Y-450000D02*
D03*
X-335000Y-480000D02*
D03*
X-380000Y-30000D02*
D03*
X-365000Y-60000D02*
D03*
X-380000Y-90000D02*
D03*
X-365000Y-120000D02*
D03*
X-380000Y-150000D02*
D03*
X-365000Y-180000D02*
D03*
Y-300000D02*
D03*
X-380000Y-330000D02*
D03*
X-365000Y-360000D02*
D03*
X-380000Y-390000D02*
D03*
X-365000Y-420000D02*
D03*
X-380000Y-450000D02*
D03*
X-365000Y-480000D02*
D03*
X-410000Y-30000D02*
D03*
X-395000Y-60000D02*
D03*
X-410000Y-90000D02*
D03*
X-395000Y-120000D02*
D03*
X-410000Y-150000D02*
D03*
X-395000Y-180000D02*
D03*
Y-240000D02*
D03*
Y-300000D02*
D03*
X-410000Y-330000D02*
D03*
X-395000Y-360000D02*
D03*
X-410000Y-390000D02*
D03*
X-395000Y-420000D02*
D03*
X-410000Y-450000D02*
D03*
X-395000Y-480000D02*
D03*
X-425000Y-0D02*
D03*
X-440000Y-30000D02*
D03*
X-425000Y-60000D02*
D03*
X-440000Y-90000D02*
D03*
X-425000Y-120000D02*
D03*
X-440000Y-150000D02*
D03*
X-425000Y-180000D02*
D03*
X-440000Y-210000D02*
D03*
Y-270000D02*
D03*
Y-330000D02*
D03*
X-425000Y-360000D02*
D03*
X-440000Y-390000D02*
D03*
X-425000Y-420000D02*
D03*
X-440000Y-450000D02*
D03*
X-425000Y-480000D02*
D03*
X-470000Y-30000D02*
D03*
X-455000Y-60000D02*
D03*
X-470000Y-90000D02*
D03*
X-455000Y-120000D02*
D03*
X-470000Y-150000D02*
D03*
X-455000Y-180000D02*
D03*
X-470000Y-210000D02*
D03*
X-455000Y-240000D02*
D03*
X-470000Y-270000D02*
D03*
X-455000Y-300000D02*
D03*
X-470000Y-330000D02*
D03*
X-455000Y-360000D02*
D03*
X-470000Y-390000D02*
D03*
X-455000Y-420000D02*
D03*
X-470000Y-450000D02*
D03*
X195580Y-116840D02*
D03*
X185420Y-92710D02*
D03*
X2540Y-148590D02*
D03*
X222679Y-358990D02*
D03*
X212090Y-353910D02*
D03*
X133350Y-196850D02*
D03*
X689610Y-369570D02*
D03*
X24130Y-129540D02*
D03*
X-180340Y-527050D02*
D03*
X599440Y-179040D02*
D03*
X581660Y-236250D02*
D03*
X566420Y-248920D02*
D03*
X601980Y-313690D02*
D03*
X679450D02*
D03*
X654050D02*
D03*
X628650D02*
D03*
X577850D02*
D03*
X553720D02*
D03*
X590550Y-161290D02*
D03*
X668020D02*
D03*
X642620D02*
D03*
X617220D02*
D03*
X566420D02*
D03*
X690880D02*
D03*
X542290Y-318770D02*
D03*
X690880D02*
D03*
X566420D02*
D03*
X617220D02*
D03*
X642620D02*
D03*
X668020D02*
D03*
X590550D02*
D03*
X591820Y-116840D02*
D03*
X689610D02*
D03*
X668020D02*
D03*
X642620D02*
D03*
X617220D02*
D03*
X566420D02*
D03*
X542290D02*
D03*
X-71740Y-490900D02*
D03*
X175230Y-490900D02*
D03*
X55850D02*
D03*
X412185Y-488270D02*
D03*
X469900Y-511810D02*
D03*
X633415Y-31765D02*
D03*
X581741Y-27701D02*
D03*
X494345Y-21545D02*
D03*
X421655Y6035D02*
D03*
X368910Y-43300D02*
D03*
X336393Y-59375D02*
D03*
X295910Y-55880D02*
D03*
X-8738Y-92710D02*
D03*
X38100Y-135088D02*
D03*
X78558Y-92980D02*
D03*
X76230Y-44450D02*
D03*
X38021Y-149781D02*
D03*
X19129Y-121999D02*
D03*
X-138430Y-424180D02*
D03*
X-63500D02*
D03*
X140970Y-191770D02*
D03*
X176530Y-196850D02*
D03*
X165100Y-208280D02*
D03*
X157480D02*
D03*
X147320Y-196850D02*
D03*
X420370Y-485140D02*
D03*
X553720Y-20740D02*
D03*
X275590Y-87630D02*
D03*
X39370Y15240D02*
D03*
X102870D02*
D03*
X-275590Y-12700D02*
D03*
X-269240Y-452120D02*
D03*
X-294640Y-422910D02*
D03*
X-320040Y-401320D02*
D03*
X-245110Y-304800D02*
D03*
X-171450Y-527050D02*
D03*
X-219710Y-403860D02*
D03*
X-218440Y-388620D02*
D03*
X-220980Y-372110D02*
D03*
X62230Y-35560D02*
D03*
X539496Y-60706D02*
D03*
X601472Y-298958D02*
D03*
X727600Y-308690D02*
D03*
X706120Y-170180D02*
D03*
X628650Y-172720D02*
D03*
X575310Y-270510D02*
D03*
X566420Y-262920D02*
D03*
X551180Y-193040D02*
D03*
X471170Y-416560D02*
D03*
X318770Y-27940D02*
D03*
X447500Y-271241D02*
D03*
X730250Y-201930D02*
D03*
X744500Y-267250D02*
D03*
X588010Y-488950D02*
D03*
Y-481330D02*
D03*
X566420Y-476250D02*
D03*
X595600Y-449580D02*
D03*
X574040Y-476250D02*
D03*
X581660D02*
D03*
X603220Y-387350D02*
D03*
X607822Y-437896D02*
D03*
X565150Y-430530D02*
D03*
X579120D02*
D03*
X640080Y-403860D02*
D03*
X93980Y-92710D02*
D03*
X76230Y-55880D02*
D03*
X-16540Y-100330D02*
D03*
X179170Y-315070D02*
D03*
Y-323850D02*
D03*
Y-332850D02*
D03*
X68090Y-315021D02*
D03*
Y-323801D02*
D03*
Y-332801D02*
D03*
X-38780Y-332740D02*
D03*
Y-323740D02*
D03*
Y-314960D02*
D03*
X-106000Y-510540D02*
D03*
X21590Y-510540D02*
D03*
X140970D02*
D03*
X-94294Y-424024D02*
D03*
X-85090Y-424180D02*
D03*
X-33460Y-423270D02*
D03*
X147760D02*
D03*
X87190D02*
D03*
X27110D02*
D03*
X238760Y-422910D02*
D03*
X361950Y-15240D02*
D03*
X350408Y-59690D02*
D03*
X626110Y-10130D02*
D03*
X435640Y6350D02*
D03*
X494030Y-35560D02*
D03*
X323937Y-119293D02*
D03*
X275590Y-99060D02*
D03*
X43340Y-98480D02*
D03*
X32340D02*
D03*
X43340Y-87480D02*
D03*
X32340D02*
D03*
X-72390Y-424180D02*
D03*
X-129540D02*
D03*
X-131620Y-323850D02*
D03*
X-145620D02*
D03*
X-138620D02*
D03*
X-265430Y-458470D02*
D03*
X-287020Y-422910D02*
D03*
X-312420Y-401320D02*
D03*
X-214630Y-378460D02*
D03*
X-214709Y-410131D02*
D03*
X167640Y-196850D02*
D03*
X-245110Y-312420D02*
D03*
X-214630Y-394970D02*
D03*
X-275590Y-1270D02*
D03*
X91440Y15240D02*
D03*
X50800D02*
D03*
X604520Y-80010D02*
D03*
X31750Y-59690D02*
D03*
X553720Y-27940D02*
D03*
X596900Y-80010D02*
D03*
X588010D02*
D03*
X613410D02*
D03*
X508213Y-27971D02*
D03*
D86*
X-79400Y0D02*
D03*
X155600Y-237999D02*
D03*
X-79400D02*
D03*
X155600Y0D02*
D03*
D97*
X355910Y-450850D02*
D03*
X375610D02*
D03*
X437190Y-511810D02*
D03*
X456890Y-511810D02*
D03*
D98*
X611428Y-385826D02*
D03*
D99*
X630428D02*
D03*
X620928Y-406429D02*
D03*
D100*
X396920Y-455720D02*
D03*
Y-468720D02*
D03*
X418420D02*
D03*
Y-462220D02*
D03*
Y-455720D02*
D03*
D101*
X739450Y-193300D02*
D03*
D102*
X740200Y-235950D02*
D03*
D103*
X614950Y-172900D02*
D03*
D104*
X727600Y-170200D02*
D03*
D105*
Y-299800D02*
D03*
D106*
X619800Y-299000D02*
D03*
D107*
X614800Y-211200D02*
D03*
Y-222200D02*
D03*
Y-233200D02*
D03*
Y-244200D02*
D03*
Y-255200D02*
D03*
Y-266200D02*
D03*
Y-277200D02*
D03*
Y-288200D02*
D03*
M02*
