G04*
G04 #@! TF.GenerationSoftware,Altium Limited,Altium Designer,24.9.1 (31)*
G04*
G04 Layer_Physical_Order=1*
G04 Layer_Color=255*
%FSLAX44Y44*%
%MOMM*%
G71*
G04*
G04 #@! TF.SameCoordinates,049DD743-820B-4880-A151-0CBBC5A4C6BC*
G04*
G04*
G04 #@! TF.FilePolarity,Positive*
G04*
G01*
G75*
%ADD10C,0.2000*%
%ADD20R,2.1000X1.4000*%
G04:AMPARAMS|DCode=21|XSize=0.76mm|YSize=0.6604mm|CornerRadius=0.0825mm|HoleSize=0mm|Usage=FLASHONLY|Rotation=270.000|XOffset=0mm|YOffset=0mm|HoleType=Round|Shape=RoundedRectangle|*
%AMROUNDEDRECTD21*
21,1,0.7600,0.4953,0,0,270.0*
21,1,0.5949,0.6604,0,0,270.0*
1,1,0.1651,-0.2477,-0.2975*
1,1,0.1651,-0.2477,0.2975*
1,1,0.1651,0.2477,0.2975*
1,1,0.1651,0.2477,-0.2975*
%
%ADD21ROUNDEDRECTD21*%
%ADD22R,0.6000X1.1000*%
%ADD23R,1.6000X0.5000*%
%ADD24R,2.6500X2.6500*%
%ADD25O,0.2000X0.8500*%
%ADD26O,0.8500X0.2000*%
%ADD27R,1.2000X1.2000*%
%ADD28R,1.5000X1.6000*%
G04:AMPARAMS|DCode=29|XSize=0.76mm|YSize=0.6604mm|CornerRadius=0.0825mm|HoleSize=0mm|Usage=FLASHONLY|Rotation=180.000|XOffset=0mm|YOffset=0mm|HoleType=Round|Shape=RoundedRectangle|*
%AMROUNDEDRECTD29*
21,1,0.7600,0.4953,0,0,180.0*
21,1,0.5949,0.6604,0,0,180.0*
1,1,0.1651,-0.2975,0.2477*
1,1,0.1651,0.2975,0.2477*
1,1,0.1651,0.2975,-0.2477*
1,1,0.1651,-0.2975,-0.2477*
%
%ADD29ROUNDEDRECTD29*%
%ADD30R,0.8000X0.9000*%
%ADD31R,0.6000X0.3000*%
%ADD32R,0.7200X0.3000*%
%ADD33R,1.0000X1.0000*%
%ADD34R,0.8000X0.8000*%
%ADD35O,0.2500X0.9500*%
%ADD36O,0.9500X0.2500*%
%ADD37C,1.5748*%
%ADD38R,1.5748X1.5748*%
%ADD39O,1.4500X1.0500*%
%ADD40O,1.8000X1.1000*%
G04:AMPARAMS|DCode=41|XSize=1.5mm|YSize=1.5mm|CornerRadius=0.3mm|HoleSize=0mm|Usage=FLASHONLY|Rotation=270.000|XOffset=0mm|YOffset=0mm|HoleType=Round|Shape=RoundedRectangle|*
%AMROUNDEDRECTD41*
21,1,1.5000,0.9000,0,0,270.0*
21,1,0.9000,1.5000,0,0,270.0*
1,1,0.6000,-0.4500,-0.4500*
1,1,0.6000,-0.4500,0.4500*
1,1,0.6000,0.4500,0.4500*
1,1,0.6000,0.4500,-0.4500*
%
%ADD41ROUNDEDRECTD41*%
%ADD55C,0.2520*%
%ADD56R,0.7500X0.2800*%
%ADD73C,5.0000*%
%ADD74C,0.6000*%
%ADD75C,1.0000*%
%ADD76C,0.5000*%
%ADD77C,0.9000*%
%ADD78R,1.5500X1.5500*%
%ADD79C,1.5500*%
%ADD80C,1.6510*%
%ADD81R,1.6510X1.6510*%
%ADD82C,1.6000*%
%ADD83R,1.8000X1.8000*%
%ADD84C,1.8000*%
%ADD85C,0.5000*%
%ADD86C,3.2000*%
G36*
X-91423Y36305D02*
Y30463D01*
X-113238Y8649D01*
X-263515D01*
X-266736Y11995D01*
X-266446Y16794D01*
X-264444Y18796D01*
X-263028Y21249D01*
X-262679Y22550D01*
X-258021D01*
X-257672Y21249D01*
X-256256Y18796D01*
X-254254Y16794D01*
X-251801Y15378D01*
X-249066Y14645D01*
X-246234D01*
X-243499Y15378D01*
X-241046Y16794D01*
X-239044Y18796D01*
X-237628Y21249D01*
X-237300Y22472D01*
X-232641Y22472D01*
X-232309Y21233D01*
X-230888Y18772D01*
X-228878Y16762D01*
X-226417Y15341D01*
X-224790Y14905D01*
Y25400D01*
X-222250D01*
Y27940D01*
X-211755D01*
X-212191Y29567D01*
X-213612Y32028D01*
X-211721Y36502D01*
X-91620D01*
X-91423Y36305D01*
D02*
G37*
G36*
X-291193Y15146D02*
X-289275Y13315D01*
X-289417Y12602D01*
Y-190930D01*
X-293917Y-193398D01*
X-294299Y-193178D01*
X-297034Y-192445D01*
X-299866D01*
X-302601Y-193178D01*
X-303180Y-193512D01*
X-307673Y-191190D01*
X-307680Y-191182D01*
Y11123D01*
X-303124Y15680D01*
X-302601Y15378D01*
X-299866Y14645D01*
X-297034D01*
X-294299Y15378D01*
X-292949Y16157D01*
X-291193Y15146D01*
D02*
G37*
G36*
X85375Y32002D02*
X73677Y20303D01*
X72903Y19146D01*
X72631Y17780D01*
Y14979D01*
X68131Y13115D01*
X50783Y30463D01*
X49626Y31237D01*
X48260Y31509D01*
X-78041D01*
X-80893Y36009D01*
X-80660Y36502D01*
X83511D01*
X85375Y32002D01*
D02*
G37*
G36*
X231648Y16094D02*
X231838Y15905D01*
X130827Y-85107D01*
X130053Y-86264D01*
X129781Y-87630D01*
Y-193347D01*
X129111Y-194018D01*
X128350Y-195855D01*
Y-197845D01*
X129111Y-199682D01*
X130518Y-201089D01*
X132355Y-201850D01*
X150475D01*
X151555Y-203255D01*
X152867Y-206350D01*
X152480Y-207285D01*
Y-209275D01*
X153241Y-211112D01*
X154648Y-212519D01*
X156485Y-213280D01*
X158475D01*
X160312Y-212519D01*
X161719Y-211112D01*
X162480Y-209275D01*
Y-207285D01*
X162092Y-206350D01*
X163405Y-203255D01*
X164485Y-201850D01*
X168635D01*
X170472Y-201089D01*
X171879Y-199682D01*
X172640Y-197845D01*
Y-195855D01*
X171879Y-194018D01*
X171209Y-193347D01*
Y-132144D01*
X172720Y-128270D01*
X176694Y-127000D01*
X200480D01*
Y-326546D01*
X200752Y-327911D01*
X201525Y-329069D01*
X212798Y-340341D01*
X210934Y-344841D01*
X104813D01*
X103447Y-345113D01*
X102447Y-345782D01*
X-185520D01*
X-186886Y-346053D01*
X-188043Y-346827D01*
X-214677Y-373460D01*
X-215625D01*
X-217462Y-374221D01*
X-218869Y-375628D01*
X-219630Y-377465D01*
Y-379455D01*
X-218869Y-381292D01*
X-217462Y-382699D01*
X-215625Y-383460D01*
X-214122D01*
Y-389415D01*
X-214677Y-389970D01*
X-215625D01*
X-217462Y-390731D01*
X-218869Y-392138D01*
X-219630Y-393975D01*
Y-395965D01*
X-218869Y-397802D01*
X-217462Y-399209D01*
X-215625Y-399970D01*
X-214122D01*
Y-404655D01*
X-214598Y-405131D01*
X-215704D01*
X-217541Y-405892D01*
X-218948Y-407299D01*
X-219709Y-409136D01*
Y-411125D01*
X-219222Y-412301D01*
X-220272Y-414976D01*
X-221474Y-416801D01*
X-238552D01*
X-241541Y-413812D01*
Y-315923D01*
X-240871Y-315252D01*
X-240110Y-313415D01*
Y-311425D01*
X-240871Y-309588D01*
X-242278Y-308181D01*
X-244115Y-307420D01*
X-246105D01*
X-247942Y-308181D01*
X-249349Y-309588D01*
X-250110Y-311425D01*
Y-313415D01*
X-249349Y-315252D01*
X-248679Y-315923D01*
Y-415290D01*
X-248407Y-416656D01*
X-247633Y-417813D01*
X-242553Y-422893D01*
X-241396Y-423667D01*
X-240030Y-423939D01*
X-221989D01*
X-220125Y-428439D01*
X-262873Y-471187D01*
X-263647Y-472344D01*
X-263919Y-473710D01*
Y-485464D01*
X-268419Y-488011D01*
X-269481Y-487373D01*
Y-467568D01*
X-265383Y-463470D01*
X-264435D01*
X-262598Y-462709D01*
X-261191Y-461302D01*
X-260430Y-459465D01*
Y-458517D01*
X-259097Y-457183D01*
X-258323Y-456026D01*
X-258051Y-454660D01*
Y-284222D01*
X-256080Y-282890D01*
X-253551Y-282062D01*
X-251801Y-283072D01*
X-249066Y-283805D01*
X-246234D01*
X-243499Y-283072D01*
X-241046Y-281656D01*
X-239044Y-279654D01*
X-237628Y-277201D01*
X-237300Y-275978D01*
X-232641Y-275978D01*
X-232309Y-277217D01*
X-230888Y-279678D01*
X-228878Y-281688D01*
X-226417Y-283109D01*
X-224790Y-283545D01*
Y-273050D01*
Y-262555D01*
X-226417Y-262991D01*
X-228878Y-264412D01*
X-230888Y-266422D01*
X-232309Y-268883D01*
X-232641Y-270122D01*
X-237300Y-270122D01*
X-237628Y-268899D01*
X-239044Y-266446D01*
X-241046Y-264444D01*
X-243499Y-263028D01*
X-246234Y-262295D01*
X-249066D01*
X-251801Y-263028D01*
X-253551Y-264038D01*
X-256080Y-263210D01*
X-258051Y-261878D01*
Y-227330D01*
X-258323Y-225964D01*
X-259097Y-224807D01*
X-266768Y-217135D01*
X-266446Y-211806D01*
X-264444Y-209804D01*
X-263028Y-207351D01*
X-262679Y-206050D01*
X-258021D01*
X-257672Y-207351D01*
X-256256Y-209804D01*
X-254254Y-211806D01*
X-251801Y-213222D01*
X-249066Y-213955D01*
X-246234D01*
X-243499Y-213222D01*
X-241046Y-211806D01*
X-239044Y-209804D01*
X-237628Y-207351D01*
X-237300Y-206128D01*
X-232641Y-206128D01*
X-232309Y-207367D01*
X-230888Y-209828D01*
X-228878Y-211838D01*
X-226417Y-213259D01*
X-224790Y-213695D01*
Y-203200D01*
Y-192705D01*
X-226417Y-193141D01*
X-228878Y-194562D01*
X-230888Y-196572D01*
X-232309Y-199033D01*
X-232641Y-200272D01*
X-237300Y-200272D01*
X-237628Y-199049D01*
X-239044Y-196596D01*
X-241046Y-194594D01*
X-243499Y-193178D01*
X-246234Y-192445D01*
X-249066D01*
X-251801Y-193178D01*
X-254254Y-194594D01*
X-256256Y-196596D01*
X-257672Y-199049D01*
X-258021Y-200350D01*
X-262679D01*
X-263028Y-199049D01*
X-264444Y-196596D01*
X-266446Y-194594D01*
X-268899Y-193178D01*
X-271634Y-192445D01*
X-274466D01*
X-277201Y-193178D01*
X-277780Y-193512D01*
X-282273Y-191190D01*
X-282280Y-191182D01*
Y-8015D01*
X-280413Y-6802D01*
X-277780Y-5775D01*
X-276585Y-6270D01*
X-274595D01*
X-272758Y-5509D01*
X-272087Y-4839D01*
X-112453D01*
X-111088Y-4567D01*
X-109930Y-3793D01*
X-102035Y4102D01*
X-97887Y1885D01*
X-97900Y1822D01*
Y-1822D01*
X-97189Y-5396D01*
X-95794Y-8763D01*
X-93770Y-11793D01*
X-91193Y-14370D01*
X-88163Y-16394D01*
X-84796Y-17789D01*
X-81222Y-18500D01*
X-77578D01*
X-74004Y-17789D01*
X-70637Y-16394D01*
X-67607Y-14370D01*
X-65030Y-11793D01*
X-63005Y-8763D01*
X-61611Y-5396D01*
X-60900Y-1822D01*
Y1822D01*
X-61611Y5396D01*
X-63005Y8763D01*
X-65030Y11793D01*
X-67607Y14370D01*
X-68238Y14791D01*
X-66873Y19291D01*
X41702D01*
X45800Y15193D01*
Y14245D01*
X45821Y14195D01*
X46297Y11925D01*
X44381Y8418D01*
X44353Y8402D01*
X42398Y6447D01*
X41016Y4053D01*
X40300Y1382D01*
X35900D01*
X35184Y4053D01*
X33802Y6447D01*
X31847Y8402D01*
X29453Y9784D01*
X26782Y10500D01*
X24018D01*
X21347Y9784D01*
X18953Y8402D01*
X16998Y6447D01*
X15616Y4053D01*
X14900Y1382D01*
X10540Y1388D01*
X9822Y4068D01*
X8434Y6472D01*
X6472Y8434D01*
X4068Y9822D01*
X2540Y10231D01*
Y0D01*
Y-10231D01*
X4068Y-9822D01*
X6472Y-8434D01*
X8434Y-6472D01*
X9822Y-4068D01*
X10540Y-1388D01*
X14900Y-1382D01*
X15616Y-4053D01*
X16998Y-6447D01*
X18953Y-8402D01*
X21347Y-9784D01*
X24018Y-10500D01*
X26782D01*
X29453Y-9784D01*
X31847Y-8402D01*
X33802Y-6447D01*
X35184Y-4053D01*
X35900Y-1382D01*
X40300D01*
X41016Y-4053D01*
X42398Y-6447D01*
X44353Y-8402D01*
X46747Y-9784D01*
X47231Y-9914D01*
Y-16302D01*
X35317Y-28217D01*
X34543Y-29374D01*
X34272Y-30740D01*
Y-53670D01*
X32745Y-54690D01*
X30755D01*
X28918Y-55451D01*
X27511Y-56858D01*
X26750Y-58695D01*
Y-60684D01*
X26532Y-61011D01*
X-100024D01*
X-101389Y-61283D01*
X-102547Y-62057D01*
X-146033Y-105543D01*
X-146807Y-106701D01*
X-147079Y-108066D01*
Y-316022D01*
X-147929Y-316873D01*
X-148703Y-318030D01*
X-148975Y-319396D01*
Y-320133D01*
X-149859Y-321018D01*
X-150620Y-322855D01*
Y-324845D01*
X-149859Y-326682D01*
X-148452Y-328089D01*
X-146615Y-328850D01*
X-144625D01*
X-142788Y-328089D01*
X-142120Y-327421D01*
X-141452Y-328089D01*
X-139614Y-328850D01*
X-137625D01*
X-135788Y-328089D01*
X-135120Y-327421D01*
X-134452Y-328089D01*
X-132614Y-328850D01*
X-130625D01*
X-128788Y-328089D01*
X-127381Y-326682D01*
X-126620Y-324845D01*
Y-322855D01*
X-127381Y-321018D01*
X-128051Y-320348D01*
Y-319230D01*
X-128323Y-317864D01*
X-129097Y-316707D01*
X-129781Y-316022D01*
Y-110698D01*
X-95232Y-76149D01*
X-16950D01*
X-13120Y-78662D01*
Y-80850D01*
X-12644Y-81998D01*
X-13239Y-83801D01*
X-13612Y-84428D01*
X-14000Y-84882D01*
Y-92710D01*
Y-100701D01*
X-13194Y-102000D01*
X-12759Y-103445D01*
X-13120Y-104316D01*
Y-106504D01*
X-12283Y-108525D01*
X-10735Y-110073D01*
X-8714Y-110910D01*
X-6526D01*
X-4505Y-110073D01*
X-3410Y-108979D01*
X-2032D01*
X-1819Y-108936D01*
X1722Y-110294D01*
X3240Y-111303D01*
X3416Y-112188D01*
X-13483Y-129087D01*
X-14257Y-130244D01*
X-14528Y-131610D01*
Y-174582D01*
X-24113Y-184167D01*
X-24887Y-185324D01*
X-25159Y-186690D01*
Y-190100D01*
X-26253Y-191194D01*
X-27090Y-193216D01*
Y-195404D01*
X-26706Y-196331D01*
X-26369Y-198094D01*
X-26962Y-201486D01*
X-27697Y-202586D01*
X-27955Y-203883D01*
Y-208836D01*
X-27697Y-210134D01*
X-27308Y-210717D01*
X-26962Y-211681D01*
Y-215039D01*
X-27308Y-216003D01*
X-27697Y-216586D01*
X-27955Y-217883D01*
Y-222836D01*
X-27697Y-224134D01*
X-26962Y-225234D01*
X-25862Y-225969D01*
X-24564Y-226227D01*
X-23889D01*
Y-249342D01*
X-82435Y-307888D01*
X-83209Y-309046D01*
X-83390Y-309960D01*
X-90800D01*
Y-319960D01*
Y-328960D01*
Y-337960D01*
X-69800D01*
Y-336966D01*
X-68324Y-336258D01*
X-67214Y-336037D01*
X-66057Y-335263D01*
X-65876Y-335083D01*
X-65819Y-335055D01*
X-61340Y-336911D01*
Y-338000D01*
X-53340D01*
Y-332960D01*
X-50800D01*
Y-330420D01*
X-40260D01*
Y-329000D01*
Y-326500D01*
X-50800D01*
Y-321420D01*
X-40260D01*
Y-320000D01*
Y-317500D01*
X-50800D01*
Y-314960D01*
X-53340D01*
Y-309920D01*
X-55939D01*
X-57803Y-305420D01*
X11413Y-236203D01*
X12187Y-235046D01*
X12458Y-233680D01*
Y-226598D01*
X16693Y-225469D01*
X20561Y-228834D01*
Y-231140D01*
X20833Y-232506D01*
X21607Y-233663D01*
X29451Y-241508D01*
Y-306873D01*
X26523Y-309801D01*
X16070D01*
Y-319801D01*
Y-328801D01*
Y-337801D01*
X37070D01*
Y-336369D01*
X38290D01*
X39656Y-336098D01*
X40813Y-335324D01*
X41373Y-334765D01*
X45530Y-336487D01*
Y-337841D01*
X53530D01*
Y-332801D01*
X56070D01*
Y-330261D01*
X66610D01*
Y-328841D01*
Y-326341D01*
X56070D01*
Y-321261D01*
X66610D01*
Y-319841D01*
Y-317341D01*
X56070D01*
Y-314801D01*
X53530D01*
Y-309761D01*
X46749D01*
Y-242778D01*
X55365Y-234161D01*
X56139Y-233004D01*
X56410Y-231638D01*
Y-226208D01*
X57612Y-225969D01*
X58363Y-225467D01*
X59082Y-225234D01*
X60874D01*
X65011Y-228834D01*
Y-235527D01*
X65283Y-236892D01*
X66057Y-238050D01*
X132402Y-304396D01*
X132321Y-304800D01*
Y-309850D01*
X127150D01*
Y-319850D01*
Y-328850D01*
Y-337850D01*
X148150D01*
Y-337076D01*
X149626Y-336368D01*
X150736Y-336147D01*
X151893Y-335373D01*
X152074Y-335193D01*
X152131Y-335165D01*
X156610Y-337021D01*
Y-337890D01*
X164610D01*
Y-332850D01*
X167150D01*
Y-330310D01*
X177690D01*
Y-328890D01*
Y-326390D01*
X167150D01*
Y-321310D01*
X177690D01*
Y-319890D01*
Y-317390D01*
X167150D01*
Y-314850D01*
X164610D01*
Y-309810D01*
X156749D01*
Y-308813D01*
X156477Y-307447D01*
X155703Y-306290D01*
X100089Y-250675D01*
Y-226109D01*
X100792Y-225969D01*
X101892Y-225234D01*
X102627Y-224134D01*
X102885Y-222836D01*
Y-217883D01*
X102627Y-216586D01*
X102238Y-216003D01*
X101892Y-215039D01*
Y-211681D01*
X102238Y-210717D01*
X102627Y-210134D01*
X102885Y-208836D01*
Y-203883D01*
X102627Y-202586D01*
X101892Y-201486D01*
X101299Y-198094D01*
X101636Y-196331D01*
X102020Y-195404D01*
Y-193216D01*
X101183Y-191194D01*
X99635Y-189647D01*
X97614Y-188810D01*
X96067D01*
X93739Y-186482D01*
Y-160228D01*
X112123Y-141843D01*
X112897Y-140686D01*
X113169Y-139320D01*
Y-82353D01*
X112897Y-80988D01*
X112123Y-79830D01*
X95780Y-63487D01*
X94622Y-62713D01*
X93257Y-62442D01*
X78043D01*
X77380Y-62043D01*
X74518Y-58854D01*
Y-58420D01*
X68610D01*
Y-53340D01*
X74564D01*
X74673Y-52707D01*
X76917Y-49842D01*
X78005Y-49127D01*
X79062Y-48689D01*
X80469Y-47282D01*
X81230Y-45445D01*
Y-43455D01*
X80469Y-41618D01*
X79062Y-40211D01*
X77225Y-39450D01*
X75236D01*
X74058Y-39938D01*
X73484Y-39078D01*
X72384Y-38343D01*
X71087Y-38085D01*
X66133D01*
X64836Y-38343D01*
X61386Y-37253D01*
X59875Y-33412D01*
X60110Y-32844D01*
Y-30656D01*
X63756Y-27699D01*
X74930D01*
X76296Y-27427D01*
X77453Y-26653D01*
X78723Y-25383D01*
X79497Y-24226D01*
X79769Y-22860D01*
Y-9914D01*
X80253Y-9784D01*
X82647Y-8402D01*
X84602Y-6447D01*
X85984Y-4053D01*
X86700Y-1382D01*
Y1382D01*
X85984Y4053D01*
X84602Y6447D01*
X82647Y8402D01*
X80253Y9784D01*
X79769Y9914D01*
Y16302D01*
X82890Y19423D01*
X86705Y16874D01*
X86440Y16235D01*
Y14245D01*
X87201Y12408D01*
X88608Y11001D01*
X90445Y10240D01*
X92435D01*
X94272Y11001D01*
X95679Y12408D01*
X96440Y14245D01*
Y15193D01*
X104589Y23343D01*
X231648D01*
Y16094D01*
D02*
G37*
G36*
X612990Y16963D02*
Y15416D01*
X613827Y13395D01*
X615374Y11847D01*
X617396Y11010D01*
X619584D01*
X620029Y11194D01*
X644131Y-12908D01*
Y-96312D01*
X636096Y-104347D01*
X635039Y-104243D01*
X634212Y-103690D01*
X633237Y-103496D01*
X607892D01*
Y-83709D01*
X608759Y-82842D01*
X609520Y-81005D01*
Y-79015D01*
X608759Y-77178D01*
X608089Y-76508D01*
Y-35420D01*
X616860D01*
X616860Y-35420D01*
X620835Y-36689D01*
X621838Y-37359D01*
X623135Y-37617D01*
X629085D01*
X630382Y-37359D01*
X631482Y-36624D01*
X631612Y-36430D01*
X632420Y-36765D01*
X634409D01*
X636247Y-36004D01*
X637654Y-34597D01*
X638415Y-32760D01*
Y-30770D01*
X637654Y-28933D01*
X636247Y-27526D01*
X634409Y-26765D01*
X634088D01*
X631765Y-22966D01*
X631817Y-22248D01*
X631861Y-22129D01*
X632255Y-21540D01*
X632503Y-20290D01*
X626110D01*
Y-17750D01*
X623570D01*
Y-11842D01*
X623135D01*
X621822Y-12103D01*
X620709Y-12847D01*
X619965Y-13960D01*
X619704Y-15273D01*
Y-16042D01*
X616900Y-19380D01*
X615204Y-19380D01*
X613900D01*
Y-23420D01*
X608820D01*
Y-19380D01*
X605820D01*
X605820Y-19380D01*
X602860Y-19420D01*
Y-19420D01*
X591860D01*
Y-19494D01*
X587360Y-19703D01*
X580373Y-12717D01*
X579216Y-11943D01*
X577850Y-11671D01*
X543560D01*
X542194Y-11943D01*
X541037Y-12717D01*
X537473Y-16280D01*
X527340D01*
Y-16280D01*
X522840Y-16333D01*
X522340Y-16280D01*
Y-16280D01*
X510140D01*
X510140Y-16280D01*
X505787Y-15924D01*
X504624Y-15693D01*
X498675D01*
X497378Y-15951D01*
X496278Y-16686D01*
X496148Y-16880D01*
X495340Y-16545D01*
X493350D01*
X491513Y-17306D01*
X490106Y-18713D01*
X489345Y-20550D01*
Y-22540D01*
X490106Y-24377D01*
X491225Y-25496D01*
X491513Y-25784D01*
X491513Y-25784D01*
X493350Y-26545D01*
X495257Y-27167D01*
X495257Y-29625D01*
X495257Y-33020D01*
X495244Y-33084D01*
Y-33881D01*
X490850Y-38293D01*
X475140D01*
X461883Y-25037D01*
X460726Y-24263D01*
X459360Y-23991D01*
X453311D01*
X449180Y-23100D01*
X449180Y-19491D01*
Y-18100D01*
X441640D01*
Y-13020D01*
X449180D01*
Y-8020D01*
X445036D01*
X444182Y-7459D01*
X441548Y-4245D01*
X441548Y-3810D01*
X435640D01*
Y-1270D01*
X433100D01*
Y5123D01*
X431850Y4875D01*
X431261Y4481D01*
X431142Y4437D01*
X430436Y4386D01*
X426655Y6760D01*
Y7030D01*
X425894Y8867D01*
X424487Y10274D01*
X422650Y11035D01*
X420660D01*
X418823Y10274D01*
X417416Y8867D01*
X416655Y7030D01*
Y5040D01*
X416983Y4247D01*
X416766Y4102D01*
X416031Y3002D01*
X415773Y1705D01*
Y-4245D01*
X415511Y-4855D01*
X410771Y-6367D01*
X372402Y32002D01*
X374266Y36502D01*
X593452D01*
X612990Y16963D01*
D02*
G37*
G36*
X382339Y-22327D02*
Y-82378D01*
X382611Y-83743D01*
X383385Y-84901D01*
X397555Y-99072D01*
Y-121369D01*
X394373Y-124551D01*
X393100Y-124551D01*
X393100Y-124551D01*
X393099Y-124551D01*
X393097Y-124551D01*
X393097Y-124551D01*
X392622Y-124646D01*
X392124Y-124745D01*
X392123Y-124746D01*
X392122Y-124746D01*
X391710Y-125022D01*
X391297Y-125297D01*
X391297Y-125299D01*
X391296Y-125299D01*
X391019Y-125714D01*
X390745Y-126124D01*
X390745Y-126124D01*
X390745Y-126126D01*
X390744Y-126127D01*
X390744Y-126127D01*
X390648Y-126612D01*
X390648Y-126612D01*
X390551Y-127100D01*
X390517Y-127102D01*
X386249Y-127098D01*
X386150Y-126605D01*
X386055Y-126125D01*
X386054Y-126124D01*
X386054Y-126122D01*
X385776Y-125707D01*
X385502Y-125298D01*
X385501Y-125297D01*
X385500Y-125296D01*
X385089Y-125021D01*
X384675Y-124745D01*
X384674Y-124745D01*
X384673Y-124744D01*
X384190Y-124649D01*
X383700Y-124551D01*
X367700Y-124551D01*
X367700Y-124551D01*
X367699Y-124551D01*
X367697Y-124551D01*
X367697Y-124551D01*
X367223Y-124646D01*
X366724Y-124745D01*
X366723Y-124746D01*
X366722Y-124746D01*
X366310Y-125022D01*
X365897Y-125297D01*
X365897Y-125299D01*
X365896Y-125299D01*
X365619Y-125714D01*
X365345Y-126124D01*
X365345Y-126124D01*
X365345Y-126126D01*
X365344Y-126127D01*
X365344Y-126127D01*
X365248Y-126612D01*
X365248Y-126612D01*
X365151Y-127100D01*
X365117Y-127102D01*
X360849Y-127098D01*
X360750Y-126605D01*
X360655Y-126125D01*
X360654Y-126124D01*
X360654Y-126122D01*
X360376Y-125707D01*
X360102Y-125298D01*
X360101Y-125297D01*
X360101Y-125296D01*
X359689Y-125021D01*
X359275Y-124745D01*
X359274Y-124745D01*
X359273Y-124744D01*
X358790Y-124649D01*
X358300Y-124551D01*
X353892Y-124551D01*
Y-92513D01*
X353620Y-91148D01*
X352847Y-89990D01*
X333459Y-70602D01*
Y-68442D01*
X335398Y-64375D01*
X337388D01*
X339225Y-63614D01*
X340632Y-62207D01*
X341393Y-60370D01*
Y-60048D01*
X345192Y-57725D01*
X345910Y-57777D01*
X346029Y-57821D01*
X346618Y-58215D01*
X347868Y-58463D01*
Y-52070D01*
X350408D01*
Y-49530D01*
X356316D01*
Y-49096D01*
X356055Y-47782D01*
X355311Y-46669D01*
X354198Y-45925D01*
X353840Y-41573D01*
X355109Y-39603D01*
X360390D01*
X361253Y-40266D01*
X363910Y-42853D01*
Y-44295D01*
X364671Y-46132D01*
X366078Y-47539D01*
X367915Y-48300D01*
X369905D01*
X371742Y-47539D01*
X373149Y-46132D01*
X373910Y-44295D01*
Y-42305D01*
X373411Y-41102D01*
X374082Y-40654D01*
X374817Y-39554D01*
X375075Y-38256D01*
Y-33303D01*
X374817Y-32006D01*
X374450Y-31456D01*
X374110Y-30514D01*
X374417Y-26278D01*
X374461Y-26159D01*
X374855Y-25570D01*
X375116Y-24256D01*
Y-21337D01*
X379003Y-19632D01*
X382339Y-22327D01*
D02*
G37*
G36*
X591860Y-35420D02*
X593331D01*
Y-76508D01*
X592661Y-77178D01*
X591900Y-79015D01*
Y-81005D01*
X592661Y-82842D01*
X593331Y-83512D01*
Y-97582D01*
X586567Y-104347D01*
X585509Y-104243D01*
X584682Y-103690D01*
X583707Y-103496D01*
X543955D01*
X542980Y-103690D01*
X542153Y-104243D01*
X537398Y-108997D01*
X537130Y-109399D01*
X536857Y-109797D01*
X536854Y-109811D01*
X536846Y-109824D01*
X536752Y-110297D01*
X536652Y-110770D01*
X536545Y-119987D01*
X531998Y-123994D01*
X531692Y-123959D01*
Y-102870D01*
X531420Y-101504D01*
X530647Y-100347D01*
X491517Y-61217D01*
X490359Y-60443D01*
X488993Y-60171D01*
X410418D01*
X408699Y-58452D01*
Y-48785D01*
X412856Y-47063D01*
X417847Y-52053D01*
X419004Y-52827D01*
X420370Y-53099D01*
X427670D01*
X429036Y-52827D01*
X430193Y-52053D01*
X439187Y-43060D01*
X444093D01*
X450547Y-49513D01*
X451704Y-50287D01*
X453070Y-50559D01*
X529590D01*
X530956Y-50287D01*
X532113Y-49513D01*
X535963Y-45663D01*
X536737Y-44506D01*
Y-44506D01*
X537930Y-43069D01*
X539630Y-42939D01*
X577850D01*
X579216Y-42667D01*
X580373Y-41893D01*
X587278Y-34989D01*
X591860D01*
Y-35420D01*
D02*
G37*
G36*
X97841Y-90758D02*
Y-134412D01*
X73677Y-158577D01*
X72903Y-159734D01*
X72632Y-161100D01*
Y-185212D01*
X69033Y-188810D01*
X67486D01*
X65465Y-189647D01*
X63917Y-191194D01*
X63080Y-193216D01*
X58840D01*
X58003Y-191194D01*
X56455Y-189647D01*
X54434Y-188810D01*
X53537D01*
X46939Y-182212D01*
Y-168679D01*
X60113Y-155504D01*
X60887Y-154346D01*
X61159Y-152981D01*
Y-108485D01*
X62206Y-108277D01*
X62206Y-108277D01*
X63363Y-107503D01*
X64137Y-106346D01*
X64409Y-104980D01*
X64763Y-104549D01*
X80452D01*
X80860Y-104957D01*
Y-106504D01*
X81697Y-108525D01*
X83244Y-110073D01*
X85266Y-110910D01*
X87454D01*
X89475Y-110073D01*
X91023Y-108525D01*
X91860Y-106504D01*
Y-104316D01*
X91340Y-103060D01*
X91040Y-102000D01*
X91263Y-98111D01*
X92007Y-96998D01*
X92268Y-95684D01*
Y-93209D01*
X96768Y-90282D01*
X97841Y-90758D01*
D02*
G37*
G36*
X702355Y-45848D02*
Y-69450D01*
X701261Y-70545D01*
X700423Y-72566D01*
Y-74754D01*
X701261Y-76775D01*
X702355Y-77870D01*
Y-117594D01*
X697875Y-121418D01*
X696230Y-121148D01*
X695971Y-120388D01*
X695969Y-120381D01*
Y-111252D01*
X695775Y-110276D01*
X695222Y-109450D01*
X690015Y-104243D01*
X689189Y-103690D01*
X688213Y-103496D01*
X660159D01*
Y-10016D01*
X664659Y-8152D01*
X702355Y-45848D01*
D02*
G37*
G36*
X296339Y-25018D02*
X298253Y-28849D01*
X298030Y-29386D01*
Y-31574D01*
X298208Y-32003D01*
X298743Y-34196D01*
X298158Y-37036D01*
X297423Y-38136D01*
X297165Y-39434D01*
Y-44387D01*
X297423Y-45684D01*
X297812Y-46267D01*
X298053Y-46940D01*
X297506Y-48817D01*
X296188Y-50880D01*
X294915D01*
X293078Y-51641D01*
X291671Y-53048D01*
X290910Y-54885D01*
Y-56875D01*
X291671Y-58712D01*
X293078Y-60119D01*
X294915Y-60880D01*
X296905D01*
X297936Y-60453D01*
X298158Y-60784D01*
X299258Y-61519D01*
X300555Y-61777D01*
X306504D01*
X307802Y-61519D01*
X308902Y-60784D01*
X309637Y-59684D01*
X309895Y-58387D01*
Y-53433D01*
X309637Y-52136D01*
X309248Y-51553D01*
X308902Y-50589D01*
Y-47231D01*
X309248Y-46267D01*
X309637Y-45684D01*
X309895Y-44387D01*
Y-40592D01*
X311358Y-39129D01*
X324652D01*
X324927Y-39312D01*
X326321Y-39590D01*
Y-72080D01*
X326593Y-73446D01*
X327367Y-74603D01*
X346755Y-93991D01*
Y-119463D01*
X342661Y-122351D01*
X340343Y-121937D01*
X314943Y-96537D01*
X313786Y-95763D01*
X312420Y-95491D01*
X298215D01*
X297120Y-94397D01*
X295099Y-93560D01*
X292911D01*
X290889Y-94397D01*
X289795Y-95491D01*
X279093D01*
X278422Y-94821D01*
X276585Y-94060D01*
X274595D01*
X272758Y-94821D01*
X271351Y-96228D01*
X270590Y-98065D01*
Y-100055D01*
X271351Y-101892D01*
X272758Y-103299D01*
X274595Y-104060D01*
X276585D01*
X278422Y-103299D01*
X279093Y-102629D01*
X289795D01*
X290889Y-103723D01*
X292911Y-104560D01*
X295099D01*
X297120Y-103723D01*
X298215Y-102629D01*
X310942D01*
X319523Y-111210D01*
X319698Y-116461D01*
X318937Y-118299D01*
Y-120051D01*
X318895Y-120374D01*
X317801Y-122664D01*
X316553Y-124459D01*
X316255Y-124679D01*
X315924Y-124745D01*
X315923Y-124746D01*
X315922Y-124746D01*
X315510Y-125022D01*
X315098Y-125297D01*
X315097Y-125299D01*
X315096Y-125299D01*
X314819Y-125714D01*
X314545Y-126124D01*
X314545Y-126126D01*
X314544Y-126127D01*
X314544Y-126127D01*
X314448Y-126612D01*
X314351Y-127100D01*
Y-127100D01*
X314258Y-127102D01*
X310090Y-127098D01*
X309991Y-126602D01*
X309893Y-126109D01*
X309892Y-126108D01*
X309891Y-126107D01*
X309609Y-125685D01*
X309331Y-125269D01*
X309330Y-125268D01*
X309329Y-125267D01*
X308911Y-124988D01*
X308491Y-124707D01*
X308490Y-124707D01*
X308489Y-124706D01*
X307993Y-124608D01*
X307500Y-124510D01*
X302063Y-124510D01*
Y-151075D01*
Y-161357D01*
X302770Y-161168D01*
X302923Y-161092D01*
X303091Y-161059D01*
X304060Y-160658D01*
X304202Y-160563D01*
X304363Y-160508D01*
X305272Y-159984D01*
X305400Y-159871D01*
X305554Y-159795D01*
X306386Y-159157D01*
X306498Y-159029D01*
X306640Y-158933D01*
X307382Y-158192D01*
X307477Y-158050D01*
X307605Y-157937D01*
X308244Y-157105D01*
X308319Y-156952D01*
X308432Y-156824D01*
X308957Y-155915D01*
X309011Y-155753D01*
X309106Y-155611D01*
X309508Y-154642D01*
X309541Y-154475D01*
X309617Y-154322D01*
X309888Y-153309D01*
X309899Y-153138D01*
X309954Y-152976D01*
X309974Y-152821D01*
X314513Y-152821D01*
X314533Y-152971D01*
X314587Y-153130D01*
X314598Y-153298D01*
X314869Y-154311D01*
X314944Y-154462D01*
X314977Y-154627D01*
X315378Y-155596D01*
X315471Y-155736D01*
X315525Y-155895D01*
X316050Y-156803D01*
X316161Y-156929D01*
X316235Y-157080D01*
X316873Y-157912D01*
X317000Y-158023D01*
X317093Y-158163D01*
X317835Y-158904D01*
X317974Y-158998D01*
X318085Y-159124D01*
X318917Y-159762D01*
X319068Y-159837D01*
X319195Y-159948D01*
X320103Y-160472D01*
X320262Y-160526D01*
X320402Y-160619D01*
X321371Y-161021D01*
X321536Y-161053D01*
X321686Y-161128D01*
X322699Y-161399D01*
X322867Y-161410D01*
X323026Y-161464D01*
X324066Y-161601D01*
X324234Y-161590D01*
X324399Y-161623D01*
X324922Y-161623D01*
X325447Y-161623D01*
X325612Y-161590D01*
X325779Y-161601D01*
X326819Y-161464D01*
X326978Y-161410D01*
X327146Y-161399D01*
X328159Y-161128D01*
X328310Y-161054D01*
X328475Y-161021D01*
X329444Y-160620D01*
X329584Y-160526D01*
X329743Y-160472D01*
X329928Y-160366D01*
X332516Y-160385D01*
X335002Y-161359D01*
X335369Y-161630D01*
X341362Y-167623D01*
X342520Y-168397D01*
X343886Y-168669D01*
X362123D01*
X363489Y-168397D01*
X364646Y-167623D01*
X371519Y-160751D01*
X372171Y-161021D01*
X372336Y-161053D01*
X372486Y-161128D01*
X373499Y-161399D01*
X373667Y-161410D01*
X373826Y-161464D01*
X374866Y-161601D01*
X375034Y-161590D01*
X375199Y-161623D01*
X375723Y-161623D01*
X376247Y-161623D01*
X376412Y-161590D01*
X376579Y-161601D01*
X377619Y-161464D01*
X377778Y-161410D01*
X377946Y-161399D01*
X378959Y-161128D01*
X379110Y-161054D01*
X379275Y-161021D01*
X380244Y-160620D01*
X380384Y-160526D01*
X380543Y-160472D01*
X381451Y-159948D01*
X381578Y-159837D01*
X381729Y-159763D01*
X382561Y-159124D01*
X382672Y-158998D01*
X382812Y-158905D01*
X383553Y-158163D01*
X383647Y-158023D01*
X383773Y-157912D01*
X384412Y-157080D01*
X384486Y-156930D01*
X384597Y-156803D01*
X385121Y-155895D01*
X385175Y-155736D01*
X385269Y-155596D01*
X385670Y-154627D01*
X385703Y-154462D01*
X385777Y-154311D01*
X386049Y-153298D01*
X386059Y-153130D01*
X386114Y-152971D01*
X386154Y-152664D01*
X390693Y-152664D01*
X390733Y-152971D01*
X390787Y-153130D01*
X390798Y-153298D01*
X391069Y-154311D01*
X391144Y-154462D01*
X391177Y-154627D01*
X391578Y-155596D01*
X391671Y-155736D01*
X391725Y-155895D01*
X392250Y-156803D01*
X392360Y-156929D01*
X392435Y-157080D01*
X393073Y-157912D01*
X393200Y-158023D01*
X393293Y-158163D01*
X394035Y-158904D01*
X394174Y-158998D01*
X394285Y-159124D01*
X395117Y-159762D01*
X395268Y-159837D01*
X395395Y-159948D01*
X396303Y-160472D01*
X396462Y-160526D01*
X396602Y-160619D01*
X397571Y-161021D01*
X397736Y-161053D01*
X397886Y-161128D01*
X398899Y-161399D01*
X399067Y-161410D01*
X399226Y-161464D01*
X400266Y-161601D01*
X400434Y-161590D01*
X400599Y-161623D01*
X401123Y-161623D01*
X401647Y-161623D01*
X401812Y-161590D01*
X401979Y-161601D01*
X403019Y-161464D01*
X403178Y-161410D01*
X403346Y-161399D01*
X404359Y-161128D01*
X404510Y-161054D01*
X404675Y-161021D01*
X405644Y-160620D01*
X405784Y-160526D01*
X405943Y-160472D01*
X406851Y-159948D01*
X406978Y-159837D01*
X407129Y-159763D01*
X407961Y-159124D01*
X408072Y-158998D01*
X408212Y-158905D01*
X408953Y-158163D01*
X409047Y-158023D01*
X409173Y-157912D01*
X409812Y-157080D01*
X409886Y-156930D01*
X409997Y-156803D01*
X410521Y-155895D01*
X410575Y-155736D01*
X410669Y-155596D01*
X411070Y-154627D01*
X411103Y-154462D01*
X411177Y-154311D01*
X411449Y-153298D01*
X411460Y-153130D01*
X411513Y-152971D01*
X411533Y-152821D01*
X416072Y-152821D01*
X416092Y-152976D01*
X416147Y-153138D01*
X416159Y-153309D01*
X416430Y-154322D01*
X416506Y-154475D01*
X416539Y-154642D01*
X416940Y-155611D01*
X417035Y-155753D01*
X417090Y-155915D01*
X417614Y-156823D01*
X417727Y-156952D01*
X417803Y-157105D01*
X418441Y-157937D01*
X418569Y-158050D01*
X418664Y-158192D01*
X419406Y-158933D01*
X419548Y-159028D01*
X419660Y-159156D01*
X420493Y-159795D01*
X420646Y-159870D01*
X420774Y-159983D01*
X421682Y-160507D01*
X421844Y-160562D01*
X421986Y-160657D01*
X422955Y-161058D01*
X423123Y-161092D01*
X423276Y-161167D01*
X423983Y-161357D01*
Y-151075D01*
X429063D01*
Y-161357D01*
X429770Y-161168D01*
X429923Y-161092D01*
X430091Y-161059D01*
X431060Y-160658D01*
X431202Y-160563D01*
X431363Y-160508D01*
X432272Y-159984D01*
X432400Y-159871D01*
X432554Y-159795D01*
X433386Y-159157D01*
X433498Y-159029D01*
X433640Y-158933D01*
X434382Y-158192D01*
X434477Y-158050D01*
X434605Y-157937D01*
X435244Y-157105D01*
X435319Y-156952D01*
X435432Y-156824D01*
X435956Y-155915D01*
X436011Y-155753D01*
X436106Y-155611D01*
X436508Y-154642D01*
X436541Y-154475D01*
X436617Y-154322D01*
X436888Y-153309D01*
X436899Y-153138D01*
X436954Y-152976D01*
X436974Y-152821D01*
X441513Y-152821D01*
X441533Y-152971D01*
X441587Y-153130D01*
X441598Y-153298D01*
X441869Y-154311D01*
X441944Y-154462D01*
X441977Y-154627D01*
X442378Y-155596D01*
X442471Y-155736D01*
X442525Y-155895D01*
X443050Y-156803D01*
X443161Y-156929D01*
X443235Y-157080D01*
X443873Y-157912D01*
X444000Y-158023D01*
X444093Y-158163D01*
X444835Y-158904D01*
X444974Y-158998D01*
X445085Y-159124D01*
X445917Y-159762D01*
X446068Y-159837D01*
X446195Y-159948D01*
X447103Y-160472D01*
X447262Y-160526D01*
X447402Y-160619D01*
X448371Y-161021D01*
X448536Y-161053D01*
X448686Y-161128D01*
X449699Y-161399D01*
X449867Y-161410D01*
X450026Y-161464D01*
X451066Y-161601D01*
X451234Y-161590D01*
X451399Y-161623D01*
X451922Y-161623D01*
X452447Y-161623D01*
X452612Y-161590D01*
X452779Y-161601D01*
X453819Y-161464D01*
X453978Y-161410D01*
X454146Y-161399D01*
X455159Y-161128D01*
X455310Y-161054D01*
X455475Y-161021D01*
X456444Y-160620D01*
X456584Y-160526D01*
X456743Y-160472D01*
X457651Y-159948D01*
X457778Y-159837D01*
X457929Y-159763D01*
X458761Y-159124D01*
X458872Y-158998D01*
X459011Y-158905D01*
X459753Y-158163D01*
X459847Y-158023D01*
X459973Y-157912D01*
X460611Y-157080D01*
X460686Y-156930D01*
X460797Y-156803D01*
X461321Y-155895D01*
X461375Y-155736D01*
X461469Y-155596D01*
X461870Y-154627D01*
X461903Y-154462D01*
X461977Y-154311D01*
X462248Y-153298D01*
X462259Y-153130D01*
X462313Y-152971D01*
X462354Y-152664D01*
X466893Y-152664D01*
X466933Y-152971D01*
X466987Y-153130D01*
X466998Y-153298D01*
X467269Y-154311D01*
X467344Y-154462D01*
X467377Y-154627D01*
X467778Y-155596D01*
X467871Y-155736D01*
X467925Y-155895D01*
X468450Y-156803D01*
X468560Y-156929D01*
X468635Y-157080D01*
X469273Y-157912D01*
X469400Y-158023D01*
X469493Y-158163D01*
X470235Y-158904D01*
X470374Y-158998D01*
X470485Y-159124D01*
X471317Y-159762D01*
X471468Y-159837D01*
X471595Y-159948D01*
X472503Y-160472D01*
X472662Y-160526D01*
X472802Y-160619D01*
X473771Y-161021D01*
X473936Y-161053D01*
X474086Y-161128D01*
X475099Y-161399D01*
X475267Y-161410D01*
X475426Y-161464D01*
X476466Y-161601D01*
X476634Y-161590D01*
X476799Y-161623D01*
X477323Y-161623D01*
X477847Y-161623D01*
X478012Y-161590D01*
X478179Y-161601D01*
X479219Y-161464D01*
X479378Y-161410D01*
X479546Y-161399D01*
X480559Y-161128D01*
X480710Y-161054D01*
X480875Y-161021D01*
X481844Y-160620D01*
X481984Y-160526D01*
X482143Y-160472D01*
X483051Y-159948D01*
X483178Y-159837D01*
X483329Y-159763D01*
X484161Y-159124D01*
X484272Y-158998D01*
X484412Y-158905D01*
X485153Y-158163D01*
X485247Y-158023D01*
X485373Y-157912D01*
X486012Y-157080D01*
X486086Y-156930D01*
X486197Y-156803D01*
X486721Y-155895D01*
X486775Y-155736D01*
X486869Y-155596D01*
X487270Y-154627D01*
X487303Y-154462D01*
X487377Y-154311D01*
X487649Y-153298D01*
X487659Y-153130D01*
X487714Y-152971D01*
X487754Y-152664D01*
X492293Y-152664D01*
X492333Y-152971D01*
X492387Y-153130D01*
X492398Y-153298D01*
X492669Y-154311D01*
X492744Y-154462D01*
X492777Y-154627D01*
X493178Y-155596D01*
X493271Y-155736D01*
X493325Y-155895D01*
X493850Y-156803D01*
X493960Y-156929D01*
X494035Y-157080D01*
X494673Y-157912D01*
X494800Y-158023D01*
X494893Y-158163D01*
X495635Y-158904D01*
X495774Y-158998D01*
X495885Y-159124D01*
X496717Y-159762D01*
X496868Y-159837D01*
X496995Y-159948D01*
X497903Y-160472D01*
X498062Y-160526D01*
X498202Y-160619D01*
X499171Y-161021D01*
X499336Y-161053D01*
X499486Y-161128D01*
X500499Y-161399D01*
X500667Y-161410D01*
X500826Y-161464D01*
X501866Y-161601D01*
X502034Y-161590D01*
X502199Y-161623D01*
X502723Y-161623D01*
X503247Y-161623D01*
X503412Y-161590D01*
X503579Y-161601D01*
X504619Y-161464D01*
X504778Y-161410D01*
X504946Y-161399D01*
X505959Y-161128D01*
X506110Y-161054D01*
X506275Y-161021D01*
X507244Y-160620D01*
X507384Y-160526D01*
X507543Y-160472D01*
X508451Y-159948D01*
X508578Y-159837D01*
X508729Y-159763D01*
X509561Y-159124D01*
X509672Y-158998D01*
X509812Y-158905D01*
X510553Y-158163D01*
X510647Y-158023D01*
X510773Y-157912D01*
X511412Y-157080D01*
X511486Y-156930D01*
X511597Y-156803D01*
X512121Y-155895D01*
X512175Y-155736D01*
X512269Y-155596D01*
X512670Y-154627D01*
X512703Y-154462D01*
X512777Y-154311D01*
X513049Y-153298D01*
X513060Y-153130D01*
X513114Y-152971D01*
X513154Y-152664D01*
X517693Y-152664D01*
X517733Y-152971D01*
X517787Y-153130D01*
X517798Y-153298D01*
X518069Y-154311D01*
X518144Y-154462D01*
X518177Y-154627D01*
X518578Y-155596D01*
X518671Y-155736D01*
X518725Y-155895D01*
X519250Y-156803D01*
X519361Y-156929D01*
X519435Y-157080D01*
X520073Y-157912D01*
X520200Y-158023D01*
X520293Y-158163D01*
X521035Y-158904D01*
X521174Y-158998D01*
X521285Y-159124D01*
X522117Y-159762D01*
X522268Y-159837D01*
X522395Y-159948D01*
X523303Y-160472D01*
X523462Y-160526D01*
X523602Y-160619D01*
X524571Y-161021D01*
X524736Y-161053D01*
X524886Y-161128D01*
X525899Y-161399D01*
X526067Y-161410D01*
X526226Y-161464D01*
X527266Y-161601D01*
X527434Y-161590D01*
X527599Y-161623D01*
X528122Y-161623D01*
X528647Y-161623D01*
X528812Y-161590D01*
X528979Y-161601D01*
X530019Y-161464D01*
X530178Y-161410D01*
X530346Y-161399D01*
X531359Y-161128D01*
X531510Y-161054D01*
X531567Y-161043D01*
X531677Y-161022D01*
X534779Y-162499D01*
X536034Y-163884D01*
X534273Y-315134D01*
X533392Y-316421D01*
X530818Y-318221D01*
X530228Y-318417D01*
X529734Y-318448D01*
X528981Y-318349D01*
X528813Y-318360D01*
X528648Y-318327D01*
X528124Y-318327D01*
X527600Y-318327D01*
X527435Y-318360D01*
X527267Y-318349D01*
X526228Y-318485D01*
X526068Y-318539D01*
X525900Y-318550D01*
X524887Y-318821D01*
X524737Y-318896D01*
X524571Y-318929D01*
X523603Y-319330D01*
X523463Y-319423D01*
X523304Y-319477D01*
X522395Y-320001D01*
X522269Y-320112D01*
X522118Y-320187D01*
X521286Y-320825D01*
X521175Y-320951D01*
X521035Y-321045D01*
X520294Y-321786D01*
X520200Y-321926D01*
X520074Y-322037D01*
X519435Y-322869D01*
X519361Y-323020D01*
X519250Y-323146D01*
X518726Y-324055D01*
X518672Y-324214D01*
X518578Y-324354D01*
X518177Y-325323D01*
X518144Y-325488D01*
X518070Y-325639D01*
X517798Y-326651D01*
X517787Y-326819D01*
X517733Y-326979D01*
X517693Y-327285D01*
X513154Y-327285D01*
X513114Y-326978D01*
X513060Y-326819D01*
X513049Y-326651D01*
X512777Y-325639D01*
X512703Y-325488D01*
X512670Y-325323D01*
X512269Y-324354D01*
X512175Y-324214D01*
X512121Y-324055D01*
X511597Y-323147D01*
X511486Y-323020D01*
X511412Y-322869D01*
X510773Y-322038D01*
X510647Y-321927D01*
X510554Y-321787D01*
X509812Y-321045D01*
X509672Y-320952D01*
X509561Y-320826D01*
X508729Y-320187D01*
X508579Y-320113D01*
X508452Y-320002D01*
X507544Y-319478D01*
X507385Y-319424D01*
X507245Y-319330D01*
X506276Y-318929D01*
X506111Y-318896D01*
X505960Y-318822D01*
X504947Y-318550D01*
X504780Y-318539D01*
X504620Y-318485D01*
X503581Y-318349D01*
X503413Y-318360D01*
X503248Y-318327D01*
X502724Y-318327D01*
X502200Y-318327D01*
X502035Y-318360D01*
X501867Y-318349D01*
X500828Y-318485D01*
X500668Y-318539D01*
X500500Y-318550D01*
X499487Y-318821D01*
X499337Y-318896D01*
X499171Y-318929D01*
X498203Y-319330D01*
X498063Y-319423D01*
X497904Y-319477D01*
X496995Y-320001D01*
X496869Y-320112D01*
X496718Y-320187D01*
X495886Y-320825D01*
X495775Y-320951D01*
X495635Y-321045D01*
X494894Y-321786D01*
X494800Y-321926D01*
X494674Y-322037D01*
X494035Y-322869D01*
X493961Y-323020D01*
X493850Y-323146D01*
X493326Y-324055D01*
X493272Y-324214D01*
X493178Y-324354D01*
X492777Y-325323D01*
X492744Y-325488D01*
X492670Y-325639D01*
X492398Y-326651D01*
X492387Y-326819D01*
X492333Y-326979D01*
X492293Y-327285D01*
X487754Y-327285D01*
X487714Y-326978D01*
X487660Y-326819D01*
X487649Y-326651D01*
X487377Y-325639D01*
X487303Y-325488D01*
X487270Y-325323D01*
X486869Y-324354D01*
X486775Y-324214D01*
X486721Y-324055D01*
X486197Y-323147D01*
X486086Y-323020D01*
X486012Y-322869D01*
X485373Y-322038D01*
X485247Y-321927D01*
X485154Y-321787D01*
X484412Y-321045D01*
X484272Y-320952D01*
X484161Y-320826D01*
X483329Y-320187D01*
X483179Y-320113D01*
X483052Y-320002D01*
X482144Y-319478D01*
X481985Y-319424D01*
X481845Y-319330D01*
X480876Y-318929D01*
X480711Y-318896D01*
X480560Y-318822D01*
X479547Y-318550D01*
X479380Y-318539D01*
X479220Y-318485D01*
X478181Y-318349D01*
X478013Y-318360D01*
X477848Y-318327D01*
X477324Y-318327D01*
X476800Y-318327D01*
X476635Y-318360D01*
X476467Y-318349D01*
X475428Y-318485D01*
X475268Y-318539D01*
X475100Y-318550D01*
X474087Y-318821D01*
X473937Y-318896D01*
X473772Y-318929D01*
X472803Y-319330D01*
X472663Y-319423D01*
X472504Y-319477D01*
X471595Y-320001D01*
X471469Y-320112D01*
X471318Y-320187D01*
X470486Y-320825D01*
X470375Y-320951D01*
X470235Y-321045D01*
X469494Y-321786D01*
X469400Y-321926D01*
X469274Y-322037D01*
X468635Y-322869D01*
X468561Y-323020D01*
X468450Y-323146D01*
X467926Y-324055D01*
X467872Y-324214D01*
X467778Y-324354D01*
X467377Y-325323D01*
X467344Y-325488D01*
X467270Y-325639D01*
X466998Y-326651D01*
X466987Y-326819D01*
X466933Y-326979D01*
X466893Y-327285D01*
X462354Y-327285D01*
X462314Y-326978D01*
X462260Y-326819D01*
X462249Y-326651D01*
X461977Y-325639D01*
X461903Y-325488D01*
X461870Y-325323D01*
X461469Y-324354D01*
X461375Y-324214D01*
X461321Y-324055D01*
X460797Y-323147D01*
X460686Y-323020D01*
X460612Y-322869D01*
X459973Y-322038D01*
X459847Y-321927D01*
X459754Y-321787D01*
X459012Y-321045D01*
X458872Y-320952D01*
X458761Y-320826D01*
X457929Y-320187D01*
X457779Y-320113D01*
X457652Y-320002D01*
X456744Y-319478D01*
X456585Y-319424D01*
X456445Y-319330D01*
X455476Y-318929D01*
X455311Y-318896D01*
X455160Y-318822D01*
X454147Y-318550D01*
X453980Y-318539D01*
X453820Y-318485D01*
X452781Y-318349D01*
X452613Y-318360D01*
X452448Y-318327D01*
X451924Y-318327D01*
X451400Y-318327D01*
X451235Y-318360D01*
X451067Y-318349D01*
X450028Y-318485D01*
X449868Y-318539D01*
X449700Y-318550D01*
X448687Y-318821D01*
X448536Y-318896D01*
X448372Y-318929D01*
X447403Y-319330D01*
X447263Y-319423D01*
X447104Y-319477D01*
X446195Y-320001D01*
X446069Y-320112D01*
X445918Y-320187D01*
X445086Y-320825D01*
X444975Y-320951D01*
X444835Y-321045D01*
X444094Y-321786D01*
X444000Y-321926D01*
X443874Y-322037D01*
X443235Y-322869D01*
X443161Y-323020D01*
X443050Y-323146D01*
X442526Y-324055D01*
X442472Y-324214D01*
X442378Y-324354D01*
X441977Y-325323D01*
X441944Y-325488D01*
X441870Y-325639D01*
X441598Y-326651D01*
X441587Y-326819D01*
X441533Y-326979D01*
X441513Y-327129D01*
X436975Y-327129D01*
X436954Y-326973D01*
X436899Y-326811D01*
X436888Y-326641D01*
X436617Y-325628D01*
X436541Y-325475D01*
X436508Y-325307D01*
X436106Y-324338D01*
X436012Y-324196D01*
X435957Y-324035D01*
X435432Y-323126D01*
X435320Y-322998D01*
X435244Y-322845D01*
X434606Y-322013D01*
X434477Y-321900D01*
X434382Y-321758D01*
X433641Y-321017D01*
X433499Y-320922D01*
X433386Y-320793D01*
X432554Y-320155D01*
X432401Y-320079D01*
X432272Y-319967D01*
X431364Y-319442D01*
X431203Y-319387D01*
X431060Y-319293D01*
X430092Y-318891D01*
X429924Y-318858D01*
X429771Y-318782D01*
X429063Y-318593D01*
Y-328875D01*
Y-355439D01*
X434547Y-355439D01*
X434547Y-355439D01*
X434548Y-355439D01*
X434549Y-355439D01*
X434550Y-355439D01*
X435027Y-355344D01*
X435538Y-355242D01*
X435539Y-355242D01*
X435540Y-355241D01*
X435953Y-354965D01*
X436378Y-354681D01*
X436379Y-354680D01*
X436380Y-354679D01*
X436655Y-354267D01*
X436939Y-353841D01*
X436940Y-353841D01*
X436940Y-353839D01*
X436940Y-353839D01*
X436940Y-353838D01*
X437037Y-353353D01*
X437037Y-353353D01*
X437137Y-352850D01*
X437230Y-352847D01*
X441398Y-352852D01*
X441496Y-353345D01*
X441592Y-353825D01*
X441593Y-353826D01*
X441593Y-353827D01*
X441871Y-354243D01*
X442144Y-354652D01*
X442146Y-354653D01*
X442146Y-354654D01*
X442558Y-354928D01*
X442614Y-354966D01*
X443213Y-355795D01*
X443986Y-357697D01*
X443998Y-357752D01*
X444045Y-359898D01*
X432862Y-371081D01*
X383540D01*
X383221Y-371145D01*
X379292Y-368279D01*
Y-358581D01*
X382474Y-355399D01*
X383747Y-355399D01*
X383747Y-355399D01*
X383748Y-355398D01*
X383749Y-355399D01*
X383750Y-355399D01*
X384224Y-355304D01*
X384722Y-355205D01*
X384723Y-355204D01*
X384725Y-355204D01*
X385137Y-354927D01*
X385549Y-354652D01*
X385550Y-354651D01*
X385551Y-354650D01*
X385827Y-354236D01*
X386102Y-353825D01*
X386102Y-353825D01*
X386102Y-353824D01*
X386103Y-353823D01*
X386103Y-353823D01*
X386199Y-353337D01*
X386199Y-353337D01*
X386296Y-352850D01*
X386330Y-352847D01*
X390598Y-352852D01*
X390696Y-353345D01*
X390792Y-353825D01*
X390793Y-353826D01*
X390793Y-353827D01*
X391071Y-354243D01*
X391344Y-354652D01*
X391345Y-354653D01*
X391346Y-354654D01*
X391758Y-354928D01*
X392171Y-355205D01*
X392173Y-355205D01*
X392174Y-355205D01*
X392657Y-355301D01*
X393147Y-355398D01*
X409147Y-355399D01*
X409147Y-355399D01*
X409148Y-355398D01*
X409149Y-355399D01*
X409150Y-355399D01*
X409624Y-355304D01*
X410122Y-355205D01*
X410123Y-355204D01*
X410125Y-355204D01*
X410537Y-354927D01*
X410949Y-354652D01*
X410950Y-354651D01*
X410951Y-354650D01*
X411227Y-354236D01*
X411502Y-353825D01*
X411502Y-353825D01*
X411502Y-353824D01*
X411503Y-353823D01*
X411503Y-353823D01*
X411599Y-353337D01*
X411599Y-353337D01*
X411696Y-352850D01*
X411789Y-352847D01*
X415957Y-352852D01*
X416056Y-353347D01*
X416154Y-353841D01*
X416155Y-353842D01*
X416155Y-353843D01*
X416438Y-354265D01*
X416716Y-354681D01*
X416717Y-354682D01*
X416717Y-354683D01*
X417136Y-354961D01*
X417556Y-355242D01*
X417557Y-355242D01*
X417558Y-355243D01*
X418054Y-355341D01*
X418547Y-355439D01*
X423983Y-355439D01*
Y-328875D01*
Y-318593D01*
X423277Y-318782D01*
X423124Y-318858D01*
X422956Y-318891D01*
X421987Y-319292D01*
X421845Y-319387D01*
X421683Y-319442D01*
X420775Y-319966D01*
X420646Y-320079D01*
X420493Y-320154D01*
X419661Y-320793D01*
X419548Y-320921D01*
X419406Y-321016D01*
X418665Y-321758D01*
X418570Y-321900D01*
X418441Y-322012D01*
X417803Y-322844D01*
X417727Y-322998D01*
X417615Y-323126D01*
X417090Y-324034D01*
X417035Y-324196D01*
X416940Y-324338D01*
X416539Y-325307D01*
X416506Y-325475D01*
X416430Y-325628D01*
X416159Y-326641D01*
X416148Y-326811D01*
X416093Y-326973D01*
X416072Y-327129D01*
X411534Y-327129D01*
X411514Y-326978D01*
X411460Y-326819D01*
X411449Y-326651D01*
X411177Y-325639D01*
X411103Y-325488D01*
X411070Y-325323D01*
X410669Y-324354D01*
X410575Y-324214D01*
X410521Y-324055D01*
X409997Y-323147D01*
X409886Y-323020D01*
X409812Y-322869D01*
X409173Y-322038D01*
X409047Y-321927D01*
X408954Y-321787D01*
X408212Y-321045D01*
X408072Y-320952D01*
X407961Y-320826D01*
X407129Y-320187D01*
X406979Y-320113D01*
X406852Y-320002D01*
X405944Y-319478D01*
X405785Y-319424D01*
X405645Y-319330D01*
X404676Y-318929D01*
X404511Y-318896D01*
X404360Y-318822D01*
X403347Y-318550D01*
X403180Y-318539D01*
X403020Y-318485D01*
X401981Y-318349D01*
X401813Y-318360D01*
X401648Y-318327D01*
X401124Y-318327D01*
X400844Y-318327D01*
X393242Y-310725D01*
X392084Y-309951D01*
X390718Y-309680D01*
X370012D01*
X368646Y-309951D01*
X367488Y-310725D01*
X360697Y-317517D01*
X360493Y-317822D01*
X360469Y-317846D01*
X360128Y-318154D01*
X358709Y-318913D01*
X355321Y-319580D01*
X355144Y-319478D01*
X354985Y-319424D01*
X354845Y-319330D01*
X353876Y-318929D01*
X353711Y-318896D01*
X353560Y-318822D01*
X352547Y-318550D01*
X352380Y-318539D01*
X352220Y-318485D01*
X351181Y-318349D01*
X351013Y-318360D01*
X350848Y-318327D01*
X350324Y-318327D01*
X349800Y-318327D01*
X349635Y-318360D01*
X349467Y-318349D01*
X348428Y-318485D01*
X348268Y-318539D01*
X348100Y-318550D01*
X347087Y-318821D01*
X346936Y-318896D01*
X346772Y-318929D01*
X345818Y-319323D01*
X341472Y-314977D01*
X340314Y-314203D01*
X338949Y-313931D01*
X331393D01*
X330423Y-313181D01*
X328059Y-310000D01*
X328059Y-309431D01*
Y-170000D01*
X327826Y-168829D01*
X327163Y-167837D01*
X326171Y-167174D01*
X325000Y-166941D01*
X235000D01*
X233829Y-167174D01*
X232837Y-167837D01*
X232174Y-168829D01*
X231941Y-170000D01*
Y-310000D01*
X232174Y-311171D01*
X232837Y-312163D01*
X233829Y-312826D01*
X235000Y-313059D01*
X309261D01*
X311124Y-317559D01*
X310336Y-318347D01*
X309577Y-318896D01*
X307009Y-320423D01*
X305273Y-319967D01*
X304364Y-319442D01*
X304203Y-319387D01*
X304060Y-319293D01*
X303092Y-318891D01*
X302924Y-318858D01*
X302771Y-318782D01*
X302063Y-318593D01*
Y-328875D01*
X296983D01*
Y-318593D01*
X296277Y-318782D01*
X296124Y-318858D01*
X295956Y-318891D01*
X294987Y-319292D01*
X294845Y-319387D01*
X294683Y-319442D01*
X293775Y-319966D01*
X293646Y-320079D01*
X293493Y-320154D01*
X292661Y-320793D01*
X292548Y-320921D01*
X292406Y-321016D01*
X291665Y-321758D01*
X291570Y-321900D01*
X291441Y-322012D01*
X290803Y-322844D01*
X290727Y-322998D01*
X290615Y-323126D01*
X290090Y-324034D01*
X290035Y-324196D01*
X289940Y-324338D01*
X289539Y-325307D01*
X289506Y-325475D01*
X289430Y-325628D01*
X289159Y-326641D01*
X289148Y-326811D01*
X289093Y-326973D01*
X289072Y-327129D01*
X284534Y-327129D01*
X284514Y-326978D01*
X284460Y-326819D01*
X284449Y-326651D01*
X284177Y-325639D01*
X284103Y-325488D01*
X284070Y-325323D01*
X283669Y-324354D01*
X283575Y-324214D01*
X283521Y-324055D01*
X282997Y-323147D01*
X282886Y-323020D01*
X282812Y-322869D01*
X282173Y-322038D01*
X282047Y-321927D01*
X281954Y-321787D01*
X281212Y-321045D01*
X281072Y-320952D01*
X280961Y-320826D01*
X280129Y-320187D01*
X279979Y-320113D01*
X279852Y-320002D01*
X278944Y-319478D01*
X278785Y-319424D01*
X278645Y-319330D01*
X277676Y-318929D01*
X277511Y-318896D01*
X277360Y-318822D01*
X276347Y-318550D01*
X276180Y-318539D01*
X276020Y-318485D01*
X274981Y-318349D01*
X274813Y-318360D01*
X274648Y-318327D01*
X274124Y-318327D01*
X273600Y-318327D01*
X273599Y-318327D01*
X249248D01*
X249248Y-318327D01*
X248724Y-318327D01*
X248200Y-318327D01*
X248035Y-318360D01*
X247867Y-318349D01*
X246828Y-318485D01*
X246668Y-318539D01*
X246500Y-318550D01*
X245487Y-318821D01*
X245336Y-318896D01*
X245172Y-318929D01*
X244203Y-319330D01*
X244063Y-319423D01*
X243904Y-319477D01*
X242995Y-320001D01*
X242869Y-320112D01*
X242718Y-320187D01*
X241886Y-320825D01*
X241775Y-320951D01*
X241635Y-321045D01*
X240894Y-321786D01*
X240800Y-321926D01*
X240674Y-322037D01*
X240072Y-322821D01*
X233888D01*
X223279Y-312212D01*
Y-91648D01*
X237037Y-77890D01*
X238584D01*
X240606Y-77053D01*
X242153Y-75505D01*
X242990Y-73484D01*
Y-71937D01*
X290578Y-24348D01*
X295617D01*
X296339Y-25018D01*
D02*
G37*
G36*
X727755Y-65591D02*
Y-91237D01*
X726857Y-92135D01*
X726020Y-94156D01*
Y-96344D01*
X726857Y-98365D01*
X727755Y-99263D01*
Y-121369D01*
X724573Y-124551D01*
X723300Y-124551D01*
X723300Y-124551D01*
X723299Y-124551D01*
X723297Y-124551D01*
X723297Y-124551D01*
X722822Y-124646D01*
X722324Y-124745D01*
X722323Y-124746D01*
X722322Y-124746D01*
X721910Y-125022D01*
X721497Y-125297D01*
X721497Y-125299D01*
X721496Y-125299D01*
X721219Y-125714D01*
X720945Y-126124D01*
X720945Y-126124D01*
X720945Y-126126D01*
X720944Y-126127D01*
X720944Y-126127D01*
X720848Y-126612D01*
X720848Y-126612D01*
X720751Y-127100D01*
X720717Y-127102D01*
X716449Y-127098D01*
X716350Y-126605D01*
X716255Y-126125D01*
X716254Y-126124D01*
X716254Y-126122D01*
X715976Y-125707D01*
X715702Y-125298D01*
X715701Y-125297D01*
X715701Y-125296D01*
X715289Y-125021D01*
X714875Y-124745D01*
X714874Y-124745D01*
X714873Y-124744D01*
X714390Y-124649D01*
X713900Y-124551D01*
X709492Y-124551D01*
Y-77870D01*
X710586Y-76775D01*
X711423Y-74754D01*
Y-72566D01*
X710586Y-70545D01*
X709492Y-69450D01*
Y-53208D01*
X713649Y-51486D01*
X727755Y-65591D01*
D02*
G37*
G36*
X693420Y-111252D02*
Y-209265D01*
X692173Y-210223D01*
X690930Y-211842D01*
X690150Y-213727D01*
X689883Y-215750D01*
X690150Y-217773D01*
X690930Y-219658D01*
X692173Y-221277D01*
X693420Y-222234D01*
Y-230306D01*
X693354Y-230319D01*
X691535Y-231535D01*
X690319Y-233354D01*
X689892Y-235500D01*
Y-244500D01*
X690319Y-246646D01*
X691535Y-248465D01*
X693354Y-249681D01*
X693420Y-249694D01*
Y-257766D01*
X692173Y-258723D01*
X690930Y-260342D01*
X690150Y-262227D01*
X689883Y-264250D01*
X690150Y-266273D01*
X690930Y-268158D01*
X692173Y-269777D01*
X693420Y-270735D01*
Y-351790D01*
X691913Y-353297D01*
X691094Y-352859D01*
X691096Y-352850D01*
X691096Y-352848D01*
X691096Y-352847D01*
X691072Y-328873D01*
X691072Y-328872D01*
X691072Y-328351D01*
X691040Y-328186D01*
X691051Y-328018D01*
X690914Y-326978D01*
X690860Y-326819D01*
X690849Y-326651D01*
X690577Y-325639D01*
X690503Y-325488D01*
X690470Y-325323D01*
X690069Y-324354D01*
X689975Y-324214D01*
X689921Y-324055D01*
X689397Y-323147D01*
X689286Y-323020D01*
X689212Y-322869D01*
X688573Y-322038D01*
X688447Y-321927D01*
X688354Y-321787D01*
X687612Y-321045D01*
X687472Y-320952D01*
X687361Y-320826D01*
X686529Y-320187D01*
X686379Y-320113D01*
X686252Y-320002D01*
X685344Y-319478D01*
X685185Y-319424D01*
X685045Y-319330D01*
X684076Y-318929D01*
X683911Y-318896D01*
X683760Y-318822D01*
X682747Y-318550D01*
X682580Y-318539D01*
X682420Y-318485D01*
X681381Y-318349D01*
X681213Y-318360D01*
X681048Y-318327D01*
X680524Y-318327D01*
X680000Y-318327D01*
X679835Y-318360D01*
X679667Y-318349D01*
X678628Y-318485D01*
X678468Y-318539D01*
X678300Y-318550D01*
X677287Y-318821D01*
X677137Y-318896D01*
X676972Y-318929D01*
X676003Y-319330D01*
X675863Y-319423D01*
X675704Y-319477D01*
X674795Y-320001D01*
X674669Y-320112D01*
X674518Y-320187D01*
X673686Y-320825D01*
X673575Y-320951D01*
X673435Y-321045D01*
X672694Y-321786D01*
X672600Y-321926D01*
X672474Y-322037D01*
X671835Y-322869D01*
X671761Y-323020D01*
X671650Y-323146D01*
X671126Y-324055D01*
X671072Y-324214D01*
X670978Y-324354D01*
X670577Y-325323D01*
X670544Y-325488D01*
X670470Y-325639D01*
X670198Y-326651D01*
X670187Y-326819D01*
X670133Y-326979D01*
X669996Y-328018D01*
X670007Y-328186D01*
X669975Y-328351D01*
X669975Y-328876D01*
X669975Y-328876D01*
X669975Y-328877D01*
X669998Y-352852D01*
X670096Y-353345D01*
X670192Y-353825D01*
X670193Y-353826D01*
X670193Y-353827D01*
X670471Y-354243D01*
X670744Y-354652D01*
X670745Y-354653D01*
X670746Y-354654D01*
X671158Y-354928D01*
X671571Y-355205D01*
X671573Y-355205D01*
X671574Y-355205D01*
X672057Y-355301D01*
X672547Y-355398D01*
X688547Y-355399D01*
X688548Y-355398D01*
X688549Y-355399D01*
X688555Y-355397D01*
X688994Y-356216D01*
X688099Y-357111D01*
X663702D01*
X662336Y-357383D01*
X661179Y-358157D01*
X658655Y-360680D01*
X635572D01*
X635460Y-360512D01*
Y-358308D01*
X635018Y-357241D01*
Y-356068D01*
X635647Y-355439D01*
X637747Y-355439D01*
X637748Y-355439D01*
X637749Y-355439D01*
X638227Y-355344D01*
X638738Y-355242D01*
X638739Y-355242D01*
X638740Y-355241D01*
X639153Y-354965D01*
X639578Y-354681D01*
X639579Y-354680D01*
X639580Y-354679D01*
X639855Y-354267D01*
X640139Y-353841D01*
X640140Y-353839D01*
X640141Y-353838D01*
X640237Y-353353D01*
X640337Y-352850D01*
X640336Y-352848D01*
X640337Y-352847D01*
X640316Y-331415D01*
X629723D01*
X619136D01*
X619157Y-352852D01*
X619256Y-353347D01*
X619354Y-353841D01*
X619355Y-353842D01*
X619355Y-353843D01*
X619638Y-354265D01*
X619916Y-354681D01*
X619917Y-354682D01*
X619917Y-354683D01*
X620336Y-354961D01*
X620756Y-355242D01*
X620757Y-355242D01*
X620758Y-355243D01*
X621254Y-355341D01*
X621747Y-355439D01*
X624822Y-355439D01*
Y-357241D01*
X624380Y-358308D01*
Y-360512D01*
X624268Y-360680D01*
X605648D01*
X605308Y-359859D01*
X606847Y-358320D01*
X607620Y-357162D01*
X607892Y-355797D01*
X608290Y-355399D01*
X612347Y-355399D01*
X612348Y-355398D01*
X612349Y-355399D01*
X612824Y-355304D01*
X613322Y-355205D01*
X613323Y-355204D01*
X613325Y-355204D01*
X613737Y-354927D01*
X614149Y-354652D01*
X614150Y-354651D01*
X614151Y-354650D01*
X614427Y-354236D01*
X614702Y-353825D01*
X614702Y-353824D01*
X614703Y-353823D01*
X614799Y-353337D01*
X614896Y-352850D01*
X614896Y-352848D01*
X614896Y-352847D01*
X614872Y-328873D01*
X614872Y-328872D01*
X614872Y-328351D01*
X614840Y-328186D01*
X614851Y-328018D01*
X614714Y-326978D01*
X614660Y-326819D01*
X614649Y-326651D01*
X614377Y-325639D01*
X614303Y-325488D01*
X614270Y-325323D01*
X613869Y-324354D01*
X613775Y-324214D01*
X613721Y-324055D01*
X613197Y-323147D01*
X613086Y-323020D01*
X613012Y-322869D01*
X612373Y-322038D01*
X612247Y-321927D01*
X612154Y-321787D01*
X611412Y-321045D01*
X611272Y-320952D01*
X611161Y-320826D01*
X610329Y-320187D01*
X610179Y-320113D01*
X610052Y-320002D01*
X609144Y-319478D01*
X608985Y-319424D01*
X608845Y-319330D01*
X607876Y-318929D01*
X607711Y-318896D01*
X607560Y-318822D01*
X606547Y-318550D01*
X606380Y-318539D01*
X606220Y-318485D01*
X605181Y-318349D01*
X605013Y-318360D01*
X604848Y-318327D01*
X604324Y-318327D01*
X603800Y-318327D01*
X603635Y-318360D01*
X603467Y-318349D01*
X602428Y-318485D01*
X602268Y-318539D01*
X602100Y-318550D01*
X601087Y-318821D01*
X600937Y-318896D01*
X600771Y-318929D01*
X599803Y-319330D01*
X599663Y-319423D01*
X599504Y-319477D01*
X598595Y-320001D01*
X598469Y-320112D01*
X598318Y-320187D01*
X597486Y-320825D01*
X597375Y-320951D01*
X597235Y-321045D01*
X596494Y-321786D01*
X596400Y-321926D01*
X596274Y-322037D01*
X595635Y-322869D01*
X595561Y-323020D01*
X595450Y-323146D01*
X594926Y-324055D01*
X594872Y-324214D01*
X594778Y-324354D01*
X594377Y-325323D01*
X594344Y-325488D01*
X594270Y-325639D01*
X593998Y-326651D01*
X593987Y-326819D01*
X593933Y-326979D01*
X593797Y-328018D01*
X593807Y-328186D01*
X593775Y-328351D01*
X593775Y-328876D01*
X593775Y-328876D01*
X593775Y-328877D01*
X593798Y-352852D01*
X593896Y-353345D01*
X593992Y-353825D01*
X593993Y-353826D01*
X593993Y-353827D01*
X594271Y-354243D01*
X594544Y-354652D01*
X594546Y-354653D01*
X594546Y-354654D01*
X594958Y-354928D01*
X595371Y-355205D01*
X595373Y-355205D01*
X595374Y-355205D01*
X595857Y-355301D01*
X596347Y-355398D01*
X598513Y-355398D01*
X598853Y-356220D01*
X594393Y-360680D01*
X578688D01*
X577674Y-360260D01*
X575486D01*
X574720Y-360578D01*
X574246Y-360428D01*
X573999Y-359418D01*
X578018Y-355399D01*
X586947Y-355399D01*
X586948Y-355398D01*
X586949Y-355399D01*
X587424Y-355304D01*
X587922Y-355205D01*
X587923Y-355204D01*
X587925Y-355204D01*
X588337Y-354927D01*
X588749Y-354652D01*
X588750Y-354651D01*
X588751Y-354650D01*
X589027Y-354236D01*
X589302Y-353825D01*
X589302Y-353824D01*
X589303Y-353823D01*
X589399Y-353337D01*
X589496Y-352850D01*
X589496Y-352848D01*
X589496Y-352847D01*
X589472Y-328873D01*
X589472Y-328872D01*
X589472Y-328351D01*
X589440Y-328186D01*
X589451Y-328018D01*
X589314Y-326978D01*
X589260Y-326819D01*
X589249Y-326651D01*
X588977Y-325639D01*
X588903Y-325488D01*
X588870Y-325323D01*
X588469Y-324354D01*
X588375Y-324214D01*
X588321Y-324055D01*
X587797Y-323147D01*
X587686Y-323020D01*
X587612Y-322869D01*
X586973Y-322038D01*
X586847Y-321927D01*
X586754Y-321787D01*
X586012Y-321045D01*
X585872Y-320952D01*
X585761Y-320826D01*
X584929Y-320187D01*
X584779Y-320113D01*
X584652Y-320002D01*
X583744Y-319478D01*
X583585Y-319424D01*
X583445Y-319330D01*
X582476Y-318929D01*
X582311Y-318896D01*
X582160Y-318822D01*
X581147Y-318550D01*
X580980Y-318539D01*
X580820Y-318485D01*
X579781Y-318349D01*
X579613Y-318360D01*
X579448Y-318327D01*
X578924Y-318327D01*
X578400Y-318327D01*
X578235Y-318360D01*
X578067Y-318349D01*
X577028Y-318485D01*
X576868Y-318539D01*
X576700Y-318550D01*
X575687Y-318821D01*
X575536Y-318896D01*
X575372Y-318929D01*
X574403Y-319330D01*
X574263Y-319423D01*
X574104Y-319477D01*
X573195Y-320001D01*
X573069Y-320112D01*
X572918Y-320187D01*
X572086Y-320825D01*
X571975Y-320951D01*
X571835Y-321045D01*
X571094Y-321786D01*
X571000Y-321926D01*
X570874Y-322037D01*
X570235Y-322869D01*
X570161Y-323020D01*
X570050Y-323146D01*
X569526Y-324055D01*
X569472Y-324214D01*
X569378Y-324354D01*
X568977Y-325323D01*
X568944Y-325488D01*
X568870Y-325639D01*
X568598Y-326651D01*
X568587Y-326819D01*
X568533Y-326979D01*
X568396Y-328018D01*
X568408Y-328186D01*
X568375Y-328351D01*
X568375Y-328876D01*
X568375Y-328876D01*
X568375Y-328877D01*
X568398Y-352852D01*
X568496Y-353345D01*
X568592Y-353825D01*
X568593Y-353826D01*
X568593Y-353827D01*
X568871Y-354243D01*
X568955Y-354368D01*
X564942Y-358381D01*
X545848D01*
X544482Y-358653D01*
X543381Y-359389D01*
X538227Y-354236D01*
X538502Y-353825D01*
X538502Y-353824D01*
X538503Y-353823D01*
X538599Y-353337D01*
X538696Y-352850D01*
X538696Y-352848D01*
X538696Y-352847D01*
X538672Y-328873D01*
X538672Y-328872D01*
X538672Y-328351D01*
X538640Y-328186D01*
X538651Y-328018D01*
X538514Y-326978D01*
X538460Y-326819D01*
X538449Y-326651D01*
X538177Y-325639D01*
X538103Y-325488D01*
X538070Y-325323D01*
X537669Y-324354D01*
X537575Y-324214D01*
X537521Y-324055D01*
X536997Y-323147D01*
X536886Y-323020D01*
X536812Y-322869D01*
X536734Y-322767D01*
X539201Y-110799D01*
X543955Y-106045D01*
X583707D01*
X584047Y-106866D01*
X576597Y-114317D01*
X575823Y-115474D01*
X575551Y-116840D01*
Y-123922D01*
X574923Y-124551D01*
X570900Y-124551D01*
X570899Y-124551D01*
X570897Y-124551D01*
X570423Y-124646D01*
X569924Y-124745D01*
X569923Y-124746D01*
X569922Y-124746D01*
X569510Y-125022D01*
X569098Y-125297D01*
X569097Y-125299D01*
X569096Y-125299D01*
X568819Y-125714D01*
X568545Y-126124D01*
X568545Y-126126D01*
X568544Y-126127D01*
X568448Y-126612D01*
X568351Y-127100D01*
X568351Y-127101D01*
X568351Y-127102D01*
X568374Y-151077D01*
X568374Y-151077D01*
X568374Y-151599D01*
X568407Y-151764D01*
X568396Y-151931D01*
X568533Y-152971D01*
X568587Y-153130D01*
X568598Y-153298D01*
X568869Y-154311D01*
X568944Y-154462D01*
X568977Y-154627D01*
X569378Y-155596D01*
X569471Y-155736D01*
X569525Y-155895D01*
X570050Y-156803D01*
X570160Y-156929D01*
X570235Y-157080D01*
X570873Y-157912D01*
X571000Y-158023D01*
X571093Y-158163D01*
X571835Y-158904D01*
X571974Y-158998D01*
X572085Y-159124D01*
X572917Y-159762D01*
X573068Y-159837D01*
X573195Y-159948D01*
X574103Y-160472D01*
X574262Y-160526D01*
X574402Y-160619D01*
X575371Y-161021D01*
X575536Y-161053D01*
X575686Y-161128D01*
X576699Y-161399D01*
X576867Y-161410D01*
X577026Y-161464D01*
X578066Y-161601D01*
X578234Y-161590D01*
X578399Y-161623D01*
X578923Y-161623D01*
X579447Y-161623D01*
X579612Y-161590D01*
X579779Y-161601D01*
X580819Y-161464D01*
X580978Y-161410D01*
X581146Y-161399D01*
X582159Y-161128D01*
X582310Y-161054D01*
X582475Y-161021D01*
X583444Y-160620D01*
X583584Y-160526D01*
X583743Y-160472D01*
X584651Y-159948D01*
X584778Y-159837D01*
X584929Y-159763D01*
X585761Y-159124D01*
X585872Y-158998D01*
X586012Y-158905D01*
X586753Y-158163D01*
X586847Y-158023D01*
X586973Y-157912D01*
X587612Y-157080D01*
X587686Y-156930D01*
X587797Y-156803D01*
X588321Y-155895D01*
X588375Y-155736D01*
X588469Y-155596D01*
X588870Y-154627D01*
X588903Y-154462D01*
X588977Y-154311D01*
X589249Y-153298D01*
X589259Y-153130D01*
X589314Y-152971D01*
X589450Y-151931D01*
X589439Y-151763D01*
X589472Y-151598D01*
X589472Y-151074D01*
X589472Y-151073D01*
X589472Y-151072D01*
X589449Y-127098D01*
X589350Y-126605D01*
X589255Y-126125D01*
X589254Y-126124D01*
X589254Y-126122D01*
X588976Y-125707D01*
X588702Y-125298D01*
X588701Y-125297D01*
X588700Y-125296D01*
X588289Y-125021D01*
X587875Y-124745D01*
X587874Y-124745D01*
X587873Y-124744D01*
X587390Y-124649D01*
X586900Y-124551D01*
X582689Y-124551D01*
Y-118318D01*
X594962Y-106045D01*
X600755D01*
Y-123922D01*
X600126Y-124551D01*
X596300Y-124551D01*
X596299Y-124551D01*
X596297Y-124551D01*
X595822Y-124646D01*
X595324Y-124745D01*
X595323Y-124746D01*
X595322Y-124746D01*
X594910Y-125022D01*
X594497Y-125297D01*
X594497Y-125299D01*
X594496Y-125299D01*
X594219Y-125714D01*
X593945Y-126124D01*
X593945Y-126126D01*
X593944Y-126127D01*
X593848Y-126612D01*
X593751Y-127100D01*
X593751Y-127101D01*
X593751Y-127102D01*
X593774Y-151077D01*
X593774Y-151077D01*
X593774Y-151599D01*
X593807Y-151764D01*
X593796Y-151931D01*
X593933Y-152971D01*
X593987Y-153130D01*
X593998Y-153298D01*
X594269Y-154311D01*
X594344Y-154462D01*
X594377Y-154627D01*
X594778Y-155596D01*
X594871Y-155736D01*
X594925Y-155895D01*
X595450Y-156803D01*
X595560Y-156929D01*
X595635Y-157080D01*
X596273Y-157912D01*
X596400Y-158023D01*
X596493Y-158163D01*
X597235Y-158904D01*
X597374Y-158998D01*
X597485Y-159124D01*
X598317Y-159762D01*
X598468Y-159837D01*
X598595Y-159948D01*
X599503Y-160472D01*
X599662Y-160526D01*
X599802Y-160619D01*
X600771Y-161021D01*
X600936Y-161053D01*
X601086Y-161128D01*
X602099Y-161399D01*
X602267Y-161410D01*
X602426Y-161464D01*
X603466Y-161601D01*
X603634Y-161590D01*
X603799Y-161623D01*
X604323Y-161623D01*
X604847Y-161623D01*
X605012Y-161590D01*
X605179Y-161601D01*
X606219Y-161464D01*
X606378Y-161410D01*
X606546Y-161399D01*
X607559Y-161128D01*
X607710Y-161054D01*
X607875Y-161021D01*
X608844Y-160620D01*
X608984Y-160526D01*
X609143Y-160472D01*
X610051Y-159948D01*
X610178Y-159837D01*
X610329Y-159763D01*
X611161Y-159124D01*
X611272Y-158998D01*
X611412Y-158905D01*
X612153Y-158163D01*
X612247Y-158023D01*
X612373Y-157912D01*
X613012Y-157080D01*
X613086Y-156930D01*
X613197Y-156803D01*
X613721Y-155895D01*
X613775Y-155736D01*
X613869Y-155596D01*
X614270Y-154627D01*
X614303Y-154462D01*
X614377Y-154311D01*
X614649Y-153298D01*
X614660Y-153130D01*
X614714Y-152971D01*
X614850Y-151931D01*
X614839Y-151763D01*
X614872Y-151598D01*
X614872Y-151074D01*
X614872Y-151073D01*
X614872Y-151072D01*
X614849Y-127098D01*
X614750Y-126605D01*
X614655Y-126125D01*
X614654Y-126124D01*
X614654Y-126122D01*
X614376Y-125707D01*
X614102Y-125298D01*
X614101Y-125297D01*
X614100Y-125296D01*
X613689Y-125021D01*
X613275Y-124745D01*
X613274Y-124745D01*
X613273Y-124744D01*
X612790Y-124649D01*
X612300Y-124551D01*
X607892Y-124551D01*
Y-106045D01*
X633237D01*
X633577Y-106866D01*
X628667Y-111777D01*
X627893Y-112934D01*
X627621Y-114300D01*
Y-123922D01*
X626993Y-124551D01*
X621700Y-124551D01*
X621699Y-124551D01*
X621697Y-124551D01*
X621222Y-124646D01*
X620724Y-124745D01*
X620723Y-124746D01*
X620722Y-124746D01*
X620310Y-125022D01*
X619897Y-125297D01*
X619897Y-125299D01*
X619896Y-125299D01*
X619619Y-125714D01*
X619345Y-126124D01*
X619345Y-126126D01*
X619344Y-126127D01*
X619248Y-126612D01*
X619151Y-127100D01*
X619151Y-127101D01*
X619151Y-127102D01*
X619174Y-151077D01*
X619174Y-151077D01*
X619174Y-151599D01*
X619207Y-151764D01*
X619196Y-151931D01*
X619333Y-152971D01*
X619387Y-153130D01*
X619398Y-153298D01*
X619669Y-154311D01*
X619744Y-154462D01*
X619777Y-154627D01*
X620178Y-155596D01*
X620271Y-155736D01*
X620325Y-155895D01*
X620850Y-156803D01*
X620961Y-156929D01*
X621035Y-157080D01*
X621673Y-157912D01*
X621800Y-158023D01*
X621893Y-158163D01*
X622635Y-158904D01*
X622774Y-158998D01*
X622885Y-159124D01*
X623717Y-159762D01*
X623868Y-159837D01*
X623995Y-159948D01*
X624903Y-160472D01*
X625062Y-160526D01*
X625202Y-160619D01*
X626171Y-161021D01*
X626336Y-161053D01*
X626486Y-161128D01*
X627499Y-161399D01*
X627667Y-161410D01*
X627826Y-161464D01*
X628866Y-161601D01*
X629034Y-161590D01*
X629199Y-161623D01*
X629723Y-161623D01*
X630247Y-161623D01*
X630412Y-161590D01*
X630579Y-161601D01*
X631619Y-161464D01*
X631778Y-161410D01*
X631946Y-161399D01*
X632959Y-161128D01*
X633110Y-161054D01*
X633275Y-161021D01*
X634244Y-160620D01*
X634384Y-160526D01*
X634543Y-160472D01*
X635451Y-159948D01*
X635578Y-159837D01*
X635729Y-159763D01*
X636561Y-159124D01*
X636672Y-158998D01*
X636811Y-158905D01*
X637553Y-158163D01*
X637647Y-158023D01*
X637773Y-157912D01*
X638411Y-157080D01*
X638486Y-156930D01*
X638597Y-156803D01*
X639121Y-155895D01*
X639175Y-155736D01*
X639269Y-155596D01*
X639670Y-154627D01*
X639703Y-154462D01*
X639777Y-154311D01*
X640049Y-153298D01*
X640060Y-153130D01*
X640114Y-152971D01*
X640250Y-151931D01*
X640239Y-151763D01*
X640272Y-151598D01*
X640272Y-151074D01*
X640272Y-151073D01*
X640272Y-151072D01*
X640249Y-127098D01*
X640150Y-126605D01*
X640055Y-126125D01*
X640054Y-126124D01*
X640054Y-126122D01*
X639776Y-125707D01*
X639502Y-125298D01*
X639501Y-125297D01*
X639501Y-125296D01*
X639089Y-125021D01*
X638675Y-124745D01*
X638674Y-124745D01*
X638673Y-124744D01*
X638190Y-124649D01*
X637700Y-124551D01*
X634759Y-124551D01*
Y-115778D01*
X644492Y-106045D01*
X653021D01*
Y-123922D01*
X652393Y-124551D01*
X647100Y-124551D01*
X647099Y-124551D01*
X647097Y-124551D01*
X646622Y-124646D01*
X646124Y-124745D01*
X646123Y-124746D01*
X646122Y-124746D01*
X645710Y-125022D01*
X645297Y-125297D01*
X645297Y-125299D01*
X645296Y-125299D01*
X645019Y-125714D01*
X644745Y-126124D01*
X644745Y-126126D01*
X644744Y-126127D01*
X644648Y-126612D01*
X644551Y-127100D01*
X644551Y-127101D01*
X644551Y-127102D01*
X644574Y-151077D01*
X644574Y-151077D01*
X644574Y-151599D01*
X644607Y-151764D01*
X644596Y-151931D01*
X644733Y-152971D01*
X644787Y-153130D01*
X644798Y-153298D01*
X645069Y-154311D01*
X645144Y-154462D01*
X645177Y-154627D01*
X645578Y-155596D01*
X645671Y-155736D01*
X645725Y-155895D01*
X646250Y-156803D01*
X646360Y-156929D01*
X646435Y-157080D01*
X647073Y-157912D01*
X647200Y-158023D01*
X647293Y-158163D01*
X648035Y-158904D01*
X648174Y-158998D01*
X648285Y-159124D01*
X649117Y-159762D01*
X649268Y-159837D01*
X649395Y-159948D01*
X650303Y-160472D01*
X650462Y-160526D01*
X650602Y-160619D01*
X651571Y-161021D01*
X651736Y-161053D01*
X651886Y-161128D01*
X652899Y-161399D01*
X653067Y-161410D01*
X653226Y-161464D01*
X654266Y-161601D01*
X654434Y-161590D01*
X654599Y-161623D01*
X655123Y-161623D01*
X655647Y-161623D01*
X655812Y-161590D01*
X655979Y-161601D01*
X657019Y-161464D01*
X657178Y-161410D01*
X657346Y-161399D01*
X658359Y-161128D01*
X658510Y-161054D01*
X658675Y-161021D01*
X659644Y-160620D01*
X659784Y-160526D01*
X659943Y-160472D01*
X660851Y-159948D01*
X660978Y-159837D01*
X661129Y-159763D01*
X661961Y-159124D01*
X662072Y-158998D01*
X662212Y-158905D01*
X662953Y-158163D01*
X663047Y-158023D01*
X663173Y-157912D01*
X663811Y-157080D01*
X663886Y-156930D01*
X663997Y-156803D01*
X664521Y-155895D01*
X664575Y-155736D01*
X664669Y-155596D01*
X665070Y-154627D01*
X665103Y-154462D01*
X665177Y-154311D01*
X665449Y-153298D01*
X665460Y-153130D01*
X665514Y-152971D01*
X665650Y-151931D01*
X665639Y-151763D01*
X665672Y-151598D01*
X665672Y-151074D01*
X665672Y-151073D01*
X665672Y-151072D01*
X665649Y-127098D01*
X665550Y-126605D01*
X665455Y-126125D01*
X665454Y-126124D01*
X665454Y-126122D01*
X665176Y-125707D01*
X664902Y-125298D01*
X664901Y-125297D01*
X664901Y-125296D01*
X664489Y-125021D01*
X664075Y-124745D01*
X664074Y-124745D01*
X664073Y-124744D01*
X663590Y-124649D01*
X663100Y-124551D01*
X660159Y-124551D01*
Y-106045D01*
X688213D01*
X693420Y-111252D01*
D02*
G37*
G36*
X710000Y56941D02*
X712421D01*
X717222Y56309D01*
X721900Y55056D01*
X726374Y53203D01*
X730567Y50781D01*
X734409Y47834D01*
X737834Y44409D01*
X740781Y40567D01*
X743203Y36374D01*
X745056Y31900D01*
X746309Y27222D01*
X746941Y22421D01*
X746941Y20000D01*
Y-218270D01*
X743145Y-220538D01*
X741050Y-219451D01*
X740563Y-217008D01*
X740815Y-216100D01*
X741150Y-215290D01*
X730000D01*
X718850D01*
X719477Y-216805D01*
X720766Y-218484D01*
X721299Y-218894D01*
X722462Y-219843D01*
X723319Y-223354D01*
X722892Y-225500D01*
Y-234500D01*
X723319Y-236646D01*
X724535Y-238465D01*
Y-241535D01*
X723319Y-243354D01*
X722892Y-245500D01*
Y-254500D01*
X723319Y-256646D01*
X722462Y-260157D01*
X721299Y-261106D01*
X720766Y-261516D01*
X719477Y-263195D01*
X718850Y-264710D01*
X730000D01*
X741150D01*
X740815Y-263900D01*
X740563Y-262992D01*
X741050Y-260549D01*
X743145Y-259462D01*
X746941Y-261730D01*
Y-392808D01*
X746116Y-393450D01*
X742212Y-395708D01*
X741385Y-395155D01*
X740410Y-394961D01*
X736667D01*
X736090Y-390700D01*
X736090Y-390461D01*
Y-387898D01*
X736672Y-387316D01*
X736672Y-387316D01*
X737875Y-385749D01*
X738630Y-383924D01*
X738888Y-381967D01*
X738888Y-381966D01*
Y-359731D01*
X739349Y-355399D01*
X739349Y-355399D01*
X739824Y-355304D01*
X740322Y-355205D01*
X740323Y-355204D01*
X740325Y-355204D01*
X740737Y-354927D01*
X741149Y-354652D01*
X741150Y-354651D01*
X741151Y-354650D01*
X741427Y-354236D01*
X741702Y-353825D01*
X741702Y-353824D01*
X741703Y-353823D01*
X741703Y-353823D01*
X741799Y-353337D01*
X741896Y-352850D01*
X741896Y-352850D01*
X741896Y-352848D01*
X741896Y-352847D01*
X741896Y-352847D01*
X741895Y-351954D01*
X741872Y-328873D01*
X741872Y-328872D01*
X741872Y-328351D01*
X741840Y-328186D01*
X741851Y-328018D01*
X741714Y-326978D01*
X741660Y-326819D01*
X741649Y-326651D01*
X741377Y-325639D01*
X741303Y-325488D01*
X741270Y-325323D01*
X740869Y-324354D01*
X740775Y-324214D01*
X740721Y-324055D01*
X740197Y-323147D01*
X740086Y-323020D01*
X740012Y-322869D01*
X739373Y-322038D01*
X739247Y-321927D01*
X739154Y-321787D01*
X738412Y-321045D01*
X738272Y-320952D01*
X738161Y-320826D01*
X737329Y-320187D01*
X737179Y-320113D01*
X737052Y-320002D01*
X736144Y-319478D01*
X735985Y-319424D01*
X735845Y-319330D01*
X734876Y-318929D01*
X734711Y-318896D01*
X734560Y-318822D01*
X733547Y-318550D01*
X733380Y-318539D01*
X733220Y-318485D01*
X732181Y-318349D01*
X732013Y-318360D01*
X731848Y-318327D01*
X731324Y-318327D01*
X730800Y-318327D01*
X730635Y-318360D01*
X730467Y-318349D01*
X729428Y-318485D01*
X729268Y-318539D01*
X729100Y-318550D01*
X728087Y-318821D01*
X727936Y-318896D01*
X727772Y-318929D01*
X726803Y-319330D01*
X726663Y-319423D01*
X726504Y-319477D01*
X725595Y-320001D01*
X725469Y-320112D01*
X725318Y-320187D01*
X724486Y-320825D01*
X724375Y-320951D01*
X724235Y-321045D01*
X723494Y-321786D01*
X723400Y-321926D01*
X723274Y-322037D01*
X722635Y-322869D01*
X722561Y-323020D01*
X722450Y-323146D01*
X721926Y-324055D01*
X721872Y-324214D01*
X721778Y-324354D01*
X721377Y-325323D01*
X721344Y-325488D01*
X721270Y-325639D01*
X720998Y-326651D01*
X720987Y-326819D01*
X720933Y-326979D01*
X720893Y-327285D01*
X716354Y-327285D01*
X716314Y-326978D01*
X716260Y-326819D01*
X716249Y-326651D01*
X715977Y-325639D01*
X715903Y-325488D01*
X715870Y-325323D01*
X715469Y-324354D01*
X715375Y-324214D01*
X715321Y-324055D01*
X714797Y-323147D01*
X714686Y-323020D01*
X714612Y-322869D01*
X713973Y-322038D01*
X713847Y-321927D01*
X713754Y-321787D01*
X713012Y-321045D01*
X712872Y-320952D01*
X712761Y-320826D01*
X711929Y-320187D01*
X711779Y-320113D01*
X711652Y-320002D01*
X710744Y-319478D01*
X710585Y-319424D01*
X710445Y-319330D01*
X709476Y-318929D01*
X709311Y-318896D01*
X709160Y-318822D01*
X708147Y-318550D01*
X707980Y-318539D01*
X707820Y-318485D01*
X706781Y-318349D01*
X706613Y-318360D01*
X706448Y-318327D01*
X705924Y-318327D01*
X705400Y-318327D01*
X705235Y-318360D01*
X705067Y-318349D01*
X704028Y-318485D01*
X703868Y-318539D01*
X703700Y-318550D01*
X702687Y-318821D01*
X702536Y-318896D01*
X702372Y-318929D01*
X701403Y-319330D01*
X701263Y-319423D01*
X701104Y-319477D01*
X700469Y-319843D01*
X698391Y-319306D01*
X696406Y-318161D01*
X695969Y-317726D01*
Y-273625D01*
X697160Y-272581D01*
Y-264250D01*
Y-255919D01*
X695969Y-254875D01*
Y-250149D01*
X697460D01*
Y-240000D01*
Y-229851D01*
X695969D01*
Y-225125D01*
X697160Y-224081D01*
Y-215750D01*
Y-207419D01*
X695969Y-206375D01*
Y-162223D01*
X696404Y-161790D01*
X698390Y-160644D01*
X700469Y-160106D01*
X701103Y-160472D01*
X701262Y-160526D01*
X701402Y-160619D01*
X702371Y-161021D01*
X702536Y-161053D01*
X702686Y-161128D01*
X703699Y-161399D01*
X703867Y-161410D01*
X704026Y-161464D01*
X705066Y-161601D01*
X705234Y-161590D01*
X705399Y-161623D01*
X705922Y-161623D01*
X706447Y-161623D01*
X706612Y-161590D01*
X706779Y-161601D01*
X707819Y-161464D01*
X707978Y-161410D01*
X708146Y-161399D01*
X709159Y-161128D01*
X709310Y-161054D01*
X709475Y-161021D01*
X710444Y-160620D01*
X710584Y-160526D01*
X710743Y-160472D01*
X711651Y-159948D01*
X711778Y-159837D01*
X711929Y-159763D01*
X712761Y-159124D01*
X712872Y-158998D01*
X713011Y-158905D01*
X713753Y-158163D01*
X713847Y-158023D01*
X713973Y-157912D01*
X714612Y-157080D01*
X714686Y-156930D01*
X714797Y-156803D01*
X715321Y-155895D01*
X715375Y-155736D01*
X715469Y-155596D01*
X715870Y-154627D01*
X715903Y-154462D01*
X715977Y-154311D01*
X716248Y-153298D01*
X716260Y-153130D01*
X716313Y-152971D01*
X716354Y-152664D01*
X720893Y-152664D01*
X720933Y-152971D01*
X720987Y-153130D01*
X720998Y-153298D01*
X721269Y-154311D01*
X721344Y-154462D01*
X721377Y-154627D01*
X721778Y-155596D01*
X721871Y-155736D01*
X721925Y-155895D01*
X722450Y-156803D01*
X722561Y-156929D01*
X722635Y-157080D01*
X723273Y-157912D01*
X723400Y-158023D01*
X723493Y-158163D01*
X724235Y-158904D01*
X724374Y-158998D01*
X724485Y-159124D01*
X725317Y-159762D01*
X725468Y-159837D01*
X725595Y-159948D01*
X726503Y-160472D01*
X726662Y-160526D01*
X726802Y-160619D01*
X727771Y-161021D01*
X727936Y-161053D01*
X728086Y-161128D01*
X729099Y-161399D01*
X729267Y-161410D01*
X729426Y-161464D01*
X730466Y-161601D01*
X730634Y-161590D01*
X730799Y-161623D01*
X731322Y-161623D01*
X731847Y-161623D01*
X732012Y-161590D01*
X732179Y-161601D01*
X733219Y-161464D01*
X733378Y-161410D01*
X733546Y-161399D01*
X734559Y-161128D01*
X734710Y-161054D01*
X734875Y-161021D01*
X735844Y-160620D01*
X735984Y-160526D01*
X736143Y-160472D01*
X737051Y-159948D01*
X737178Y-159837D01*
X737329Y-159763D01*
X738161Y-159124D01*
X738272Y-158998D01*
X738411Y-158905D01*
X739153Y-158163D01*
X739247Y-158023D01*
X739373Y-157912D01*
X740012Y-157080D01*
X740086Y-156930D01*
X740197Y-156803D01*
X740721Y-155895D01*
X740775Y-155736D01*
X740869Y-155596D01*
X741270Y-154627D01*
X741303Y-154462D01*
X741377Y-154311D01*
X741648Y-153298D01*
X741659Y-153130D01*
X741713Y-152971D01*
X741850Y-151931D01*
X741839Y-151763D01*
X741872Y-151598D01*
X741872Y-151074D01*
X741872Y-151073D01*
X741872Y-151072D01*
X741849Y-127098D01*
X741750Y-126605D01*
X741655Y-126125D01*
X741654Y-126124D01*
X741654Y-126122D01*
X741376Y-125707D01*
X741102Y-125298D01*
X741101Y-125297D01*
X741100Y-125296D01*
X740689Y-125021D01*
X740275Y-124745D01*
X740274Y-124745D01*
X740273Y-124744D01*
X739790Y-124649D01*
X739300Y-124551D01*
X734892Y-124551D01*
Y-99656D01*
X736183Y-98365D01*
X737020Y-96344D01*
Y-94156D01*
X736183Y-92135D01*
X734892Y-90844D01*
Y-64113D01*
X734620Y-62747D01*
X733847Y-61589D01*
X619816Y52441D01*
X621680Y56941D01*
X710000D01*
D02*
G37*
G36*
X19130Y-129369D02*
Y-130535D01*
X19891Y-132372D01*
X21298Y-133779D01*
X23135Y-134540D01*
X25125D01*
X26962Y-133779D01*
X27633Y-133109D01*
X28942D01*
X29467Y-133233D01*
X32663Y-135740D01*
X32583Y-138161D01*
X31955Y-139100D01*
X31707Y-140350D01*
X38100D01*
Y-145430D01*
X31707D01*
X31955Y-146680D01*
X32699Y-147793D01*
X33812Y-148537D01*
X35126Y-148798D01*
X35371D01*
X37235Y-153298D01*
X30497Y-160037D01*
X29723Y-161194D01*
X29451Y-162560D01*
Y-183942D01*
X24583Y-188810D01*
X23036D01*
X21014Y-189647D01*
X19467Y-191194D01*
X19417Y-191316D01*
X14473Y-191838D01*
X12459Y-189516D01*
Y-184150D01*
X12187Y-182784D01*
X11413Y-181627D01*
X1879Y-172092D01*
Y-155575D01*
X1607Y-154209D01*
X833Y-153052D01*
X609Y-152827D01*
Y-137788D01*
X11320Y-127077D01*
X15532Y-126367D01*
X19130Y-129369D01*
D02*
G37*
G36*
X-418019Y56941D02*
X-416155Y52441D01*
X-422893Y45703D01*
X-423667Y44546D01*
X-423939Y43180D01*
Y12700D01*
X-423667Y11334D01*
X-422893Y10177D01*
X-411463Y-1253D01*
X-410306Y-2027D01*
X-408940Y-2299D01*
X-347980D01*
X-346614Y-2027D01*
X-345457Y-1253D01*
X-328524Y15680D01*
X-328001Y15378D01*
X-325266Y14645D01*
X-322434D01*
X-319699Y15378D01*
X-318349Y16157D01*
X-316593Y15146D01*
X-314675Y13315D01*
X-314817Y12602D01*
Y-190930D01*
X-319317Y-193398D01*
X-319699Y-193178D01*
X-322434Y-192445D01*
X-325266D01*
X-328001Y-193178D01*
X-330454Y-194594D01*
X-332456Y-196596D01*
X-333872Y-199049D01*
X-334221Y-200350D01*
X-338879D01*
X-339228Y-199049D01*
X-340644Y-196596D01*
X-342646Y-194594D01*
X-345099Y-193178D01*
X-347834Y-192445D01*
X-350666D01*
X-353401Y-193178D01*
X-355854Y-194594D01*
X-357856Y-196596D01*
X-359272Y-199049D01*
X-359621Y-200350D01*
X-364279D01*
X-364628Y-199049D01*
X-366044Y-196596D01*
X-368046Y-194594D01*
X-370499Y-193178D01*
X-373234Y-192445D01*
X-376066D01*
X-378801Y-193178D01*
X-381254Y-194594D01*
X-383256Y-196596D01*
X-384672Y-199049D01*
X-384795Y-199508D01*
X-389295Y-198915D01*
Y-192445D01*
X-410805D01*
Y-208908D01*
X-422893Y-220997D01*
X-423667Y-222154D01*
X-423939Y-223520D01*
Y-307340D01*
X-423667Y-308706D01*
X-422893Y-309863D01*
X-390665Y-342092D01*
Y-490895D01*
X-410805D01*
Y-512405D01*
X-389295D01*
X-389295Y-512405D01*
Y-512405D01*
X-385934Y-515156D01*
X-368648Y-532441D01*
X-370513Y-536941D01*
X-462421D01*
X-467222Y-536309D01*
X-471900Y-535056D01*
X-476374Y-533203D01*
X-480568Y-530782D01*
X-484409Y-527834D01*
X-487834Y-524409D01*
X-490782Y-520568D01*
X-493203Y-516374D01*
X-495056Y-511900D01*
X-496309Y-507222D01*
X-496941Y-502421D01*
Y-500000D01*
Y20000D01*
Y22421D01*
X-496309Y27222D01*
X-495056Y31900D01*
X-493203Y36374D01*
X-490782Y40567D01*
X-487834Y44409D01*
X-484409Y47834D01*
X-480568Y50781D01*
X-476374Y53203D01*
X-471900Y55056D01*
X-467222Y56309D01*
X-462421Y56941D01*
X-460000Y56941D01*
X-418019D01*
D02*
G37*
G36*
X-333872Y-207351D02*
X-332456Y-209804D01*
X-330454Y-211806D01*
X-328001Y-213222D01*
X-327419Y-213378D01*
Y-215900D01*
X-327147Y-217266D01*
X-326373Y-218423D01*
X-315989Y-228808D01*
Y-259974D01*
X-317941Y-261581D01*
X-320489Y-262816D01*
X-322434Y-262295D01*
X-325266D01*
X-328001Y-263028D01*
X-330454Y-264444D01*
X-332456Y-266446D01*
X-333872Y-268899D01*
X-334221Y-270200D01*
X-338879D01*
X-339228Y-268899D01*
X-340644Y-266446D01*
X-342646Y-264444D01*
X-345099Y-263028D01*
X-347834Y-262295D01*
X-350666D01*
X-353401Y-263028D01*
X-355854Y-264444D01*
X-357856Y-266446D01*
X-359272Y-268899D01*
X-359621Y-270200D01*
X-364279D01*
X-364628Y-268899D01*
X-366044Y-266446D01*
X-368046Y-264444D01*
X-370499Y-263028D01*
X-373234Y-262295D01*
X-376066D01*
X-378801Y-263028D01*
X-381254Y-264444D01*
X-383256Y-266446D01*
X-384672Y-268899D01*
X-384795Y-269357D01*
X-389295Y-268765D01*
Y-262295D01*
X-410805D01*
Y-283805D01*
X-389295D01*
Y-277335D01*
X-384795Y-276742D01*
X-384672Y-277201D01*
X-383256Y-279654D01*
X-381254Y-281656D01*
X-378801Y-283072D01*
X-376066Y-283805D01*
X-373234D01*
X-370499Y-283072D01*
X-368046Y-281656D01*
X-366044Y-279654D01*
X-364628Y-277201D01*
X-364279Y-275900D01*
X-359621D01*
X-359272Y-277201D01*
X-357856Y-279654D01*
X-355854Y-281656D01*
X-353401Y-283072D01*
X-350666Y-283805D01*
X-347834D01*
X-345099Y-283072D01*
X-342646Y-281656D01*
X-340644Y-279654D01*
X-339228Y-277201D01*
X-338879Y-275900D01*
X-334221D01*
X-333872Y-277201D01*
X-332456Y-279654D01*
X-330454Y-281656D01*
X-328001Y-283072D01*
X-325266Y-283805D01*
X-322434D01*
X-320489Y-283284D01*
X-317941Y-284519D01*
X-315989Y-286126D01*
Y-397817D01*
X-316659Y-398488D01*
X-317420Y-400325D01*
Y-402315D01*
X-316659Y-404152D01*
X-315989Y-404823D01*
Y-453182D01*
X-326373Y-463567D01*
X-327147Y-464724D01*
X-327419Y-466090D01*
Y-489191D01*
X-330214Y-491158D01*
X-334905Y-489552D01*
X-335297Y-488967D01*
X-340377Y-483887D01*
X-341534Y-483113D01*
X-342900Y-482841D01*
X-359410D01*
X-360776Y-483113D01*
X-361933Y-483887D01*
X-369976Y-491930D01*
X-370499Y-491628D01*
X-373234Y-490895D01*
X-376066D01*
X-378801Y-491628D01*
X-379027Y-491758D01*
X-383527Y-489178D01*
Y-340614D01*
X-383799Y-339248D01*
X-384573Y-338091D01*
X-416801Y-305862D01*
Y-224998D01*
X-405758Y-213955D01*
X-389295D01*
Y-207485D01*
X-384795Y-206893D01*
X-384672Y-207351D01*
X-383256Y-209804D01*
X-381254Y-211806D01*
X-378801Y-213222D01*
X-376066Y-213955D01*
X-373234D01*
X-370499Y-213222D01*
X-368046Y-211806D01*
X-366044Y-209804D01*
X-364628Y-207351D01*
X-364279Y-206050D01*
X-359621D01*
X-359272Y-207351D01*
X-357856Y-209804D01*
X-355854Y-211806D01*
X-353401Y-213222D01*
X-350666Y-213955D01*
X-347834D01*
X-345099Y-213222D01*
X-342646Y-211806D01*
X-340644Y-209804D01*
X-339228Y-207351D01*
X-338879Y-206050D01*
X-334221D01*
X-333872Y-207351D01*
D02*
G37*
G36*
X466798Y-352852D02*
X466896Y-353345D01*
X466992Y-353825D01*
X466993Y-353826D01*
X466993Y-353827D01*
X467271Y-354243D01*
X467544Y-354652D01*
X467546Y-354653D01*
X467546Y-354654D01*
X467958Y-354928D01*
X468371Y-355205D01*
X468373Y-355205D01*
X468374Y-355205D01*
X468857Y-355301D01*
X469347Y-355398D01*
X485347Y-355399D01*
X485347Y-355399D01*
X485348Y-355398D01*
X485349Y-355399D01*
X485350Y-355399D01*
X485824Y-355304D01*
X486322Y-355205D01*
X486323Y-355204D01*
X486325Y-355204D01*
X486737Y-354927D01*
X487149Y-354652D01*
X487150Y-354651D01*
X487151Y-354650D01*
X487427Y-354236D01*
X487702Y-353825D01*
X487702Y-353825D01*
X487702Y-353824D01*
X487703Y-353823D01*
X487703Y-353823D01*
X487799Y-353337D01*
X487799Y-353337D01*
X487896Y-352850D01*
X487930Y-352847D01*
X492198Y-352852D01*
X492296Y-353345D01*
X492392Y-353825D01*
X492393Y-353826D01*
X492393Y-353827D01*
X492671Y-354243D01*
X492944Y-354652D01*
X492946Y-354653D01*
X492946Y-354654D01*
X493358Y-354928D01*
X493771Y-355205D01*
X493773Y-355205D01*
X493774Y-355205D01*
X494257Y-355301D01*
X494747Y-355398D01*
X499155Y-355398D01*
Y-364478D01*
X496552Y-367081D01*
X461893D01*
X460528Y-367353D01*
X459370Y-368127D01*
X442445Y-385051D01*
X389007D01*
X386848Y-380551D01*
X388719Y-378219D01*
X434340D01*
X435706Y-377947D01*
X436863Y-377173D01*
X454447Y-359590D01*
X455220Y-358432D01*
X455492Y-357067D01*
X457160Y-355399D01*
X459947Y-355399D01*
X459947Y-355399D01*
X459948Y-355398D01*
X459949Y-355399D01*
X459949Y-355399D01*
X460424Y-355304D01*
X460922Y-355205D01*
X460923Y-355204D01*
X460925Y-355204D01*
X461337Y-354927D01*
X461749Y-354652D01*
X461750Y-354651D01*
X461751Y-354650D01*
X462027Y-354236D01*
X462302Y-353825D01*
X462302Y-353825D01*
X462302Y-353824D01*
X462303Y-353823D01*
X462303Y-353823D01*
X462399Y-353337D01*
X462399Y-353337D01*
X462496Y-352850D01*
X462530Y-352847D01*
X466798Y-352852D01*
D02*
G37*
G36*
X597312Y-376755D02*
Y-377190D01*
X603220D01*
Y-379730D01*
X605760D01*
Y-386184D01*
X608998Y-388614D01*
X609655Y-389519D01*
Y-399653D01*
X608135Y-401228D01*
X606030Y-402858D01*
X603720Y-401737D01*
Y-392050D01*
X592720D01*
Y-396481D01*
X588010D01*
X586644Y-396753D01*
X585487Y-397527D01*
X580340Y-402673D01*
X576146D01*
X574848Y-402931D01*
X573410Y-403666D01*
X570860D01*
X569422Y-402931D01*
X568125Y-402673D01*
X562175D01*
X560878Y-402931D01*
X559778Y-403666D01*
X559043Y-404766D01*
X558785Y-406063D01*
Y-411017D01*
X559043Y-412314D01*
X559410Y-412864D01*
X559750Y-413806D01*
X559443Y-418042D01*
X559399Y-418161D01*
X559005Y-418750D01*
X558757Y-420000D01*
X565150D01*
Y-422540D01*
X567690D01*
Y-428448D01*
X568125D01*
X569438Y-428187D01*
X570855Y-427443D01*
X573415D01*
X574832Y-428187D01*
X576146Y-428448D01*
X576580D01*
Y-422540D01*
X579120D01*
Y-420000D01*
X585578D01*
X586515Y-418859D01*
X591820D01*
X592720Y-420050D01*
Y-436050D01*
X602180D01*
Y-436090D01*
X605180D01*
Y-428050D01*
X610260D01*
Y-436527D01*
X610993Y-436795D01*
X611851Y-441784D01*
X609207Y-443981D01*
X607718Y-443873D01*
X607599Y-443829D01*
X607010Y-443435D01*
X605760Y-443187D01*
Y-449580D01*
X603220D01*
Y-452120D01*
X597312D01*
Y-452555D01*
X597573Y-453868D01*
X598317Y-454981D01*
X599430Y-455725D01*
X599775Y-455793D01*
X601702Y-458377D01*
X602547Y-460486D01*
X601970Y-462150D01*
D01*
X598643Y-464981D01*
X558880D01*
X557514Y-465253D01*
X556357Y-466027D01*
X551197Y-471187D01*
X550423Y-472344D01*
X550151Y-473710D01*
Y-495550D01*
X550423Y-496916D01*
X551197Y-498073D01*
X558650Y-505527D01*
Y-513980D01*
X558650Y-513980D01*
X559694Y-518480D01*
X559650Y-518586D01*
Y-520774D01*
X560487Y-522795D01*
X562034Y-524343D01*
X564056Y-525180D01*
X566244D01*
X569063Y-528883D01*
X569145Y-529296D01*
X569698Y-530122D01*
X572359Y-532784D01*
X570637Y-536941D01*
X-205491D01*
X-207355Y-532441D01*
X-188409Y-513495D01*
X-183909Y-515359D01*
Y-523548D01*
X-184579Y-524218D01*
X-185340Y-526055D01*
Y-528045D01*
X-184579Y-529882D01*
X-183172Y-531289D01*
X-181335Y-532050D01*
X-179345D01*
X-177508Y-531289D01*
X-176101Y-529882D01*
X-175340Y-528045D01*
Y-526055D01*
X-176101Y-524218D01*
X-176771Y-523548D01*
Y-431246D01*
X-154224Y-408699D01*
X338373D01*
X342810Y-408850D01*
X342810Y-413199D01*
Y-429350D01*
X349651D01*
Y-451108D01*
X349923Y-452474D01*
X350697Y-453632D01*
X351868Y-454803D01*
X353026Y-455577D01*
X354392Y-455849D01*
X401255D01*
X401255Y-463780D01*
X401255Y-465280D01*
Y-480780D01*
X406186D01*
Y-485028D01*
X406458Y-486394D01*
X407185Y-487482D01*
Y-489264D01*
X407946Y-491102D01*
X409353Y-492509D01*
X411190Y-493270D01*
X413180D01*
X415017Y-492509D01*
X416424Y-491102D01*
X417185Y-489264D01*
Y-487275D01*
X416424Y-485438D01*
X416266Y-485280D01*
X418032Y-480780D01*
X418255D01*
Y-465280D01*
X418255Y-462981D01*
X422755Y-461117D01*
X426442Y-464803D01*
X427599Y-465577D01*
X428965Y-465849D01*
X432255D01*
Y-472780D01*
X440931D01*
Y-478116D01*
X441203Y-479482D01*
X441977Y-480639D01*
X452794Y-491457D01*
Y-493004D01*
X453631Y-495025D01*
X455178Y-496573D01*
X457200Y-497410D01*
X459388D01*
X461409Y-496573D01*
X462957Y-495025D01*
X463794Y-493004D01*
Y-490816D01*
X462957Y-488795D01*
X461409Y-487247D01*
X459388Y-486410D01*
X457841D01*
X448711Y-477280D01*
X449619Y-472780D01*
X452255D01*
Y-451780D01*
X432255D01*
Y-454159D01*
X427755Y-456023D01*
X421488Y-449757D01*
X420331Y-448983D01*
X418965Y-448711D01*
X418255D01*
Y-443780D01*
X401255D01*
Y-448711D01*
X356789D01*
Y-429350D01*
X363310D01*
Y-413199D01*
X363310Y-408850D01*
X367747Y-408699D01*
X368782D01*
X370173Y-412954D01*
X368909Y-415144D01*
X368210Y-417751D01*
Y-420449D01*
X368909Y-423056D01*
X370258Y-425394D01*
X372166Y-427302D01*
X374504Y-428652D01*
X377111Y-429350D01*
X379809D01*
X382416Y-428652D01*
X384754Y-427302D01*
X386662Y-425394D01*
X388012Y-423056D01*
X388103Y-422713D01*
X389587Y-422175D01*
X394309Y-423056D01*
X395658Y-425394D01*
X397566Y-427302D01*
X399904Y-428652D01*
X402511Y-429350D01*
X405209D01*
X407816Y-428652D01*
X410154Y-427302D01*
X412062Y-425394D01*
X413411Y-423056D01*
X413685Y-422034D01*
X421875D01*
X422335Y-422493D01*
X424356Y-423330D01*
X426544D01*
X428565Y-422493D01*
X430113Y-420946D01*
X430188Y-420764D01*
X440116D01*
X441034Y-421598D01*
X443211Y-425190D01*
X443483Y-426556D01*
X443713Y-426899D01*
Y-430965D01*
X443971Y-432262D01*
X444706Y-433362D01*
X445806Y-434097D01*
X447104Y-434355D01*
X452057D01*
X453354Y-434097D01*
X453937Y-433708D01*
X454901Y-433362D01*
X458259D01*
X459223Y-433708D01*
X459806Y-434097D01*
X461104Y-434355D01*
X466057D01*
X467354Y-434097D01*
X468454Y-433362D01*
X469189Y-432262D01*
X469329Y-431559D01*
X493268D01*
X494634Y-431287D01*
X495791Y-430513D01*
X551006Y-375299D01*
X573944D01*
X574095Y-375329D01*
X579065D01*
X579216Y-375299D01*
X593014D01*
X597312Y-376755D01*
D02*
G37*
G36*
X524725Y-391120D02*
X524763Y-391448D01*
X491790Y-424421D01*
X472251D01*
X471114Y-423078D01*
X469411Y-419921D01*
X469488Y-419534D01*
Y-419100D01*
X463580D01*
Y-416560D01*
X461040D01*
Y-410167D01*
X459790Y-410415D01*
X459341Y-410715D01*
X454912Y-410556D01*
X453266Y-407301D01*
X453224Y-405839D01*
X471955Y-387109D01*
X479660D01*
X480755Y-388203D01*
X482776Y-389040D01*
X484964D01*
X486986Y-388203D01*
X488080Y-387109D01*
X522739D01*
X524725Y-391120D01*
D02*
G37*
G36*
X684771Y-392804D02*
X681840Y-396090D01*
X679840D01*
Y-396090D01*
X666840D01*
Y-405929D01*
X664535Y-407865D01*
X664355Y-407842D01*
X659643Y-406537D01*
X659422Y-406206D01*
X658322Y-405471D01*
X657025Y-405213D01*
X643260D01*
X643055Y-405172D01*
X642620D01*
Y-411080D01*
X640080D01*
Y-413620D01*
X633622D01*
X632887Y-414515D01*
X624785D01*
Y-387295D01*
X664210D01*
X666168Y-387037D01*
X667992Y-386281D01*
X669559Y-385079D01*
X677503Y-377135D01*
X684771D01*
Y-392804D01*
D02*
G37*
G36*
X740410Y-446405D02*
X636466Y-448082D01*
X635462Y-447411D01*
X634165Y-447153D01*
X628215D01*
X626918Y-447411D01*
X625818Y-448146D01*
X625745Y-448254D01*
X623992Y-448283D01*
X623087Y-447392D01*
Y-446605D01*
X622829Y-445308D01*
X622094Y-444208D01*
X620994Y-443473D01*
X619697Y-443215D01*
X619243D01*
X615631Y-437195D01*
X616257Y-436090D01*
X622760D01*
Y-430590D01*
X617220D01*
Y-425510D01*
X622760D01*
Y-421653D01*
X632894D01*
X633622Y-422540D01*
X640080D01*
Y-425080D01*
X642620D01*
Y-430988D01*
X643055D01*
X644368Y-430727D01*
X645481Y-429983D01*
X646225Y-428870D01*
X646486Y-427556D01*
X647685D01*
X647943Y-428854D01*
X648678Y-429954D01*
X649778Y-430689D01*
X651076Y-430947D01*
X657025D01*
X658322Y-430689D01*
X659422Y-429954D01*
X660157Y-428854D01*
X660415Y-427556D01*
Y-424260D01*
X666845Y-417830D01*
X698500D01*
X704850Y-411480D01*
Y-400050D01*
X708660Y-397510D01*
X713550D01*
Y-401160D01*
X726630D01*
Y-397510D01*
X740410D01*
Y-446405D01*
D02*
G37*
G36*
X739429Y-449882D02*
X739140Y-469900D01*
X721581D01*
X721241Y-468630D01*
X722446Y-467934D01*
X724594Y-465786D01*
X726114Y-463154D01*
X726627Y-461240D01*
X715360D01*
X704093D01*
X704606Y-463154D01*
X706126Y-465786D01*
X708274Y-467934D01*
X709479Y-468630D01*
X709139Y-469900D01*
X694690D01*
X668020Y-496570D01*
X650035D01*
X649502Y-496038D01*
X648676Y-495485D01*
X647700Y-495291D01*
X621021D01*
X613410Y-487680D01*
Y-477490D01*
X614680D01*
Y-473550D01*
X619760D01*
Y-477490D01*
X623510D01*
Y-473221D01*
X623793Y-473147D01*
X623793D01*
X624883Y-474174D01*
X624797Y-474610D01*
X631190D01*
X637583D01*
X637335Y-473360D01*
X636622Y-472294D01*
X636593Y-472202D01*
X636669Y-470771D01*
X657143Y-450297D01*
X706575Y-449500D01*
X707071Y-450669D01*
X706126Y-451614D01*
X704606Y-454246D01*
X704093Y-456160D01*
X715360D01*
X726627D01*
X726114Y-454246D01*
X724594Y-451614D01*
X723478Y-450498D01*
X723995Y-449219D01*
X738531Y-448985D01*
X739429Y-449882D01*
D02*
G37*
G36*
X610470Y-463550D02*
Y-464950D01*
X601970D01*
Y-462150D01*
X609070D01*
X610470Y-463550D01*
D02*
G37*
G36*
X746941Y-453161D02*
Y-492500D01*
Y-502421D01*
X746309Y-507222D01*
X745056Y-511900D01*
X743203Y-516374D01*
X740781Y-520568D01*
X737834Y-524409D01*
X734409Y-527834D01*
X730567Y-530782D01*
X726374Y-533203D01*
X721900Y-535056D01*
X717222Y-536309D01*
X712421Y-536941D01*
X656292D01*
X655094Y-535047D01*
X653997Y-532441D01*
X654059Y-532130D01*
Y-501650D01*
X657826Y-499119D01*
X668020D01*
X668996Y-498925D01*
X669822Y-498372D01*
X695746Y-472449D01*
X709139D01*
X709304Y-472416D01*
X709472Y-472427D01*
X709787Y-472320D01*
X710115Y-472255D01*
X710254Y-472161D01*
X710414Y-472108D01*
X710664Y-471888D01*
X710941Y-471702D01*
X711035Y-471563D01*
X711161Y-471452D01*
X711309Y-471153D01*
X711494Y-470876D01*
X713846Y-470200D01*
X716874D01*
X719226Y-470876D01*
X719411Y-471153D01*
X719559Y-471452D01*
X719685Y-471563D01*
X719779Y-471702D01*
X720056Y-471888D01*
X720307Y-472108D01*
X720466Y-472161D01*
X720606Y-472255D01*
X720933Y-472320D01*
X721248Y-472427D01*
X721416Y-472416D01*
X721581Y-472449D01*
X739140D01*
X739611Y-472355D01*
X740081Y-472269D01*
X740097Y-472259D01*
X740115Y-472255D01*
X740514Y-471988D01*
X740916Y-471728D01*
X740927Y-471713D01*
X740942Y-471702D01*
X741209Y-471303D01*
X741481Y-470909D01*
X741485Y-470891D01*
X741495Y-470875D01*
X741588Y-470405D01*
X741689Y-469937D01*
X741936Y-452812D01*
X743750Y-451652D01*
X746941Y-453161D01*
D02*
G37*
G36*
X599470Y-477450D02*
X602151D01*
Y-489900D01*
X602329Y-490791D01*
X602113Y-491781D01*
X600005Y-495291D01*
X585163D01*
X581190Y-494020D01*
D01*
D01*
X581190Y-493141D01*
Y-490791D01*
Y-489520D01*
X574650D01*
X568110D01*
Y-492721D01*
X568110Y-493539D01*
Y-494020D01*
D01*
Y-494020D01*
X568418Y-495151D01*
X566740Y-497669D01*
X561350Y-498133D01*
X557289Y-494072D01*
Y-475188D01*
X560358Y-472119D01*
X599470D01*
Y-477450D01*
D02*
G37*
G36*
X-302601Y-283072D02*
X-299866Y-283805D01*
X-297034D01*
X-295089Y-283284D01*
X-292541Y-284519D01*
X-290589Y-286126D01*
Y-419408D01*
X-291259Y-420078D01*
X-292020Y-421915D01*
Y-423905D01*
X-291259Y-425742D01*
X-290589Y-426413D01*
Y-453182D01*
X-300973Y-463567D01*
X-301747Y-464724D01*
X-302019Y-466090D01*
Y-491472D01*
X-302601Y-491628D01*
X-305054Y-493044D01*
X-307056Y-495046D01*
X-308472Y-497499D01*
X-308821Y-498800D01*
X-313479D01*
X-313828Y-497499D01*
X-315244Y-495046D01*
X-317246Y-493044D01*
X-319699Y-491628D01*
X-320281Y-491472D01*
Y-467568D01*
X-309897Y-457183D01*
X-309123Y-456026D01*
X-308851Y-454660D01*
Y-404823D01*
X-308181Y-404152D01*
X-307420Y-402315D01*
Y-400325D01*
X-308181Y-398488D01*
X-308851Y-397817D01*
Y-284222D01*
X-306880Y-282890D01*
X-304351Y-282062D01*
X-302601Y-283072D01*
D02*
G37*
G36*
X-277201D02*
X-274466Y-283805D01*
X-271634D01*
X-269689Y-283284D01*
X-267141Y-284519D01*
X-265189Y-286126D01*
Y-453182D01*
X-265477Y-453470D01*
X-266425D01*
X-268262Y-454231D01*
X-269669Y-455638D01*
X-270430Y-457475D01*
Y-458423D01*
X-275573Y-463567D01*
X-276347Y-464724D01*
X-276619Y-466090D01*
Y-491472D01*
X-277201Y-491628D01*
X-279654Y-493044D01*
X-281656Y-495046D01*
X-283072Y-497499D01*
X-283421Y-498800D01*
X-288079D01*
X-288428Y-497499D01*
X-289844Y-495046D01*
X-291846Y-493044D01*
X-294299Y-491628D01*
X-294881Y-491472D01*
Y-467568D01*
X-284497Y-457183D01*
X-283723Y-456026D01*
X-283451Y-454660D01*
Y-426413D01*
X-282781Y-425742D01*
X-282020Y-423905D01*
Y-421915D01*
X-282781Y-420078D01*
X-283451Y-419408D01*
Y-284222D01*
X-281480Y-282890D01*
X-278951Y-282062D01*
X-277201Y-283072D01*
D02*
G37*
G36*
X-192125Y-425941D02*
X-191528Y-426459D01*
Y-434340D01*
Y-506522D01*
X-214838Y-529831D01*
X-242831D01*
X-244695Y-525331D01*
X-233697Y-514333D01*
X-232923Y-513176D01*
X-232829Y-512702D01*
X-230511Y-511286D01*
X-228151Y-510708D01*
X-226417Y-511709D01*
X-224790Y-512145D01*
Y-501650D01*
Y-491155D01*
X-226417Y-491591D01*
X-228151Y-492592D01*
X-230739Y-491734D01*
X-232651Y-490421D01*
Y-461218D01*
X-199100Y-427667D01*
X-195834Y-424688D01*
X-195827D01*
X-192125Y-425941D01*
D02*
G37*
G36*
X651510Y-501650D02*
Y-532130D01*
X647700Y-535940D01*
X579120D01*
X571500Y-528320D01*
Y-513980D01*
X571650D01*
Y-499980D01*
X571650Y-499980D01*
X571650D01*
X571827Y-498783D01*
X572770Y-497840D01*
X608613D01*
X615800Y-505027D01*
Y-513980D01*
X618731D01*
Y-515470D01*
X617637Y-516564D01*
X616800Y-518586D01*
Y-520774D01*
X617637Y-522795D01*
X619184Y-524343D01*
X621206Y-525180D01*
X623394D01*
X625415Y-524343D01*
X626963Y-522795D01*
X627800Y-520774D01*
Y-518586D01*
X626963Y-516564D01*
X625869Y-515470D01*
Y-513980D01*
X628800D01*
Y-499980D01*
X620847D01*
X619880Y-499013D01*
X620366Y-497840D01*
X647700D01*
X651510Y-501650D01*
D02*
G37*
%LPC*%
G36*
X-211755Y22860D02*
X-219710D01*
Y14905D01*
X-218083Y15341D01*
X-215622Y16762D01*
X-213612Y18772D01*
X-212191Y21233D01*
X-211755Y22860D01*
D02*
G37*
G36*
X-2540Y10231D02*
X-4068Y9822D01*
X-6472Y8434D01*
X-8434Y6472D01*
X-9822Y4068D01*
X-10231Y2540D01*
X-2540D01*
Y10231D01*
D02*
G37*
G36*
Y-2540D02*
X-10231D01*
X-9822Y-4068D01*
X-8434Y-6472D01*
X-6472Y-8434D01*
X-4068Y-9822D01*
X-2540Y-10231D01*
Y-2540D01*
D02*
G37*
G36*
X157422Y18500D02*
X153778D01*
X150204Y17789D01*
X146837Y16394D01*
X143807Y14370D01*
X141230Y11793D01*
X139205Y8763D01*
X137811Y5396D01*
X137100Y1822D01*
Y-1822D01*
X137811Y-5396D01*
X139205Y-8763D01*
X141230Y-11793D01*
X143807Y-14370D01*
X146837Y-16394D01*
X150204Y-17789D01*
X153778Y-18500D01*
X157422D01*
X160996Y-17789D01*
X164363Y-16394D01*
X167393Y-14370D01*
X169970Y-11793D01*
X171994Y-8763D01*
X173389Y-5396D01*
X174100Y-1822D01*
Y1822D01*
X173389Y5396D01*
X171994Y8763D01*
X169970Y11793D01*
X167393Y14370D01*
X164363Y16394D01*
X160996Y17789D01*
X157422Y18500D01*
D02*
G37*
G36*
X-19080Y-86317D02*
X-20330Y-86565D01*
X-21443Y-87309D01*
X-22187Y-88422D01*
X-22448Y-89735D01*
Y-90170D01*
X-19080D01*
Y-86317D01*
D02*
G37*
G36*
Y-95250D02*
X-22448D01*
Y-95684D01*
X-22187Y-96998D01*
X-21443Y-98111D01*
X-20330Y-98855D01*
X-19080Y-99103D01*
Y-95250D01*
D02*
G37*
G36*
X-219710Y-192705D02*
Y-200660D01*
X-211755D01*
X-212191Y-199033D01*
X-213612Y-196572D01*
X-215622Y-194562D01*
X-218083Y-193141D01*
X-219710Y-192705D01*
D02*
G37*
G36*
X-211755Y-205740D02*
X-219710D01*
Y-213695D01*
X-218083Y-213259D01*
X-215622Y-211838D01*
X-213612Y-209828D01*
X-212191Y-207367D01*
X-211755Y-205740D01*
D02*
G37*
G36*
X157422Y-219499D02*
X153778D01*
X150204Y-220210D01*
X146837Y-221605D01*
X143807Y-223630D01*
X141230Y-226206D01*
X139205Y-229237D01*
X137811Y-232603D01*
X137100Y-236177D01*
Y-239822D01*
X137811Y-243396D01*
X139205Y-246763D01*
X141230Y-249793D01*
X143807Y-252369D01*
X146837Y-254394D01*
X150204Y-255789D01*
X153778Y-256500D01*
X157422D01*
X160996Y-255789D01*
X164363Y-254394D01*
X167393Y-252369D01*
X169970Y-249793D01*
X171994Y-246763D01*
X173389Y-243396D01*
X174100Y-239822D01*
Y-236177D01*
X173389Y-232603D01*
X171994Y-229237D01*
X169970Y-226206D01*
X167393Y-223630D01*
X164363Y-221605D01*
X160996Y-220210D01*
X157422Y-219499D01*
D02*
G37*
G36*
X-77578D02*
X-81222D01*
X-84796Y-220210D01*
X-88163Y-221605D01*
X-91193Y-223630D01*
X-93770Y-226206D01*
X-95794Y-229237D01*
X-97189Y-232603D01*
X-97900Y-236177D01*
Y-239822D01*
X-97189Y-243396D01*
X-95794Y-246763D01*
X-93770Y-249793D01*
X-91193Y-252369D01*
X-88163Y-254394D01*
X-84796Y-255789D01*
X-81222Y-256500D01*
X-77578D01*
X-74004Y-255789D01*
X-70637Y-254394D01*
X-67607Y-252369D01*
X-65030Y-249793D01*
X-63005Y-246763D01*
X-61611Y-243396D01*
X-60900Y-239822D01*
Y-236177D01*
X-61611Y-232603D01*
X-63005Y-229237D01*
X-65030Y-226206D01*
X-67607Y-223630D01*
X-70637Y-221605D01*
X-74004Y-220210D01*
X-77578Y-219499D01*
D02*
G37*
G36*
X-219710Y-262555D02*
Y-270510D01*
X-211755D01*
X-212191Y-268883D01*
X-213612Y-266422D01*
X-215622Y-264412D01*
X-218083Y-262991D01*
X-219710Y-262555D01*
D02*
G37*
G36*
X-211755Y-275590D02*
X-219710D01*
Y-283545D01*
X-218083Y-283109D01*
X-215622Y-281688D01*
X-213612Y-279678D01*
X-212191Y-277217D01*
X-211755Y-275590D01*
D02*
G37*
G36*
X66610Y-309761D02*
X58610D01*
Y-312261D01*
X66610D01*
Y-309761D01*
D02*
G37*
G36*
X177690Y-309810D02*
X169690D01*
Y-312310D01*
X177690D01*
Y-309810D01*
D02*
G37*
G36*
X-40260Y-309920D02*
X-48260D01*
Y-312420D01*
X-40260D01*
Y-309920D01*
D02*
G37*
G36*
X66610Y-335341D02*
X58610D01*
Y-337841D01*
X66610D01*
Y-335341D01*
D02*
G37*
G36*
X177690Y-335390D02*
X169690D01*
Y-337890D01*
X177690D01*
Y-335390D01*
D02*
G37*
G36*
X-40260Y-335500D02*
X-48260D01*
Y-338000D01*
X-40260D01*
Y-335500D01*
D02*
G37*
G36*
X438180Y5123D02*
Y1270D01*
X441548D01*
Y1705D01*
X441287Y3018D01*
X440543Y4131D01*
X439430Y4875D01*
X438180Y5123D01*
D02*
G37*
G36*
X629085Y-11842D02*
X628650D01*
Y-15210D01*
X632503D01*
X632255Y-13960D01*
X631511Y-12847D01*
X630398Y-12103D01*
X629085Y-11842D01*
D02*
G37*
G36*
X356316Y-54610D02*
X352948D01*
Y-58463D01*
X354198Y-58215D01*
X355311Y-57471D01*
X356055Y-56358D01*
X356316Y-55044D01*
Y-54610D01*
D02*
G37*
G36*
X291497Y-124510D02*
X291497Y-124510D01*
X291020Y-124606D01*
X290509Y-124707D01*
X290508Y-124708D01*
X290506Y-124708D01*
X290093Y-124985D01*
X289669Y-125269D01*
X289668Y-125270D01*
X289667Y-125271D01*
X289392Y-125683D01*
X289107Y-126109D01*
X289107Y-126109D01*
X289107Y-126110D01*
X289106Y-126111D01*
X289106Y-126111D01*
X289010Y-126597D01*
X289010Y-126597D01*
X288910Y-127100D01*
X288816Y-127102D01*
X284649Y-127098D01*
X284550Y-126605D01*
X284455Y-126125D01*
X284454Y-126124D01*
X284454Y-126122D01*
X284176Y-125707D01*
X283902Y-125298D01*
X283901Y-125297D01*
X283901Y-125296D01*
X283489Y-125021D01*
X283075Y-124745D01*
X283074Y-124745D01*
X283073Y-124744D01*
X282590Y-124649D01*
X282100Y-124551D01*
X266100Y-124551D01*
X266100Y-124551D01*
X266099Y-124551D01*
X266097Y-124551D01*
X266097Y-124551D01*
X265623Y-124646D01*
X265124Y-124745D01*
X265123Y-124746D01*
X265122Y-124746D01*
X264710Y-125022D01*
X264298Y-125297D01*
X264297Y-125299D01*
X264296Y-125299D01*
X264019Y-125714D01*
X263745Y-126124D01*
X263745Y-126124D01*
X263745Y-126126D01*
X263744Y-126127D01*
X263744Y-126127D01*
X263648Y-126612D01*
X263648Y-126612D01*
X263551Y-127100D01*
X263517Y-127102D01*
X259249Y-127098D01*
X259150Y-126605D01*
X259055Y-126125D01*
X259054Y-126124D01*
X259054Y-126122D01*
X258776Y-125707D01*
X258502Y-125298D01*
X258501Y-125297D01*
X258500Y-125296D01*
X258089Y-125021D01*
X257675Y-124745D01*
X257674Y-124745D01*
X257673Y-124744D01*
X257190Y-124649D01*
X256700Y-124551D01*
X240700Y-124551D01*
X240700Y-124551D01*
X240699Y-124551D01*
X240697Y-124551D01*
X240697Y-124551D01*
X240222Y-124646D01*
X240222Y-124646D01*
X239724Y-124745D01*
X239724Y-124745D01*
X239723Y-124746D01*
X239722Y-124746D01*
X239722Y-124746D01*
X239310Y-125022D01*
X238897Y-125297D01*
X238897Y-125299D01*
X238896Y-125299D01*
X238619Y-125714D01*
X238345Y-126124D01*
X238345Y-126124D01*
X238345Y-126126D01*
X238344Y-126127D01*
X238344Y-126127D01*
X238248Y-126612D01*
X238248Y-126612D01*
X238151Y-127100D01*
X238151Y-127100D01*
X238151Y-127101D01*
X238151Y-127102D01*
X238151Y-127102D01*
X238152Y-127995D01*
X238174Y-151077D01*
X238174Y-151077D01*
X238174Y-151599D01*
X238207Y-151764D01*
X238196Y-151931D01*
X238333Y-152971D01*
X238387Y-153130D01*
X238398Y-153298D01*
X238669Y-154311D01*
X238744Y-154462D01*
X238777Y-154627D01*
X239178Y-155596D01*
X239271Y-155736D01*
X239325Y-155895D01*
X239850Y-156803D01*
X239960Y-156929D01*
X240035Y-157080D01*
X240673Y-157912D01*
X240800Y-158023D01*
X240893Y-158163D01*
X241635Y-158904D01*
X241774Y-158998D01*
X241885Y-159124D01*
X242717Y-159762D01*
X242868Y-159837D01*
X242995Y-159948D01*
X243903Y-160472D01*
X244062Y-160526D01*
X244202Y-160619D01*
X245171Y-161021D01*
X245336Y-161053D01*
X245486Y-161128D01*
X246499Y-161399D01*
X246667Y-161410D01*
X246826Y-161464D01*
X247866Y-161601D01*
X248034Y-161590D01*
X248199Y-161623D01*
X248722Y-161623D01*
X249247Y-161623D01*
X249412Y-161590D01*
X249579Y-161601D01*
X250619Y-161464D01*
X250778Y-161410D01*
X250946Y-161399D01*
X251959Y-161128D01*
X252110Y-161054D01*
X252275Y-161021D01*
X253244Y-160620D01*
X253384Y-160526D01*
X253543Y-160472D01*
X254451Y-159948D01*
X254578Y-159837D01*
X254729Y-159763D01*
X255561Y-159124D01*
X255672Y-158998D01*
X255812Y-158905D01*
X256553Y-158163D01*
X256647Y-158023D01*
X256773Y-157912D01*
X257411Y-157080D01*
X257486Y-156930D01*
X257597Y-156803D01*
X258121Y-155895D01*
X258175Y-155736D01*
X258269Y-155596D01*
X258670Y-154627D01*
X258703Y-154462D01*
X258777Y-154311D01*
X259049Y-153298D01*
X259060Y-153130D01*
X259114Y-152971D01*
X259154Y-152664D01*
X263693Y-152664D01*
X263733Y-152971D01*
X263787Y-153130D01*
X263798Y-153298D01*
X264069Y-154311D01*
X264144Y-154462D01*
X264177Y-154627D01*
X264578Y-155596D01*
X264671Y-155736D01*
X264725Y-155895D01*
X265250Y-156803D01*
X265361Y-156929D01*
X265435Y-157080D01*
X266073Y-157912D01*
X266200Y-158023D01*
X266293Y-158163D01*
X267035Y-158904D01*
X267174Y-158998D01*
X267285Y-159124D01*
X268117Y-159762D01*
X268268Y-159837D01*
X268395Y-159948D01*
X269303Y-160472D01*
X269462Y-160526D01*
X269602Y-160619D01*
X270571Y-161021D01*
X270736Y-161053D01*
X270886Y-161128D01*
X271899Y-161399D01*
X272067Y-161410D01*
X272226Y-161464D01*
X273266Y-161601D01*
X273434Y-161590D01*
X273599Y-161623D01*
X274123Y-161623D01*
X274647Y-161623D01*
X274812Y-161590D01*
X274979Y-161601D01*
X276019Y-161464D01*
X276178Y-161410D01*
X276346Y-161399D01*
X277359Y-161128D01*
X277510Y-161054D01*
X277675Y-161021D01*
X278644Y-160620D01*
X278784Y-160526D01*
X278943Y-160472D01*
X279851Y-159948D01*
X279978Y-159837D01*
X280129Y-159763D01*
X280961Y-159124D01*
X281072Y-158998D01*
X281211Y-158905D01*
X281953Y-158163D01*
X282047Y-158023D01*
X282173Y-157912D01*
X282812Y-157080D01*
X282886Y-156930D01*
X282997Y-156803D01*
X283521Y-155895D01*
X283575Y-155736D01*
X283669Y-155596D01*
X284070Y-154627D01*
X284103Y-154462D01*
X284177Y-154311D01*
X284449Y-153298D01*
X284459Y-153130D01*
X284513Y-152971D01*
X284533Y-152821D01*
X289072Y-152821D01*
X289093Y-152976D01*
X289147Y-153138D01*
X289159Y-153309D01*
X289430Y-154322D01*
X289506Y-154475D01*
X289539Y-154642D01*
X289940Y-155611D01*
X290035Y-155753D01*
X290090Y-155915D01*
X290614Y-156823D01*
X290727Y-156952D01*
X290802Y-157105D01*
X291441Y-157937D01*
X291569Y-158050D01*
X291664Y-158192D01*
X292406Y-158933D01*
X292548Y-159028D01*
X292661Y-159156D01*
X293493Y-159795D01*
X293646Y-159870D01*
X293774Y-159983D01*
X294682Y-160507D01*
X294844Y-160562D01*
X294986Y-160657D01*
X295955Y-161058D01*
X296123Y-161092D01*
X296276Y-161167D01*
X296983Y-161357D01*
Y-151075D01*
Y-124510D01*
X291500Y-124510D01*
X291500Y-124510D01*
X291499Y-124510D01*
X291497Y-124510D01*
D02*
G37*
G36*
X443374Y-235467D02*
X422626D01*
Y-256215D01*
X443374D01*
Y-235467D01*
D02*
G37*
G36*
X435540Y-261140D02*
Y-268701D01*
X443101D01*
X442704Y-267221D01*
X441333Y-264847D01*
X439394Y-262908D01*
X437020Y-261537D01*
X435540Y-261140D01*
D02*
G37*
G36*
X430460Y-261140D02*
X428980Y-261537D01*
X426606Y-262908D01*
X424667Y-264847D01*
X423296Y-267221D01*
X422899Y-268701D01*
X430460D01*
Y-261140D01*
D02*
G37*
G36*
X443101Y-273781D02*
X435540D01*
Y-281342D01*
X437020Y-280945D01*
X439394Y-279574D01*
X441333Y-277635D01*
X442704Y-275261D01*
X443101Y-273781D01*
D02*
G37*
G36*
X430460D02*
X422899D01*
X423296Y-275261D01*
X424667Y-277635D01*
X426606Y-279574D01*
X428980Y-280945D01*
X430460Y-281342D01*
Y-273781D01*
D02*
G37*
G36*
X434366Y-286267D02*
X431634D01*
X428996Y-286974D01*
X426630Y-288340D01*
X424699Y-290271D01*
X423333Y-292637D01*
X422626Y-295275D01*
Y-298007D01*
X423333Y-300645D01*
X424699Y-303011D01*
X426630Y-304942D01*
X428996Y-306308D01*
X431634Y-307015D01*
X434366D01*
X437004Y-306308D01*
X439370Y-304942D01*
X441301Y-303011D01*
X442667Y-300645D01*
X443374Y-298007D01*
Y-295275D01*
X442667Y-292637D01*
X441301Y-290271D01*
X439370Y-288340D01*
X437004Y-286974D01*
X434366Y-286267D01*
D02*
G37*
G36*
X672500Y-124551D02*
X672499Y-124551D01*
X672497Y-124551D01*
X672022Y-124646D01*
X671524Y-124745D01*
X671523Y-124746D01*
X671522Y-124746D01*
X671110Y-125022D01*
X670697Y-125297D01*
X670697Y-125299D01*
X670696Y-125299D01*
X670419Y-125714D01*
X670145Y-126124D01*
X670145Y-126126D01*
X670144Y-126127D01*
X670048Y-126612D01*
X669951Y-127100D01*
X669951Y-127101D01*
X669951Y-127102D01*
X669974Y-151077D01*
X669974Y-151077D01*
X669974Y-151599D01*
X670007Y-151764D01*
X669996Y-151931D01*
X670133Y-152971D01*
X670187Y-153130D01*
X670198Y-153298D01*
X670469Y-154311D01*
X670544Y-154462D01*
X670577Y-154627D01*
X670978Y-155596D01*
X671071Y-155736D01*
X671125Y-155895D01*
X671650Y-156803D01*
X671760Y-156929D01*
X671835Y-157080D01*
X672473Y-157912D01*
X672600Y-158023D01*
X672693Y-158163D01*
X673435Y-158904D01*
X673574Y-158998D01*
X673685Y-159124D01*
X674517Y-159762D01*
X674668Y-159837D01*
X674795Y-159948D01*
X675703Y-160472D01*
X675862Y-160526D01*
X676002Y-160619D01*
X676971Y-161021D01*
X677136Y-161053D01*
X677286Y-161128D01*
X678299Y-161399D01*
X678467Y-161410D01*
X678626Y-161464D01*
X679666Y-161601D01*
X679834Y-161590D01*
X679999Y-161623D01*
X680523Y-161623D01*
X681047Y-161623D01*
X681212Y-161590D01*
X681379Y-161601D01*
X682419Y-161464D01*
X682578Y-161410D01*
X682746Y-161399D01*
X683759Y-161128D01*
X683910Y-161054D01*
X684075Y-161021D01*
X685044Y-160620D01*
X685184Y-160526D01*
X685343Y-160472D01*
X686251Y-159948D01*
X686378Y-159837D01*
X686529Y-159763D01*
X687361Y-159124D01*
X687472Y-158998D01*
X687611Y-158905D01*
X688353Y-158163D01*
X688447Y-158023D01*
X688573Y-157912D01*
X689212Y-157080D01*
X689286Y-156930D01*
X689397Y-156803D01*
X689921Y-155895D01*
X689975Y-155736D01*
X690069Y-155596D01*
X690470Y-154627D01*
X690503Y-154462D01*
X690577Y-154311D01*
X690848Y-153298D01*
X690860Y-153130D01*
X690913Y-152971D01*
X691050Y-151931D01*
X691039Y-151763D01*
X691072Y-151598D01*
X691072Y-151074D01*
X691072Y-151073D01*
X691072Y-151072D01*
X691049Y-127098D01*
X690950Y-126605D01*
X690855Y-126125D01*
X690854Y-126124D01*
X690854Y-126122D01*
X690576Y-125707D01*
X690302Y-125298D01*
X690301Y-125297D01*
X690301Y-125296D01*
X689889Y-125021D01*
X689475Y-124745D01*
X689474Y-124745D01*
X689473Y-124744D01*
X688990Y-124649D01*
X688500Y-124551D01*
X672500Y-124551D01*
D02*
G37*
G36*
X545500D02*
X545499Y-124551D01*
X545497Y-124551D01*
X545023Y-124646D01*
X544524Y-124745D01*
X544523Y-124746D01*
X544522Y-124746D01*
X544110Y-125022D01*
X543698Y-125297D01*
X543697Y-125299D01*
X543696Y-125299D01*
X543419Y-125714D01*
X543145Y-126124D01*
X543145Y-126126D01*
X543144Y-126127D01*
X543048Y-126612D01*
X542951Y-127100D01*
X542951Y-127101D01*
X542951Y-127102D01*
X542974Y-151077D01*
X542974Y-151077D01*
X542974Y-151599D01*
X543007Y-151764D01*
X542996Y-151931D01*
X543133Y-152971D01*
X543187Y-153130D01*
X543198Y-153298D01*
X543469Y-154311D01*
X543544Y-154462D01*
X543577Y-154627D01*
X543978Y-155596D01*
X544071Y-155736D01*
X544125Y-155895D01*
X544650Y-156803D01*
X544761Y-156929D01*
X544835Y-157080D01*
X545473Y-157912D01*
X545600Y-158023D01*
X545693Y-158163D01*
X546435Y-158904D01*
X546574Y-158998D01*
X546685Y-159124D01*
X547517Y-159762D01*
X547668Y-159837D01*
X547795Y-159948D01*
X548703Y-160472D01*
X548862Y-160526D01*
X549002Y-160619D01*
X549971Y-161021D01*
X550136Y-161053D01*
X550286Y-161128D01*
X551299Y-161399D01*
X551467Y-161410D01*
X551626Y-161464D01*
X552666Y-161601D01*
X552834Y-161590D01*
X552999Y-161623D01*
X553522Y-161623D01*
X554047Y-161623D01*
X554212Y-161590D01*
X554379Y-161601D01*
X555419Y-161464D01*
X555578Y-161410D01*
X555746Y-161399D01*
X556759Y-161128D01*
X556910Y-161054D01*
X557075Y-161021D01*
X558044Y-160620D01*
X558184Y-160526D01*
X558343Y-160472D01*
X559251Y-159948D01*
X559378Y-159837D01*
X559529Y-159763D01*
X560361Y-159124D01*
X560472Y-158998D01*
X560611Y-158905D01*
X561353Y-158163D01*
X561447Y-158023D01*
X561573Y-157912D01*
X562211Y-157080D01*
X562286Y-156930D01*
X562397Y-156803D01*
X562921Y-155895D01*
X562975Y-155736D01*
X563069Y-155596D01*
X563470Y-154627D01*
X563503Y-154462D01*
X563577Y-154311D01*
X563848Y-153298D01*
X563859Y-153130D01*
X563913Y-152971D01*
X564050Y-151931D01*
X564039Y-151763D01*
X564072Y-151598D01*
X564072Y-151074D01*
X564072Y-151073D01*
X564072Y-151072D01*
X564049Y-127098D01*
X563950Y-126605D01*
X563855Y-126125D01*
X563854Y-126124D01*
X563854Y-126122D01*
X563576Y-125707D01*
X563302Y-125298D01*
X563301Y-125297D01*
X563301Y-125296D01*
X562889Y-125021D01*
X562475Y-124745D01*
X562474Y-124745D01*
X562473Y-124744D01*
X561990Y-124649D01*
X561500Y-124551D01*
X545500Y-124551D01*
D02*
G37*
G36*
X629645Y-167720D02*
X627655D01*
X625818Y-168481D01*
X624411Y-169888D01*
X623650Y-171725D01*
Y-173715D01*
X624411Y-175552D01*
X625818Y-176959D01*
X627655Y-177720D01*
X629645D01*
X631482Y-176959D01*
X632889Y-175552D01*
X633650Y-173715D01*
Y-171725D01*
X632889Y-169888D01*
X631482Y-168481D01*
X629645Y-167720D01*
D02*
G37*
G36*
X552175Y-188040D02*
X550185D01*
X548348Y-188801D01*
X546941Y-190208D01*
X546180Y-192045D01*
Y-194035D01*
X546941Y-195872D01*
X548348Y-197279D01*
X550185Y-198040D01*
X552175D01*
X554012Y-197279D01*
X555419Y-195872D01*
X556180Y-194035D01*
Y-192045D01*
X555419Y-190208D01*
X554012Y-188801D01*
X552175Y-188040D01*
D02*
G37*
G36*
X654500Y-204892D02*
X645500D01*
X643354Y-205319D01*
X641535Y-206535D01*
X640319Y-208354D01*
X639892Y-210500D01*
Y-219500D01*
X640319Y-221646D01*
X641535Y-223465D01*
X643354Y-224681D01*
X645500Y-225108D01*
X654500D01*
X656646Y-224681D01*
X658465Y-223465D01*
X659681Y-221646D01*
X660108Y-219500D01*
Y-210500D01*
X659681Y-208354D01*
X658465Y-206535D01*
X656646Y-205319D01*
X654500Y-204892D01*
D02*
G37*
G36*
X629500D02*
X620500D01*
X618354Y-205319D01*
X616535Y-206535D01*
X615319Y-208354D01*
X614892Y-210500D01*
Y-219500D01*
X615319Y-221646D01*
X616535Y-223465D01*
X618354Y-224681D01*
X620500Y-225108D01*
X629500D01*
X631646Y-224681D01*
X633465Y-223465D01*
X634681Y-221646D01*
X635108Y-219500D01*
Y-210500D01*
X634681Y-208354D01*
X633465Y-206535D01*
X631646Y-205319D01*
X629500Y-204892D01*
D02*
G37*
G36*
X604500D02*
X595500D01*
X593354Y-205319D01*
X591535Y-206535D01*
X590319Y-208354D01*
X589892Y-210500D01*
Y-219500D01*
X590319Y-221646D01*
X591535Y-223465D01*
X593354Y-224681D01*
X595500Y-225108D01*
X604500D01*
X606646Y-224681D01*
X608465Y-223465D01*
X609681Y-221646D01*
X610108Y-219500D01*
Y-210500D01*
X609681Y-208354D01*
X608465Y-206535D01*
X606646Y-205319D01*
X604500Y-204892D01*
D02*
G37*
G36*
X567415Y-257920D02*
X565425D01*
X563588Y-258681D01*
X562181Y-260088D01*
X561420Y-261926D01*
Y-263915D01*
X562181Y-265752D01*
X563588Y-267159D01*
X565425Y-267920D01*
X567415D01*
X569252Y-267159D01*
X570659Y-265752D01*
X571420Y-263915D01*
Y-261926D01*
X570659Y-260088D01*
X569252Y-258681D01*
X567415Y-257920D01*
D02*
G37*
G36*
X576305Y-265510D02*
X574315D01*
X572478Y-266271D01*
X571071Y-267678D01*
X570310Y-269515D01*
Y-271505D01*
X571071Y-273342D01*
X572478Y-274749D01*
X574315Y-275510D01*
X576305D01*
X578142Y-274749D01*
X579549Y-273342D01*
X580310Y-271505D01*
Y-269515D01*
X579549Y-267678D01*
X578142Y-266271D01*
X576305Y-265510D01*
D02*
G37*
G36*
X602467Y-293958D02*
X600477D01*
X598640Y-294719D01*
X597233Y-296126D01*
X596472Y-297963D01*
Y-299953D01*
X597233Y-301790D01*
X598640Y-303197D01*
X600477Y-303958D01*
X602467D01*
X604304Y-303197D01*
X605711Y-301790D01*
X606472Y-299953D01*
Y-297963D01*
X605711Y-296126D01*
X604304Y-294719D01*
X602467Y-293958D01*
D02*
G37*
G36*
X654600Y-318327D02*
X654435Y-318360D01*
X654267Y-318349D01*
X653228Y-318485D01*
X653068Y-318539D01*
X652900Y-318550D01*
X651887Y-318821D01*
X651737Y-318896D01*
X651572Y-318929D01*
X650603Y-319330D01*
X650463Y-319423D01*
X650304Y-319477D01*
X649395Y-320001D01*
X649269Y-320112D01*
X649118Y-320187D01*
X648286Y-320825D01*
X648175Y-320951D01*
X648035Y-321045D01*
X647294Y-321786D01*
X647200Y-321926D01*
X647074Y-322037D01*
X646435Y-322869D01*
X646361Y-323020D01*
X646250Y-323146D01*
X645726Y-324055D01*
X645672Y-324214D01*
X645578Y-324354D01*
X645177Y-325323D01*
X645144Y-325488D01*
X645070Y-325639D01*
X644798Y-326651D01*
X644787Y-326819D01*
X644733Y-326979D01*
X644596Y-328018D01*
X644607Y-328186D01*
X644575Y-328351D01*
X644575Y-328876D01*
X644575Y-328876D01*
X644575Y-328877D01*
X644598Y-352852D01*
X644696Y-353345D01*
X644792Y-353825D01*
X644793Y-353826D01*
X644793Y-353827D01*
X645071Y-354243D01*
X645344Y-354652D01*
X645346Y-354653D01*
X645346Y-354654D01*
X645758Y-354928D01*
X646171Y-355205D01*
X646173Y-355205D01*
X646174Y-355205D01*
X646656Y-355301D01*
X647147Y-355398D01*
X663147Y-355399D01*
X663148Y-355398D01*
X663149Y-355399D01*
X663624Y-355304D01*
X664122Y-355205D01*
X664123Y-355204D01*
X664125Y-355204D01*
X664537Y-354927D01*
X664949Y-354652D01*
X664950Y-354651D01*
X664951Y-354650D01*
X665227Y-354236D01*
X665502Y-353825D01*
X665502Y-353824D01*
X665503Y-353823D01*
X665599Y-353337D01*
X665696Y-352850D01*
X665696Y-352848D01*
X665696Y-352847D01*
X665672Y-328873D01*
X665672Y-328872D01*
X665672Y-328351D01*
X665640Y-328186D01*
X665651Y-328018D01*
X665514Y-326978D01*
X665460Y-326819D01*
X665449Y-326651D01*
X665177Y-325639D01*
X665103Y-325488D01*
X665070Y-325323D01*
X664669Y-324354D01*
X664575Y-324214D01*
X664521Y-324055D01*
X663997Y-323147D01*
X663886Y-323020D01*
X663812Y-322869D01*
X663173Y-322038D01*
X663047Y-321927D01*
X662954Y-321787D01*
X662212Y-321045D01*
X662072Y-320952D01*
X661961Y-320826D01*
X661129Y-320187D01*
X660979Y-320113D01*
X660852Y-320002D01*
X659944Y-319478D01*
X659785Y-319424D01*
X659645Y-319330D01*
X658676Y-318929D01*
X658511Y-318896D01*
X658360Y-318822D01*
X657347Y-318550D01*
X657180Y-318539D01*
X657020Y-318485D01*
X655981Y-318349D01*
X655813Y-318360D01*
X655648Y-318327D01*
X655124Y-318327D01*
X654600Y-318327D01*
D02*
G37*
G36*
X553000D02*
X552835Y-318360D01*
X552667Y-318349D01*
X551628Y-318485D01*
X551468Y-318539D01*
X551300Y-318550D01*
X550287Y-318821D01*
X550136Y-318896D01*
X549972Y-318929D01*
X549003Y-319330D01*
X548863Y-319423D01*
X548704Y-319477D01*
X547795Y-320001D01*
X547669Y-320112D01*
X547518Y-320187D01*
X546686Y-320825D01*
X546575Y-320951D01*
X546435Y-321045D01*
X545694Y-321786D01*
X545600Y-321926D01*
X545474Y-322037D01*
X544835Y-322869D01*
X544761Y-323020D01*
X544650Y-323146D01*
X544126Y-324055D01*
X544072Y-324214D01*
X543978Y-324354D01*
X543577Y-325323D01*
X543544Y-325488D01*
X543470Y-325639D01*
X543198Y-326651D01*
X543187Y-326819D01*
X543133Y-326979D01*
X542996Y-328018D01*
X543008Y-328186D01*
X542975Y-328351D01*
X542975Y-328876D01*
X542975Y-328876D01*
X542975Y-328877D01*
X542998Y-352852D01*
X543096Y-353345D01*
X543192Y-353825D01*
X543193Y-353826D01*
X543193Y-353827D01*
X543471Y-354243D01*
X543744Y-354652D01*
X543745Y-354653D01*
X543746Y-354654D01*
X544158Y-354928D01*
X544571Y-355205D01*
X544573Y-355205D01*
X544574Y-355205D01*
X545056Y-355301D01*
X545547Y-355398D01*
X561547Y-355399D01*
X561548Y-355398D01*
X561549Y-355399D01*
X562024Y-355304D01*
X562522Y-355205D01*
X562523Y-355204D01*
X562525Y-355204D01*
X562937Y-354927D01*
X563349Y-354652D01*
X563350Y-354651D01*
X563351Y-354650D01*
X563627Y-354236D01*
X563902Y-353825D01*
X563902Y-353824D01*
X563903Y-353823D01*
X563999Y-353337D01*
X564096Y-352850D01*
X564096Y-352848D01*
X564096Y-352847D01*
X564072Y-328873D01*
X564072Y-328872D01*
X564072Y-328351D01*
X564040Y-328186D01*
X564051Y-328018D01*
X563914Y-326978D01*
X563860Y-326819D01*
X563849Y-326651D01*
X563577Y-325639D01*
X563503Y-325488D01*
X563470Y-325323D01*
X563069Y-324354D01*
X562975Y-324214D01*
X562921Y-324055D01*
X562397Y-323147D01*
X562286Y-323020D01*
X562212Y-322869D01*
X561573Y-322038D01*
X561447Y-321927D01*
X561354Y-321787D01*
X560612Y-321045D01*
X560472Y-320952D01*
X560361Y-320826D01*
X559529Y-320187D01*
X559379Y-320113D01*
X559252Y-320002D01*
X558344Y-319478D01*
X558185Y-319424D01*
X558045Y-319330D01*
X557076Y-318929D01*
X556911Y-318896D01*
X556760Y-318822D01*
X555747Y-318550D01*
X555580Y-318539D01*
X555420Y-318485D01*
X554381Y-318349D01*
X554213Y-318360D01*
X554048Y-318327D01*
X553524Y-318327D01*
X553000Y-318327D01*
D02*
G37*
G36*
X632263Y-318593D02*
Y-326335D01*
X640006D01*
X639817Y-325628D01*
X639741Y-325475D01*
X639708Y-325307D01*
X639306Y-324338D01*
X639212Y-324196D01*
X639157Y-324035D01*
X638632Y-323126D01*
X638520Y-322998D01*
X638444Y-322845D01*
X637806Y-322013D01*
X637677Y-321900D01*
X637582Y-321758D01*
X636841Y-321017D01*
X636699Y-320922D01*
X636586Y-320793D01*
X635754Y-320155D01*
X635601Y-320079D01*
X635472Y-319967D01*
X634564Y-319442D01*
X634403Y-319387D01*
X634260Y-319293D01*
X633292Y-318891D01*
X633124Y-318858D01*
X632971Y-318782D01*
X632263Y-318593D01*
D02*
G37*
G36*
X627183Y-318593D02*
X626477Y-318782D01*
X626324Y-318858D01*
X626156Y-318891D01*
X625187Y-319292D01*
X625045Y-319387D01*
X624883Y-319442D01*
X623975Y-319966D01*
X623846Y-320079D01*
X623693Y-320154D01*
X622861Y-320793D01*
X622748Y-320921D01*
X622606Y-321016D01*
X621865Y-321758D01*
X621770Y-321900D01*
X621641Y-322012D01*
X621003Y-322844D01*
X620927Y-322998D01*
X620815Y-323126D01*
X620290Y-324034D01*
X620235Y-324196D01*
X620140Y-324338D01*
X619739Y-325307D01*
X619706Y-325475D01*
X619630Y-325628D01*
X619441Y-326335D01*
X627183D01*
Y-318593D01*
D02*
G37*
G36*
X733500Y-204641D02*
X732540D01*
Y-210210D01*
X741150D01*
X740523Y-208695D01*
X739234Y-207016D01*
X737555Y-205727D01*
X735599Y-204917D01*
X733500Y-204641D01*
D02*
G37*
G36*
X727460D02*
X726500D01*
X724401Y-204917D01*
X722445Y-205727D01*
X720766Y-207016D01*
X719477Y-208695D01*
X718850Y-210210D01*
X727460D01*
Y-204641D01*
D02*
G37*
G36*
X702240Y-207964D02*
Y-213210D01*
X709080D01*
X708504Y-211821D01*
X707256Y-210194D01*
X705629Y-208946D01*
X703734Y-208160D01*
X702240Y-207964D01*
D02*
G37*
G36*
X709080Y-218290D02*
X702240D01*
Y-223536D01*
X703734Y-223340D01*
X705629Y-222554D01*
X707256Y-221306D01*
X708504Y-219679D01*
X709080Y-218290D01*
D02*
G37*
G36*
X704500Y-229851D02*
X702540D01*
Y-237460D01*
X710148D01*
Y-235500D01*
X709718Y-233338D01*
X708494Y-231506D01*
X706662Y-230282D01*
X704500Y-229851D01*
D02*
G37*
G36*
X710148Y-242540D02*
X702540D01*
Y-250149D01*
X704500D01*
X706662Y-249719D01*
X708494Y-248494D01*
X709718Y-246662D01*
X710148Y-244500D01*
Y-242540D01*
D02*
G37*
G36*
X702240Y-256464D02*
Y-261710D01*
X709080D01*
X708504Y-260321D01*
X707256Y-258694D01*
X705629Y-257446D01*
X703734Y-256660D01*
X702240Y-256464D01*
D02*
G37*
G36*
X709080Y-266790D02*
X702240D01*
Y-272036D01*
X703734Y-271840D01*
X705629Y-271054D01*
X707256Y-269806D01*
X708504Y-268179D01*
X709080Y-266790D01*
D02*
G37*
G36*
X741150Y-269790D02*
X732540D01*
Y-275359D01*
X733500D01*
X735599Y-275083D01*
X737555Y-274273D01*
X739234Y-272984D01*
X740523Y-271305D01*
X741150Y-269790D01*
D02*
G37*
G36*
X727460D02*
X718850D01*
X719477Y-271305D01*
X720766Y-272984D01*
X722445Y-274273D01*
X724401Y-275083D01*
X726500Y-275359D01*
X727460D01*
Y-269790D01*
D02*
G37*
G36*
X600680Y-382270D02*
X597312D01*
Y-382705D01*
X597573Y-384018D01*
X598317Y-385131D01*
X599430Y-385875D01*
X600680Y-386123D01*
Y-382270D01*
D02*
G37*
G36*
X-111540Y-413730D02*
X-122040D01*
Y-418357D01*
X-126540Y-420109D01*
X-126708Y-419941D01*
X-128545Y-419180D01*
X-130535D01*
X-132372Y-419941D01*
X-133779Y-421348D01*
X-134540Y-423185D01*
Y-425175D01*
X-133779Y-427012D01*
X-133109Y-427682D01*
Y-474980D01*
X-132837Y-476346D01*
X-132063Y-477503D01*
X-124443Y-485123D01*
X-123286Y-485897D01*
X-121920Y-486169D01*
X-101778D01*
X-90560Y-497387D01*
Y-498934D01*
X-90024Y-500228D01*
X-89888Y-500708D01*
X-90425Y-501774D01*
X-94393Y-504845D01*
X-94562Y-504833D01*
X-94681Y-504789D01*
X-95270Y-504395D01*
X-96520Y-504147D01*
Y-510540D01*
Y-516933D01*
X-95270Y-516685D01*
X-94681Y-516291D01*
X-94562Y-516247D01*
X-90326Y-515940D01*
X-89383Y-516280D01*
X-88834Y-516647D01*
X-87536Y-516905D01*
X-82584D01*
X-81286Y-516647D01*
X-81173Y-516572D01*
X-79740Y-515912D01*
X-77060D01*
X-75627Y-516572D01*
X-75514Y-516647D01*
X-74216Y-516905D01*
X-69264D01*
X-67966Y-516647D01*
X-67383Y-516258D01*
X-66419Y-515912D01*
X-63061D01*
X-62097Y-516258D01*
X-61514Y-516647D01*
X-60216Y-516905D01*
X-55264D01*
X-53966Y-516647D01*
X-52866Y-515912D01*
X-52131Y-514812D01*
X-51873Y-513515D01*
Y-507565D01*
X-52131Y-506268D01*
X-52866Y-505168D01*
X-52866Y-503212D01*
X-52131Y-502112D01*
X-51873Y-500815D01*
Y-497020D01*
X-32692Y-477839D01*
X-26320D01*
X-25975Y-477770D01*
X-7004D01*
X-6333Y-478773D01*
X15257Y-500363D01*
X16414Y-501137D01*
X17780Y-501409D01*
X21120D01*
X22241Y-503077D01*
X23113Y-505909D01*
X22883Y-506252D01*
X22622Y-507565D01*
Y-508000D01*
X28530D01*
Y-510540D01*
X31070D01*
Y-516933D01*
X32320Y-516685D01*
X32909Y-516291D01*
X33028Y-516247D01*
X37264Y-515940D01*
X38207Y-516280D01*
X38756Y-516647D01*
X40054Y-516905D01*
X45006D01*
X46304Y-516647D01*
X46417Y-516572D01*
X47850Y-515912D01*
X50530D01*
X51963Y-516572D01*
X52076Y-516647D01*
X53373Y-516905D01*
X58327D01*
X59624Y-516647D01*
X60207Y-516258D01*
X61171Y-515912D01*
X64529D01*
X65493Y-516258D01*
X66076Y-516647D01*
X67373Y-516905D01*
X72326D01*
X73624Y-516647D01*
X74724Y-515912D01*
X75459Y-514812D01*
X75717Y-513515D01*
Y-507565D01*
X75459Y-506268D01*
X74724Y-505168D01*
X74724Y-503212D01*
X75459Y-502112D01*
X75717Y-500814D01*
Y-496521D01*
X94400Y-477839D01*
X96650D01*
X96995Y-477770D01*
X114916D01*
X115587Y-478773D01*
X137177Y-500363D01*
X138334Y-501137D01*
X139700Y-501409D01*
X140500D01*
X141621Y-503077D01*
X142493Y-505909D01*
X142263Y-506252D01*
X142002Y-507565D01*
Y-508000D01*
X147910D01*
Y-510540D01*
X150450D01*
Y-516933D01*
X151700Y-516685D01*
X152289Y-516291D01*
X152408Y-516247D01*
X156644Y-515940D01*
X157586Y-516280D01*
X158136Y-516647D01*
X159433Y-516905D01*
X164387D01*
X165684Y-516647D01*
X167539Y-516017D01*
X170215Y-516390D01*
X171113Y-516916D01*
X171456Y-517145D01*
X172754Y-517403D01*
X177707D01*
X179004Y-517145D01*
X179587Y-516756D01*
X180551Y-516410D01*
X183909D01*
X184873Y-516756D01*
X185456Y-517145D01*
X186754Y-517403D01*
X191707D01*
X193004Y-517145D01*
X194104Y-516410D01*
X194839Y-515310D01*
X195097Y-514012D01*
Y-508064D01*
X194839Y-506766D01*
X194104Y-505637D01*
Y-503241D01*
X194839Y-502112D01*
X195097Y-500814D01*
Y-496521D01*
X213780Y-477839D01*
X217300D01*
X217645Y-477770D01*
X236300D01*
Y-458770D01*
X210300D01*
Y-464701D01*
X145300D01*
Y-458770D01*
X121679D01*
Y-453292D01*
X121407Y-451926D01*
X120633Y-450768D01*
X114382Y-444517D01*
X113224Y-443743D01*
X111858Y-443471D01*
X-48052D01*
X-67390Y-424133D01*
Y-423185D01*
X-68151Y-421348D01*
X-69558Y-419941D01*
X-71395Y-419180D01*
X-73385D01*
X-75222Y-419941D01*
X-76170Y-420889D01*
X-78740Y-421141D01*
X-81310Y-420889D01*
X-82258Y-419941D01*
X-84095Y-419180D01*
X-86085D01*
X-87922Y-419941D01*
X-89329Y-421348D01*
X-90090Y-423185D01*
Y-425175D01*
X-89329Y-427012D01*
X-87922Y-428419D01*
X-86085Y-429180D01*
X-85137D01*
X-59673Y-454643D01*
X-58516Y-455417D01*
X-57150Y-455689D01*
X-34224D01*
X-31000Y-458770D01*
Y-464701D01*
X-96000D01*
Y-458770D01*
X-122000D01*
Y-458770D01*
X-125971Y-457494D01*
Y-434183D01*
X-122040Y-432810D01*
X-121471Y-432810D01*
X-111540D01*
Y-423270D01*
Y-413730D01*
D02*
G37*
G36*
X236340D02*
X225840D01*
Y-420730D01*
X236340D01*
Y-413730D01*
D02*
G37*
G36*
X134840D02*
Y-420730D01*
X145340D01*
Y-413730D01*
X134840D01*
D02*
G37*
G36*
X14190D02*
Y-420730D01*
X24690D01*
Y-413730D01*
X14190D01*
D02*
G37*
G36*
X-95960D02*
X-106460D01*
Y-420730D01*
X-95960D01*
Y-413730D01*
D02*
G37*
G36*
X220760D02*
X210260D01*
Y-420730D01*
X220760D01*
Y-413730D01*
D02*
G37*
G36*
X100110D02*
X89610D01*
Y-420730D01*
X100110D01*
Y-413730D01*
D02*
G37*
G36*
X-20540D02*
X-31040D01*
Y-420730D01*
X-20540D01*
Y-413730D01*
D02*
G37*
G36*
X585513Y-425080D02*
X581660D01*
Y-428448D01*
X582094D01*
X583408Y-428187D01*
X584521Y-427443D01*
X585265Y-426330D01*
X585513Y-425080D01*
D02*
G37*
G36*
X562610D02*
X558757D01*
X559005Y-426330D01*
X559749Y-427443D01*
X560862Y-428187D01*
X562175Y-428448D01*
X562610D01*
Y-425080D01*
D02*
G37*
G36*
X236340Y-425810D02*
X225840D01*
Y-432810D01*
X236340D01*
Y-425810D01*
D02*
G37*
G36*
X220760D02*
X210260D01*
Y-432810D01*
X220760D01*
Y-425810D01*
D02*
G37*
G36*
X145340D02*
X134840D01*
Y-432810D01*
X145340D01*
Y-425810D01*
D02*
G37*
G36*
X24690D02*
X14190D01*
Y-432810D01*
X24690D01*
Y-425810D01*
D02*
G37*
G36*
X-95960D02*
X-106460D01*
Y-432810D01*
X-95960D01*
Y-425810D01*
D02*
G37*
G36*
X100110D02*
X89610D01*
Y-432810D01*
X100110D01*
Y-425810D01*
D02*
G37*
G36*
X-20540D02*
X-31040D01*
Y-432810D01*
X-20540D01*
Y-425810D01*
D02*
G37*
G36*
X119260Y-413730D02*
X115690D01*
X114760Y-413730D01*
X105190D01*
Y-423270D01*
Y-432810D01*
X114760D01*
X115690Y-432810D01*
X119260D01*
X120190Y-432810D01*
X129760D01*
Y-423270D01*
Y-413730D01*
X120190D01*
X119260Y-413730D01*
D02*
G37*
G36*
X-1390D02*
X-4960D01*
X-5890Y-413730D01*
X-15460D01*
Y-423270D01*
Y-432810D01*
X-5890D01*
X-4960Y-432810D01*
X-1390D01*
X-460Y-432810D01*
X9110D01*
Y-423270D01*
Y-413730D01*
X-460D01*
X-1390Y-413730D01*
D02*
G37*
G36*
X600680Y-443187D02*
X599430Y-443435D01*
X598317Y-444179D01*
X597573Y-445292D01*
X597312Y-446605D01*
Y-447040D01*
X600680D01*
Y-443187D01*
D02*
G37*
G36*
X494872Y-448280D02*
X493028D01*
X491248Y-448757D01*
X489652Y-449679D01*
X488349Y-450982D01*
X487427Y-452578D01*
X486950Y-454358D01*
Y-456202D01*
X487427Y-457982D01*
X488200Y-459321D01*
X488349Y-459578D01*
X488349Y-459579D01*
X489207Y-462280D01*
X488349Y-464981D01*
X488349Y-464982D01*
X488200Y-465239D01*
X487427Y-466578D01*
X486950Y-468358D01*
Y-470202D01*
X487427Y-471982D01*
X488349Y-473578D01*
X489652Y-474881D01*
X491248Y-475803D01*
X493028Y-476280D01*
X494872D01*
X496652Y-475803D01*
X498248Y-474881D01*
X499551Y-473578D01*
X500473Y-471982D01*
X500950Y-470202D01*
Y-468358D01*
X500473Y-466578D01*
X499700Y-465239D01*
X499551Y-464982D01*
X499551Y-464981D01*
X498693Y-462280D01*
X499551Y-459579D01*
X499551Y-459578D01*
X499700Y-459321D01*
X500473Y-457982D01*
X500950Y-456202D01*
Y-454358D01*
X500473Y-452578D01*
X499551Y-450982D01*
X498248Y-449679D01*
X496652Y-448757D01*
X494872Y-448280D01*
D02*
G37*
G36*
X-101600Y-504147D02*
X-102850Y-504395D01*
X-103963Y-505139D01*
X-104707Y-506252D01*
X-104968Y-507565D01*
Y-508000D01*
X-101600D01*
Y-504147D01*
D02*
G37*
G36*
X145370Y-513080D02*
X142002D01*
Y-513515D01*
X142263Y-514828D01*
X143007Y-515941D01*
X144120Y-516685D01*
X145370Y-516933D01*
Y-513080D01*
D02*
G37*
G36*
X25990D02*
X22622D01*
Y-513515D01*
X22883Y-514828D01*
X23627Y-515941D01*
X24740Y-516685D01*
X25990Y-516933D01*
Y-513080D01*
D02*
G37*
G36*
X-101600Y-513080D02*
X-104968D01*
Y-513515D01*
X-104707Y-514828D01*
X-103963Y-515941D01*
X-102850Y-516685D01*
X-101600Y-516933D01*
Y-513080D01*
D02*
G37*
G36*
X466120Y-410167D02*
Y-414020D01*
X469488D01*
Y-413586D01*
X469227Y-412272D01*
X468483Y-411159D01*
X467370Y-410415D01*
X466120Y-410167D01*
D02*
G37*
G36*
X637540Y-405172D02*
X637105D01*
X635792Y-405433D01*
X634679Y-406177D01*
X633935Y-407290D01*
X633687Y-408540D01*
X637540D01*
Y-405172D01*
D02*
G37*
G36*
X726630Y-406240D02*
X722630D01*
Y-410740D01*
X726630D01*
Y-406240D01*
D02*
G37*
G36*
X717550D02*
X713550D01*
Y-410740D01*
X717550D01*
Y-406240D01*
D02*
G37*
G36*
X726900Y-421760D02*
X717900D01*
Y-430760D01*
X726900D01*
Y-421760D01*
D02*
G37*
G36*
X712820D02*
X703820D01*
Y-430760D01*
X712820D01*
Y-421760D01*
D02*
G37*
G36*
X637540Y-427620D02*
X633687D01*
X633935Y-428870D01*
X634679Y-429983D01*
X635792Y-430727D01*
X637105Y-430988D01*
X637540D01*
Y-427620D01*
D02*
G37*
G36*
X675640Y-429396D02*
Y-431800D01*
X678044D01*
X677797Y-431202D01*
X676238Y-429643D01*
X675640Y-429396D01*
D02*
G37*
G36*
X670560Y-429396D02*
X669962Y-429643D01*
X668403Y-431202D01*
X668156Y-431800D01*
X670560D01*
Y-429396D01*
D02*
G37*
G36*
X634165Y-433112D02*
X633730D01*
Y-436480D01*
X637583D01*
X637335Y-435230D01*
X636591Y-434117D01*
X635478Y-433373D01*
X634165Y-433112D01*
D02*
G37*
G36*
X628650D02*
X628215D01*
X626902Y-433373D01*
X625789Y-434117D01*
X625045Y-435230D01*
X624797Y-436480D01*
X628650D01*
Y-433112D01*
D02*
G37*
G36*
X678044Y-436880D02*
X675640D01*
Y-439284D01*
X676238Y-439037D01*
X677797Y-437478D01*
X678044Y-436880D01*
D02*
G37*
G36*
X670560D02*
X668156D01*
X668403Y-437478D01*
X669962Y-439037D01*
X670560Y-439284D01*
Y-436880D01*
D02*
G37*
G36*
X726900Y-435840D02*
X717900D01*
Y-444840D01*
X726900D01*
Y-435840D01*
D02*
G37*
G36*
X712820D02*
X703820D01*
Y-444840D01*
X712820D01*
Y-435840D01*
D02*
G37*
G36*
X637583Y-441560D02*
X633730D01*
Y-444928D01*
X634165D01*
X635478Y-444667D01*
X636591Y-443923D01*
X637335Y-442810D01*
X637583Y-441560D01*
D02*
G37*
G36*
X628650D02*
X624797D01*
X625045Y-442810D01*
X625789Y-443923D01*
X626902Y-444667D01*
X628215Y-444928D01*
X628650D01*
Y-441560D01*
D02*
G37*
G36*
X675640Y-453526D02*
Y-455930D01*
X678044D01*
X677797Y-455332D01*
X676238Y-453773D01*
X675640Y-453526D01*
D02*
G37*
G36*
X670560Y-453526D02*
X669962Y-453773D01*
X668403Y-455332D01*
X668156Y-455930D01*
X670560D01*
Y-453526D01*
D02*
G37*
G36*
X678044Y-461010D02*
X675640D01*
Y-463414D01*
X676238Y-463167D01*
X677797Y-461608D01*
X678044Y-461010D01*
D02*
G37*
G36*
X670560D02*
X668156D01*
X668403Y-461608D01*
X669962Y-463167D01*
X670560Y-463414D01*
Y-461010D01*
D02*
G37*
G36*
X637648Y-479690D02*
X631190D01*
X624797D01*
X625045Y-480940D01*
X625260Y-481261D01*
Y-484440D01*
X631800D01*
X638340D01*
Y-479940D01*
X637853D01*
X637648Y-479690D01*
D02*
G37*
G36*
X638340Y-489520D02*
X634340D01*
Y-494020D01*
X638340D01*
Y-489520D01*
D02*
G37*
G36*
X629260D02*
X625260D01*
Y-494020D01*
X629260D01*
Y-489520D01*
D02*
G37*
G36*
X581190Y-479940D02*
X577190D01*
Y-484440D01*
X581190D01*
Y-479940D01*
D02*
G37*
G36*
X572110D02*
X568110D01*
Y-484440D01*
X572110D01*
Y-479940D01*
D02*
G37*
G36*
X-219710Y-491155D02*
Y-499110D01*
X-211755D01*
X-212191Y-497483D01*
X-213612Y-495022D01*
X-215622Y-493012D01*
X-218083Y-491591D01*
X-219710Y-491155D01*
D02*
G37*
G36*
X-211755Y-504190D02*
X-219710D01*
Y-512145D01*
X-218083Y-511709D01*
X-215622Y-510288D01*
X-213612Y-508278D01*
X-212191Y-505817D01*
X-211755Y-504190D01*
D02*
G37*
G36*
X647840Y-499940D02*
X643840D01*
Y-504440D01*
X647840D01*
Y-499940D01*
D02*
G37*
G36*
X590690D02*
X586690D01*
Y-504440D01*
X590690D01*
Y-499940D01*
D02*
G37*
G36*
X638760D02*
X634760D01*
Y-504440D01*
X638760D01*
Y-499940D01*
D02*
G37*
G36*
X581610D02*
X577610D01*
Y-504440D01*
X581610D01*
Y-499940D01*
D02*
G37*
G36*
X647840Y-509520D02*
X643840D01*
Y-514020D01*
X647840D01*
Y-509520D01*
D02*
G37*
G36*
X638760D02*
X634760D01*
Y-514020D01*
X638760D01*
Y-509520D01*
D02*
G37*
G36*
X590690D02*
X586690D01*
Y-514020D01*
X590690D01*
Y-509520D01*
D02*
G37*
G36*
X581610D02*
X577610D01*
Y-514020D01*
X581610D01*
Y-509520D01*
D02*
G37*
%LPD*%
G36*
G01X494723Y-151074D02*
G01X494700Y-127100D01*
G01X510700Y-127100D01*
G01X510723Y-151074D01*
G02X502723Y-159074I-7998J-1D01*
G02X494723Y-151074I-1J7999D01*
D02*
G37*
G36*
G01X443923D02*
G01X443900Y-127100D01*
G01X459900Y-127100D01*
G01X459923Y-151074D01*
G02X451923Y-159074I-7998J-1D01*
G02X443923Y-151074I-1J7999D01*
D02*
G37*
G36*
G01X469323D02*
G01X469300Y-127100D01*
G01X485300Y-127100D01*
G01X485323Y-151074D01*
G02X477323Y-159074I-7998J-1D01*
G02X469323Y-151074I-1J7999D01*
D02*
G37*
G36*
G01X520123D02*
G01X520100Y-127100D01*
G01X536100Y-127100D01*
G01X536123Y-151074D01*
G02X528123Y-159074I-7998J-1D01*
G02X520123Y-151074I-1J7999D01*
D02*
G37*
G36*
G01X723323D02*
G01X723300Y-127100D01*
G01X739300Y-127100D01*
G01X739323Y-151074D01*
G02X731323Y-159074I-7998J-1D01*
G02X723323Y-151074I-1J7999D01*
D02*
G37*
G36*
G01X256723Y-328875D02*
G01X256747Y-352850D01*
G01X240747Y-352850D01*
G01X240724Y-328875D01*
G02X248724Y-320876I7998J1D01*
G02X256723Y-328875I1J-7999D01*
D02*
G37*
G36*
G01X739323D02*
G01X739347Y-352850D01*
G01X723347Y-352850D01*
G01X723324Y-328875D01*
G02X731324Y-320876I7998J1D01*
G02X739323Y-328875I1J-7999D01*
D02*
G37*
G36*
G01X713923D02*
G01X713947Y-352850D01*
G01X697947Y-352850D01*
G01X697924Y-328875D01*
G02X705924Y-320876I7998J1D01*
G02X713923Y-328875I1J-7999D01*
D02*
G37*
G36*
G01X688523D02*
G01X688547Y-352850D01*
G01X672547Y-352850D01*
G01X672524Y-328875D01*
G02X680524Y-320876I7998J1D01*
G02X688523Y-328875I1J-7999D01*
D02*
G37*
G36*
G01X663123D02*
G01X663147Y-352850D01*
G01X647147Y-352850D01*
G01X647124Y-328875D01*
G02X655124Y-320876I7998J1D01*
G02X663123Y-328875I1J-7999D01*
D02*
G37*
G36*
G01X637723D02*
G01X637747Y-352850D01*
G01X621747Y-352850D01*
G01X621724Y-328875D01*
G02X629724Y-320876I7998J1D01*
G02X637723Y-328875I1J-7999D01*
D02*
G37*
G36*
G01X612323D02*
G01X612347Y-352850D01*
G01X596347Y-352850D01*
G01X596324Y-328875D01*
G02X604324Y-320876I7998J1D01*
G02X612323Y-328875I1J-7999D01*
D02*
G37*
G36*
G01X586923D02*
G01X586947Y-352850D01*
G01X570947Y-352850D01*
G01X570924Y-328875D01*
G02X578924Y-320876I7998J1D01*
G02X586923Y-328875I1J-7999D01*
D02*
G37*
G36*
G01X561523D02*
G01X561547Y-352850D01*
G01X545547Y-352850D01*
G01X545524Y-328875D01*
G02X553524Y-320876I7998J1D01*
G02X561523Y-328875I1J-7999D01*
D02*
G37*
G36*
G01X536123D02*
G01X536147Y-352850D01*
G01X520147Y-352850D01*
G01X520124Y-328875D01*
G02X528124Y-320876I7998J1D01*
G02X536123Y-328875I1J-7999D01*
D02*
G37*
G36*
G01X510723D02*
G01X510747Y-352850D01*
G01X494747Y-352850D01*
G01X494724Y-328875D01*
G02X502724Y-320876I7998J1D01*
G02X510723Y-328875I1J-7999D01*
D02*
G37*
G36*
G01X485323D02*
G01X485347Y-352850D01*
G01X469347Y-352850D01*
G01X469324Y-328875D01*
G02X477324Y-320876I7998J1D01*
G02X485323Y-328875I1J-7999D01*
D02*
G37*
G36*
G01X459923D02*
G01X459947Y-352850D01*
G01X443947Y-352850D01*
G01X443924Y-328875D01*
G02X451924Y-320876I7998J1D01*
G02X459923Y-328875I1J-7999D01*
D02*
G37*
G36*
G01X434523D02*
G01X434547Y-352850D01*
G01X418547Y-352850D01*
G01X418524Y-328875D01*
G02X426524Y-320876I7998J1D01*
G02X434523Y-328875I1J-7999D01*
D02*
G37*
G36*
G01X409123D02*
G01X409147Y-352850D01*
G01X393147Y-352850D01*
G01X393124Y-328875D01*
G02X401124Y-320876I7998J1D01*
G02X409123Y-328875I1J-7999D01*
D02*
G37*
G36*
G01X697923Y-151074D02*
G01X697900Y-127100D01*
G01X713900Y-127100D01*
G01X713923Y-151074D01*
G02X705923Y-159074I-7998J-1D01*
G02X697923Y-151074I-1J7999D01*
D02*
G37*
G36*
G01X672523D02*
G01X672500Y-127100D01*
G01X688500Y-127100D01*
G01X688523Y-151074D01*
G02X680523Y-159074I-7998J-1D01*
G02X672523Y-151074I-1J7999D01*
D02*
G37*
G36*
G01X647123D02*
G01X647100Y-127100D01*
G01X663100Y-127100D01*
G01X663123Y-151074D01*
G02X655123Y-159074I-7998J-1D01*
G02X647123Y-151074I-1J7999D01*
D02*
G37*
G36*
G01X621723D02*
G01X621700Y-127100D01*
G01X637700Y-127100D01*
G01X637723Y-151074D01*
G02X629723Y-159074I-7998J-1D01*
G02X621723Y-151074I-1J7999D01*
D02*
G37*
G36*
G01X596323D02*
G01X596300Y-127100D01*
G01X612300Y-127100D01*
G01X612323Y-151074D01*
G02X604323Y-159074I-7998J-1D01*
G02X596323Y-151074I-1J7999D01*
D02*
G37*
G36*
G01X570923D02*
G01X570900Y-127100D01*
G01X586900Y-127100D01*
G01X586923Y-151074D01*
G02X578923Y-159074I-7998J-1D01*
G02X570923Y-151074I-1J7999D01*
D02*
G37*
G36*
G01X545523D02*
G01X545500Y-127100D01*
G01X561500Y-127100D01*
G01X561523Y-151074D01*
G02X553523Y-159074I-7998J-1D01*
G02X545523Y-151074I-1J7999D01*
D02*
G37*
G36*
G01X418523D02*
G01X418500Y-127100D01*
G01X434500Y-127100D01*
G01X434523Y-151074D01*
G02X426523Y-159074I-7998J-1D01*
G02X418523Y-151074I-1J7999D01*
D02*
G37*
G36*
G01X393123D02*
G01X393100Y-127100D01*
G01X409100Y-127100D01*
G01X409123Y-151074D01*
G02X401123Y-159074I-7998J-1D01*
G02X393123Y-151074I-1J7999D01*
D02*
G37*
G36*
G01X367723D02*
G01X367700Y-127100D01*
G01X383700Y-127100D01*
G01X383723Y-151074D01*
G02X375723Y-159074I-7998J-1D01*
G02X367723Y-151074I-1J7999D01*
D02*
G37*
G36*
G01X342323D02*
G01X342300Y-127100D01*
G01X358300Y-127100D01*
G01X358323Y-151074D01*
G02X350323Y-159074I-7998J-1D01*
G02X342323Y-151074I-1J7999D01*
D02*
G37*
G36*
G01X316923D02*
G01X316900Y-127100D01*
G01X332900Y-127100D01*
G01X332923Y-151074D01*
G02X324923Y-159074I-7998J-1D01*
G02X316923Y-151074I-1J7999D01*
D02*
G37*
G36*
G01X291523D02*
G01X291500Y-127100D01*
G01X307500Y-127100D01*
G01X307523Y-151074D01*
G02X299523Y-159074I-7998J-1D01*
G02X291523Y-151074I-1J7999D01*
D02*
G37*
G36*
G01X266123D02*
G01X266100Y-127100D01*
G01X282100Y-127100D01*
G01X282123Y-151074D01*
G02X274123Y-159074I-7998J-1D01*
G02X266123Y-151074I-1J7999D01*
D02*
G37*
G36*
G01X240723D02*
G01X240700Y-127100D01*
G01X256700Y-127100D01*
G01X256723Y-151074D01*
G02X248723Y-159074I-7998J-1D01*
G02X240723Y-151074I-1J7999D01*
D02*
G37*
G36*
G01X282123Y-328875D02*
G01X282147Y-352850D01*
G01X266147Y-352850D01*
G01X266124Y-328875D01*
G02X274124Y-320876I7998J1D01*
G02X282123Y-328875I1J-7999D01*
D02*
G37*
G36*
G01X307523D02*
G01X307547Y-352850D01*
G01X291547Y-352850D01*
G01X291524Y-328875D01*
G02X299524Y-320876I7998J1D01*
G02X307523Y-328875I1J-7999D01*
D02*
G37*
G36*
G01X332923D02*
G01X332947Y-352850D01*
G01X316947Y-352850D01*
G01X316924Y-328875D01*
G02X324924Y-320876I7998J1D01*
G02X332923Y-328875I1J-7999D01*
D02*
G37*
G36*
G01X358323D02*
G01X358347Y-352850D01*
G01X342347Y-352850D01*
G01X342324Y-328875D01*
G02X350324Y-320876I7998J1D01*
G02X358323Y-328875I1J-7999D01*
D02*
G37*
G36*
G01X383723D02*
G01X383747Y-352850D01*
G01X367747Y-352850D01*
G01X367724Y-328875D01*
G02X375724Y-320876I7998J1D01*
G02X383723Y-328875I1J-7999D01*
D02*
G37*
D10*
X195580Y-116840D02*
Y-106060D01*
X195548Y-92385D02*
X195580Y-92417D01*
X185420Y-92710D02*
X185745Y-92385D01*
X195548D01*
X204049Y-74081D02*
X237338Y-40792D01*
X204049Y-326546D02*
Y-74081D01*
Y-326546D02*
X230563Y-353060D01*
X210820Y-83820D02*
X237338Y-57302D01*
X210820Y-327660D02*
X239010Y-355850D01*
X210820Y-327660D02*
Y-83820D01*
X368925Y-35995D02*
X369140Y-36210D01*
X368710Y-35780D02*
X368925Y-35995D01*
Y-35995D01*
Y-43285D02*
Y-35995D01*
X72225Y-92845D02*
X78423D01*
X72225D02*
X72360Y-92710D01*
X72090Y-92980D02*
X72225Y-92845D01*
X-2810Y-92710D02*
X-2675Y-92845D01*
X38100Y-128890D02*
Y-121377D01*
Y-135088D02*
Y-128890D01*
X-6960Y-133960D02*
X15240Y-111760D01*
X-2960Y-154305D02*
Y-136310D01*
X-1690Y-173570D02*
Y-155575D01*
X-2960Y-136310D02*
X20620Y-112730D01*
X-6960Y-163541D02*
X-6350Y-164151D01*
Y-206360D02*
Y-164151D01*
X-10960Y-176060D02*
Y-131610D01*
X-2960Y-154305D02*
X-1690Y-155575D01*
X-21590Y-186690D02*
X-10960Y-176060D01*
Y-131610D02*
X9510Y-111140D01*
X-6960Y-163541D02*
Y-133960D01*
X372110Y-386080D02*
X383540Y-374650D01*
X-162560Y-386080D02*
X372110D01*
X-236220Y-459740D02*
X-162560Y-386080D01*
X-165100Y-378460D02*
X367030D01*
X-260350Y-473710D02*
X-165100Y-378460D01*
X367030D02*
X375723Y-369767D01*
X362048Y-371879D02*
X363220Y-370708D01*
Y-320040D01*
X-108989Y-371879D02*
X362048D01*
X-217170Y-420370D02*
X-168910Y-372110D01*
X-109220D01*
X-108989Y-371879D01*
X-214551Y-410131D02*
X-168910Y-364490D01*
X349152D02*
X350323Y-363318D01*
X-179070Y-359410D02*
X222259D01*
X222679Y-358990D01*
X-168910Y-364490D02*
X349152D01*
X350323Y-363318D02*
Y-328875D01*
X-214630Y-378460D02*
X-185520Y-349350D01*
X219018Y-353060D02*
X230563D01*
X214368Y-348410D02*
X219018Y-353060D01*
X-185520Y-349350D02*
X103873D01*
X-214630Y-394970D02*
X-179070Y-359410D01*
X104813Y-348410D02*
X214368D01*
X103873Y-349350D02*
X104813Y-348410D01*
X449580Y-427492D02*
Y-416560D01*
Y-427990D02*
Y-427492D01*
X448945Y-417195D02*
X449580Y-416560D01*
X425450Y-417830D02*
X426085Y-417195D01*
X448945D01*
X424815Y-418465D02*
X425450Y-417830D01*
X403860Y-419100D02*
X404495Y-418465D01*
X424815D01*
X447278Y-425190D02*
X449580Y-427492D01*
X446780Y-425190D02*
X447278D01*
X398780Y-405130D02*
X448887D01*
X382156Y-416674D02*
X387236D01*
X378503Y-420327D02*
X382156Y-416674D01*
X387236D02*
X398780Y-405130D01*
X405130Y-396240D02*
X447802D01*
X389890D02*
X405130D01*
X382143Y-403355D02*
Y-403355D01*
X384494Y-401004D01*
X385126D01*
X389890Y-396240D01*
X-180340Y-429768D02*
X-155702Y-405130D01*
X380368D01*
X382143Y-403355D01*
X444500Y-478116D02*
X458363Y-491979D01*
X444500Y-478116D02*
Y-464525D01*
X442255Y-462280D02*
X444500Y-464525D01*
X353220Y-451108D02*
Y-419973D01*
X671210Y-408418D02*
Y-404720D01*
X654548Y-425080D02*
X671210Y-408418D01*
Y-404720D02*
X673340Y-402590D01*
X646802Y-418084D02*
X648421Y-416465D01*
X600358Y-418084D02*
X646802D01*
X598170Y-420272D02*
X600358Y-418084D01*
X648421Y-416465D02*
Y-416210D01*
X653552Y-411080D01*
X613360Y-22920D02*
Y-21420D01*
X617030Y-17750D01*
X611360Y-23420D02*
X612860D01*
X617030Y-17750D02*
X626110D01*
X612860Y-23420D02*
X613360Y-22920D01*
X-387096Y-508947D02*
Y-340614D01*
Y-508947D02*
X-362643Y-533400D01*
X-420370Y-307340D02*
X-387096Y-340614D01*
X468122Y-375920D02*
X514350D01*
X447802Y-396240D02*
X468122Y-375920D01*
X-187960Y-426143D02*
X-162375Y-400558D01*
X370332D01*
X382270Y-388620D01*
X-180340Y-527050D02*
Y-429768D01*
X133350Y-196850D02*
Y-87630D01*
X243891Y22911D01*
X579095Y-371730D02*
X652652D01*
X663702Y-360680D02*
X705923D01*
X652652Y-371730D02*
X663702Y-360680D01*
X688340Y-402590D02*
Y-371652D01*
X689610Y-370382D01*
Y-369570D01*
X549528Y-371730D02*
X574065D01*
X574095Y-371760D02*
X579065D01*
X574065Y-371730D02*
X574095Y-371760D01*
X493268Y-427990D02*
X549528Y-371730D01*
X579065Y-371760D02*
X579095Y-371730D01*
X463580Y-427990D02*
X493268D01*
X524258Y-383540D02*
X545848Y-361950D01*
X483870Y-383540D02*
X524258D01*
X545848Y-361950D02*
X566420D01*
X24130Y-129540D02*
X29308D01*
X24130Y-194310D02*
X33020Y-185420D01*
Y-162560D01*
X46990Y-148590D01*
X604323Y-355797D02*
Y-328875D01*
X594360Y-365760D02*
X604323Y-355797D01*
X596900Y-99060D02*
Y-80010D01*
X579120Y-116840D02*
X596900Y-99060D01*
X579120Y-150878D02*
Y-116840D01*
X-71740Y-497840D02*
Y-490900D01*
X175230Y-497840D02*
Y-490900D01*
X55850Y-497840D02*
Y-490900D01*
X354392Y-452280D02*
X409755D01*
X353220Y-451108D02*
X354392Y-452280D01*
X448887Y-405130D02*
X470477Y-383540D01*
X483870D01*
X383540Y-389198D02*
X384118Y-388620D01*
X443923D02*
X461893Y-370650D01*
X384118Y-388620D02*
X443923D01*
X383540Y-374650D02*
X434340D01*
X451923Y-357067D01*
X409755Y-485028D02*
X412185Y-487458D01*
Y-488270D02*
Y-487458D01*
X409755Y-485028D02*
Y-472280D01*
X626110Y-31750D02*
X633400D01*
X581621Y-27820D02*
X581741Y-27701D01*
X574690Y-27940D02*
X574809Y-27820D01*
X581621D01*
X585800Y-31420D02*
X597360D01*
X539630Y-39370D02*
X577850D01*
X585800Y-31420D01*
X586030Y-23420D02*
X597360D01*
X543560Y-15240D02*
X577850D01*
X586030Y-23420D01*
X409640Y-15940D02*
Y-15940D01*
X494360Y-21560D02*
X501650D01*
X421640Y-1270D02*
Y6020D01*
X336408Y-59360D02*
Y-52070D01*
X303215Y-55895D02*
X303230Y-55880D01*
X295925Y-55895D02*
X303215D01*
X295910Y-55880D02*
X295925Y-55895D01*
X-8738Y-92710D02*
X-2810D01*
X78423Y-92845D02*
X78558Y-92980D01*
X68610Y-44450D02*
X76230D01*
X38061Y-149741D02*
Y-143549D01*
X38021Y-149781D02*
X38061Y-149741D01*
Y-143549D02*
X38100Y-143510D01*
X45840Y-119500D02*
Y-112730D01*
Y-119500D02*
X46990Y-120650D01*
Y-148590D02*
Y-120650D01*
X15240Y-104980D02*
X18090D01*
X20620Y-112730D02*
X25840D01*
X15240Y-111760D02*
Y-104980D01*
X9510Y-102152D02*
X10682Y-100980D01*
X9510Y-111140D02*
Y-102152D01*
X19129Y-121999D02*
X19941D01*
X21739Y-120831D02*
X22590Y-119980D01*
X21109Y-120831D02*
X21739D01*
X19941Y-121999D02*
X21109Y-120831D01*
X29308Y-129540D02*
X30480Y-128368D01*
X22590Y-119980D02*
X27497D01*
X29840Y-117637D01*
X30480Y-122654D02*
X33840Y-119294D01*
X30480Y-128368D02*
Y-122654D01*
X157480Y-208280D02*
Y-91440D01*
X263831Y14911D01*
X147320Y-196752D02*
Y-87630D01*
X536040Y-35780D02*
Y-35780D01*
Y-35780D02*
X539630Y-39370D01*
X533440Y-35280D02*
X535540D01*
X536040Y-35780D01*
X538651Y-20149D02*
X543560Y-15240D01*
X533571Y-20149D02*
X538651D01*
X533440Y-20280D02*
X533571Y-20149D01*
X597360Y-23420D02*
X602540D01*
X527090Y-20280D02*
X533440D01*
X39370Y-163730D02*
X52307Y-150793D01*
X39370Y-191692D02*
Y-163730D01*
X52307Y-150793D02*
Y-118447D01*
X-1690Y-173570D02*
X8890Y-184150D01*
X52070Y-24130D02*
X74930D01*
X640080Y-411480D02*
Y-403860D01*
X463550Y-416560D02*
X471170D01*
X30840Y-88980D02*
X32340Y-87480D01*
X18090Y-88980D02*
X30840D01*
X43340Y-98480D02*
X44840Y-96980D01*
X57590D01*
X319582Y-27940D02*
X321742Y-25780D01*
X329890D01*
X318770Y-27940D02*
X319582D01*
X289100Y-20780D02*
X329890D01*
X237490Y-72390D02*
X289100Y-20780D01*
X433000Y-271241D02*
X447500D01*
X699700Y-239700D02*
X700000Y-240000D01*
X699700Y-239700D02*
Y-215750D01*
X728500Y-214250D02*
X730000Y-212750D01*
X701200Y-214250D02*
X728500D01*
X699700Y-215750D02*
X701200Y-214250D01*
X728500Y-265750D02*
X730000Y-267250D01*
X701200Y-265750D02*
X728500D01*
X699700Y-264250D02*
X701200Y-265750D01*
X730000Y-212750D02*
X730250Y-212500D01*
Y-201930D01*
X730000Y-267250D02*
X744500D01*
X574712Y-486918D02*
X585166D01*
X587198Y-488950D01*
X588010D01*
X553720Y-495550D02*
Y-473710D01*
X558880Y-468550D02*
X608260D01*
X553720Y-473710D02*
X558880Y-468550D01*
X553720Y-495550D02*
X565150Y-506980D01*
Y-519680D02*
Y-506980D01*
X595600Y-449580D02*
X603220D01*
X574650Y-486980D02*
X574712Y-486918D01*
X603220Y-387350D02*
Y-379730D01*
X607822Y-437896D02*
Y-428752D01*
X565150Y-430530D02*
Y-422910D01*
X579120Y-430530D02*
Y-422910D01*
X86360Y-92710D02*
X93980D01*
X68610Y-55880D02*
X76230D01*
X6398Y-96980D02*
X18090D01*
X-7620Y-105410D02*
X-2032D01*
X6398Y-96980D01*
X-7620Y-79756D02*
X-7366Y-80010D01*
X-1270D01*
X-16540Y-100330D02*
Y-92710D01*
X167150Y-315070D02*
X179170D01*
X167150Y-323850D02*
X179170D01*
X167150Y-332850D02*
X179170D01*
X56070Y-315021D02*
X68090D01*
X56070Y-323801D02*
X68090D01*
X56070Y-332801D02*
X68090D01*
X-50800Y-332740D02*
X-38780D01*
X-50800Y-323740D02*
X-38780D01*
X351170Y-52070D02*
Y-51572D01*
X348390Y-48792D02*
X351170Y-51572D01*
X-50800Y-314960D02*
X-38780D01*
X223300Y-422910D02*
X238760D01*
X-106000Y-510540D02*
X-99060D01*
X21590Y-510540D02*
X28530D01*
X140970D02*
X147910D01*
X140970Y-510540D02*
X140970Y-510540D01*
X-109000Y-423270D02*
X-108246Y-424024D01*
X-94294D01*
X-85090Y-424180D02*
X-57150Y-452120D01*
X-6350D01*
X-33460Y-423270D02*
X-18000D01*
X132300D02*
X147760D01*
X87190D02*
X102650D01*
X11650D02*
X27110D01*
X367308Y-20876D02*
X367760Y-21328D01*
X365910Y-19478D02*
X367308Y-20876D01*
X368258Y-21328D02*
X368258D01*
X367760D02*
X368258D01*
X368710Y-21780D01*
X367806Y-20876D02*
X368258Y-21328D01*
X367308Y-20876D02*
X367806D01*
X356986D02*
X367308D01*
X361950Y-15240D02*
X362524Y-15814D01*
X364323D01*
X365910Y-17401D01*
Y-19478D02*
Y-17401D01*
X350408Y-59690D02*
Y-52070D01*
X626110Y-17750D02*
Y-10130D01*
X435640Y-1270D02*
Y6350D01*
X494030Y-35560D02*
X501650D01*
X501790Y-35420D02*
X516100D01*
X501650Y-35560D02*
X501790Y-35420D01*
X516100D02*
X516240Y-35280D01*
X329890Y-30780D02*
Y-25780D01*
X348390Y-48792D02*
Y-39280D01*
X343390D02*
X348390D01*
X356890Y-20780D02*
X356986Y-20876D01*
X356890Y-25780D02*
Y-20780D01*
X437942Y-4070D02*
X438150D01*
X435640Y-1768D02*
Y-1270D01*
X441640Y-15560D02*
Y-7560D01*
X438150Y-4070D02*
X441640Y-7560D01*
X435640Y-1768D02*
X437942Y-4070D01*
X275590Y-99060D02*
X312420D01*
X337820Y-124460D01*
Y-159034D02*
Y-124460D01*
Y-159034D02*
X343886Y-165100D01*
X323937Y-120105D02*
Y-119293D01*
X326390Y-130455D02*
Y-122559D01*
X323937Y-120105D02*
X326390Y-122559D01*
X362123Y-165100D02*
X375723Y-151500D01*
X29840Y-117637D02*
Y-112730D01*
X343886Y-165100D02*
X362123D01*
X375723Y-151500D02*
Y-151075D01*
X33840Y-119294D02*
Y-112730D01*
X219710Y-313690D02*
Y-90170D01*
Y-313690D02*
X232410Y-326390D01*
X219710Y-90170D02*
X237490Y-72390D01*
X-133350Y-109220D02*
X-96710Y-72580D01*
X-133350Y-317500D02*
X-131620Y-319230D01*
Y-323850D02*
Y-319230D01*
X-133350Y-317500D02*
Y-109220D01*
X-143510Y-108066D02*
X-100024Y-64580D01*
X-145406Y-319396D02*
X-143510Y-317500D01*
Y-108066D01*
X-145406Y-323636D02*
Y-319396D01*
X-145620Y-323850D02*
X-145406Y-323636D01*
X230563Y-353060D02*
X237353Y-359850D01*
X-349250Y-518160D02*
X-340360Y-527050D01*
X-349250Y-518160D02*
Y-501650D01*
X-340360Y-527050D02*
X-251460D01*
X-236220Y-511810D01*
X-213360Y-533400D02*
X-187960Y-508000D01*
X-362643Y-533400D02*
X-213360D01*
X-187960Y-508000D02*
Y-434340D01*
Y-426143D01*
X350323Y-151075D02*
Y-92513D01*
X329890Y-72080D02*
X350323Y-92513D01*
X329890Y-72080D02*
Y-35780D01*
X309880Y-35560D02*
X326035D01*
X303530Y-41910D02*
X304028D01*
X306330Y-39608D02*
Y-39110D01*
X309880Y-35560D01*
X304028Y-41910D02*
X306330Y-39608D01*
X303530Y-41910D02*
Y-33020D01*
X-49530Y-447040D02*
X111858D01*
X-72390Y-424180D02*
X-49530Y-447040D01*
X111858D02*
X118110Y-453292D01*
X161910Y-510540D02*
X175230D01*
X118110Y-476250D02*
X139700Y-497840D01*
X161910D01*
X118110Y-476250D02*
Y-453292D01*
X161910Y-510540D02*
Y-497840D01*
Y-510540D02*
X161910Y-510540D01*
X-3043Y-72580D02*
X5357Y-80980D01*
X18090D01*
X-96710Y-72580D02*
X-3043D01*
X-85060Y-510540D02*
Y-497840D01*
X-85060Y-510540D02*
X-71740D01*
X-85060Y-510540D02*
X-85060Y-510540D01*
X-121920Y-482600D02*
X-100300D01*
X-85060Y-497840D01*
X-129540Y-474980D02*
Y-424180D01*
Y-474980D02*
X-121920Y-482600D01*
X29840Y-73230D02*
Y-66670D01*
X27750Y-64580D02*
X29840Y-66670D01*
X-100024Y-64580D02*
X27750D01*
X17780Y-497840D02*
X42530D01*
X42530Y-510540D02*
X55850D01*
X42530Y-510540D02*
Y-497840D01*
Y-510540D02*
X42530Y-510540D01*
X-3810Y-476250D02*
Y-454660D01*
X-6350Y-452120D02*
X-3810Y-454660D01*
Y-476250D02*
X17780Y-497840D01*
X0Y-68580D02*
X4650Y-73230D01*
X25840D01*
X-98367Y-68580D02*
X0D01*
X-138620Y-108833D02*
X-98367Y-68580D01*
X-138620Y-323850D02*
Y-108833D01*
X-57740Y-511038D02*
Y-510540D01*
X-109000Y-468270D02*
X-20320D01*
X-57740Y-510540D02*
Y-497840D01*
X-55438Y-495040D02*
X-54940D01*
X-34170Y-474270D02*
X-26320D01*
X-20320Y-468270D01*
X-57740Y-497840D02*
Y-497342D01*
X-55438Y-495040D01*
X-54940D02*
X-34170Y-474270D01*
X69850Y-497840D02*
Y-497342D01*
X92922Y-474270D01*
X96650D01*
X102650Y-468270D01*
X189230Y-511038D02*
Y-497840D01*
Y-511536D02*
Y-511038D01*
Y-497840D02*
Y-497342D01*
X212302Y-474270D01*
X217300D01*
X223300Y-468270D01*
X-265430Y-458470D02*
X-261620Y-454660D01*
X-273050Y-466090D02*
X-265430Y-458470D01*
X-287020Y-422910D02*
Y-227330D01*
Y-454660D02*
Y-422910D01*
X-312420Y-401320D02*
Y-227330D01*
Y-454660D02*
Y-401320D01*
X239010Y-355850D02*
X308790D01*
X237353Y-359850D02*
X320582D01*
X237338Y-25552D02*
X273801Y10911D01*
X167640Y-95250D02*
X237338Y-25552D01*
X167640Y-196850D02*
Y-95250D01*
X147320Y-87630D02*
X237338Y2388D01*
X253861Y18911D01*
X-261620Y-454660D02*
Y-227330D01*
X-273050Y-501650D02*
Y-466090D01*
Y-215900D02*
Y-203200D01*
X-298450Y-466090D02*
X-287020Y-454660D01*
X-273050Y-215900D02*
X-261620Y-227330D01*
X576580Y-351790D02*
Y-331218D01*
X566420Y-361950D02*
X576580Y-351790D01*
Y-331218D02*
X578923Y-328875D01*
X514350Y-375920D02*
X528123Y-362147D01*
X576580Y-365760D02*
X594360D01*
X418965Y-452280D02*
X428965Y-462280D01*
X442255D01*
X320582Y-359850D02*
X324923Y-355508D01*
X308790Y-355850D02*
X310547Y-354092D01*
X409755Y-452280D02*
X418965D01*
X451923Y-357067D02*
Y-328875D01*
X619125Y17145D02*
X647700Y-11430D01*
X-359980Y40070D02*
X594930D01*
X618490Y16510D01*
X-381380Y44070D02*
X604900D01*
X656590Y-149608D02*
Y-7620D01*
X604900Y44070D02*
X656590Y-7620D01*
X647700Y-97790D02*
Y-11430D01*
X631190Y-114300D02*
X647700Y-97790D01*
X-21590Y-206360D02*
X-21590Y-206360D01*
Y-194310D02*
Y-186690D01*
Y-206360D02*
Y-194310D01*
X-6350Y-206360D02*
X-6350Y-206360D01*
X-5080Y-220360D02*
X-4890Y-220550D01*
X8890Y-206360D02*
X8890Y-206360D01*
Y-194310D01*
X24130Y-206360D02*
X24130Y-206360D01*
Y-194310D01*
X38100Y-221630D02*
X39370Y-220360D01*
Y-206360D02*
X39370Y-206360D01*
Y-194310D01*
X50540Y-204058D02*
X52842Y-206360D01*
Y-220858D02*
X53340Y-220360D01*
Y-206360D02*
X53340Y-206360D01*
Y-194310D02*
X53665Y-193985D01*
X53340Y-206360D02*
Y-194310D01*
X54112Y-206360D02*
X54610D01*
X68580D02*
X68580Y-206360D01*
Y-194310D02*
X76200Y-186690D01*
X68580Y-206360D02*
Y-194310D01*
X82550Y-206360D02*
X82550Y-206360D01*
Y-194310D01*
X90170Y-187960D02*
X96520Y-194310D01*
X96520Y-206360D02*
X96520Y-206360D01*
Y-194310D01*
X43370Y-183690D02*
X53665Y-193985D01*
X90170Y-158750D02*
X109600Y-139320D01*
X90170Y-187960D02*
Y-158750D01*
X76200Y-186690D02*
Y-161100D01*
X101410Y-135890D01*
X82550Y-194310D02*
Y-160407D01*
X105410Y-137547D01*
X43370Y-167201D02*
X57590Y-152981D01*
X43370Y-183690D02*
Y-167201D01*
X8890Y-194310D02*
Y-184150D01*
X52842Y-231638D02*
Y-220858D01*
X43180Y-241300D02*
X52842Y-231638D01*
X43180Y-327911D02*
Y-241300D01*
X24130Y-231140D02*
Y-220360D01*
X33020Y-308351D02*
Y-240030D01*
X24130Y-231140D02*
X33020Y-240030D01*
X38290Y-332801D02*
X43180Y-327911D01*
X38100Y-234950D02*
X38100Y-234950D01*
X35813Y-320301D02*
X38100Y-318013D01*
Y-234950D01*
X26570Y-314801D02*
X33020Y-308351D01*
X26570Y-332801D02*
X38290D01*
X38100Y-234950D02*
Y-221630D01*
X26570Y-323801D02*
X32070D01*
X35570Y-320301D02*
X35813D01*
X32070Y-323801D02*
X35570Y-320301D01*
X68580Y-235527D02*
Y-220360D01*
X82550Y-243840D02*
Y-220360D01*
X96520Y-252153D02*
Y-220360D01*
X8890Y-233680D02*
Y-220360D01*
X-6350Y-242570D02*
Y-220360D01*
X-20320Y-250820D02*
Y-220360D01*
X105410Y-137547D02*
Y-83820D01*
X91600Y-70010D02*
X105410Y-83820D01*
X89943Y-74010D02*
X101410Y-85477D01*
Y-135890D02*
Y-85477D01*
X705923Y-73660D02*
Y-44370D01*
X-240030Y-420370D02*
X-217170D01*
X-214709Y-410131D02*
X-214551D01*
X-245110Y-415290D02*
X-240030Y-420370D01*
X-245110Y-415290D02*
Y-312420D01*
X-260350Y-509270D02*
Y-473710D01*
X-236220Y-511810D02*
Y-459740D01*
X237338Y-57302D02*
X286830Y-7810D01*
X324923Y-355508D02*
Y-328875D01*
X375723Y-369767D02*
Y-328875D01*
X237338Y-40792D02*
X274320Y-3810D01*
X401123Y-151075D02*
Y-97593D01*
X385908Y-82378D02*
X401123Y-97593D01*
X385908Y-82378D02*
Y-20492D01*
X369226Y-3810D02*
X385908Y-20492D01*
X363220Y-3810D02*
X369226D01*
X353060D02*
X363220D01*
X348390Y-8480D02*
X353060Y-3810D01*
X348390Y-17280D02*
Y-8480D01*
X369140Y-36210D02*
X369570D01*
X356890Y-35780D02*
X368710D01*
X326035Y-35560D02*
X326255Y-35780D01*
X329890D01*
X243891Y22911D02*
X365132D01*
X253861Y18911D02*
X363475D01*
X263831Y14911D02*
X361818D01*
X273801Y10911D02*
X360161D01*
X467593Y-67740D02*
X502723Y-102870D01*
X399130Y-59587D02*
Y-16744D01*
Y-59587D02*
X407283Y-67740D01*
X363475Y18911D02*
X399130Y-16744D01*
X407283Y-67740D02*
X467593D01*
X408940Y-63740D02*
X488993D01*
X405130Y-59930D02*
X408940Y-63740D01*
X405130Y-59930D02*
Y-17087D01*
X488993Y-63740D02*
X528123Y-102870D01*
X365132Y22911D02*
X405130Y-17087D01*
X286830Y-7810D02*
X335470D01*
X274320Y-3810D02*
X340360D01*
X338390Y-17280D02*
Y-10730D01*
X335470Y-7810D02*
X338390Y-10730D01*
X395130Y-64072D02*
Y-18401D01*
Y-64072D02*
X404798Y-73740D01*
X361818Y14911D02*
X395130Y-18401D01*
X477323Y-151075D02*
Y-102870D01*
X404798Y-73740D02*
X448193D01*
X477323Y-102870D01*
X502723Y-151075D02*
Y-102870D01*
X528123Y-151075D02*
Y-102870D01*
X390130Y-66143D02*
Y-19057D01*
Y-66143D02*
X402727Y-78740D01*
X360161Y10911D02*
X390130Y-19057D01*
X451923Y-151075D02*
Y-102870D01*
X402727Y-78740D02*
X427793D01*
X451923Y-102870D01*
X153180Y-329040D02*
Y-308813D01*
X149370Y-332850D02*
X153180Y-329040D01*
X149180Y-322678D02*
Y-310470D01*
X148008Y-323850D02*
X149180Y-322678D01*
X96520Y-252153D02*
X153180Y-308813D01*
X82550Y-243840D02*
X149180Y-310470D01*
X109600Y-139320D02*
Y-82353D01*
X366789Y26911D02*
X409640Y-15940D01*
X103111Y26911D02*
X366789D01*
X91440Y15240D02*
X103111Y26911D01*
X90170Y31750D02*
X367607D01*
X76200Y17780D02*
X90170Y31750D01*
X367607D02*
X413640Y-14283D01*
X-406590Y48070D02*
X613484D01*
X-411480Y52070D02*
X615141D01*
X-420370Y43180D02*
X-411480Y52070D01*
X615141D02*
X731323Y-64113D01*
X-420370Y12700D02*
Y43180D01*
X-415290Y39370D02*
X-406590Y48070D01*
X613484D02*
X705923Y-44370D01*
X-415290Y16510D02*
Y39370D01*
X-400050Y25400D02*
X-381380Y44070D01*
X-374650Y25400D02*
X-359980Y40070D01*
X413640Y-21803D02*
Y-14283D01*
X409640Y-38800D02*
Y-15940D01*
Y-38800D02*
X420370Y-49530D01*
X413640Y-21803D02*
X415397Y-23560D01*
X418720D01*
X419892Y-33812D02*
Y-24732D01*
X418720Y-23560D02*
X419892Y-24732D01*
Y-33812D02*
X421640Y-35560D01*
X420370Y-49530D02*
X427670D01*
X441640Y-35560D01*
X324923Y-151075D02*
Y-131922D01*
X326390Y-130455D01*
X363220Y-320040D02*
X370012Y-313248D01*
X390718D01*
X401123Y-323653D01*
Y-328875D02*
Y-323653D01*
X-270510Y-519430D02*
X-260350Y-509270D01*
X310523Y-323207D02*
X316230Y-317500D01*
X338949D02*
X350323Y-328875D01*
X316230Y-317500D02*
X338949D01*
X310523Y-327632D02*
X310547Y-327656D01*
X310523Y-327632D02*
Y-323207D01*
X310547Y-354092D02*
Y-327656D01*
X232410Y-326390D02*
X246238D01*
X248723Y-328875D01*
X-112453Y-1270D02*
X-88323Y22860D01*
X43180D02*
X50800Y15240D01*
X-88323Y22860D02*
X43180D01*
X48260Y27940D02*
X76200Y0D01*
X-88900Y27940D02*
X48260D01*
X-111760Y5080D02*
X-88900Y27940D01*
X-285848Y-214630D02*
Y12602D01*
X-285750Y-214630D02*
X-273050Y-227330D01*
X-285848Y-214630D02*
X-285750D01*
X-285848Y12602D02*
X-273050Y25400D01*
X-311248Y-214630D02*
Y12602D01*
Y-214630D02*
X-311150D01*
X-311248Y12602D02*
X-298450Y25400D01*
X-265430Y5080D02*
X-111760D01*
X-273050Y12700D02*
X-265430Y5080D01*
X-273050Y12700D02*
Y25400D01*
X50800Y0D02*
Y15240D01*
Y-17780D02*
Y0D01*
X-275590Y-1270D02*
X-112453D01*
X461893Y-370650D02*
X498030D01*
X528123Y-362147D02*
Y-328875D01*
X502723Y-365957D02*
Y-328875D01*
X498030Y-370650D02*
X502723Y-365957D01*
X-334010Y-519430D02*
X-270510D01*
X-337820Y-515620D02*
Y-491490D01*
Y-515620D02*
X-334010Y-519430D01*
X-342900Y-486410D02*
X-337820Y-491490D01*
X-359410Y-486410D02*
X-342900D01*
X-374650Y-501650D02*
X-359410Y-486410D01*
X-420370Y-223520D02*
X-400050Y-203200D01*
X-420370Y-307340D02*
Y-223520D01*
X631190Y-149608D02*
Y-114300D01*
X655123Y-151075D02*
X656590Y-149608D01*
X629723Y-151075D02*
X631190Y-149608D01*
X705923Y-151075D02*
Y-73660D01*
X731323Y-151075D02*
Y-64113D01*
X-368300Y6350D02*
X-349250Y25400D01*
X-405130Y6350D02*
X-368300D01*
X-415290Y16510D02*
X-405130Y6350D01*
X-347980Y1270D02*
X-323850Y25400D01*
X-408940Y1270D02*
X-347980D01*
X-420370Y12700D02*
X-408940Y1270D01*
X611525Y-31585D02*
X625945D01*
X604520Y-80010D02*
Y-25400D01*
X602540Y-23420D02*
X604520Y-25400D01*
X524510Y-22860D02*
X527090Y-20280D01*
X524510Y-38100D02*
Y-22860D01*
X425640Y-31027D02*
X429107Y-27560D01*
X459360D01*
X425640Y-31560D02*
Y-31027D01*
X421640Y-35560D02*
X425640Y-31560D01*
X520748Y-41862D02*
X524510Y-38100D01*
X459360Y-27560D02*
X473662Y-41862D01*
X604323Y-80207D02*
X604520Y-80010D01*
X604323Y-151075D02*
Y-80207D01*
X473662Y-41862D02*
X520748D01*
X76200Y0D02*
Y17780D01*
Y-22860D02*
Y0D01*
X74930Y-24130D02*
X76200Y-22860D01*
X46990Y-29210D02*
X52070Y-24130D01*
X46990Y-61516D02*
Y-29210D01*
X41840Y-66666D02*
X46990Y-61516D01*
X41840Y-69980D02*
Y-66666D01*
X41840Y-69980D02*
X41840Y-69980D01*
X41840Y-73230D02*
Y-69980D01*
X-273050Y-273050D02*
Y-227330D01*
X-298450Y-273050D02*
Y-227330D01*
X-311150Y-214630D02*
X-298450Y-227330D01*
X-323850Y-215900D02*
Y-203200D01*
Y-501650D02*
Y-466090D01*
X-312420Y-454660D01*
X-323850Y-215900D02*
X-312420Y-227330D01*
X-298450Y-215900D02*
Y-203200D01*
Y-501650D02*
Y-466090D01*
Y-215900D02*
X-287020Y-227330D01*
X605720Y-489900D02*
X622300Y-506480D01*
X605720Y-489900D02*
Y-473550D01*
X581920Y-406238D02*
Y-406140D01*
X579618Y-408540D02*
X581920Y-406238D01*
Y-406140D02*
X588010Y-400050D01*
X598220D01*
X591820Y-415290D02*
X598170Y-408940D01*
X610830D02*
X617220Y-402550D01*
X598170Y-408940D02*
X610830D01*
X617220Y-402550D02*
Y-400050D01*
X572398Y-415290D02*
X591820D01*
X565648Y-408540D02*
X572398Y-415290D01*
X565150Y-408540D02*
X565648D01*
X579120D02*
X579618D01*
X654050Y-425080D02*
X654548D01*
X653552Y-411080D02*
X654050D01*
X598170Y-427410D02*
Y-420272D01*
X597560Y-428020D02*
X598170Y-427410D01*
X622300Y-506980D02*
Y-506480D01*
X617220Y-463550D02*
Y-449580D01*
X625790Y-468550D02*
X628390Y-465950D01*
X630692Y-463150D02*
X631190D01*
X628390Y-465950D02*
Y-465452D01*
X630692Y-463150D01*
X619760Y-468550D02*
X625790D01*
X631190Y-463150D02*
Y-453020D01*
X622300Y-519680D02*
Y-506980D01*
X596900Y-80010D02*
Y-31880D01*
X343390Y-17280D02*
Y-6840D01*
X340360Y-3810D02*
X343390Y-6840D01*
X37840Y-73230D02*
Y-30740D01*
X50800Y-17780D01*
X33840Y-73230D02*
Y-62592D01*
X31750Y-60502D02*
Y-59690D01*
Y-60502D02*
X33840Y-62592D01*
X37840Y-73660D02*
Y-73230D01*
X52130Y-65980D02*
X54610Y-63500D01*
X48183Y-65980D02*
X52130D01*
X45840Y-73230D02*
Y-68323D01*
X48183Y-65980D01*
X54610Y-44450D02*
Y-31750D01*
Y-55880D02*
Y-44450D01*
Y-63500D02*
Y-55880D01*
X38100Y-121377D02*
X41840Y-117637D01*
Y-112730D01*
X-1270Y-80010D02*
X3700Y-84980D01*
X18090D01*
X-2540Y-92710D02*
X-2270Y-92980D01*
X18090D01*
X10682Y-100980D02*
X18090D01*
X49840Y-73660D02*
X62230D01*
X49840D02*
Y-73230D01*
X62230Y-73660D02*
X69880Y-66010D01*
X60840Y-80980D02*
X71810Y-70010D01*
X73940Y-74010D02*
X89943D01*
X62970Y-84980D02*
X73940Y-74010D01*
X71810Y-70010D02*
X91600D01*
X73660Y-80010D02*
X86360D01*
X64690Y-88980D02*
X73660Y-80010D01*
X93257Y-66010D02*
X109600Y-82353D01*
X69880Y-66010D02*
X93257D01*
X57590Y-80980D02*
X60840D01*
X57590Y-84980D02*
X62970D01*
X57590Y-88980D02*
X64690D01*
X57590Y-92980D02*
X72090D01*
X57590Y-100980D02*
X81930D01*
X86360Y-105410D01*
X132300Y-468270D02*
X223300D01*
X11650D02*
X102650D01*
X57590Y-152981D02*
Y-104980D01*
X49840Y-115980D02*
Y-112730D01*
Y-115980D02*
X52307Y-118447D01*
X135890Y-304800D02*
X136043Y-304647D01*
X68580Y-235527D02*
X136043Y-302990D01*
Y-304647D02*
Y-302990D01*
X135890Y-313350D02*
X137390Y-314850D01*
X137650D01*
X135890Y-313350D02*
Y-304800D01*
X137650Y-332850D02*
X149370D01*
X137650Y-323850D02*
X148008D01*
X-68770Y-304990D02*
X-6350Y-242570D01*
X-64770Y-307340D02*
X8890Y-233680D01*
X-79911Y-310412D02*
X-20320Y-250820D01*
X-64770Y-328930D02*
Y-307340D01*
X-80300Y-332740D02*
X-68580D01*
X-64770Y-328930D01*
X-68770Y-322568D02*
Y-304990D01*
X-80300Y-323740D02*
X-69942D01*
X-68770Y-322568D01*
X-79911Y-314352D02*
Y-310412D01*
X-80300Y-314740D02*
X-79911Y-314352D01*
X69850Y-511038D02*
Y-510540D01*
Y-497840D01*
X611360Y-31420D02*
X611525Y-31585D01*
X625945D02*
X626110Y-31750D01*
X421640Y-15560D02*
Y-1270D01*
X338390Y-39280D02*
X338415Y-39305D01*
Y-52045D02*
Y-39305D01*
Y-52045D02*
X338440Y-52070D01*
X553720Y-27940D02*
X560690D01*
X546100D02*
X553720D01*
X596900Y-31880D02*
X597360Y-31420D01*
X515740Y-25780D02*
X516240Y-25280D01*
X511216Y-25780D02*
X515740D01*
X509025Y-27971D02*
X511216Y-25780D01*
X508213Y-27971D02*
X509025D01*
X507970Y-21560D02*
X508750Y-20780D01*
X515740D02*
X516240Y-20280D01*
X501650Y-21560D02*
X507970D01*
X508750Y-20780D02*
X515740D01*
X453070Y-46990D02*
X529590D01*
X441640Y-35560D02*
X453070Y-46990D01*
X533440Y-43140D02*
Y-35280D01*
X529590Y-46990D02*
X533440Y-43140D01*
X578923Y-151075D02*
X579120Y-150878D01*
X541020Y-27940D02*
X546100D01*
X533440Y-25280D02*
X533940Y-25780D01*
X538860D01*
X541020Y-27940D01*
D20*
X132300Y-468270D02*
D03*
X223300D02*
D03*
X132300Y-423270D02*
D03*
X223300D02*
D03*
X11650Y-468270D02*
D03*
X102650D02*
D03*
X11650Y-423270D02*
D03*
X102650D02*
D03*
X-109000Y-468270D02*
D03*
X-18000D02*
D03*
X-109000Y-423270D02*
D03*
X-18000D02*
D03*
D21*
X86360Y-92710D02*
D03*
X72360D02*
D03*
X603220Y-449580D02*
D03*
X617220D02*
D03*
X68610Y-55880D02*
D03*
X54610D02*
D03*
X68610Y-44450D02*
D03*
X54610D02*
D03*
X560690Y-27940D02*
D03*
X574690D02*
D03*
X603220Y-379730D02*
D03*
X617220D02*
D03*
X449580Y-416560D02*
D03*
X463580D02*
D03*
Y-427990D02*
D03*
X449580D02*
D03*
X350408Y-52070D02*
D03*
X336408D02*
D03*
X28530Y-510540D02*
D03*
X42530D02*
D03*
X55850Y-510540D02*
D03*
X69850D02*
D03*
X-99060D02*
D03*
X-85060D02*
D03*
X-71740Y-510540D02*
D03*
X-57740D02*
D03*
Y-497840D02*
D03*
X-71740D02*
D03*
X147910Y-510540D02*
D03*
X161910D02*
D03*
X175230Y-511038D02*
D03*
X189230D02*
D03*
X69850Y-497840D02*
D03*
X55850D02*
D03*
X189230D02*
D03*
X175230D02*
D03*
X421640Y-1270D02*
D03*
X435640D02*
D03*
X-2540Y-92710D02*
D03*
X-16540D02*
D03*
D22*
X598220Y-400050D02*
D03*
X617220D02*
D03*
Y-428050D02*
D03*
X607720D02*
D03*
X598220D02*
D03*
D23*
X-50800Y-332960D02*
D03*
Y-323960D02*
D03*
Y-314960D02*
D03*
X-80300D02*
D03*
Y-323960D02*
D03*
Y-332960D02*
D03*
X137650Y-332850D02*
D03*
Y-323850D02*
D03*
Y-314850D02*
D03*
X167150D02*
D03*
Y-323850D02*
D03*
Y-332850D02*
D03*
X26570Y-332801D02*
D03*
Y-323801D02*
D03*
Y-314801D02*
D03*
X56070D02*
D03*
Y-323801D02*
D03*
Y-332801D02*
D03*
D24*
X37840Y-92980D02*
D03*
D25*
X25840Y-73230D02*
D03*
X29840D02*
D03*
X33840D02*
D03*
X37840D02*
D03*
X41840D02*
D03*
X45840D02*
D03*
X49840D02*
D03*
Y-112730D02*
D03*
X45840D02*
D03*
X41840D02*
D03*
X37840D02*
D03*
X33840D02*
D03*
X29840D02*
D03*
X25840D02*
D03*
D26*
X57590Y-80980D02*
D03*
Y-84980D02*
D03*
Y-88980D02*
D03*
Y-92980D02*
D03*
Y-96980D02*
D03*
Y-100980D02*
D03*
Y-104980D02*
D03*
X18090D02*
D03*
Y-100980D02*
D03*
Y-96980D02*
D03*
Y-92980D02*
D03*
Y-88980D02*
D03*
Y-84980D02*
D03*
Y-80980D02*
D03*
D27*
X409755Y-472280D02*
D03*
Y-452280D02*
D03*
D28*
X442255Y-462280D02*
D03*
D29*
X565150Y-422540D02*
D03*
Y-408540D02*
D03*
X579120Y-422540D02*
D03*
Y-408540D02*
D03*
X-6350Y-206360D02*
D03*
Y-220360D02*
D03*
X8890Y-206360D02*
D03*
Y-220360D02*
D03*
X24130Y-206360D02*
D03*
Y-220360D02*
D03*
X39370Y-206360D02*
D03*
Y-220360D02*
D03*
X53340Y-206360D02*
D03*
Y-220360D02*
D03*
X68580Y-206360D02*
D03*
Y-220360D02*
D03*
X82550Y-206360D02*
D03*
Y-220360D02*
D03*
X96520Y-206360D02*
D03*
Y-220360D02*
D03*
X-21590Y-206360D02*
D03*
Y-220360D02*
D03*
X195580Y-106060D02*
D03*
Y-92060D02*
D03*
X303530Y-55910D02*
D03*
Y-41910D02*
D03*
X501650Y-21560D02*
D03*
Y-35560D02*
D03*
X626110Y-17750D02*
D03*
Y-31750D02*
D03*
X631190Y-453020D02*
D03*
Y-439020D02*
D03*
X654050Y-411080D02*
D03*
Y-425080D02*
D03*
X640080Y-411080D02*
D03*
Y-425080D02*
D03*
X631190Y-477150D02*
D03*
Y-463150D02*
D03*
X368710Y-35780D02*
D03*
Y-21780D02*
D03*
X38100Y-128890D02*
D03*
Y-142890D02*
D03*
D30*
X565150Y-506980D02*
D03*
X584150D02*
D03*
X574650Y-486980D02*
D03*
X622300Y-506980D02*
D03*
X641300D02*
D03*
X631800Y-486980D02*
D03*
X729590Y-383700D02*
D03*
X710590D02*
D03*
X720090Y-403700D02*
D03*
D31*
X611360Y-23420D02*
D03*
Y-31420D02*
D03*
X597360D02*
D03*
Y-23420D02*
D03*
D32*
X516240Y-20280D02*
D03*
Y-25280D02*
D03*
Y-30280D02*
D03*
Y-35280D02*
D03*
X533440Y-20280D02*
D03*
Y-25280D02*
D03*
Y-30280D02*
D03*
Y-35280D02*
D03*
D33*
X441640Y-35560D02*
D03*
X421640D02*
D03*
X441640Y-15560D02*
D03*
X421640D02*
D03*
D34*
X688340Y-402590D02*
D03*
X673340D02*
D03*
D35*
X338390Y-17280D02*
D03*
X343390D02*
D03*
X348390D02*
D03*
Y-39280D02*
D03*
X343390D02*
D03*
X338390D02*
D03*
D36*
X356890Y-20780D02*
D03*
Y-25780D02*
D03*
Y-30780D02*
D03*
Y-35780D02*
D03*
X329890D02*
D03*
Y-30780D02*
D03*
Y-25780D02*
D03*
Y-20780D02*
D03*
D37*
X433000Y-296641D02*
D03*
Y-271241D02*
D03*
D38*
Y-245841D02*
D03*
D39*
X699700Y-264250D02*
D03*
Y-215750D02*
D03*
D40*
X730000Y-267250D02*
D03*
Y-212750D02*
D03*
D41*
X600000Y-215000D02*
D03*
X625000D02*
D03*
X650000D02*
D03*
X700000Y-240000D02*
D03*
X733000Y-250000D02*
D03*
Y-230000D02*
D03*
D55*
X606220Y-463550D02*
D03*
D56*
X617220D02*
D03*
Y-468550D02*
D03*
Y-473550D02*
D03*
X605720D02*
D03*
Y-468550D02*
D03*
D73*
X-460000Y-500000D02*
D03*
Y20000D02*
D03*
X710000Y-500000D02*
D03*
Y20000D02*
D03*
D74*
X458294Y-491910D02*
D03*
X294005Y-99060D02*
D03*
X546100Y-27940D02*
D03*
X-109220Y-372110D02*
D03*
X405130Y-396240D02*
D03*
X-7620Y-79756D02*
D03*
Y-105410D02*
D03*
X483870Y-383540D02*
D03*
X731520Y-359410D02*
D03*
X382270Y-388620D02*
D03*
X-21590Y-194310D02*
D03*
X-6350Y-195580D02*
D03*
X8890Y-194310D02*
D03*
X24130D02*
D03*
X39370D02*
D03*
X53340D02*
D03*
X68580D02*
D03*
X96520D02*
D03*
X82550D02*
D03*
X54610Y-31750D02*
D03*
X86360Y-80010D02*
D03*
Y-105410D02*
D03*
X-109220Y-386080D02*
D03*
X237338Y2388D02*
D03*
Y-25552D02*
D03*
Y-11582D02*
D03*
X237490Y-72390D02*
D03*
X237338Y-57302D02*
D03*
Y-40792D02*
D03*
X646430Y2540D02*
D03*
X565150Y-519680D02*
D03*
X622300D02*
D03*
X425450Y-417830D02*
D03*
X673100Y-434340D02*
D03*
X629920Y-359410D02*
D03*
X576580Y-365760D02*
D03*
X705923Y-369857D02*
D03*
X303530Y-30480D02*
D03*
X363220Y-3810D02*
D03*
X618490Y16510D02*
D03*
X237338Y16358D02*
D03*
X-74930Y-378460D02*
D03*
X705923Y-73660D02*
D03*
X731520Y-95250D02*
D03*
X-85060Y-497840D02*
D03*
X42530Y-497840D02*
D03*
X161910D02*
D03*
X673100Y-458470D02*
D03*
D75*
X705923Y-369857D02*
Y-360680D01*
X664210Y-379730D02*
X674370Y-369570D01*
X705923Y-360680D02*
Y-328875D01*
X674370Y-369570D02*
X689610D01*
X705923Y-379033D02*
Y-369857D01*
X617220Y-400050D02*
Y-379730D01*
X705923Y-379033D02*
X710590Y-383700D01*
X731323Y-381967D02*
Y-328875D01*
X729590Y-383700D02*
X731323Y-381967D01*
X617220Y-379730D02*
X664210D01*
D76*
X629920Y-359410D02*
Y-329071D01*
X629723Y-328875D02*
X629920Y-329071D01*
D77*
X493950Y-469280D02*
D03*
Y-455280D02*
D03*
D78*
X353060Y-419100D02*
D03*
D79*
X378460D02*
D03*
X403860D02*
D03*
D80*
X-222250Y-501650D02*
D03*
X-273050D02*
D03*
X-298450D02*
D03*
X-323850D02*
D03*
X-349250D02*
D03*
X-374650D02*
D03*
X-247650D02*
D03*
Y-273050D02*
D03*
X-374650D02*
D03*
X-349250D02*
D03*
X-323850D02*
D03*
X-298450D02*
D03*
X-273050D02*
D03*
X-222250D02*
D03*
Y25400D02*
D03*
X-273050D02*
D03*
X-298450D02*
D03*
X-323850D02*
D03*
X-349250D02*
D03*
X-374650D02*
D03*
X-247650D02*
D03*
Y-203200D02*
D03*
X-374650D02*
D03*
X-349250D02*
D03*
X-323850D02*
D03*
X-298450D02*
D03*
X-273050D02*
D03*
X-222250D02*
D03*
D81*
X-400050Y-501650D02*
D03*
Y-273050D02*
D03*
Y25400D02*
D03*
Y-203200D02*
D03*
D82*
X76200Y0D02*
D03*
X0D02*
D03*
X50800D02*
D03*
X25400D02*
D03*
D83*
X715360Y-433300D02*
D03*
D84*
Y-458700D02*
D03*
D85*
X730000Y-30000D02*
D03*
X715000Y-60000D02*
D03*
X700000Y-90000D02*
D03*
X715000Y-120000D02*
D03*
Y-180000D02*
D03*
X670000Y30000D02*
D03*
X685000Y-0D02*
D03*
X670000Y-510000D02*
D03*
X580000Y30000D02*
D03*
X550000D02*
D03*
X520000D02*
D03*
Y-210000D02*
D03*
Y-270000D02*
D03*
Y-390000D02*
D03*
X490000Y30000D02*
D03*
Y-210000D02*
D03*
X505000Y-240000D02*
D03*
X490000Y-270000D02*
D03*
X505000Y-300000D02*
D03*
X490000Y-390000D02*
D03*
X460000Y30000D02*
D03*
Y-210000D02*
D03*
X475000Y-240000D02*
D03*
X460000Y-270000D02*
D03*
X475000Y-300000D02*
D03*
Y-360000D02*
D03*
Y-480000D02*
D03*
X430000Y30000D02*
D03*
Y-210000D02*
D03*
Y-450000D02*
D03*
X400000Y30000D02*
D03*
Y-210000D02*
D03*
X415000Y-300000D02*
D03*
Y-360000D02*
D03*
X370000Y-210000D02*
D03*
X385000Y-240000D02*
D03*
X370000Y-270000D02*
D03*
X340000Y-210000D02*
D03*
X355000Y-240000D02*
D03*
X340000Y-270000D02*
D03*
X325000Y-420000D02*
D03*
X295000Y-120000D02*
D03*
Y-420000D02*
D03*
X265000D02*
D03*
X190000Y-150000D02*
D03*
Y-210000D02*
D03*
Y-270000D02*
D03*
Y-330000D02*
D03*
X205000Y-420000D02*
D03*
X175000Y-180000D02*
D03*
X160000Y-270000D02*
D03*
X175000Y-300000D02*
D03*
Y-420000D02*
D03*
X130000Y-270000D02*
D03*
X115000Y-240000D02*
D03*
Y-300000D02*
D03*
X100000Y-330000D02*
D03*
X70000Y30000D02*
D03*
Y-270000D02*
D03*
X85000Y-300000D02*
D03*
X55000Y-240000D02*
D03*
Y-300000D02*
D03*
Y-420000D02*
D03*
X10000Y-270000D02*
D03*
X25000Y-300000D02*
D03*
X10000Y-330000D02*
D03*
X-5000Y-300000D02*
D03*
X-20000Y-330000D02*
D03*
X-35000Y-240000D02*
D03*
X-50000Y-270000D02*
D03*
X-35000Y-300000D02*
D03*
X-80000Y-270000D02*
D03*
X-110000Y30000D02*
D03*
Y-270000D02*
D03*
X-95000Y-300000D02*
D03*
X-110000Y-330000D02*
D03*
X-140000Y30000D02*
D03*
X-125000Y-240000D02*
D03*
Y-300000D02*
D03*
X-170000Y30000D02*
D03*
Y-30000D02*
D03*
X-155000Y-240000D02*
D03*
X-170000Y-270000D02*
D03*
X-155000Y-300000D02*
D03*
X-170000Y-330000D02*
D03*
X-155000Y-420000D02*
D03*
X-200000Y30000D02*
D03*
Y-30000D02*
D03*
X-185000Y-240000D02*
D03*
X-200000Y-270000D02*
D03*
X-185000Y-300000D02*
D03*
X-200000Y-330000D02*
D03*
X-230000Y-30000D02*
D03*
X-215000Y-60000D02*
D03*
X-230000Y-90000D02*
D03*
X-215000Y-300000D02*
D03*
X-230000Y-330000D02*
D03*
X-215000Y-360000D02*
D03*
X-260000Y-30000D02*
D03*
X-245000Y-60000D02*
D03*
X-260000Y-90000D02*
D03*
X-275000Y-60000D02*
D03*
Y-120000D02*
D03*
Y-180000D02*
D03*
Y-300000D02*
D03*
Y-360000D02*
D03*
Y-420000D02*
D03*
X-305000Y-0D02*
D03*
X-320000Y-30000D02*
D03*
X-305000Y-60000D02*
D03*
X-320000Y-90000D02*
D03*
X-305000Y-120000D02*
D03*
X-320000Y-150000D02*
D03*
X-305000Y-180000D02*
D03*
Y-300000D02*
D03*
X-320000Y-330000D02*
D03*
X-305000Y-360000D02*
D03*
X-320000Y-390000D02*
D03*
X-305000Y-420000D02*
D03*
X-320000Y-450000D02*
D03*
X-305000Y-480000D02*
D03*
X-335000Y-0D02*
D03*
X-350000Y-30000D02*
D03*
X-335000Y-60000D02*
D03*
X-350000Y-90000D02*
D03*
X-335000Y-120000D02*
D03*
X-350000Y-150000D02*
D03*
X-335000Y-180000D02*
D03*
Y-300000D02*
D03*
X-350000Y-330000D02*
D03*
X-335000Y-360000D02*
D03*
X-350000Y-390000D02*
D03*
X-335000Y-420000D02*
D03*
X-350000Y-450000D02*
D03*
X-335000Y-480000D02*
D03*
X-380000Y-30000D02*
D03*
X-365000Y-60000D02*
D03*
X-380000Y-90000D02*
D03*
X-365000Y-120000D02*
D03*
X-380000Y-150000D02*
D03*
X-365000Y-180000D02*
D03*
Y-300000D02*
D03*
X-380000Y-330000D02*
D03*
X-365000Y-360000D02*
D03*
X-380000Y-390000D02*
D03*
X-365000Y-420000D02*
D03*
X-380000Y-450000D02*
D03*
X-365000Y-480000D02*
D03*
X-410000Y-30000D02*
D03*
X-395000Y-60000D02*
D03*
X-410000Y-90000D02*
D03*
X-395000Y-120000D02*
D03*
X-410000Y-150000D02*
D03*
X-395000Y-180000D02*
D03*
Y-240000D02*
D03*
Y-300000D02*
D03*
X-410000Y-330000D02*
D03*
X-395000Y-360000D02*
D03*
X-410000Y-390000D02*
D03*
X-395000Y-420000D02*
D03*
X-410000Y-450000D02*
D03*
X-395000Y-480000D02*
D03*
X-425000Y-0D02*
D03*
X-440000Y-30000D02*
D03*
X-425000Y-60000D02*
D03*
X-440000Y-90000D02*
D03*
X-425000Y-120000D02*
D03*
X-440000Y-150000D02*
D03*
X-425000Y-180000D02*
D03*
X-440000Y-210000D02*
D03*
Y-270000D02*
D03*
Y-330000D02*
D03*
X-425000Y-360000D02*
D03*
X-440000Y-390000D02*
D03*
X-425000Y-420000D02*
D03*
X-440000Y-450000D02*
D03*
X-425000Y-480000D02*
D03*
X-470000Y-30000D02*
D03*
X-455000Y-60000D02*
D03*
X-470000Y-90000D02*
D03*
X-455000Y-120000D02*
D03*
X-470000Y-150000D02*
D03*
X-455000Y-180000D02*
D03*
X-470000Y-210000D02*
D03*
X-455000Y-240000D02*
D03*
X-470000Y-270000D02*
D03*
X-455000Y-300000D02*
D03*
X-470000Y-330000D02*
D03*
X-455000Y-360000D02*
D03*
X-470000Y-390000D02*
D03*
X-455000Y-420000D02*
D03*
X-470000Y-450000D02*
D03*
X195580Y-116840D02*
D03*
X185420Y-92710D02*
D03*
X2540Y-148590D02*
D03*
X222679Y-358990D02*
D03*
X212090Y-353910D02*
D03*
X133350Y-196850D02*
D03*
X689610Y-369570D02*
D03*
X24130Y-129540D02*
D03*
X-180340Y-527050D02*
D03*
X599440Y-179040D02*
D03*
X581660Y-236250D02*
D03*
X566420Y-248920D02*
D03*
X601980Y-313690D02*
D03*
X679450D02*
D03*
X654050D02*
D03*
X628650D02*
D03*
X577850D02*
D03*
X553720D02*
D03*
X590550Y-161290D02*
D03*
X668020D02*
D03*
X642620D02*
D03*
X617220D02*
D03*
X566420D02*
D03*
X690880D02*
D03*
X542290Y-318770D02*
D03*
X690880D02*
D03*
X566420D02*
D03*
X617220D02*
D03*
X642620D02*
D03*
X668020D02*
D03*
X590550D02*
D03*
X591820Y-116840D02*
D03*
X689610D02*
D03*
X668020D02*
D03*
X642620D02*
D03*
X617220D02*
D03*
X566420D02*
D03*
X542290D02*
D03*
X-71740Y-490900D02*
D03*
X175230Y-490900D02*
D03*
X55850D02*
D03*
X412185Y-488270D02*
D03*
X469900Y-511810D02*
D03*
X633415Y-31765D02*
D03*
X581741Y-27701D02*
D03*
X494345Y-21545D02*
D03*
X421655Y6035D02*
D03*
X368910Y-43300D02*
D03*
X336393Y-59375D02*
D03*
X295910Y-55880D02*
D03*
X-8738Y-92710D02*
D03*
X38100Y-135088D02*
D03*
X78558Y-92980D02*
D03*
X76230Y-44450D02*
D03*
X38021Y-149781D02*
D03*
X19129Y-121999D02*
D03*
X-138430Y-424180D02*
D03*
X-63500D02*
D03*
X140970Y-191770D02*
D03*
X176530Y-196850D02*
D03*
X165100Y-208280D02*
D03*
X157480D02*
D03*
X147320Y-196850D02*
D03*
X420370Y-485140D02*
D03*
X553720Y-20740D02*
D03*
X275590Y-87630D02*
D03*
X39370Y15240D02*
D03*
X102870D02*
D03*
X-275590Y-12700D02*
D03*
X-269240Y-452120D02*
D03*
X-294640Y-422910D02*
D03*
X-320040Y-401320D02*
D03*
X-245110Y-304800D02*
D03*
X-171450Y-527050D02*
D03*
X-219710Y-403860D02*
D03*
X-218440Y-388620D02*
D03*
X-220980Y-372110D02*
D03*
X62230Y-35560D02*
D03*
X539496Y-60706D02*
D03*
X601472Y-298958D02*
D03*
X727600Y-308690D02*
D03*
X706120Y-170180D02*
D03*
X628650Y-172720D02*
D03*
X575310Y-270510D02*
D03*
X566420Y-262920D02*
D03*
X551180Y-193040D02*
D03*
X471170Y-416560D02*
D03*
X318770Y-27940D02*
D03*
X447500Y-271241D02*
D03*
X730250Y-201930D02*
D03*
X744500Y-267250D02*
D03*
X588010Y-488950D02*
D03*
Y-481330D02*
D03*
X566420Y-476250D02*
D03*
X595600Y-449580D02*
D03*
X574040Y-476250D02*
D03*
X581660D02*
D03*
X603220Y-387350D02*
D03*
X607822Y-437896D02*
D03*
X565150Y-430530D02*
D03*
X579120D02*
D03*
X640080Y-403860D02*
D03*
X93980Y-92710D02*
D03*
X76230Y-55880D02*
D03*
X-16540Y-100330D02*
D03*
X179170Y-315070D02*
D03*
Y-323850D02*
D03*
Y-332850D02*
D03*
X68090Y-315021D02*
D03*
Y-323801D02*
D03*
Y-332801D02*
D03*
X-38780Y-332740D02*
D03*
Y-323740D02*
D03*
Y-314960D02*
D03*
X-106000Y-510540D02*
D03*
X21590Y-510540D02*
D03*
X140970D02*
D03*
X-94294Y-424024D02*
D03*
X-85090Y-424180D02*
D03*
X-33460Y-423270D02*
D03*
X147760D02*
D03*
X87190D02*
D03*
X27110D02*
D03*
X238760Y-422910D02*
D03*
X361950Y-15240D02*
D03*
X350408Y-59690D02*
D03*
X626110Y-10130D02*
D03*
X435640Y6350D02*
D03*
X494030Y-35560D02*
D03*
X323937Y-119293D02*
D03*
X275590Y-99060D02*
D03*
X43340Y-98480D02*
D03*
X32340D02*
D03*
X43340Y-87480D02*
D03*
X32340D02*
D03*
X-72390Y-424180D02*
D03*
X-129540D02*
D03*
X-131620Y-323850D02*
D03*
X-145620D02*
D03*
X-138620D02*
D03*
X-265430Y-458470D02*
D03*
X-287020Y-422910D02*
D03*
X-312420Y-401320D02*
D03*
X-214630Y-378460D02*
D03*
X-214709Y-410131D02*
D03*
X167640Y-196850D02*
D03*
X-245110Y-312420D02*
D03*
X-214630Y-394970D02*
D03*
X-275590Y-1270D02*
D03*
X91440Y15240D02*
D03*
X50800D02*
D03*
X604520Y-80010D02*
D03*
X31750Y-59690D02*
D03*
X553720Y-27940D02*
D03*
X596900Y-80010D02*
D03*
X588010D02*
D03*
X613410D02*
D03*
X508213Y-27971D02*
D03*
D86*
X-79400Y0D02*
D03*
X155600Y-237999D02*
D03*
X-79400D02*
D03*
X155600Y0D02*
D03*
M02*
