M48
;Layer_Color=9474304
;FILE_FORMAT=4:4
METRIC,LZ
;TYPE=PLATED
T01F00S00C0.2000
T02F00S00C0.5500
T03F00S00C0.8890
T04F00S00C1.0200
T05F00S00C1.1000
T06F00S00C1.3000
T07F00S00C2.5000
T08F00S00C3.0000
%
T01
X-0047Y-0045
X-0044
X-0041
X-0038
X-0035
X-0032
X-00305Y-0042
X-0029464Y-0042291
X-0028702
X-00275Y-0042
X-0026924Y-0045212
X-0026543Y-0045847
X-00305Y-0048
X-00335
X-00365
X-00395
X-00425
Y-0042
X-00395
X-00365
X-00335
X-0032004Y-0040132
X-0031242
X-0032Y-0039
X-0035
X-0038
X-0041
X-0044
X-0047
X-00455Y-0036
X-00425
X-00395
X-00365
X-00335
X-00305
X-00275
X-00215
X-0022098Y-0037211
X-0021463Y-0037846
X-0021844Y-0038862
X-0021463Y-0039497
X-0021971Y-0040386
X-00214709Y-00410131
X-00155Y-0042
X-0013843Y-0042418
X-0012954
X-0013162Y-0032385
X-0013862
X-0014562
X-0017Y-0033
X-002
X-0023
X-0024511Y-0031242
Y-003048
X-00275Y-003
X-00305
X-00335
X-00365
X-00395
X-0038Y-0033
X-0035
X-0032
X-0041
X-0044
X-0047
X-00455Y-003
X-0044Y-0027
X-0047
X-00455Y-0024
X-0044Y-0021
X-0047
X-00455Y-0018
X-00425
X-00395
X-00365
X-00335
X-00305
X-00275
X-0032Y-0015
X-0035
X-0038
X-0041
X-0044
X-0047
X-00395Y-0024
X-00185
X-00155
X-00125
X-0011Y-0027
X-00125Y-003
X-00155
X-00185
X-00215
X-002Y-0027
X-0017
X-0011Y-0033
X-00106Y-0051054
X-0017145Y-0052705
X-0018034
X-00455Y-0042
X-00094294Y-00424024
X-0008509Y-0042418
X-0007239
X-000635
X-0003346Y-0042327
X0002711
X00055Y-0042
X0008719Y-0042327
X0014776
X00175Y-0042
X00205
X0023876Y-0042291
X00265Y-0042
X00222679Y-0035899
X0021209Y-0035391
X0019Y-0033
X0017917Y-0033285
Y-0032385
Y-0031507
X00175Y-003
X0019Y-0027
X0016
X0013
X00115Y-0024
Y-003
X00085
X00055
X0006809Y-00315021
Y-00323801
Y-00332801
X001Y-0033
X0007Y-0027
X00055Y-0024
X0001Y-0027
X00025Y-003
X-00005
X-00035
X-0003878Y-0031496
Y-0032374
Y-0033274
X-0002Y-0033
X0001
X-0005Y-0027
X-0008
X-00095Y-003
X-00035Y-0024
X0000254Y-0014859
X00038021Y-00149781
X0013335Y-0019685
X0014097Y-0019177
X0014732Y-0019685
X0016764
X0017653
X00175Y-0018
X001651Y-0020828
X0015748
X0019Y-0021
Y-0015
X0017523Y-004909
X0014097Y-0051054
X0005585Y-004909
X0002159Y-0051054
X-0007174Y-004909
X00295Y-0042
X00325
X0043Y-0045
X0042037Y-0048514
X00412185Y-0048827
X00475Y-0048
X004699Y-0051181
X0047117Y-0041656
X0049Y-0039
X0052
X00475Y-0036
Y-003
X00505
X0052Y-0027
X0049
X0046
X004475Y-00271241
X00475Y-0024
X00505
X0052Y-0021
X0049
X0046
X0043
X004
X0037
X0034
X00355Y-0024
X00385
X0037Y-0027
X0034
X00415Y-003
Y-0036
X0054229Y-0031877
X0055372Y-0031369
X0056642Y-0031877
X0057785Y-0031369
X0059055Y-0031877
X0060198Y-0031369
X00601472Y-00298958
X0061722Y-0031877
X0062865Y-0031369
X0064262Y-0031877
X0065405Y-0031369
X0066802Y-0031877
X0067945Y-0031369
X0068961Y-0036957
X0064008Y-0040386
X0060322Y-0038735
X00607822Y-00437896
X005956Y-0044958
X0057912Y-0043053
X0056515
X0056642Y-0047625
X0057404
X0058166
X0058801Y-0048133
Y-0048895
X0067Y-0051
X0057531Y-0027051
X0056642Y-0026292
Y-0024892
X0058166Y-0023625
X0055118Y-0019304
X0056642Y-0016129
X0059055
X0059944Y-0017904
X0061722Y-0016129
X0062865Y-0017272
X0064262Y-0016129
X0066802
X0069088
X0070612Y-0017018
X00715Y-0018
X0073025Y-0020193
X007445Y-0026725
X007276Y-0030869
X0069088Y-0031877
X00715Y-0012
X007Y-0009
X00715Y-0006
X0073Y-0003
X00685Y-0
X0067Y0003
X0062611Y-0001013
X00633415Y-00031765
X00581741Y-00027701
X0055372Y-0002794
Y-0002074
X00508213Y-00027971
X00494345Y-00021545
X0049403Y-0003556
X0049Y0003
X0052
X0055
X0058
X0058801Y-0008001
X005969
X0060452
X0061341
X0061722Y-0011684
X0059182
X0056642
X0054229
X00539496Y-00060706
X0064262Y-0011684
X0066802
X0068961
X00323937Y-00119293
X00295Y-0012
X0029591Y-0005588
X00336393Y-00059375
X00350408Y-0005969
X0036891Y-000433
X0036195Y-0001524
X0031877Y-0002794
X00421655Y00006035
X0043564Y0000635
X0043Y0003
X0046
X004
X0027559Y-0008763
Y-0009906
X0018542Y-0009271
X0019558Y-0011684
X0009398Y-0009271
X00078558Y-0009298
X0007623Y-0005588
Y-0004445
X0006223Y-0003556
X0003175Y-0005969
X0003234Y-0008748
Y-0009848
X0004334
Y-0008748
X000381Y-00135088
X0002413Y-0012954
X00019129Y-00121999
X-00008738Y-0009271
X-0001654Y-0010033
X0003937Y0001524
X000508
X0007Y0003
X0009144Y0001524
X0010287
X-0011Y0003
X-0014
X-0017
X-002
Y-0003
X-0017
X-0023
X-0026
X-0027559Y-000127
Y-0000127
X-00305Y-0
X-00335
X-0032Y-0003
X-0035
X-0038
X-0041
X-0044
X-0047
X-00455Y-0006
X-00425
X-00395
X-00365
X-00335
X-00305
X-00275
X-00245
X-00215
X-0023Y-0009
X-0026
X-00275Y-0012
X-00305
X-00335
X-00365
X-00395
X-00425
X-00455
X-0044Y-0009
X-0041
X-0038
X-0035
X-0032
X-0047
X-00425Y-0
T02
X0049395Y-0046928
Y-0045528
T03
X-0040005Y-0050165
X-0037465
X-0034925
X-0032385
X-0029845
X-0027305
X-0024765
X-0022225
Y-0027305
X-0024765
X-0027305
X-0029845
X-0032385
X-0034925
X-0037465
X-0040005
Y-002032
X-0037465
X-0034925
X-0032385
X-0029845
X-0027305
X-0024765
X-0022225
Y000254
X-0024765
X-0027305
X-0029845
X-0032385
X-0034925
X-0037465
X-0040005
T04
X0035306Y-004191
X0037846
X0040386
T05
X00248723Y-00328875
X00274123
Y-00151075
X00248723
X00299523
X00324923
X00350323
X00375723
X00401123
X00426523
X00451923
X00477323
X00502723
X00528123
X00553523
X00578923
X00604323
X00629723
X00655123
X00680523
Y-00328875
X00655123
X00629723
X00604323
X00578923
X00553523
X00528123
X00502723
X00477323
X00451923
X00426523
X00401123
X00375723
X00350323
X00324923
X00299523
X00705923
X00731323
Y-00151075
X00705923
X000762Y0
X000508
X000254
X0
T06
X0071536Y-004587
Y-004333
T07
X-000794Y-00237999
X001556
Y0
X-000794
T08
X-0046Y-005
X0071
Y0002
X-0046
M30
